<svg width="500" height="500" xmlns="http://www.w3.org/2000/svg" xmlns:xlink="http://www.w3.org/1999/xlink" version="1.1" enable-background="new 0 0 83 62.8">
 <symbol viewBox="0 -12.7 8.75 12.7" id="u">
  <path id="svg_1" fill-rule="evenodd" clip-rule="evenodd" d="m6,-1.55c0.1,0.633 0.317,1.15 0.65,1.55c-0.233,-0.7 -0.35,-1.317 -0.35,-1.85s0.05,-0.883 0.15,-1.05c0.133,-0.1 0.383,0.067 0.75,0.5s0.633,0.9 0.8,1.4c-0.1,-0.5 -0.267,-1 -0.5,-1.5s-0.567,-0.8 -1,-0.9l0.15,-2.55c0.467,0.1 0.883,0.417 1.25,0.95c0.367,0.567 0.65,1.133 0.85,1.7c-0.333,-1.267 -0.667,-2.15 -1,-2.65c-0.367,-0.5 -0.733,-0.716 -1.1,-0.65l-0.55,-1.95l-0.15,-0.4c-0.1,-0.2 0.167,-0.05 0.8,0.45c0.448,0.336 0.814,0.669 1.1,1c-0.717,-0.97 -1.234,-1.57 -1.55,-1.8c-0.4,-0.267 -0.667,-0.4 -0.8,-0.4c-0.433,-0.7 -1.183,-1.316 -2.25,-1.85c-1.033,-0.567 -2.117,-0.95 -3.25,-1.15c1.5,0.4 2.7,1.034 3.6,1.9l1.4,1.3c-0.933,0.033 -1.683,0.283 -2.25,0.75c-0.367,0.3 -0.683,0.667 -0.95,1.1l-0.25,0.55l0.45,-0.5c0.367,-0.367 0.717,-0.617 1.05,-0.75c0.533,-0.267 1.267,-0.45 2.2,-0.55c0.167,0.267 0.35,0.683 0.55,1.25l0.3,1.1c-1.167,0.167 -2,0.483 -2.5,0.95c-0.533,0.5 -0.934,1 -1.2,1.5c0.667,-0.8 1.4,-1.316 2.2,-1.55c0.8,-0.233 1.3,-0.333 1.5,-0.3c0.033,0.8 0.033,1.417 0,1.85l0,0.6c-0.767,0 -1.367,0.15 -1.8,0.45l-0.95,0.75l0.55,-0.25c0.467,-0.2 0.85,-0.317 1.15,-0.35l0.95,-0.1c-0.1,0.367 -0.1,0.85 0,1.45z"/>
 </symbol>
 <defs>
  <radialGradient gradientUnits="userSpaceOnUse" gradientTransform="matrix(5.672640800476074,0,0,-5.669818878173828,43.79519271850586,219.1923065185547)" r="9.225" cy="11.05" cx="25.3" id="m">
   <stop offset="0" stop-color="#A9E858"/>
   <stop offset="1" stop-color="#77A63A"/>
  </radialGradient>
  <radialGradient gradientUnits="userSpaceOnUse" gradientTransform="matrix(5.672640800476074,0,0,-5.670819282531738,43.79519271850586,213.4694366455078)" r="10.3" cy="10.55" cx="24.2" id="n">
   <stop offset="0.3255" stop-color="#A9E858"/>
   <stop offset="1" stop-color="#77A63A"/>
  </radialGradient>
  <radialGradient gradientUnits="userSpaceOnUse" gradientTransform="matrix(5.672640800476074,0,0,-5.8188934326171875,1.855095386505127,325.5951843261719)" r="12.338" cy="20.05" cx="58.45" id="o">
   <stop offset="0" stop-color="#A9E858"/>
   <stop offset="1" stop-color="#77A63A"/>
  </radialGradient>
  <radialGradient gradientUnits="userSpaceOnUse" gradientTransform="matrix(5.672640800476074,0,0,-5.81389045715332,1.855095386505127,317.3511047363281)" r="13.775" cy="19.35" cx="57" id="p">
   <stop offset="0.3255" stop-color="#A9E858"/>
   <stop offset="1" stop-color="#77A63A"/>
  </radialGradient>
  <radialGradient gradientUnits="userSpaceOnUse" gradientTransform="matrix(5.672640800476074,0,0,-5.814891338348389,1.855095386505127,387.74615478515625)" r="15.388" cy="25.4" cx="12.55" id="q">
   <stop offset="0" stop-color="#A9E858"/>
   <stop offset="1" stop-color="#77A63A"/>
  </radialGradient>
  <radialGradient gradientUnits="userSpaceOnUse" gradientTransform="matrix(5.672640800476074,0,0,-5.814891338348389,1.855095386505127,411.6079406738281)" r="16.25" cy="27.45" cx="10.5" id="r">
   <stop offset="0.3255" stop-color="#A9E858"/>
   <stop offset="1" stop-color="#77A63A"/>
  </radialGradient>
  <radialGradient gradientUnits="userSpaceOnUse" gradientTransform="matrix(5.672640800476074,0,0,-5.814891338348389,1.855095386505127,480.8324279785156)" r="16.725" cy="33.4" cx="42.05" id="s">
   <stop offset="0" stop-color="#A9E858"/>
   <stop offset="1" stop-color="#77A63A"/>
  </radialGradient>
  <radialGradient gradientUnits="userSpaceOnUse" gradientTransform="matrix(5.672640800476074,0,0,-5.814891338348389,1.855095386505127,506.4251403808594)" r="17.65" cy="35.6" cx="39.85" id="t">
   <stop offset="0.3255" stop-color="#A9E858"/>
   <stop offset="1" stop-color="#77A63A"/>
  </radialGradient>
 </defs>
 <symbol viewBox="0 -17.45 11.65 17.45" id="v">
  <path id="svg_2" fill-rule="evenodd" clip-rule="evenodd" d="m10.3,-8.15c-0.466,-0.667 -0.95,-0.967 -1.45,-0.9l-0.95,-3.25c-0.133,-0.267 0.233,-0.05 1.1,0.65c0.637,0.489 1.153,0.989 1.55,1.5c-1.021,-1.44 -1.754,-2.324 -2.2,-2.65c-0.5,-0.367 -0.833,-0.55 -1,-0.55c-0.633,-0.933 -1.65,-1.767 -3.05,-2.5c-1.4,-0.767 -2.833,-1.3 -4.3,-1.6c1.967,0.567 3.567,1.434 4.8,2.6l1.8,1.8c-1.2,0.066 -2.2,0.417 -3,1.05c-0.5,0.4 -0.9,0.9 -1.2,1.5l-0.35,0.75l0.6,-0.7c0.467,-0.5 0.934,-0.85 1.4,-1.05c0.7,-0.333 1.667,-0.583 2.9,-0.75c0.233,0.4 0.483,1 0.75,1.8l0.4,1.45c-1.567,0.233 -2.683,0.683 -3.35,1.35c-0.433,0.4 -0.833,0.867 -1.2,1.4l-0.4,0.65c0.867,-1.133 1.85,-1.85 2.95,-2.15c1.066,-0.333 1.75,-0.467 2.05,-0.4c0.033,1.066 0.033,1.9 0,2.5l-0.05,0.85c-1.033,0 -1.833,0.2 -2.4,0.6l-1.3,1.05l0.8,-0.35c0.6,-0.267 1.1,-0.433 1.5,-0.5c0.633,-0.1 1.05,-0.133 1.25,-0.1c-0.133,0.467 -0.133,1.133 0,2c0.167,0.867 0.467,1.567 0.9,2.1c-0.3,-0.967 -0.45,-1.817 -0.45,-2.55c0,-0.7 0.05,-1.184 0.15,-1.45c0.2,-0.133 0.55,0.1 1.05,0.7s0.833,1.233 1,1.9c-0.1,-0.7 -0.317,-1.383 -0.65,-2.05c-0.3,-0.7 -0.717,-1.117 -1.25,-1.25l0.15,-3.45c0.6,0.1 1.15,0.533 1.65,1.3s0.883,1.533 1.15,2.3c-0.433,-1.7 -0.883,-2.9 -1.35,-3.6z"/>
 </symbol>
 <symbol viewBox="0 -20.55 13.75 20.55" id="w">
  <path id="svg_3" fill-rule="evenodd" clip-rule="evenodd" d="m12.55,-1.65c-0.133,-0.833 -0.4,-1.65 -0.8,-2.45c-0.367,-0.8 -0.867,-1.283 -1.5,-1.45l0.1,-2.75c0,-0.467 0.033,-0.9 0.1,-1.3c0.7,0.1 1.35,0.6 1.95,1.5s1.05,1.817 1.35,2.75c-0.5,-2.033 -1.033,-3.45 -1.6,-4.25c-0.533,-0.833 -1.1,-1.2 -1.7,-1.1l-1.1,-3.8c-0.167,-0.3 0.267,-0.05 1.3,0.75c0.757,0.605 1.374,1.214 1.85,1.825c-1.226,-1.726 -2.109,-2.784 -2.65,-3.175c-0.6,-0.433 -1,-0.65 -1.2,-0.65c-0.733,-1.1 -1.917,-2.083 -3.55,-2.95c-1.667,-0.9 -3.367,-1.517 -5.1,-1.85c2.333,0.633 4.217,1.65 5.65,3.05l2.2,2.1c-1.467,0.066 -2.667,0.483 -3.6,1.25c-0.567,0.467 -1.05,1.05 -1.45,1.75l-0.4,0.85l0.7,-0.8c0.566,-0.566 1.117,-0.967 1.65,-1.2c0.867,-0.4 2.017,-0.7 3.45,-0.9c0.3,0.467 0.6,1.167 0.9,2.1l0.45,1.7c-1.833,0.3 -3.15,0.833 -3.95,1.6c-0.5,0.467 -0.95,1.017 -1.35,1.65l-0.5,0.75c1.033,-1.3 2.183,-2.15 3.45,-2.55c1.267,-0.367 2.066,-0.5 2.4,-0.4c0.033,1.267 0.033,2.233 0,2.9l-0.05,1c-1.2,0 -2.133,0.233 -2.8,0.7l-1.55,1.3l0.9,-0.45c0.733,-0.333 1.333,-0.533 1.8,-0.6c0.767,-0.1 1.267,-0.133 1.5,-0.1c-0.167,0.533 -0.167,1.317 0,2.35s0.517,1.867 1.05,2.5c-0.333,-1.167 -0.5,-2.167 -0.5,-3c0,-0.867 0.05,-1.45 0.15,-1.75c0.233,-0.167 0.65,0.117 1.25,0.85c0.567,0.733 0.967,1.483 1.2,2.25z"/>
 </symbol>
 <symbol viewBox="0 -22.35 14.95 22.35" id="x">
  <path id="svg_4" fill-rule="evenodd" clip-rule="evenodd" d="m11.35,0c-0.367,-1.233 -0.55,-2.317 -0.55,-3.25s0.067,-1.55 0.2,-1.85c0.233,-0.2 0.667,0.1 1.3,0.9c0.633,0.767 1.067,1.567 1.3,2.4c-0.133,-0.867 -0.4,-1.733 -0.8,-2.6c-0.433,-0.9 -1,-1.434 -1.7,-1.6l0.15,-3c0,-0.5 0.033,-0.983 0.1,-1.45c0.767,0.133 1.483,0.7 2.15,1.7c0.633,0.967 1.117,1.95 1.45,2.95c-0.567,-2.2 -1.15,-3.75 -1.75,-4.65c-0.6,-0.867 -1.217,-1.25 -1.85,-1.15l-1.2,-4.15c-0.167,-0.333 0.3,-0.067 1.4,0.8c0.945,0.773 1.695,1.531 2.25,2.275c-1.437,-2.042 -2.47,-3.284 -3.1,-3.725c-0.633,-0.434 -1.067,-0.65 -1.3,-0.65c-0.8,-1.2 -2.1,-2.284 -3.9,-3.25c-1.8,-0.967 -3.633,-1.65 -5.5,-2.05c2.533,0.7 4.583,1.817 6.15,3.35l2.35,2.25c-1.567,0.1 -2.867,0.567 -3.9,1.4c-0.633,0.533 -1.15,1.167 -1.55,1.9l-0.45,0.95l0.75,-0.9c0.633,-0.633 1.233,-1.067 1.8,-1.3c0.934,-0.433 2.184,-0.75 3.75,-0.95c0.333,0.467 0.667,1.217 1,2.25l0.45,1.85c-1.967,0.333 -3.4,0.917 -4.3,1.75c-0.533,0.533 -1.033,1.117 -1.5,1.75l-0.5,0.85c1.133,-1.433 2.383,-2.35 3.75,-2.75c1.4,-0.4 2.284,-0.566 2.65,-0.5c0.033,1.4 0.033,2.467 0,3.2l-0.1,1.1c-1.267,0 -2.283,0.25 -3.05,0.75c-0.466,0.3 -0.883,0.633 -1.25,1l-0.4,0.4l1,-0.5c0.733,-0.333 1.367,-0.533 1.9,-0.6c0.833,-0.133 1.383,-0.183 1.65,-0.15c-0.167,0.6 -0.167,1.45 0,2.55c0.2,1.1 0.583,2 1.15,2.7z"/>
 </symbol>
 <g>
  <title>Layer 1</title>
  <g id="svg_103">
   <path id="svg_5" fill-rule="evenodd" fill="#3C571C" clip-rule="evenodd" d="m287.74019,172.25897c2.6432,-5.2326 7.37365,-8.54425 14.1816,-9.89492c3.40397,-0.58029 6.5251,-0.67033 9.35361,-0.28014c-1.32648,0.19009 -2.73098,0.48024 -4.25253,0.87043c-2.6432,0.77038 -4.06721,1.94097 -4.26228,3.49174c0,1.36068 0.28285,3.11155 0.84856,5.2326c0.38039,2.71135 -0.28285,6.21309 -1.97996,10.48521c-2.27257,5.6228 -5.94964,10.75535 -11.07023,15.41767c-5.66679,5.2326 -11.62618,8.33414 -17.86843,9.31463c5.87161,-14.74733 10.88492,-26.30308 15.04966,-34.63722z"/>
   <path id="svg_6" fill-rule="evenodd" fill="#446120" clip-rule="evenodd" d="m278.93277,187.3965c5.87161,1.74087 12.00657,0.58029 18.44388,-3.50174c3.40397,-2.13106 6.14471,-4.45221 8.23196,-6.98347c-0.38039,4.27212 -1.89218,8.83439 -4.54514,13.6768c-5.10109,9.70483 -12.85512,16.39815 -23.26212,20.07998c-9.08052,3.10154 -21.07733,4.27212 -36.01971,3.49174c-15.31301,-0.97048 -19.66307,-2.23111 -13.04044,-3.78188c1.13141,-0.2001 8.22221,-4.65231 21.2724,-13.38666c13.60614,-8.14405 23.25236,-11.34564 28.91915,-9.59477z"/>
   <path id="svg_7" fill-rule="evenodd" fill="#6E9C33" clip-rule="evenodd" d="m204.05509,199.03228c31.76718,4.27212 46.89487,7.46371 45.38308,9.59477c-2.26281,2.52125 -5.38394,4.46222 -9.35361,5.8229c-7.55897,2.13106 -19.1949,2.91145 -34.8883,2.32115c-8.13443,-0.2001 -15.60561,-1.84092 -22.41356,-4.94246c-12.1041,-4.84241 -23.06705,-13.28661 -32.90834,-25.31259l-2.27257,-2.91145l9.36337,5.2326c6.99327,3.50174 12.57227,5.15256 16.73702,4.95246c7.93936,-0.2001 13.05019,-0.2001 15.32276,0c5.86186,0.58029 10.86541,2.33116 15.03016,5.24261z"/>
   <path id="svg_8" fill-rule="evenodd" fill="#6B9631" clip-rule="evenodd" d="m143.92471,148.10696l11.63594,22.70129c9.63647,16.2981 18.9023,27.54369 27.7975,33.74678c8.70013,6.21309 24.29599,10.19507 46.80709,11.92593c-6.80795,1.16058 -14.75706,1.46073 -23.82782,0.88044c-18.15128,-1.36068 -33.09365,-6.59328 -44.81737,-15.70781c-9.83154,-7.37367 -15.6934,-18.52921 -17.58558,-33.46664l0,-20.07998l-0.00975,0z"/>
   <path id="svg_9" fill-rule="evenodd" fill="#6B9630" clip-rule="evenodd" d="m274.96309,118.72235c0.19507,1.75087 -4.25253,3.0115 -13.32329,3.79189c-9.08052,0.58029 -14.46445,-0.2001 -16.17132,-2.33116c-1.51179,-1.74087 -3.02359,-4.75236 -4.53538,-9.01448l-1.69711,-5.53275c2.6432,-0.97048 5.19862,-3.10154 7.6565,-6.39318c1.13141,-1.55077 2.55542,-3.69184 4.26228,-6.40318c0.94609,-0.97048 2.45788,-0.78039 4.53538,0.58029c1.13141,0.78039 2.3701,1.65082 3.69658,2.6213c0.5657,0 1.50204,0.87043 2.82852,2.6213c0.76077,0.97048 1.8044,2.52125 3.12112,4.65231c1.51179,1.75087 3.2089,1.06053 5.10109,-2.04101l1.13141,2.04101c0.94609,1.16058 2.0775,1.36068 3.40397,0.59029l6.24225,-5.24261c-1.12165,2.71135 -2.26281,5.6328 -3.40397,8.73434c-2.08725,6.18307 -3.02359,9.97496 -2.84802,11.32563z"/>
   <path id="svg_10" fill-rule="evenodd" fill="#5C822A" clip-rule="evenodd" d="m186.46951,206.3059c-2.26281,-0.2001 -4.91577,-1.46073 -7.93936,-3.78188c-6.05693,-4.66232 -11.06048,-12.02598 -15.03991,-22.11099c-7.37365,-18.42916 -11.62618,-29.19452 -12.76734,-32.30606c-2.6432,-8.14405 -2.3701,-12.12603 0.84856,-11.92593c3.02359,0.2001 5.2864,-0.77038 6.80795,-2.91145l3.40397,-7.56376c3.40397,-3.68183 8.23196,-1.85092 14.46445,5.53275c3.6088,4.27212 7.01277,29.29456 10.22168,75.06732z"/>
   <path id="svg_11" fill-rule="evenodd" fill="#89BF3F" clip-rule="evenodd" d="m178.53015,116.98149l6.51534,-10.19507c6.62263,-6.98347 15.88847,-11.24559 27.7975,-12.79636c14.74731,-2.13106 27.51465,-0.97048 38.29227,3.49174c11.34333,4.65231 18.99983,12.21607 22.96951,22.69128c4.91577,12.22608 3.87214,26.29307 -3.12112,42.19098c-7.75404,17.65878 -19.37047,26.77331 -34.8883,27.3536c-16.83456,0.58029 -32.05003,-7.56376 -45.66593,-24.44215c-13.59639,-17.25858 -17.57582,-33.35658 -11.89928,-48.29401z"/>
   <path id="svg_12" fill-rule="evenodd" fill="#7BAB38" clip-rule="evenodd" d="m252.85189,134.15003c5.86186,-3.88193 10.11439,-8.14405 12.76734,-12.80637c2.83827,15.90791 2.36035,30.64524 -1.42401,44.23199c-2.26281,8.54425 -6.90548,13.38666 -13.89875,14.54723c-11.72372,0 -22.7842,0.59029 -33.19119,1.75087c-12.85512,1.54077 -20.90177,-1.85092 -24.11067,-10.19507c-1.13141,-9.49472 -2.17503,-14.92742 -3.12112,-16.2881c-3.40397,-5.6328 -4.73045,-10.09502 -3.96968,-13.38666c1.32648,-6.02299 9.92907,-6.88342 25.80778,-2.6213c15.70315,4.08203 29.40683,2.33116 41.1403,-5.2326z"/>
   <path id="svg_13" fill-rule="evenodd" fill="#689131" clip-rule="evenodd" d="m177.9547,120.47323c0.76077,-1.16058 1.32648,-3.10154 1.70686,-5.81289l10.49478,1.74087c7.75404,2.14106 13.89875,5.2326 18.44388,9.31463c3.02359,2.71135 4.4476,4.94246 4.25253,6.69333l5.39369,13.6768c4.91577,9.69482 10.39724,16.00796 16.45417,18.9094c4.35006,2.14106 8.3295,-1.26063 11.90903,-10.18506c1.32648,10.6653 0,17.35863 -3.96968,20.07998c-3.96968,2.52125 -26.28571,-7.56376 -66.93833,-30.25504c0.19507,-3.68183 0.47792,-7.46371 0.84856,-11.35565c0.55595,-7.76386 1.03387,-12.02598 1.40451,-12.80637z"/>
   <path id="svg_14" fill-rule="evenodd" fill="#A5E64C" clip-rule="evenodd" d="m258.22607,121.34366c1.70686,5.05251 1.60933,10.58526 -0.2731,16.58825c-1.14116,3.11155 -2.36035,5.6328 -3.68683,7.56376c1.32648,-7.17357 1.32648,-13.96694 0,-20.36012c-1.14116,-5.05251 -2.74074,-8.54425 -4.82799,-10.47521c-1.32648,-1.36068 -2.83827,-2.53126 -4.53538,-3.50174l-1.98972,-0.87043c-6.05693,-0.39019 -11.72372,-0.2001 -17.01987,0.59029c-3.21866,0.38019 -6.90548,1.84092 -11.06048,4.36217l-5.10109,3.78188l3.40397,-3.19159c2.6432,-2.52125 5.10109,-4.37217 7.37365,-5.53275c3.59904,-1.75087 9.4609,-2.52125 17.58558,-2.32115c-1.51179,-1.36068 -3.49176,-2.71135 -5.94964,-4.07202l-3.68683,-2.04101c-8.70013,0.2001 -15.31301,2.23111 -19.85814,6.11304l-10.49478,9.30463l1.97996,-3.19159c1.89218,-2.71135 4.16475,-5.04251 6.80795,-6.98347c3.96968,-3.29164 10.49478,-5.72285 19.56554,-7.27362c-3.02359,-1.35067 -5.57901,-2.13106 -7.6565,-2.32115c-2.26281,-0.39019 -5.76432,0.39019 -10.49478,2.32115c-5.67654,2.33116 -9.54868,5.4327 -11.62618,9.31463l-4.26228,8.43419c0,-1.54077 0.94609,-4.36217 2.83827,-8.43419c2.45788,-5.05251 5.10109,-8.14405 7.93936,-9.31463c4.35006,-2.13106 8.41728,-3.39169 12.19189,-3.78188c-5.48147,-0.78039 -9.1683,-0.87043 -11.06048,-0.29014l-2.83827,0.58029l5.67654,-1.46073c4.16475,-0.97048 7.47119,-1.26063 9.92907,-0.87043l1.98972,0.29014l7.37365,-1.46073c1.89218,0 3.40397,0.10005 4.53538,0.29014l-9.92907,2.04101l5.38394,2.6213l2.83827,1.74087l0,-0.88044c0.76077,-0.77038 2.6432,-1.55077 5.67654,-2.32115c4.73045,-1.36068 9.74376,-1.26063 15.03991,0.29014c-6.62263,-0.39019 -10.68985,-0.29014 -12.19189,0.29014l-5.95939,4.36217l5.39369,3.20159c1.32648,0.78039 2.36035,1.75087 3.12112,2.91145l1.98972,-2.32115c1.69711,-1.75087 3.68683,-2.8114 5.94964,-3.20159c3.58929,-0.77038 7.85157,-0.58029 12.76734,0.59029c-7.55897,-0.59029 -12.00657,0 -13.32329,1.74087c-0.95584,1.17058 -1.51179,2.33116 -1.70686,3.50174l0,1.46073l4.54514,1.75087c3.39422,1.90095 5.94964,5.39268 7.637,10.43519z"/>
   <path id="svg_15" fill-rule="evenodd" fill="url(#m)" clip-rule="evenodd" d="m168.17193,116.3912c0.57546,-0.10005 1.18993,-0.2001 1.84341,-0.29014l0.28285,0c1.05338,-1.8109 1.8044,-2.00099 2.27257,-0.58029c0.03901,0.12006 0.08778,0.2101 0.1463,0.29014c2.71148,-0.11005 5.50098,0.27013 8.36851,1.16058c1.51179,0.58029 6.33003,2.71135 14.46445,6.40318c6.80795,3.11155 11.62618,6.69333 14.46445,10.76535c0.38039,0.38019 1.98972,3.88193 4.81823,10.47521c2.6432,5.6328 6.14471,11.04549 10.49478,16.2881c5.29616,6.21309 10.77763,10.6653 16.45417,13.38666c5.29616,2.52125 8.60259,8.2441 9.92907,17.16854c1.14116,6.79338 6.252,9.70483 15.32276,8.73434c-4.73045,4.84241 -13.81097,8.82439 -27.2318,11.92593c-7.55897,1.55077 -16.06403,2.13106 -25.52493,1.74087c-18.71698,-0.77038 -32.33288,-6.01299 -40.84769,-15.70781c-10.9727,-12.60627 -15.6934,-27.34359 -14.1816,-44.22199c0.5657,-7.95395 3.40397,-18.81936 8.51481,-32.59621c0.66324,-1.67083 1.27771,-3.03151 1.83366,-4.07202c-0.15606,-0.09004 -0.29261,-0.19009 -0.4194,-0.28014c-0.40965,-0.29014 -0.74127,-0.49024 -1.00461,-0.59029zm-0.99486,1.17058c-0.18532,1.75087 -0.66324,2.6213 -1.41426,2.6213c-0.94609,0 -2.83827,0.98049 -5.67654,2.91145c-2.26281,1.55077 -3.12112,1.65082 -2.55542,0.29014c1.46303,-3.34166 4.77922,-5.6228 9.92907,-6.8434c-0.18532,0.24012 -0.28285,0.57028 -0.28285,1.02051z"/>
   <path id="svg_16" fill-rule="evenodd" fill="url(#n)" clip-rule="evenodd" d="m188.74208,125.99597c1.13141,-1.75087 2.27257,-3.39169 3.40397,-4.94246l-5.38394,13.66679l-1.13141,7.28362l7.37365,-2.04101c2.27257,-0.97048 5.95939,-3.68183 11.06048,-8.14405c-1.32648,1.94097 -3.78436,4.66232 -7.37365,8.14405c-2.27257,2.33116 -4.91577,3.88193 -7.93936,4.66232l-3.96968,0.29014l-1.42401,15.99795l2.83827,-0.28014c2.26281,-0.59029 4.4476,-1.36068 6.5251,-2.32115c3.40397,-1.55077 6.05693,-3.11155 7.93936,-4.66232l0.84856,-8.14405l2.55542,-5.81289l-0.28285,5.52275c0,2.33116 0.28285,4.27212 0.84856,5.8229l3.96968,-2.6213l5.10109,-4.37217c-2.0775,4.46222 -6.99327,8.83439 -14.74731,13.09651c-4.91577,2.71135 -9.08052,4.66232 -12.48449,5.8229l-3.40397,0.87043l0.28285,8.14405c0,3.88193 1.22894,9.21458 3.68683,16.00796l4.26228,0c3.58929,-0.2001 7.47119,-0.87043 11.62618,-2.03101c6.42756,-1.75087 10.58256,-3.59179 12.47474,-5.53275l-0.28285,-7.28362l1.42401,-8.72434l0.84856,6.98347c0.57546,3.49174 1.79465,5.71284 3.68683,6.69333l1.41426,-1.46073l10.77763,-9.01448c-4.53538,8.53424 -11.06048,15.12752 -19.57529,19.78984c-5.48147,2.90144 -11.34333,4.84241 -17.58558,5.81289l-7.66626,0.29014l1.42401,2.6213c1.32648,2.13106 3.21866,4.55226 5.67654,7.27362c3.78436,4.46222 10.21192,7.47372 19.29244,9.01448l-8.78791,0.29014c-3.58929,0 -7.18834,-1.06053 -10.77763,-3.19159c-2.27257,-1.36068 -4.73045,-4.37217 -7.37365,-9.01448l-3.40397,-6.69333c-7.37365,-4.46222 -13.04044,-10.28511 -17.01987,-17.45868c-2.27257,-4.66232 -3.96968,-9.70483 -5.10109,-15.13753l-0.84856,-6.97347l1.98972,8.43419c0.76077,3.11155 2.0775,5.72285 3.96968,7.8539l0.5657,-6.40318c0.18532,-2.13106 0.18532,-3.97197 0,-5.53275l-0.28285,-1.74087l1.41426,2.03101c0.76077,1.94097 1.22894,3.97197 1.42401,6.10303c0.19507,3.50174 -0.28285,6.41319 -1.42401,8.73434l3.12112,4.07202c1.89218,2.52125 5.49123,6.01299 10.77763,10.47521l-1.69711,-5.2326c-0.75102,-2.14106 -1.32648,-6.11304 -1.69711,-11.92593l-0.28285,-7.8539c-6.42756,-4.46222 -10.58256,-9.01448 -12.47474,-13.6768c-1.13141,-2.91145 -1.79465,-5.53275 -1.98972,-7.8539l0,-2.91145l0.84856,4.95246c0.38039,1.93096 1.22894,3.68183 2.55542,5.2326l0.84856,-3.50174c0.57546,-1.36068 0.94609,-3.88193 1.13141,-7.56376l0,8.14405l-0.5657,4.94246l4.53538,4.94246c2.0775,2.33116 3.96968,3.78188 5.67654,4.37217c0,-1.94097 0.28285,-4.46222 0.84856,-7.56376l1.70686,-8.14405c-5.11084,-2.91145 -8.31974,-6.49323 -9.64622,-10.76535c-0.76077,-2.71135 -1.22894,-5.04251 -1.42401,-6.98347l0,-2.03101l0.5657,4.07202c0.5657,3.10154 1.79465,5.81289 3.68683,8.14405c2.83827,3.68183 5.29616,5.33265 7.37365,4.94246l1.70686,-8.4442c0.36088,-1.55077 1.68736,-4.07202 3.95992,-7.56376z"/>
   <path id="svg_17" fill-rule="evenodd" fill="#6F9C32" clip-rule="evenodd" d="m215.11557,149.27755c4.53538,7.57377 8.41728,12.99646 11.62618,16.2981c5.48147,5.04251 9.74376,8.34415 12.76734,9.88491c-2.83827,7.37367 -5.29616,12.12603 -7.37365,14.26709c-1.89218,2.13106 -26.56856,-2.6213 -74.03888,-14.26709l1.14116,-20.36012l3.40397,1.16058c3.2089,0.2001 7.37365,-0.77038 12.47474,-2.91145c4.91577,-2.13106 11.15801,-2.8114 18.71698,-2.03101c4.15499,0.39019 8.70013,0.97048 13.6159,1.75087c2.83827,0.19009 4.4476,0.19009 4.81823,0c0.76077,-0.59029 0.66324,-2.24111 -0.28285,-4.95246l-2.55542,-9.01448l5.6863,10.17506z"/>
   <path id="svg_18" fill-rule="evenodd" fill="#90CC3F" clip-rule="evenodd" d="m295.11384,175.17042c-3.21866,10.6653 -11.34333,18.22906 -24.39353,22.69128c-20.05321,7.18357 -43.20804,11.93593 -69.49375,14.26709l16.45417,-7.57377c11.72372,-8.33414 19.66307,-20.36012 23.82782,-36.06793c3.40397,-12.99646 5.0133,-24.15201 4.82799,-33.46664c0,-7.17357 0.09754,-10.96545 0.2731,-11.34564c1.14116,-1.36068 2.6432,-2.33116 4.54514,-2.91145c0.94609,-0.39019 4.35006,-0.97048 10.21192,-1.75087c4.53538,-0.77038 7.93936,-2.32115 10.21192,-4.65231c1.32648,-1.36068 2.74074,-4.07202 4.26228,-8.14405c1.51179,-4.46222 3.30644,-6.98347 5.38394,-7.56376c-1.50204,2.33116 -2.6432,4.85241 -3.40397,7.56376c-1.69711,5.81289 -0.94609,10.08501 2.27257,12.79636c3.95992,3.30164 7.47119,8.14405 10.48502,14.54723c3.40397,6.40318 5.19862,12.41617 5.39369,18.04897c0.74127,11.0555 0.45841,18.9094 -0.85831,23.56171z"/>
   <path id="svg_19" fill-rule="evenodd" fill="#6A9431" clip-rule="evenodd" d="m296.8012,175.17042c-3.2089,10.6653 -11.2458,18.22906 -24.11067,22.69128c-20.04346,7.18357 -43.29582,11.93593 -69.7766,14.26709l16.45417,-7.57377c11.72372,-8.33414 19.67283,-20.36012 23.82782,-36.06793c3.40397,-12.99646 5.10109,-24.15201 5.10109,-33.46664c-0.19507,-7.17357 -0.19507,-10.96545 0,-11.34564c1.13141,-1.55077 2.6432,-2.52125 4.54514,-2.91145c1.13141,-0.39019 4.63292,-0.97048 10.49478,-1.75087c4.53538,-0.77038 7.75404,-2.13106 9.63647,-4.07202c1.32648,-1.36068 2.74074,-3.88193 4.26228,-7.56376c1.51179,-4.46222 2.83827,-7.37367 3.95992,-8.73434c-1.12165,2.33116 -1.97996,4.85241 -2.54567,7.56376c-1.13141,5.81289 -0.09754,10.08501 3.11137,12.79636c3.96968,3.30164 7.55897,8.14405 10.77763,14.54723c3.2089,6.40318 5.0133,12.41617 5.38394,18.04897c0.78028,10.8654 0.39989,18.71931 -1.12165,23.57172z"/>
   <path id="svg_20" fill-rule="evenodd" fill="#658C2D" clip-rule="evenodd" d="m281.77104,119.0125c3.40397,2.71135 6.5251,6.69333 9.36337,11.92593c3.03334,5.2326 5.0133,10.47521 5.94964,15.70781c-0.5657,1.55077 -1.50204,3.40169 -2.82852,5.53275c-2.6432,4.07202 -7.76379,5.4327 -15.32276,4.07202c-7.75404,-1.55077 -10.01685,-4.65231 -6.7982,-9.31463c3.02359,-4.65231 4.34031,-9.11453 3.96968,-13.38666c-0.57546,-4.07202 -2.74074,-6.98347 -6.5251,-8.72434c-2.45788,-1.36068 -3.41373,-3.58178 -2.83827,-6.69333c3.2089,-0.77038 5.56925,-2.04101 7.0908,-3.78188c0.95584,-1.36068 2.08725,-3.69184 3.41373,-6.98347c1.51179,-4.46222 2.83827,-7.37367 3.95992,-8.73434c-1.12165,2.33116 -1.97996,4.85241 -2.54567,7.56376c-1.13141,5.8329 -0.09754,10.10502 3.11137,12.81637z"/>
   <path id="svg_21" fill-rule="evenodd" fill="#8CC63F" clip-rule="evenodd" d="m148.17724,139.38263c0.94609,-1.36068 1.60933,-1.36068 1.98972,0c0.94609,2.52125 4.63292,13.56675 11.06048,33.16649c3.58929,10.47521 10.77763,20.26007 21.55525,29.38461c5.29616,4.46222 10.30946,7.86391 15.03991,10.19507c-3.21866,-0.98049 -7.0908,-2.71135 -11.62618,-5.2326c-9.08052,-5.2326 -16.5517,-12.02598 -22.40381,-20.37013c-7.00302,-10.08501 -12.00657,-19.38964 -15.03991,-27.93389c-2.84802,-8.73434 -3.03334,-15.12752 -0.57546,-19.20955z"/>
   <path id="svg_22" fill-rule="evenodd" fill="#86C236" clip-rule="evenodd" d="m299.08352,152.47914c0.18532,7.75386 -0.47792,14.25709 -1.98972,19.48969c-3.03334,10.47521 -9.1683,19.58974 -18.43413,27.34359c-10.59231,8.73434 -22.97927,13.6768 -37.16087,14.83738c-14.94238,1.55077 -27.32933,1.55077 -37.16087,0l-10.21192,-2.6213l4.53538,0.59029c3.96968,0 8.03689,-0.39019 12.20164,-1.16058c10.21192,-2.14106 18.71698,-6.59328 25.52493,-13.38666c7.55897,-7.75386 12.38696,-17.84887 14.46445,-30.25504c2.83827,-19.20955 5.57901,-28.32408 8.23196,-27.3536c0.5657,0.2001 2.0775,0.78039 4.53538,1.75087c2.6432,0.97048 4.4476,1.26063 5.39369,0.87043c0.19507,0 1.32648,-1.26063 3.40397,-3.78188c1.89218,-2.32115 4.16475,-3.58178 6.80795,-3.78188c5.29616,-0.77038 8.98298,-1.85092 11.07023,-3.20159c2.0775,-1.16058 5.18887,-1.74087 9.35361,-1.74087c4.73045,0.2001 7.38341,1.74087 7.93936,4.65231c0.5657,3.88193 0.47792,6.11304 -0.28285,6.69333c-0.5657,0.39019 -1.50204,0 -2.82852,-1.16058c-3.21866,-2.52125 -5.11084,-2.4212 -5.67654,0.29014c-0.19507,0.77038 -0.09754,4.74236 0.28285,11.92593z"/>
   <path id="svg_23" fill-rule="evenodd" fill="#60872C" clip-rule="evenodd" d="m301.06348,152.47914c0,7.95395 -0.75102,14.44718 -2.26281,19.48969c-3.03334,10.47521 -9.1683,19.58974 -18.44388,27.34359c-10.39724,8.73434 -22.68666,13.6768 -36.86826,14.83738c-24.01314,2.32115 -39.9016,1.46073 -47.65564,-2.6213l4.81823,0.59029c3.96968,0 8.03689,-0.39019 12.19189,-1.16058c10.02661,-2.14106 18.44388,-6.59328 25.24208,-13.38666c7.56872,-7.75386 12.38696,-17.84887 14.46445,-30.25504c1.70686,-10.8654 3.87214,-16.8884 6.5251,-18.04897c1.51179,-0.77038 3.78436,-1.06053 6.7982,-0.87043c5.87161,-3.68183 8.8952,-5.53275 9.08052,-5.53275c0.76077,-0.2001 2.56517,-1.46073 5.39369,-3.78188c3.03334,-2.32115 5.87161,-3.58178 8.51481,-3.78188c2.45788,-0.39019 3.49176,-0.78039 3.11137,-1.16058c-0.75102,-0.98049 -0.75102,-1.75087 0,-2.33116c4.20376,-2.8114 8.17344,-0.49024 11.91879,6.98347c-1.66785,-0.64032 -2.71148,-0.07003 -3.12112,1.75087l0.29261,11.93593zm2.83827,-13.6768c0.66324,0.32016 1.42401,0.8004 2.26281,1.46073c1.42401,1.09054 1.94095,-0.46023 1.56056,-4.65231c1.22894,10.68531 1.74588,16.40816 1.56056,17.16854c0,0.38019 -0.66324,-1.46073 -1.98972,-5.53275c-1.10215,-3.28163 -2.23355,-6.09303 -3.39422,-8.4442z"/>
   <path id="svg_24" fill-rule="evenodd" fill="#537526" clip-rule="evenodd" d="m300.78063,140.55321l0.28285,11.92593c0,7.95395 -0.75102,14.44718 -2.26281,19.48969c-3.03334,10.47521 -9.1683,19.58974 -18.44388,27.34359c-10.39724,8.73434 -22.68666,13.6768 -36.86826,14.83738l-3.12112,0.29014c14.94238,-2.32115 27.03673,-7.8539 36.30256,-16.58825c7.56872,-6.97347 11.5384,-13.96694 11.91879,-20.95042c0.75102,-15.70781 -0.66324,-27.54369 -4.26228,-35.49765l0,-0.87043c0.19507,-0.78039 1.22894,-1.46073 3.12112,-2.03101c1.51179,-0.59029 3.58929,-1.46073 6.24225,-2.63131c2.45788,-0.97048 4.73045,-1.06053 6.80795,-0.28014c2.6432,0.77038 3.49176,1.55077 2.55542,2.32115c-0.57546,0.39019 -1.22894,0.87043 -1.98972,1.46073l-0.28285,1.18059z"/>
   <use x="-4.70819" id="svg_25" xlink:href="#u" opacity="0.1992" enable-background="new" height="12.7" width="8.75" y="-49.03273" transform="matrix(5.67264, 0, 0, -5.81889, 274.839, -72.1437)"/>
   <path id="svg_26" fill-rule="evenodd" fill="#94D142" clip-rule="evenodd" d="m165.76281,120.17308c-2.27257,-1.16058 -4.64267,-0.48024 -7.0908,2.04101c-0.94609,0.97048 -1.51179,0.97048 -1.70686,0s0.5657,-2.52125 2.27257,-4.66232c2.6432,-3.49174 7.47119,-4.75236 14.46445,-3.78188c1.32648,0.39019 3.12112,1.06053 5.39369,2.04101c1.89218,0.97048 4.06721,1.55077 6.5251,1.74087c5.86186,0.59029 11.5384,2.4212 17.01987,5.53275c4.73045,2.91145 7.37365,5.8229 7.93936,8.72434c-0.38039,-0.19009 -0.38039,0.88044 0,3.20159c0.38039,2.91145 0.09754,4.66232 -0.84856,5.2326c-0.76077,0.59029 -1.89218,-0.49024 -3.40397,-3.19159c-1.69711,-3.11155 -3.02359,-4.76237 -3.96968,-4.95246c-1.32648,-0.19009 -2.3701,0.2001 -3.12112,1.16058c-0.75102,1.36068 -1.32648,2.33116 -1.69711,2.91145c-0.5657,1.16058 -1.89218,1.26063 -3.96968,0.29014c-1.88243,-0.77038 -3.49176,-2.23111 -4.81823,-4.37217c-0.38039,-0.38019 -1.13141,-1.84092 -2.27257,-4.36217c-0.5657,-1.17058 -1.51179,-2.14106 -2.83827,-2.91145c-1.13141,-0.98049 -2.83827,-1.55077 -5.10109,-1.75087l-3.12112,0l-1.42401,0.59029c-0.19507,0.02001 -2.93581,-1.14057 -8.23196,-3.48173z"/>
   <path id="svg_27" fill-rule="evenodd" fill="#39521A" clip-rule="evenodd" d="m289.1447,210.08778c-14.93262,7.75386 -28.08035,10.09502 -39.42368,6.98347c-12.1041,-3.30164 -17.58558,-5.14256 -16.45417,-5.53275c0.94609,-0.39019 6.42756,-0.58029 16.45417,-0.58029c8.88545,-0.2001 17.11741,-2.33116 24.67638,-6.41319c3.78436,-1.93096 7.6565,-2.90144 11.62618,-2.90144c5.29616,0 8.70013,-0.2001 10.21192,-0.59029c4.91577,-1.36068 8.78791,-2.6213 11.62618,-3.78188c-5.09133,4.66232 -11.33358,8.93444 -18.71698,12.81637z"/>
   <path id="svg_28" fill-rule="evenodd" fill="#3C571C" clip-rule="evenodd" d="m467.8875,230.16776c3.58929,-7.17357 9.93883,-11.63579 18.99983,-13.38666c4.7207,-0.77038 8.98298,-0.87043 12.76734,-0.29014c-1.88243,0.2001 -3.78436,0.49024 -5.66679,0.88044c-3.78436,1.16058 -5.77408,2.8114 -5.94964,4.94246c-0.19507,1.75087 0.08778,4.27212 0.8388,7.56376c0.57546,3.68183 -0.2731,8.34415 -2.54567,13.96694c-2.83827,7.75386 -7.6565,14.83738 -14.46445,21.24056c-7.55897,7.17357 -15.60561,11.44569 -24.12043,12.79636c2.08725,-5.04251 4.4476,-10.76535 7.10055,-17.16854c5.29616,-12.99646 9.64622,-23.17152 13.04044,-30.54519z"/>
   <path id="svg_29" fill-rule="evenodd" fill="#446120" clip-rule="evenodd" d="m480.93769,246.16572c4.53538,-2.71135 8.23196,-5.8229 11.07023,-9.31463c-0.57546,5.8229 -2.6432,12.02598 -6.252,18.61926c-6.80795,13.38666 -17.21494,22.60124 -31.20147,27.64374c-12.09435,4.27212 -28.08035,5.81289 -47.93849,4.65231c-20.79448,-1.36068 -26.64659,-3.10154 -17.58558,-5.2226c1.32648,-0.2001 10.77763,-6.31314 28.3632,-18.33912c18.53167,-11.24559 31.49408,-15.61776 38.85798,-13.09651c7.76379,2.52125 15.99575,0.88044 24.68613,-4.94246z"/>
   <path id="svg_30" fill-rule="evenodd" fill="#6E9C33" clip-rule="evenodd" d="m315.56695,260.13266c10.01685,-0.38019 16.83456,-0.38019 20.4336,0c7.55897,0.78039 14.1816,3.11155 19.84839,6.98347c42.5448,6.02299 62.78334,10.37516 60.70584,13.09651c-2.45788,3.50174 -6.62263,6.10303 -12.47474,7.8539c-10.01685,3.11155 -25.62247,4.27212 -46.80709,3.50174c-10.77763,-0.59029 -20.7067,-2.8114 -29.78722,-6.70333c-17.01012,-7.17357 -31.58186,-18.7093 -43.68597,-34.61721l-3.11137,-4.37217l12.47474,7.28362c9.45115,4.84241 16.92234,7.16356 22.40381,6.97347z"/>
   <path id="svg_31" fill-rule="evenodd" fill="#6B9631" clip-rule="evenodd" d="m275.29471,197.28141l15.87871,31.12548c13.05019,22.50119 25.43715,38.0189 37.16087,46.55315c7.18834,5.2326 19.76061,9.50473 37.72657,12.79636c8.88545,1.55077 17.11741,2.6213 24.67638,3.20159c-8.88545,1.55077 -19.47776,1.94097 -31.76718,1.16058c-24.19845,-1.75087 -44.25167,-8.82439 -60.14013,-21.24056c-13.05019,-10.27511 -20.89202,-25.60273 -23.53522,-45.97286l0,-27.62373z"/>
   <path id="svg_32" fill-rule="evenodd" fill="#6B9630" clip-rule="evenodd" d="m425.05984,122.2241l5.10109,3.49174c1.14116,0 3.79411,3.40169 7.93936,10.18506c1.89218,2.33116 4.16475,1.36068 6.80795,-2.90144l1.42401,2.90144c1.13141,1.75087 2.55542,1.94097 4.25253,0.59029c2.83827,-1.94097 5.67654,-4.37217 8.51481,-7.27362c-1.51179,3.88193 -3.03334,7.95395 -4.54514,12.21607c-2.83827,8.34415 -4.16475,13.57675 -3.96968,15.70781c0.38039,2.53126 -5.48147,4.17207 -17.58558,4.95246c-12.29917,0.77038 -19.57529,-0.29014 -21.83811,-3.20159c-1.89218,-2.52125 -3.78436,-6.59328 -5.66679,-12.22608l-2.55542,-7.56376c3.57954,-1.36068 6.99327,-4.27212 10.21192,-8.72434c1.69711,-2.33116 3.58929,-5.33265 5.66679,-9.02449c1.32648,-1.37068 3.40397,-1.08054 6.24225,0.87043z"/>
   <path id="svg_33" fill-rule="evenodd" fill="#5C822A" clip-rule="evenodd" d="m332.30397,277.3012c-3.02359,-0.38019 -6.5251,-2.23111 -10.48502,-5.52275c-8.13443,-6.21309 -14.84484,-16.19805 -20.141,-29.9749c-10.59231,-27.54369 -16.2591,-42.38107 -17.01987,-44.51213c-3.58929,-11.24559 -3.30644,-16.77834 0.85831,-16.57824c4.34031,0.38019 7.47119,-0.88044 9.36337,-3.79189l4.25253,-10.47521c4.7207,-5.04251 11.25555,-2.52125 19.57529,7.56376c4.89626,5.81289 9.4414,40.25001 13.59639,103.29136z"/>
   <path id="svg_34" fill-rule="evenodd" fill="#89BF3F" clip-rule="evenodd" d="m321.81895,154.80029l8.50506,-13.96694c8.88545,-9.70483 21.36018,-15.70781 37.44372,-18.04897c19.67283,-2.71135 36.78048,-0.97048 51.34247,5.2326c14.93262,6.41319 25.14455,16.6883 30.63577,30.84534c6.24225,16.87839 4.7207,36.26803 -4.53538,58.18893c-10.22168,24.25206 -25.62247,36.65823 -46.23163,37.24852c-22.5111,0.77038 -42.83741,-10.47521 -60.98869,-33.75678c-18.3561,-23.26157 -23.74004,-45.18246 -16.17132,-65.74269z"/>
   <path id="svg_35" fill-rule="evenodd" fill="#7BAB38" clip-rule="evenodd" d="m438.39289,160.91333l1.97996,19.79984c0.57546,15.51772 -0.65349,28.98441 -3.68683,40.44011c-3.2089,11.83588 -9.54868,18.52921 -18.99983,20.07998c-15.6934,0.2001 -30.4407,1.06053 -44.25167,2.6213c-17.20519,2.13106 -28.08035,-2.6213 -32.61573,-14.25709c-1.32648,-12.80637 -2.55542,-20.18003 -3.69658,-22.121c-4.7207,-7.56376 -6.51534,-13.66679 -5.38394,-18.32911c1.88243,-8.54425 13.42083,-9.88491 34.60545,-4.07202c20.80423,5.8229 39.05305,3.59179 54.74644,-6.69333c7.93936,-5.25261 13.71343,-11.0655 17.30272,-17.46869z"/>
   <path id="svg_36" fill-rule="evenodd" fill="#689131" clip-rule="evenodd" d="m359.81862,215.04024l-41.69625,-22.70129c0.38039,-5.04251 0.76077,-10.18506 1.14116,-15.42767c0.75102,-10.6553 1.41426,-16.47819 1.97996,-17.45868c0.94609,-1.74087 1.69711,-4.36217 2.26281,-7.8439l13.9085,2.32115c10.38749,2.71135 18.61945,6.88342 24.66662,12.50622c3.96968,3.88193 5.94964,7.08352 5.94964,9.60478l7.10055,18.61926c6.42756,13.18656 13.6159,21.7308 21.55525,25.61273c3.78436,1.74087 7.6565,0 11.63594,-5.2326c1.88243,-2.71135 3.40397,-5.6328 4.53538,-8.73434l0.28285,11.63579c-0.38039,8.34415 -2.27257,13.6768 -5.67654,16.00796c-3.19915,2.13106 -19.08762,-4.17207 -47.64589,-18.9094z"/>
   <path id="svg_37" fill-rule="evenodd" fill="#A5E64C" clip-rule="evenodd" d="m424.21128,134.44017c-5.49123,0.19009 -8.78791,1.06053 -9.92907,2.6213c-1.13141,1.54077 -1.89218,3.10154 -2.27257,4.65231l0,2.04101l6.252,2.32115c4.53538,2.71135 7.9296,7.56376 10.21192,14.54723c2.45788,6.98347 2.26281,14.54723 -0.57546,22.69128c-1.32648,4.08203 -2.93581,7.47372 -4.81823,10.19507c1.69711,-9.89492 1.60933,-19.20955 -0.28285,-27.93389c-1.51179,-6.98347 -3.58929,-11.73583 -6.24225,-14.25709c-1.70686,-1.75087 -3.68683,-3.30164 -5.95939,-4.66232l-2.82852,-1.16058c-7.93936,-0.58029 -15.41054,-0.38019 -22.41356,0.59029c-4.35006,0.58029 -9.26583,2.6213 -14.74731,6.10303l-6.80795,5.2326l4.25253,-4.65231c3.59904,-3.30164 6.90548,-5.72285 9.93883,-7.28362c4.91577,-2.52125 12.76734,-3.58178 23.54497,-3.19159c-1.89218,-1.94097 -4.54514,-3.78188 -7.93936,-5.53275l-5.10109,-2.91145c-11.54815,0.2001 -20.4336,3.0115 -26.65634,8.4442l-13.6159,12.79636l2.55542,-4.66232c2.45788,-3.68183 5.39369,-6.88342 8.78791,-9.59477c5.49123,-4.46222 14.27914,-7.75386 26.38324,-9.89492c-4.16475,-1.93096 -7.56872,-3.0115 -10.21192,-3.19159c-3.21866,-0.39019 -7.93936,0.67033 -14.1816,3.19159c-7.56872,3.30164 -12.66981,7.57377 -15.31301,12.80637c-1.89218,3.88193 -3.59904,7.56376 -5.11084,11.04549c-0.5657,1.16058 -0.84856,1.36068 -0.84856,0.59029c0,-1.94097 1.32648,-5.72285 3.96968,-11.35565c3.41373,-6.79338 6.99327,-11.14554 10.77763,-13.09651c5.86186,-2.71135 11.2458,-4.45221 16.16156,-5.2326c-7.37365,-0.97048 -12.28942,-1.06053 -14.74731,-0.29014l-3.69658,0.88044l7.38341,-2.04101c5.67654,-1.36068 10.11439,-1.74087 13.32329,-1.16058l2.83827,0.29014l3.12112,-0.87043c2.6432,-0.59029 4.81823,-0.88044 6.5251,-0.88044l5.94964,0.29014l-13.05995,2.92145l7.10055,3.19159l3.96968,2.6213l0,-1.16058c0.94609,-0.97048 3.40397,-2.03101 7.37365,-3.19159c6.42756,-1.94097 13.14773,-1.75087 20.13124,0.58029c-8.88545,-0.77038 -14.37667,-0.67033 -16.45417,0.29014l-7.93936,5.8229l7.37365,4.65231c1.70686,0.97048 3.12112,2.23111 4.26228,3.78188l2.55542,-3.19159c2.26281,-2.33116 4.91577,-3.78188 7.93936,-4.37217c4.91577,-0.97048 10.59231,-0.68034 17.01987,0.87043c-2.46764,-0.2001 -5.11084,-0.29014 -7.94911,-0.29014z"/>
   <path id="svg_38" fill-rule="evenodd" fill="url(#o)" clip-rule="evenodd" d="m406.34286,233.07921c7.17858,3.49174 11.71396,11.44569 13.6159,23.86186c1.32648,9.31463 8.03689,13.28661 20.141,11.92593c-1.51179,1.55077 -4.16475,3.39169 -7.93936,5.52275c-7.75404,4.46222 -17.30272,8.06401 -28.65581,10.77536c-10.21192,2.13106 -21.55525,2.90144 -34.03975,2.32115c-24.95923,-0.97048 -43.01297,-8.14405 -54.17099,-21.5307c-14.75706,-17.26859 -21.18462,-37.53866 -19.30219,-60.81023c0.76077,-11.24559 4.64267,-26.08297 11.63594,-44.51213c0.90708,-2.36117 1.70686,-4.26212 2.40912,-5.67282c-0.1268,-0.15007 -0.26334,-0.29014 -0.42915,-0.44022c-0.44866,-0.37018 -0.82905,-0.65032 -1.13141,-0.87043c0.52669,-0.09004 1.08264,-0.19009 1.69711,-0.29014c0.28285,-0.05002 0.57546,-0.11005 0.85831,-0.15007c1.34598,-2.10104 2.28232,-2.24111 2.83827,-0.43021l0,0.14007c3.73559,-0.23011 7.51996,0.30015 11.34333,1.6008c2.26281,0.78039 8.78791,3.79189 19.57529,9.02449c9.07076,4.26212 15.50808,9.11453 19.28269,14.54723c2.08725,3.29164 4.16475,8.044 6.252,14.25709c3.40397,7.56376 8.13443,14.92742 14.1816,22.11099c6.99327,8.71433 14.27914,14.92742 21.83811,18.61926zm-99.84667,-77.97877c-0.18532,2.52125 -0.75102,3.78188 -1.69711,3.78188c-1.13141,0 -3.68683,1.46073 -7.6565,4.37217c-3.03334,2.13106 -4.16475,2.23111 -3.41373,0.29014c1.9507,-4.51224 6.30077,-7.66381 13.05019,-9.4547c-0.15606,0.26013 -0.24384,0.6003 -0.28285,1.0105z"/>
   <path id="svg_39" fill-rule="evenodd" fill="url(#p)" clip-rule="evenodd" d="m352.72782,193.50954c0.38039,-1.75087 1.04363,-3.50174 1.98972,-5.2326l1.13141,-2.32115l-0.28285,7.27362c0,3.11155 0.38039,5.8229 1.13141,8.14405l5.39369,-3.78188c2.45788,-1.94097 4.7207,-3.97197 6.80795,-6.11304c-2.83827,6.21309 -9.4609,12.31612 -19.85814,18.33912c-6.62263,3.68183 -12.09435,6.30313 -16.45417,7.8439l-4.53538,1.17058l0.2731,11.34564c0,5.04251 1.60933,12.31612 4.82799,21.83085l5.6863,0c4.90601,-0.39019 10.11439,-1.36068 15.59586,-2.91145c8.51481,-2.33116 14.08407,-4.85241 16.73702,-7.57377l-0.28285,-9.59477l1.98972,-12.22608l1.13141,9.60478c0.75102,4.65231 2.26281,7.66381 4.54514,9.01448l1.97996,-2.04101c1.32648,-1.36068 6.24225,-5.4227 14.74731,-12.21607c-1.51179,2.90144 -3.77461,6.20308 -6.7982,9.88491c-5.87161,7.37367 -12.39671,13.09651 -19.57529,17.16854s-14.94238,6.69333 -23.26212,7.8539l-10.49478,0.59029l1.70686,3.49174c1.89218,3.11155 4.43785,6.49323 7.6565,10.19507c5.29616,6.01299 13.89875,10.08501 25.80778,12.21607l-11.62618,0.29014c-4.73045,0 -9.64622,-1.46073 -14.75706,-4.37217c-3.02359,-1.74087 -6.24225,-5.81289 -9.63647,-12.22608l-4.26228,-9.01448c-10.01685,-6.20308 -17.68311,-14.25709 -22.96951,-24.142c-3.21866,-6.21309 -5.57901,-13.09651 -7.10055,-20.66027l-1.13141,-9.59477l2.83827,11.63579c0.94609,4.27212 2.74074,7.8539 5.39369,10.76535l0.84856,-8.73434c0.38039,-2.91145 0.47792,-5.4327 0.28285,-7.56376l-0.5657,-2.6213l1.69711,2.91145c0.94609,2.52125 1.51179,5.33265 1.70686,8.43419c0.37063,4.85241 -0.09754,8.83439 -1.42401,11.92593l3.68683,5.2326c2.6432,3.50174 7.55897,8.34415 14.75706,14.54723l-2.55542,-7.27362c-0.94609,-3.11155 -1.60933,-8.54425 -1.98972,-16.2981l-0.57546,-10.76535c-8.70013,-6.01299 -14.1816,-12.21607 -16.45417,-18.61926c-1.50204,-4.06202 -2.45788,-7.66381 -2.82852,-10.76535l0,-3.78188l1.13141,6.41319c0.5657,2.71135 1.69711,5.14256 3.40397,7.27362l1.42401,-4.94246l1.13141,-9.89492l-0.57546,17.74882l5.95939,6.69333c2.83827,3.29164 5.29616,5.2326 7.37365,5.81289l3.68683,-21.24056c-6.7982,-3.87193 -11.15801,-8.82439 -13.05019,-14.82737c-1.13141,-3.68183 -1.79465,-6.88342 -1.97996,-9.60478l0,-2.91145l0.84856,5.53275c0.95584,4.27212 2.55542,8.054 4.82799,11.35565c3.96968,5.04251 7.27612,7.36366 9.92907,6.97347l2.55542,-11.92593c0.5657,-2.13106 2.36035,-5.6328 5.38394,-10.47521c1.51179,-2.52125 3.04309,-4.75236 4.54514,-6.69333l-3.12112,7.28362c-2.26281,5.4327 -3.67707,9.31463 -4.25253,11.63579l-1.70686,10.18506l3.41373,-0.59029c2.83827,-0.77038 5.09133,-1.54077 6.7982,-2.32115c2.83827,-1.36068 7.6565,-5.04251 14.46445,-11.04549c-1.51179,2.52125 -4.81823,6.20308 -9.92907,11.04549c-3.03334,3.11155 -6.5251,5.14256 -10.49478,6.11304l-5.10109,0.58029l-2.26281,22.121l3.96968,-0.59029c3.2089,-0.77038 6.14471,-1.85092 8.78791,-3.19159c4.53538,-2.14106 8.13443,-4.17207 10.77763,-6.11304c0.18532,-5.07252 0.5657,-8.95445 1.13141,-11.6658z"/>
   <path id="svg_40" fill-rule="evenodd" fill="#5B8029" clip-rule="evenodd" d="m403.22173,234.52993c-3.58929,10.27511 -6.80795,16.87839 -9.63647,19.78984c-2.6432,3.10154 -35.64907,-3.50174 -98.99811,-19.78984l1.42401,-27.93389l4.54514,1.75087c4.35006,0.38019 9.84129,-0.88044 16.45417,-3.79189c6.80795,-2.90144 15.22523,-3.88193 25.25183,-2.90144c5.48147,0.38019 11.5384,1.26063 18.15128,2.6213c3.96968,0.19009 6.14471,0.19009 6.51534,0c0.95584,-0.78039 0.76077,-3.11155 -0.5657,-6.98347l-3.14063,-12.52623l7.6565,14.26709c5.87161,10.27511 11.07023,17.64877 15.60561,22.11099c7.18834,7.17357 12.75759,11.63579 16.73702,13.38666z"/>
   <path id="svg_41" fill-rule="evenodd" fill="#90CC3F" clip-rule="evenodd" d="m477.53372,234.52993c-4.16475,14.54723 -14.93262,24.92239 -32.32313,31.12548c-16.83456,6.02299 -37.34618,11.0555 -61.56415,15.13753l-31.48433,4.37217l21.83811,-10.48521c15.88847,-11.24559 26.56856,-27.73379 32.05003,-49.45459c4.53538,-17.84887 6.71041,-33.16649 6.5251,-45.97286c-0.19507,-9.70483 -0.09754,-14.83738 0.28285,-15.42767c1.51179,-1.93096 3.49176,-3.29164 5.94964,-4.07202c1.13141,-0.38019 5.77408,-1.26063 13.89875,-2.6213c6.05693,-0.97048 10.49478,-3.00149 13.33305,-6.10303c1.89218,-2.13106 3.78436,-5.91294 5.66679,-11.34564c2.27257,-5.8229 4.73045,-9.31463 7.38341,-10.47521l-4.54514,10.75535c-2.26281,7.75386 -1.32648,13.48671 2.83827,17.16854c5.29616,4.66232 10.11439,11.35565 14.46445,20.07998c4.34031,8.92444 6.71041,17.26859 7.0908,25.02244c1.14116,14.73733 0.68275,25.50268 -1.40451,32.29606z"/>
   <path id="svg_42" fill-rule="evenodd" fill="#6A9431" clip-rule="evenodd" d="m480.07938,234.52993c-4.34031,14.54723 -15.11794,24.92239 -32.33288,31.12548c-16.8248,6.02299 -37.33643,11.0555 -61.55439,15.13753l-31.48433,4.37217l21.83811,-10.48521c15.6934,-11.24559 26.28571,-27.73379 31.77693,-49.45459c4.53538,-17.84887 6.7982,-33.16649 6.7982,-45.97286c-0.19507,-9.89492 -0.09754,-15.03748 0.28285,-15.42767c1.51179,-1.93096 3.49176,-3.29164 5.94964,-4.07202c1.14116,-0.38019 5.77408,-1.26063 13.9085,-2.6213c6.04718,-0.97048 10.38749,-2.71135 13.04044,-5.2326c1.51179,-1.74087 3.31619,-5.2326 5.39369,-10.47521c2.0775,-6.01299 3.87214,-10.08501 5.39369,-12.21607l-3.41373,10.75535c-1.50204,7.75386 -0.08778,13.48671 4.26228,17.16854c5.29616,4.46222 10.01685,11.15555 14.1816,20.07998c4.35006,8.92444 6.80795,17.26859 7.37365,25.02244c0.77053,15.32762 0.29261,26.08297 -1.41426,32.29606z"/>
   <path id="svg_43" fill-rule="evenodd" fill="#658C2D" clip-rule="evenodd" d="m472.43263,173.7197c3.96968,7.17357 6.71041,14.35714 8.22221,21.5307l-3.96968,7.56376c-3.58929,5.6328 -10.49478,7.46371 -20.7067,5.53275c-10.21192,-2.14106 -13.22576,-6.41319 -9.08052,-12.80637c4.16475,-6.40318 5.87161,-12.40617 5.10109,-18.03897c-0.75102,-5.6328 -3.49176,-9.70483 -8.22221,-12.22608c-3.58929,-1.55077 -5.0133,-4.55226 -4.26228,-9.01448c4.35006,-0.97048 7.55897,-2.71135 9.63647,-5.2326c1.32648,-1.75087 2.83827,-4.94246 4.54514,-9.60478c2.0775,-6.01299 3.87214,-10.08501 5.39369,-12.21607l-3.41373,10.75535c-1.50204,7.75386 -0.08778,13.48671 4.26228,17.16854c4.35982,3.88193 8.52457,9.40468 12.49424,16.58825z"/>
   <path id="svg_44" fill-rule="evenodd" fill="#8CC63F" clip-rule="evenodd" d="m281.53696,185.06534c0.37063,-0.58029 0.75102,-1.36068 1.13141,-2.32115c0.19507,-0.2001 0.65349,0.77038 1.42401,2.91145c1.13141,3.29164 6.04718,18.32911 14.74731,45.10242c4.73045,14.35714 14.27914,27.73379 28.65581,40.14996c7.18834,6.20308 13.89875,10.96545 20.141,14.26709c-4.35006,-1.36068 -9.54868,-3.79189 -15.60561,-7.28362c-12.1041,-7.18357 -22.03318,-16.39815 -29.78722,-27.64374c-9.4609,-13.96694 -16.17132,-26.77331 -20.13124,-38.4091c-3.79411,-12.03598 -3.97943,-20.95042 -0.57546,-26.77331z"/>
   <path id="svg_45" fill-rule="evenodd" fill="#86C236" clip-rule="evenodd" d="m480.07938,229.86761c-3.96968,14.35714 -12.19189,26.87336 -24.66662,37.53866c-13.81097,12.02598 -30.26514,18.9094 -49.36251,20.65027c-20.04346,1.75087 -36.59516,1.75087 -49.63561,0l-13.9085,-3.49174l6.252,0.28014c5.2864,0.2101 10.76787,-0.28014 16.45417,-1.45072c13.43058,-2.91145 24.77391,-9.02449 34.02999,-18.32911c10.21192,-10.47521 16.63949,-24.25206 19.29244,-41.32054c3.97943,-26.18302 7.6565,-38.79929 11.07023,-37.8188c0.75102,0.38019 2.83827,1.36068 6.24225,2.90144c3.2089,1.36068 5.49123,1.75087 6.80795,1.16058c0.5657,-0.19009 2.17503,-1.93096 4.81823,-5.2326c2.45788,-3.29164 5.49123,-5.14256 9.08052,-5.52275c7.37365,-0.98049 12.28942,-2.33116 14.74731,-4.07202c2.6432,-1.75087 6.80795,-2.6213 12.48449,-2.6213c6.42756,0.2001 9.92907,2.32115 10.48502,6.40318c0.76077,5.2326 0.66324,8.2441 -0.2731,9.01448c-0.76077,0.58029 -2.0775,0.10005 -3.96968,-1.46073c-1.51179,-1.36068 -3.03334,-2.03101 -4.54514,-2.03101c-1.50204,0 -2.45788,0.77038 -2.82852,2.32115c-0.19507,1.16058 -0.09754,6.59328 0.2731,16.2881c0.18532,10.88541 -0.76077,19.81985 -2.84802,26.79332z"/>
   <path id="svg_46" fill-rule="evenodd" fill="#60872C" clip-rule="evenodd" d="m492.57363,186.51606c1.68736,1.39069 2.34084,-0.51025 1.97996,-5.67282c1.51179,14.4772 2.27257,21.99093 2.27257,22.55121c0,0.59029 -0.95584,-1.93096 -2.83827,-7.56376c-1.43377,-4.34216 -2.90655,-8.02399 -4.39883,-11.0555c-0.52669,-0.19009 -1.03387,-0.28014 -1.55081,-0.28014c-1.51179,0 -2.46764,0.77038 -2.83827,2.32115c-0.19507,1.16058 -0.09754,6.59328 0.2731,16.2881c0.19507,10.8654 -0.75102,19.79984 -2.82852,26.77331c-4.16475,14.35714 -12.39671,26.87336 -24.67638,37.53866c-13.80121,12.02598 -30.26514,18.9094 -49.36251,20.65027c-20.04346,1.75087 -36.59516,1.75087 -49.63561,0l-13.9085,-3.49174l6.24225,0.28014c5.11084,0.2101 10.59231,-0.28014 16.46392,-1.45072c13.42083,-2.91145 24.66662,-9.02449 33.75689,-18.32911c10.21192,-10.47521 16.63949,-24.25206 19.28269,-41.32054c2.27257,-14.93743 5.20837,-23.27157 8.79766,-25.02244c1.88243,-0.97048 4.91577,-1.36068 9.08052,-1.16058c6.24225,-4.27212 10.21192,-6.69333 11.90903,-7.28362c0.20482,0 2.6432,-1.75087 7.38341,-5.2326c4.16475,-3.29164 8.02714,-5.14256 11.62618,-5.53275c3.2089,-0.38019 4.53538,-0.97048 3.96968,-1.74087c-0.95584,-0.98049 -0.95584,-1.85092 0,-2.6213c5.66679,-3.89194 11.01171,-0.68034 16.02501,9.59477c0.9851,0.29014 1.97021,0.87043 2.97482,1.76088z"/>
   <path id="svg_47" fill-rule="evenodd" fill="#537526" clip-rule="evenodd" d="m485.75592,185.64563l-0.5657,1.16058c-0.19507,1.16058 -0.09754,6.59328 0.2731,16.2881c0.19507,10.8654 -0.75102,19.79984 -2.82852,26.77331c-4.16475,14.35714 -12.39671,26.87336 -24.67638,37.53866c-13.80121,12.02598 -30.26514,18.9094 -49.36251,20.65027l-3.96968,0.29014c19.85814,-3.50174 36.01971,-11.0555 48.5042,-22.70129c10.02661,-9.69482 15.32276,-19.2996 15.88847,-28.80432c0.57546,-13.38666 -0.19507,-25.51268 -2.26281,-36.36808l-3.41373,-12.22608c-0.37063,-0.39019 -0.46817,-0.78039 -0.2731,-1.16058c0.37063,-1.16058 1.79465,-2.24111 4.25253,-3.20159c2.08725,-0.59029 4.92552,-1.74087 8.51481,-3.49174c3.40397,-1.16058 6.5251,-1.26063 9.36337,-0.29014c3.2089,0.97048 4.16475,2.04101 2.83827,3.19159c-0.57546,0.8004 -1.33623,1.57078 -2.28232,2.35117z"/>
   <use x="-4.70819" id="svg_48" xlink:href="#v" opacity="0.1992" enable-background="new" height="17.45" width="11.65" y="-53.78273" transform="matrix(5.67264, 0, 0, -5.81889, 442.112, -27.1213)"/>
   <path id="svg_49" fill-rule="evenodd" fill="#94D142" clip-rule="evenodd" d="m354.14208,162.95435c6.42756,3.88193 10.01685,7.8539 10.77763,11.92593c-0.5657,-0.39019 -0.65349,1.06053 -0.28285,4.37217c0.38039,4.06202 0.09754,6.59328 -0.84856,7.56376c-1.13141,0.77038 -2.74074,-0.77038 -4.81823,-4.65231c-2.27257,-4.27212 -4.06721,-6.50323 -5.39369,-6.70333c-1.70686,-0.38019 -3.03334,0.11005 -3.96968,1.46073c-1.13141,1.75087 -1.97996,3.11155 -2.55542,4.07202c-0.75102,1.55077 -2.36035,1.75087 -4.81823,0.59029c-2.6432,-1.36068 -4.91577,-3.40169 -6.80795,-6.11304c-0.38039,-0.77038 -1.42401,-2.71135 -3.12112,-5.81289c-0.94609,-1.75087 -2.17503,-3.20159 -3.68683,-4.37217c-1.70686,-1.16058 -3.95992,-1.93096 -6.7982,-2.32115l-3.96968,0l-1.98972,0.87043c-0.75102,0.2001 -2.45788,-0.28014 -5.10109,-1.46073c-2.83827,-1.74087 -4.81823,-2.91145 -5.94964,-3.49174c-2.83827,-1.36068 -5.95939,-0.49024 -9.36337,2.6213c-1.32648,1.36068 -2.0775,1.46073 -2.26281,0.29014c-0.38039,-1.16058 0.65349,-3.30164 3.12112,-6.40318c2.0775,-2.91145 5.86186,-4.66232 11.34333,-5.2326c2.83827,-0.2001 5.38394,-0.2001 7.6565,0c1.50204,0.38019 3.96968,1.35067 7.37365,2.91145c2.45788,1.16058 5.39369,1.93096 8.78791,2.32115c4.7207,0.58029 8.40752,1.26063 11.06048,2.03101c3.40397,0.97048 7.27612,2.8114 11.61643,5.53275z"/>
   <path id="svg_50" fill-rule="evenodd" fill="#39521A" clip-rule="evenodd" d="m469.59436,282.25366c-19.85814,10.6653 -37.44372,13.86689 -52.75673,9.59477c-16.07378,-4.45221 -23.35965,-6.98347 -21.83811,-7.56376c1.32648,-0.58029 8.60259,-0.78039 21.83811,-0.58029c6.61288,-0.39019 12.09435,-1.07053 16.45417,-2.04101c5.10109,-1.36068 10.77763,-3.68183 17.01987,-6.98347c4.91577,-2.71135 10.01685,-3.97197 15.31301,-3.78188c6.62263,0 11.06048,-0.29014 13.32329,-0.87043c6.80795,-1.94097 12.1041,-3.68183 15.88847,-5.2326c-6.7982,6.20308 -15.21547,12.02598 -25.24208,17.45868z"/>
   <path id="svg_51" fill-rule="evenodd" fill="#3C571C" clip-rule="evenodd" d="m237.00244,269.73744c4.16475,-8.54425 9.92907,-16.4882 17.30272,-23.86186c3.58929,-3.68183 6.80795,-6.59328 9.64622,-8.72434c-0.38039,0.39019 -0.85831,0.97048 -1.42401,1.75087c-0.95584,1.74087 -1.51179,3.88193 -1.70686,6.40318c-0.19507,2.13106 0.19507,7.56376 1.13141,16.2881c0.38039,9.31463 -0.75102,17.35863 -3.40397,24.15201c-3.59904,9.11453 -9.36337,17.45868 -17.30272,25.02244c-8.88545,8.54425 -18.24881,13.57675 -28.08035,15.13753c9.27559,-23.87187 17.21494,-42.59118 23.83758,-56.16793z"/>
   <path id="svg_52" fill-rule="evenodd" fill="#446120" clip-rule="evenodd" d="m254.02231,313.95942c4.91577,-3.10154 8.98298,-6.48322 12.19189,-10.18506c-3.95992,5.05251 -9.07076,10.58526 -15.30326,16.58825c-12.48449,11.83588 -24.68613,19.78984 -36.59516,23.86186c-14.37667,5.04251 -33.37651,6.79338 -57.01901,5.2326c-24.19845,-1.36068 -31.10394,-3.29164 -20.7067,-5.8229c1.69711,-0.38019 14.46445,-5.6328 38.29227,-15.70781c24.95923,-9.11453 41.88157,-12.21607 50.77677,-9.31463c9.07076,3.11155 18.53167,1.56078 28.3632,-4.65231z"/>
   <path id="svg_53" fill-rule="evenodd" fill="#6E9C33" clip-rule="evenodd" d="m12.63273,305.23509l-3.68683,-4.94246c17.01987,11.44569 30.72355,16.96844 41.13055,16.57824c11.5384,-0.38019 19.47776,-0.38019 23.82782,0c9.26583,0.98049 17.20519,3.79189 23.82782,8.4442c50.11353,6.98347 73.94135,12.12603 71.48346,15.41767c-3.02359,4.27212 -7.93936,7.47372 -14.74731,9.60478c-11.72372,3.50174 -30.07007,4.76237 -55.0293,3.78188c-12.48449,-0.58029 -24.20821,-3.19159 -35.17115,-7.8539c-20.80423,-8.73434 -38.01918,-22.41114 -51.63507,-41.0304z"/>
   <path id="svg_54" fill-rule="evenodd" fill="#6B9631" clip-rule="evenodd" d="m2.71341,242.96413l18.71698,36.66823c15.12769,26.56321 29.67993,44.90232 43.68597,54.98734c8.50506,6.20308 23.3499,11.24559 44.53452,15.13753c10.58256,1.93096 20.32631,3.19159 29.21176,3.78188c-10.59231,1.93096 -23.06705,2.32115 -37.44372,1.16058c-28.74359,-2.14106 -52.37634,-10.47521 -70.91776,-25.02244c-15.31301,-12.02598 -24.57884,-30.06495 -27.7975,-54.11691l0,-32.59621l0.00975,0z"/>
   <path id="svg_55" fill-rule="evenodd" fill="#6B9630" clip-rule="evenodd" d="m185.09427,158.58217c1.51179,0 4.73045,3.97197 9.64622,11.92593c2.27257,2.91145 4.91577,1.75087 7.93936,-3.49174l1.70686,3.49174c1.31672,2.14106 3.02359,2.4212 5.10109,0.88044c3.2089,-2.33116 6.42756,-5.14256 9.63647,-8.4442l-5.10109,14.25709c-3.2089,9.89492 -4.7207,16.00796 -4.53538,18.32911c0.38039,3.11155 -6.5251,5.14256 -20.7067,6.11304c-14.37667,0.77038 -22.97927,-0.49024 -25.80778,-3.79189c-2.27257,-3.10154 -4.53538,-7.95395 -6.80795,-14.54723l-2.83827,-9.01448c4.15499,-1.36068 8.12467,-4.65231 11.90903,-9.88491c2.0775,-2.91145 4.35006,-6.49323 6.80795,-10.76535c1.32648,-1.75087 3.68683,-1.46073 7.0908,0.87043l5.95939,4.07202z"/>
   <path id="svg_56" fill-rule="evenodd" fill="#5C822A" clip-rule="evenodd" d="m25.96577,218.82212c0.75102,-5.2326 2.44813,-9.40468 5.10109,-12.51622c5.29616,-5.81289 12.85512,-2.71135 22.69641,9.31463c3.59904,4.46222 7.37365,26.08297 11.35308,64.88226c2.0775,19.38964 3.68683,38.4091 4.81823,57.02835c-3.58929,-0.59029 -7.75404,-2.71135 -12.48449,-6.40318c-9.63647,-7.57377 -17.58558,-19.48969 -23.81807,-35.78779c-12.48449,-32.59621 -19.00959,-50.04488 -19.57529,-52.37604c-4.35006,-13.18656 -4.06721,-19.68979 0.84856,-19.48969c4.91577,0.39019 8.60259,-1.17058 11.06048,-4.65231z"/>
   <path id="svg_57" fill-rule="evenodd" fill="#89BF3F" clip-rule="evenodd" d="m57.73295,192.91924c1.51179,-5.2326 4.82799,-10.75535 9.92907,-16.57824c10.39724,-11.44569 25.05676,-18.42916 43.96882,-20.95042c23.44743,-3.30164 43.67621,-1.36068 60.69608,5.81289c17.58558,7.57377 29.59215,19.78984 36.01971,36.65823c7.56872,19.59974 5.76432,42.38107 -5.38394,68.384c-12.1041,28.70427 -30.25538,43.35155 -54.46359,43.94185c-26.47102,0.96048 -50.48416,-12.22608 -72.04917,-39.57968c-21.5455,-27.54369 -27.78775,-53.43657 -18.71698,-77.68863z"/>
   <path id="svg_58" fill-rule="evenodd" fill="#7BAB38" clip-rule="evenodd" d="m195.02334,199.90272l2.27257,23.56171c0.75102,18.22906 -0.76077,34.13697 -4.54514,47.72373c-3.78436,13.76684 -11.15801,21.5307 -22.12096,23.27157c-18.53167,0.2001 -35.93193,1.27063 -52.19102,3.20159c-20.42385,2.32115 -33.18144,-3.30164 -38.29227,-16.87839c-1.69711,-15.13753 -3.21866,-23.76181 -4.53538,-25.90288c-5.48147,-9.11453 -7.6565,-16.38815 -6.51534,-21.82085c2.26281,-9.89492 15.87871,-11.35565 40.84769,-4.37217c24.39353,6.79338 45.94878,4.07202 64.67552,-8.14405c9.24633,-6.19308 16.05428,-13.0765 20.40434,-20.64026z"/>
   <path id="svg_59" fill-rule="evenodd" fill="#689131" clip-rule="evenodd" d="m69.65174,175.75071l0.5657,-1.16058l15.03991,6.40318c10.77763,6.21309 18.24881,14.26709 22.40381,24.15201c2.45788,6.20308 3.87214,10.37516 4.25253,12.50622l8.51481,22.121c7.55897,15.51772 16.07378,25.60273 25.52493,30.25504c4.35006,2.13106 8.79766,0.10005 13.33305,-6.10303c2.45788,-3.11155 4.35006,-6.50323 5.67654,-10.19507l0.28285,13.6768c-0.5657,9.69482 -2.74074,15.90791 -6.5251,18.61926c-3.96968,2.71135 -22.7842,-4.66232 -56.44355,-22.11099c-16.83456,-8.54425 -33.27897,-17.45868 -49.35275,-26.77331c2.45788,-9.70483 5.0133,-19.58974 7.6565,-29.68476c5.2864,-19.96993 8.30999,-30.54519 9.07076,-31.70576z"/>
   <path id="svg_60" fill-rule="evenodd" fill="#A5E64C" clip-rule="evenodd" d="m121.55991,155.97087l3.96968,-1.16058c2.83827,-0.77038 5.29616,-1.16058 7.37365,-1.16058c3.2089,0 5.67654,0.2001 7.37365,0.59029c-5.29616,0.77038 -9.1683,1.54077 -11.62618,2.32115l-3.96968,1.16058l8.23196,3.78188l4.81823,2.91145l0.28285,-1.16058c0.94609,-1.16058 3.78436,-2.52125 8.51481,-4.07202c7.56872,-2.14106 15.50808,-1.94097 23.82782,0.58029c-10.58256,-0.77038 -17.10765,-0.58029 -19.56554,0.59029c-1.51179,0.77038 -3.50151,2.13106 -5.95939,4.07202l-3.12112,2.6213l8.50506,5.53275c2.0775,1.16058 3.68683,2.6213 4.82799,4.36217l3.12112,-3.78188c2.6432,-2.52125 5.77408,-4.17207 9.36337,-4.94246c5.86186,-1.16058 12.57227,-0.78039 20.13124,1.16058c-3.02359,-0.2001 -6.14471,-0.29014 -9.35361,-0.29014c-6.42756,0.2001 -10.39724,1.16058 -11.91879,2.91145c-1.32648,1.94097 -2.17503,3.88193 -2.55542,5.8229l0,2.03101l7.37365,2.6213c5.49123,3.50174 9.54868,9.31463 12.19189,17.45868c2.6432,7.95395 2.36035,16.77834 -0.84856,26.47316c-1.51179,4.84241 -3.40397,8.92444 -5.67654,12.22608c2.0775,-11.4557 1.98972,-22.40114 -0.28285,-32.87635c-1.69711,-7.95395 -4.15499,-13.6768 -7.37365,-17.17854c-2.0775,-2.13106 -4.35006,-3.78188 -6.80795,-4.94246l-3.40397,-1.45072c-9.4609,-0.78039 -18.3366,-0.59029 -26.66609,0.58029c-5.10109,0.58029 -10.87516,2.91145 -17.30272,6.98347c-3.21866,2.13106 -5.95939,4.17207 -8.22221,6.10303c1.32648,-1.55077 3.02359,-3.29164 5.10109,-5.2326c4.35006,-3.88193 8.31974,-6.69333 11.91879,-8.43419c5.67654,-3.11155 14.84484,-4.46222 27.51465,-4.07202c-2.0775,-2.14106 -5.10109,-4.37217 -9.08052,-6.69333l-5.95939,-3.20159c-3.40397,0.2001 -7.28587,0.67033 -11.62618,1.46073c-8.70013,1.75087 -15.31301,4.56227 -19.85814,8.4442l-16.45417,15.12752c2.6432,-6.01299 7.17858,-11.53574 13.6159,-16.57824c6.62263,-5.2326 16.92234,-9.22459 30.91862,-11.92593c-4.73045,-2.14106 -8.70013,-3.40169 -11.91879,-3.79189c-3.58929,-0.38019 -9.08052,0.98049 -16.45417,4.07202c-9.08052,3.88193 -15.12769,8.83439 -18.15128,14.83738c-2.27257,4.66232 -4.35006,9.01448 -6.24225,13.09651c-0.5657,1.36068 -0.84856,1.65082 -0.84856,0.88044c0,-2.33116 1.60933,-6.79338 4.81823,-13.38666c3.96968,-8.14405 8.12467,-13.38666 12.48449,-15.70781c6.80795,-3.30164 13.13798,-5.33265 18.99983,-6.11304c-8.70013,-0.97048 -14.46445,-1.06053 -17.30272,-0.28014l-4.25253,0.87043l8.78791,-2.32115c6.42756,-1.55077 11.62618,-2.04101 15.60561,-1.46073l3.13088,0.53026z"/>
   <path id="svg_61" fill-rule="evenodd" fill="url(#q)" clip-rule="evenodd" d="m29.6526,176.91129c-0.76077,1.36068 -0.66324,0.88044 0.28285,-1.46073c1.69711,-4.45221 3.12112,-7.36366 4.25253,-8.72434c2.26281,-2.71135 5.95939,-4.55226 11.06048,-5.53275c4.73045,-0.97048 9.74376,0.88044 15.03991,5.53275c8.31974,7.18357 15.22523,12.12603 20.7067,14.83738c10.39724,4.84241 18.53167,14.15704 24.39353,27.93389c3.02359,7.36366 6.14471,16.57824 9.36337,27.64374c4.15499,8.92444 9.74376,17.64877 16.73702,26.18302c8.31974,10.08501 16.92234,17.35863 25.80778,21.83085c8.3295,4.26212 13.51836,13.66679 15.60561,28.21403c1.70686,10.8654 9.74376,15.52772 24.11067,13.96694c-1.89218,1.93096 -5.10109,4.16207 -9.64622,6.68332c-8.88545,5.05251 -20.04346,9.22459 -33.47404,12.51622c-12.1041,2.52125 -25.4274,3.49174 -39.99914,2.91145c-29.49461,-1.36068 -50.86455,-9.89492 -64.10006,-25.61273c-17.21494,-20.37013 -24.77391,-44.22199 -22.69641,-71.57559c0.94609,-13.76684 5.48147,-31.22552 13.6159,-52.36604c4.91577,-11.0555 7.85157,-17.84887 8.78791,-20.37013c0.94609,-2.90144 -0.38039,-5.81289 -3.96968,-8.72434c-2.83827,-2.13106 -5.38394,-3.0115 -7.6565,-2.6213c-2.0775,0.39019 -3.78436,1.55077 -5.10109,3.49174c-0.18532,0.4002 -1.22894,2.15107 -3.12112,5.24261z"/>
   <path id="svg_62" fill-rule="evenodd" fill="url(#r)" clip-rule="evenodd" d="m35.89484,232.48892l0,-4.36217l1.42401,7.56376c0.76077,3.29164 2.17503,6.20308 4.25253,8.72434l1.42401,-5.81289l1.42401,-11.92593l-0.84856,21.24056l7.37365,7.8539c3.40397,3.68183 6.33003,5.91294 8.78791,6.69333c0,-2.71135 0.46817,-6.59328 1.42401,-11.64579l2.55542,-13.37665c-7.93936,-4.66232 -12.95266,-10.48521 -15.03991,-17.45868c-1.32648,-4.27212 -2.17503,-7.95395 -2.55542,-11.0555l0,-3.49174l0.84856,6.40318c1.13141,5.2326 3.12112,9.70483 5.95939,13.38666c4.73045,6.01299 8.60259,8.72434 11.62618,8.14405l3.12112,-13.96694c0.5657,-2.52125 2.6432,-6.59328 6.24225,-12.22608l5.10109,-7.8539l-3.68683,8.4442c-2.6432,6.40318 -4.25253,10.96545 -4.82799,13.6768c-0.94609,4.45221 -1.51179,8.43419 -1.69711,11.92593l3.96968,-0.59029c3.02359,-0.77038 5.57901,-1.65082 7.6565,-2.6213c3.40397,-1.55077 9.1683,-6.01299 17.30272,-13.38666c-1.89218,3.11155 -5.76432,7.57377 -11.62618,13.38666c-5.86186,5.6328 -12.00657,8.2441 -18.43413,7.8539l-2.55542,25.90288c4.7207,-0.39019 9.74376,-1.85092 15.03016,-4.37217c5.11084,-2.52125 9.26583,-4.94246 12.48449,-7.28362c0.19507,-6.01299 0.66324,-10.57526 1.42401,-13.66679c0.38039,-1.94097 1.13141,-3.97197 2.26281,-6.11304l1.42401,-2.90144l-0.5657,8.43419c0,3.88193 0.46817,7.18357 1.42401,9.89492c1.69711,-0.98049 3.87214,-2.52125 6.5251,-4.66232l7.93936,-6.98347c-3.40397,7.18357 -11.2458,14.26709 -23.54497,21.24056c-12.28942,6.98347 -20.52138,10.6653 -24.67638,11.0555l0.28285,13.38666c0,6.02299 1.89218,14.54723 5.67654,25.60273c6.42756,0.59029 14.74731,-0.58029 24.95923,-3.49174c10.21192,-2.71135 16.83456,-5.71284 19.85814,-9.01448l-0.28285,-11.34564c0,-2.14106 0.38039,-5.15256 1.13141,-9.02449l1.13141,-5.2326l1.42401,11.35565c0.94609,5.4227 2.74074,8.92444 5.39369,10.47521l19.56554,-16.58825c-1.69711,3.50174 -4.35006,7.37367 -7.93936,11.63579c-6.99327,8.73434 -14.64977,15.42767 -22.96951,20.07998c-8.50506,4.85241 -17.68311,8.054 -27.51465,9.60478l-12.48449,0.59029l2.27257,4.07202c2.0775,3.68183 5.0133,7.66381 8.78791,11.91592c6.24225,6.98347 16.45417,11.73583 30.63577,14.26709l-13.91826,0.57028c-5.48147,0 -11.15801,-1.75087 -17.01987,-5.2326c-3.58929,-2.13106 -7.47119,-6.97347 -11.62618,-14.54723l-5.10109,-10.76535c-2.83827,-1.74087 -6.14471,-4.27212 -9.92907,-7.56376c-7.37365,-6.59328 -13.04044,-13.56675 -17.01987,-20.95042c-3.97943,-7.17357 -6.71041,-15.21757 -8.23196,-24.15201l-1.42401,-11.34564l3.12112,13.6768c1.32648,5.04251 3.49176,9.30463 6.5251,12.79636l0.84856,-10.19507c0.5657,-3.29164 0.66324,-6.30313 0.28285,-9.01448l-0.5657,-2.90144l1.98972,3.49174c1.13141,2.91145 1.79465,6.10303 1.97996,9.60478c0.38039,5.81289 -0.18532,10.57526 -1.69711,14.25709l4.53538,6.40318c3.21866,4.07202 8.98298,9.70483 17.30272,16.87839l-2.83827,-8.4442c-1.14116,-3.49174 -2.0775,-9.88491 -2.83827,-19.19955l-0.5657,-12.79636c-10.01685,-6.98347 -16.45417,-14.35714 -19.29244,-22.11099c-1.69711,-4.67232 -2.82852,-8.93444 -3.39422,-12.81637z"/>
   <path id="svg_63" fill-rule="evenodd" fill="#90CC3F" clip-rule="evenodd" d="m241.25497,286.61583c-5.10109,17.25858 -17.86843,29.5747 -38.29227,36.93837c-19.67283,7.37367 -43.87128,13.38666 -72.61487,18.03897c-14.36692,2.33116 -26.75387,3.98198 -37.16087,4.95246c7.93936,-1.55077 16.54195,-5.6328 25.80778,-12.22608c18.71698,-13.18656 31.28926,-32.68625 37.72657,-58.48908c5.29616,-20.95042 7.93936,-38.88934 7.93936,-53.82676c-0.19507,-11.63579 -0.09754,-17.73882 0.28285,-18.32911c1.69711,-2.52125 4.06721,-4.27212 7.0908,-5.2326c1.51179,-0.39019 6.90548,-1.26063 16.17132,-2.6213c7.17858,-1.16058 12.47474,-3.58178 15.87871,-7.28362c2.0775,-2.32115 4.35006,-6.78337 6.80795,-13.37665c2.45788,-6.98347 5.19862,-11.0555 8.22221,-12.22608l-5.38394,12.50622c-2.6432,9.31463 -1.42401,16.098 3.68683,20.37013c6.24225,5.4327 11.91879,13.28661 17.01987,23.56171c5.10109,10.47521 7.93936,20.27008 8.50506,29.39461c1.15091,17.86888 0.58521,30.47515 -1.68736,37.84882z"/>
   <path id="svg_64" fill-rule="evenodd" fill="#6A9431" clip-rule="evenodd" d="m244.09324,286.61583c-4.91577,17.25858 -17.58558,29.5747 -38.00942,36.93837c-19.85814,7.37367 -44.06635,13.38666 -72.61487,18.03897c-14.37667,2.33116 -26.76363,3.98198 -37.16087,4.95246c7.93936,-1.55077 16.5517,-5.6328 25.80778,-12.22608c18.53167,-13.18656 31.01616,-32.68625 37.44372,-58.48908c5.29616,-20.95042 7.93936,-38.88934 7.93936,-53.82676c-0.19507,-11.63579 -0.09754,-17.73882 0.28285,-18.32911c1.69711,-2.52125 4.06721,-4.27212 7.0908,-5.2326c1.51179,-0.39019 6.90548,-1.26063 16.17132,-2.6213c7.37365,-1.16058 12.58203,-3.29164 15.60561,-6.40318c2.0775,-2.13106 4.16475,-6.20308 6.24225,-12.22608c2.6432,-7.17357 4.73045,-11.92593 6.24225,-14.25709l-3.96968,12.50622c-1.70686,9.31463 0,16.098 5.10109,20.37013c6.24225,5.2326 11.90903,13.09651 17.01987,23.56171c5.11084,10.47521 7.93936,20.27008 8.51481,29.39461c1.13141,17.86888 0.5657,30.47515 -1.70686,37.84882z"/>
   <path id="svg_65" fill-rule="evenodd" fill="#658C2D" clip-rule="evenodd" d="m235.01272,215.32038c4.73045,8.54425 7.93936,16.97844 9.64622,25.31259c-0.76077,2.14106 -2.26281,5.14256 -4.53538,9.01448c-4.16475,6.59328 -12.28942,8.63429 -24.39353,6.11304c-12.1041,-2.32115 -15.6934,-7.28362 -10.77763,-14.83738c4.91577,-7.56376 6.99327,-14.74733 6.24225,-21.5307c-0.76077,-6.40318 -4.06721,-11.04549 -9.92907,-13.96694c-3.96968,-1.94097 -5.57901,-5.53275 -4.81823,-10.76535c5.10109,-1.36068 8.78791,-3.49174 11.06048,-6.40318c1.51179,-1.94097 3.30644,-5.6328 5.38394,-11.0555c2.6432,-7.17357 4.73045,-11.92593 6.24225,-14.25709l-3.96968,12.50622c-1.70686,9.31463 0,16.098 5.10109,20.37013c5.29616,4.47222 10.21192,10.97546 14.74731,19.4997z"/>
   <path id="svg_66" fill-rule="evenodd" fill="#8CC63F" clip-rule="evenodd" d="m9.80421,228.70704c0.5657,-1.75087 1.03387,-2.71135 1.41426,-2.91145c0.19507,-0.2001 0.76077,0.98049 1.70686,3.50174c1.31672,3.88193 7.0908,21.62075 17.30272,53.24647c5.67654,17.06849 17.01987,32.86634 34.03975,47.41357c8.31974,7.18357 16.17132,12.71632 23.54497,16.58825c-5.10109,-1.55077 -11.2458,-4.37217 -18.43413,-8.4442c-13.99628,-8.53424 -25.62247,-19.48969 -34.8883,-32.87635c-11.34333,-16.2981 -19.29244,-31.32557 -23.82782,-45.10242c-4.55489,-13.95694 -4.83774,-24.43215 -0.85831,-31.41562z"/>
   <path id="svg_67" fill-rule="evenodd" fill="#86C236" clip-rule="evenodd" d="m244.37609,281.37322c-4.91577,17.07849 -14.64977,31.81582 -29.21176,44.23199c-16.45417,14.15704 -35.93193,22.30109 -58.43327,24.43215c-23.44743,2.14106 -43.02273,2.14106 -58.71612,0l-16.17132,-4.07202c7.18834,1.16058 16.17132,0.68034 26.94894,-1.46073c15.87871,-3.29164 29.21176,-10.47521 39.99914,-21.5207c11.90903,-12.41617 19.47776,-28.70427 22.68666,-48.8843c4.73045,-30.84534 9.1683,-45.59267 13.33305,-44.23199c0.76077,0.2001 3.12112,1.16058 7.0908,2.91145c3.78436,1.55077 6.5251,2.04101 8.22221,1.46073c0.38039,-0.2001 2.27257,-2.32115 5.67654,-6.40318c2.83827,-3.68183 6.33978,-5.72285 10.49478,-6.11304c5.29616,-0.58029 8.98298,-1.16058 11.06048,-1.74087c2.0775,-0.59029 4.15499,-1.65082 6.24225,-3.20159c3.21866,-2.13106 8.12467,-3.10154 14.75706,-2.91145c7.74429,0.2001 11.99682,2.71135 12.76734,7.57377c0.75102,6.40318 0.5657,9.98496 -0.57546,10.75535c-0.75102,0.59029 -2.26281,0 -4.54514,-1.74087c-1.88243,-1.55077 -3.67707,-2.32115 -5.38394,-2.32115c-1.89218,-0.2001 -3.03334,0.67033 -3.41373,2.6213c-0.18532,1.36068 0,7.66381 0.57546,18.9094c0.19507,12.79636 -0.94609,23.37162 -3.40397,31.70576z"/>
   <path id="svg_68" fill-rule="evenodd" fill="#60872C" clip-rule="evenodd" d="m247.20461,281.37322c-4.90601,17.07849 -14.64977,31.81582 -29.21176,44.23199c-16.45417,14.15704 -35.83439,22.30109 -58.14066,24.43215c-23.44743,2.14106 -43.02273,2.14106 -58.71612,0l-16.45417,-4.07202c7.18834,1.16058 16.17132,0.68034 26.94894,-1.46073c15.87871,-3.29164 29.21176,-10.47521 39.98939,-21.5207c12.1041,-12.41617 19.67283,-28.70427 22.69641,-48.8843c4.73045,-30.84534 9.1683,-45.59267 13.33305,-44.23199c0.76077,0.2001 3.12112,1.16058 7.0908,2.91145c3.78436,1.55077 6.5251,2.04101 8.23196,1.46073c0.5657,-0.2001 2.45788,-2.32115 5.67654,-6.40318c2.83827,-3.68183 6.33003,-5.72285 10.49478,-6.11304c5.49123,-0.58029 9.1683,-1.16058 11.06048,-1.74087c2.0775,-0.59029 4.16475,-1.65082 6.24225,-3.20159c3.21866,-2.13106 7.75404,-3.10154 13.6159,-2.91145c6.80795,0.2001 10.49478,2.71135 11.07023,7.57377c0.5657,5.6228 0.75102,8.92444 0.5657,9.88491c-0.19507,0.78039 -1.13141,0.49024 -2.83827,-0.87043c-1.88243,-1.55077 -3.58929,-2.32115 -5.09133,-2.32115c-1.89218,-0.2001 -3.12112,0.67033 -3.69658,2.6213c-0.19507,1.36068 0,7.66381 0.57546,18.9094c0.16581,12.79636 -0.97535,23.37162 -3.44299,31.70576z"/>
   <path id="svg_69" fill-rule="evenodd" fill="#537526" clip-rule="evenodd" d="m250.04288,230.74805c-0.19507,1.36068 0,7.66381 0.57546,18.9094c0.19507,12.80637 -0.94609,23.38163 -3.41373,31.71577c-4.90601,17.07849 -14.64977,31.81582 -29.21176,44.23199c-16.45417,14.15704 -35.83439,22.30109 -58.14066,24.43215c-1.14116,0.2001 -2.74074,0.29014 -4.82799,0.29014c23.44743,-3.88193 42.5448,-12.79636 57.30186,-26.77331c11.91879,-11.44569 18.15128,-22.70129 18.71698,-33.74678c0.76077,-15.90791 -0.46817,-30.64524 -3.68683,-44.23199l-5.10109,-15.41767l6.80795,-2.91145c2.6432,-0.97048 4.81823,-1.16058 6.5251,-0.58029c2.45788,0.77038 4.91577,1.16058 7.37365,1.16058c3.97943,0 6.62263,0.39019 7.94911,1.16058l-0.86806,1.76088z"/>
   <use x="-4.70819" id="svg_70" xlink:href="#w" opacity="0.1992" enable-background="new" height="20.55" width="13.75" y="-56.88273" transform="matrix(5.67264, 0, 0, -5.81889, 194.373, 16.9006)"/>
   <path id="svg_71" fill-rule="evenodd" fill="#94D142" clip-rule="evenodd" d="m35.32914,162.36405c3.58929,-2.32115 8.51481,-2.80139 14.74731,-1.46073c3.21866,0.78039 6.05693,1.75087 8.51481,2.91145c1.51179,1.16058 3.87214,3.30164 7.0908,6.40318c2.26281,2.14106 5.19862,4.07202 8.78791,5.8229c5.11084,2.32115 9.08052,4.55226 11.91879,6.69333c3.02359,2.32115 6.62263,5.92294 10.77763,10.76535c3.78436,4.45221 6.33003,8.92444 7.6565,13.38666c1.51179,4.45221 1.51179,5.81289 0,4.07202c-0.5657,-0.59029 -1.22894,1.06053 -1.98972,4.94246c-0.94609,4.45221 -2.17503,6.98347 -3.68683,7.56376c-1.51179,0.59029 -2.6432,-1.65082 -3.40397,-6.69333c-1.13141,-5.6328 -2.36035,-8.82439 -3.68683,-9.60478c-1.69711,-0.97048 -3.87214,0.88044 -6.5251,5.53275c-3.40397,6.59328 -5.19862,9.89492 -5.39369,9.89492c-1.31672,1.36068 -3.12112,0.39019 -5.38394,-2.91145c-1.89218,-3.11155 -3.40397,-6.69333 -4.53538,-10.76535c-0.38039,-1.93096 -0.5657,-6.01299 -0.5657,-12.21607c0.18532,-5.05251 -0.38039,-8.54425 -1.70686,-10.48521c-1.32648,-1.93096 -3.58929,-3.58178 -6.80795,-4.94246l-4.53538,-1.75087l-2.27257,0c-1.51179,0 -3.40397,-0.48024 -5.67654,-1.45072c-2.6432,-1.17058 -4.73045,-2.52125 -6.24225,-4.08203c-1.32648,-1.35067 -3.59904,-0.58029 -6.80795,2.33116c-1.70686,1.36068 -3.87214,3.19159 -6.5251,5.53275c-1.88243,0.97048 -2.26281,-1.36068 -1.13141,-6.98347c1.14116,-5.81289 3.59904,-9.97496 7.38341,-12.50622z"/>
   <g id="svg_72" fill-rule="evenodd" fill="#7DB038" clip-rule="evenodd">
    <path id="svg_73" d="m54.32898,179.53259c-1.51179,0 -3.40397,-0.48024 -5.67654,-1.45072c-2.6432,-1.17058 -4.73045,-2.52125 -6.24225,-4.08203c-1.32648,-1.35067 -3.59904,-0.58029 -6.80795,2.33116c-1.70686,1.36068 -3.87214,3.19159 -6.5251,5.53275c-1.31672,0.58029 -1.79465,-0.88044 -1.41426,-4.37217c2.27257,-0.78039 4.35006,-2.04101 6.24225,-3.78188l5.10109,-4.94246l3.12112,-0.59029c2.0775,0 3.2089,0.87043 3.40397,2.6213c0.19507,1.94097 1.51179,3.88193 3.96968,5.8229c2.04824,1.78089 4.03795,2.74136 5.95939,2.90144l-1.13141,0l0,0.01z"/>
    <path id="svg_74" d="m96.30808,219.9827c0.94609,0 2.0775,-1.55077 3.40397,-4.66232c1.32648,-3.88193 2.83827,-7.27362 4.53538,-10.18506c0.75102,2.32115 1.22894,4.07202 1.41426,5.2326c0,1.16058 -0.28285,1.36068 -0.84856,0.59029c-0.5657,-0.59029 -1.22894,1.06053 -1.98972,4.94246c-0.94609,4.45221 -2.17503,6.98347 -3.68683,7.56376c-1.30697,0.59029 -2.26281,-0.57028 -2.82852,-3.48173z"/>
    <path id="svg_75" d="m82.12648,212.40893c1.51179,-3.88193 3.50151,-6.49323 5.95939,-7.8539c2.45788,-1.35067 3.78436,-0.48024 3.96968,2.6213c-1.69711,-0.97048 -3.87214,0.88044 -6.5251,5.53275c-3.40397,6.59328 -5.19862,9.89492 -5.39369,9.89492c-0.94609,1.36068 -2.55542,0.67033 -4.81823,-2.04101c1.89218,0.2001 3.21866,-0.28014 3.96968,-1.46073c0.38039,-0.38019 1.32648,-2.6213 2.83827,-6.69333z"/>
   </g>
   <path id="svg_76" fill-rule="evenodd" fill="#C1FA73" clip-rule="evenodd" d="m42.13709,161.49362c-0.76077,-0.97048 0.28285,-1.06053 3.11137,-0.29014c2.0775,0.59029 4.64267,2.6213 7.66626,6.11304c1.13141,1.74087 5.94964,4.17207 14.46445,7.27362c2.27257,1.36068 3.78436,2.52125 4.53538,3.50174c0.94609,0.97048 1.51179,2.4212 1.69711,4.36217c0.19507,1.36068 1.22894,2.4212 3.12112,3.20159c2.45788,0.97048 4.06721,1.84092 4.81823,2.6213c3.96968,3.29164 7.18834,4.84241 9.64622,4.65231c1.69711,0 3.59904,2.6213 5.67654,7.8539c-0.94609,-1.93096 -2.0775,-3.58178 -3.40397,-4.94246c-0.57546,-0.39019 -2.0775,-0.68034 -4.53538,-0.87043c-2.27257,-0.2001 -4.06721,-0.88044 -5.39369,-2.04101c-1.51179,-1.55077 -2.6432,-2.6213 -3.40397,-3.19159c-0.76077,-0.59029 -2.26281,-1.06053 -4.53538,-1.46073c-2.26281,-0.39019 -3.87214,-1.55077 -4.81823,-3.50174c-0.76077,-2.32115 -1.42401,-4.06202 -1.98972,-5.2326c-1.13141,-2.90144 -6.33003,-5.71284 -15.60561,-8.43419c-1.13141,-0.2001 -2.26281,-1.26063 -3.40397,-3.20159c-1.14116,-1.74087 -2.3701,-2.91145 -3.68683,-3.49174c-2.0775,-0.79039 -3.39422,-1.75087 -3.95992,-2.92145z"/>
   <path id="svg_77" fill-rule="evenodd" fill="#446120" clip-rule="evenodd" d="m406.06,372.14836c9.83154,3.30164 20.13124,1.55077 30.91862,-5.2226c5.49123,-3.30164 9.92907,-6.98347 13.33305,-11.0555c-4.35006,5.6328 -9.93883,11.63579 -16.74677,18.03897c-13.79146,12.79636 -27.12451,21.44066 -39.98939,25.89287c-15.50808,5.4327 -36.01971,7.37367 -61.55439,5.8229c-26.28571,-1.55077 -33.75689,-3.68183 -22.41356,-6.40318c1.70686,-0.38019 15.50808,-6.01299 41.4134,-16.87839c27.04648,-10.09502 45.38308,-13.48671 55.03905,-10.19507z"/>
   <path id="svg_78" fill-rule="evenodd" fill="#6E9C33" clip-rule="evenodd" d="m241.53782,370.11735c9.83154,1.16058 18.34635,4.27212 25.52493,9.31463c54.65866,7.57377 80.56398,13.18656 77.72571,16.87839c-3.41373,4.46222 -8.78791,7.8539 -16.17132,10.19507c-12.85512,3.88193 -32.80105,5.2326 -59.84753,4.07202c-12.28942,-0.2001 -24.95923,-3.0115 -38.00942,-8.4442c-22.13071,-9.31463 -40.84769,-24.15201 -56.1607,-44.52214l-3.96968,-5.52275l15.87871,9.31463c12.1041,6.20308 21.74057,9.11453 28.92891,8.72434c12.86488,-0.39019 21.56501,-0.39019 26.10039,-0.01z"/>
   <path id="svg_79" fill-rule="evenodd" fill="#3C571C" clip-rule="evenodd" d="m437.26148,293.00901c3.96968,-4.07202 7.47119,-7.27362 10.48502,-9.59477c-0.37063,0.39019 -0.84856,1.06053 -1.41426,2.03101c-1.13141,1.94097 -1.8044,4.27212 -1.98972,6.98347c-0.18532,2.32115 0.28285,8.2441 1.42401,17.74882c0.38039,10.08501 -0.84856,18.80935 -3.68683,26.18302c-3.78436,9.88491 -10.01685,18.99945 -18.71698,27.34359c-9.84129,9.11453 -20.141,14.54723 -30.92838,16.2981c10.22168,-26.00293 18.91205,-46.36305 26.10039,-61.10038c4.54514,-9.10453 10.77763,-17.73882 18.72674,-25.89287z"/>
   <path id="svg_80" fill-rule="evenodd" fill="#83B83C" clip-rule="evenodd" d="m168.35725,323.85434l10.49478,25.31259c9.83154,19.00945 22.40381,34.03692 37.72657,45.10242c9.26583,6.79338 22.40381,11.63579 39.42368,14.54723c8.70988,1.55077 16.36639,2.32115 22.97927,2.32115c-8.3295,0.78039 -18.0635,0.2001 -29.21176,-1.75087c-22.32578,-3.88193 -40.84769,-12.30612 -55.60475,-25.30258c-15.87871,-13.96694 -24.95923,-28.22403 -27.2318,-42.77127l1.42401,-17.45868z"/>
   <path id="svg_81" fill-rule="evenodd" fill="#6B9630" clip-rule="evenodd" d="m355.56609,193.79968l6.5251,4.36217c0.76077,0 2.83827,-0.67033 6.24225,-2.03101c3.41373,-1.16058 5.87161,-0.77038 7.38341,1.16058c2.6432,3.11155 4.43785,6.49323 5.38394,10.18506l1.70686,3.79189c1.70686,2.13106 3.68683,2.4212 5.95939,0.87043c3.40397,-2.71135 6.89573,-5.8229 10.48502,-9.31463l-5.66679,15.41767c-3.58929,10.8654 -5.19862,17.55873 -4.81823,20.07998c0.37063,3.29164 -7.18834,5.4327 -22.69641,6.40318c-15.6934,1.16058 -25.04701,-0.2001 -28.08035,-4.07202c-2.45788,-3.10154 -4.91577,-8.33414 -7.37365,-15.70781l-3.12112,-9.88491c4.7207,-1.55077 9.08052,-5.15256 13.05019,-10.76535c2.26281,-3.11155 4.7207,-6.98347 7.37365,-11.64579c1.50204,-1.96097 4.05746,-1.57078 7.64675,1.15057z"/>
   <path id="svg_82" fill-rule="evenodd" fill="#5C822A" clip-rule="evenodd" d="m219.41686,260.13266c3.78436,4.85241 7.85157,28.42413 12.19189,70.70515c2.0775,20.95042 3.78436,41.51064 5.11084,61.68067c-3.78436,-0.58029 -8.3295,-2.91145 -13.6159,-6.97347c-10.21192,-8.14405 -18.71698,-21.05047 -25.52493,-38.69924c-8.70013,-22.89138 -13.71343,-44.42209 -15.03991,-64.59211c-1.32648,-19.39965 1.13141,-28.91438 7.37365,-28.52418c5.48147,0.39019 8.03689,1.46073 7.6565,3.20159l5.94964,-4.94246c4.92552,-1.94097 10.22168,0.77038 15.89822,8.14405z"/>
   <path id="svg_83" fill-rule="evenodd" fill="#89BF3F" clip-rule="evenodd" d="m244.09324,319.78232c-23.6425,-30.06495 -30.45045,-58.18893 -20.42385,-84.38195l10.77763,-17.74882c11.34333,-12.60627 27.31958,-20.26007 47.93849,-22.98143c25.1543,-3.49174 47.08994,-1.36068 65.80692,6.40318c19.09737,8.14405 32.14756,21.34061 39.15058,39.56967c8.13443,21.5307 6.24225,46.36305 -5.67654,74.48703c-13.23551,31.04544 -32.99612,47.03338 -59.28183,48.00387c-28.74359,0.97048 -54.85373,-13.4767 -78.29141,-43.35155z"/>
   <path id="svg_84" fill-rule="evenodd" fill="#689131" clip-rule="evenodd" d="m239.84071,212.69908l12.48449,8.73434c10.38749,6.01299 21.36018,9.59477 32.89858,10.75535c18.15128,1.94097 29.68968,4.17207 34.60545,6.70333l0,18.32911c0.37063,13.18656 1.69711,22.30109 3.96968,27.34359c3.40397,7.75386 8.88545,13.38666 16.45417,16.87839l0.28285,15.13753c-0.57546,10.4652 -2.93581,17.16854 -7.0908,20.06998c-4.16475,2.91145 -24.5886,-5.0325 -61.27154,-23.85186l-53.60528,-29.09447c2.6432,-10.6653 5.38394,-21.44066 8.22221,-32.30606c5.67654,-21.91089 8.8952,-33.46664 9.64622,-34.62722c1.31672,-2.32115 2.45788,-3.67183 3.40397,-4.07202z"/>
   <path id="svg_85" fill-rule="evenodd" fill="#A5E64C" clip-rule="evenodd" d="m354.71753,209.50749c-7.00302,0 -11.2458,1.06053 -12.76734,3.19159c-1.51179,2.14106 -2.45788,4.17207 -2.83827,6.11304c-0.19507,0.97048 -0.2731,1.74087 -0.2731,2.32115l7.9296,2.91145c5.86186,3.68183 10.30946,9.98496 13.33305,18.9094c3.03334,8.73434 2.74074,18.43917 -0.85831,29.09447c-1.69711,5.2326 -3.78436,9.60478 -6.24225,13.10652c2.45788,-12.80637 2.45788,-24.7423 0,-35.78779c-1.88243,-8.73434 -4.63292,-14.93743 -8.22221,-18.61926c-2.08725,-2.14106 -4.54514,-3.97197 -7.37365,-5.53275l-3.69658,-1.75087c-10.21192,-0.77038 -19.84839,-0.48024 -28.92891,0.88044c-5.67654,0.77038 -11.91879,3.39169 -18.72674,7.8439l-8.78791,6.41319l5.67654,-5.8229c4.34031,-4.07202 8.50506,-7.18357 12.47474,-9.31463c6.24225,-3.11155 16.2591,-4.46222 30.07007,-4.07202c-2.46764,-2.52125 -5.87161,-4.94246 -10.21192,-7.27362l-6.24225,-3.50174c-3.79411,0.2001 -8.03689,0.68034 -12.76734,1.46073c-9.4609,1.94097 -16.64924,5.04251 -21.56501,9.31463l-17.58558,16.2981l3.40397,-5.8229c3.21866,-4.65231 6.99327,-8.72434 11.34333,-12.22608c7.00302,-5.6228 18.15128,-9.88491 33.47404,-12.79636c-5.10109,-2.32115 -9.36337,-3.68183 -12.76734,-4.07202c-4.16475,-0.38019 -10.11439,1.07053 -17.86843,4.37217c-9.84129,4.07202 -16.45417,9.40468 -19.85814,16.00796c-2.44813,5.04251 -4.7207,9.79487 -6.7982,14.25709c-0.57546,1.36068 -0.85831,1.65082 -0.85831,0.87043c0,-2.52125 1.70686,-7.36366 5.11084,-14.54723c4.34031,-8.92444 8.88545,-14.54723 13.6159,-16.87839c7.55897,-3.68183 14.4547,-5.91294 20.7067,-6.69333c-9.4609,-1.16058 -15.79093,-1.36068 -19.00959,-0.58029l-4.53538,1.16058l9.36337,-2.6213c7.17858,-1.75087 12.85512,-2.23111 17.01987,-1.46073l3.68683,0.59029l3.96968,-1.17058c3.2089,-0.77038 5.94964,-1.16058 8.22221,-1.16058l7.93936,0.29014l-16.73702,3.78188l14.1816,7.28362l0,-1.46073c1.13141,-1.16058 4.26228,-2.52125 9.36337,-4.07202c8.31974,-2.32115 16.91258,-2.14106 25.80778,0.58029c-11.34333,-0.77038 -18.34635,-0.48024 -20.98955,0.88044c-1.69711,0.77038 -3.96968,2.13106 -6.80795,4.07202l-3.40397,2.90144l9.63647,6.11304c2.08725,1.16058 3.79411,2.8114 5.11084,4.94246l3.40397,-4.07202c2.82852,-2.90144 6.24225,-4.75236 10.21192,-5.53275c6.24225,-1.36068 13.51836,-0.97048 21.83811,1.17058c-3.16989,-0.39019 -6.58362,-0.48024 -10.17291,-0.29014z"/>
   <path id="svg_86" fill-rule="evenodd" fill="url(#s)" clip-rule="evenodd" d="m340.81879,352.36852c5.86186,21.13051 17.29297,30.83533 34.3226,29.09447c-2.0775,2.13106 -5.57901,4.55226 -10.49478,7.27362c-9.83154,5.6328 -21.93564,10.18506 -36.31231,13.6768c-13.04044,2.71135 -27.60243,3.68183 -43.68597,2.90144c-31.95249,-1.36068 -55.21461,-10.57526 -69.7766,-27.64374c-18.71698,-22.11099 -26.94894,-48.00387 -24.67638,-77.68863c1.13141,-14.54723 6.14471,-33.55668 15.03016,-57.02835c5.49123,-12.01597 8.60259,-19.38964 9.36337,-22.11099c1.13141,-3.29164 -0.28285,-6.49323 -4.26228,-9.59477c-5.67654,-4.46222 -10.30946,-4.08203 -13.89875,1.15057c-0.19507,0.39019 -1.32648,2.24111 -3.40397,5.53275c-0.76077,1.55077 -0.66324,0.98049 0.28285,-1.74087c2.26281,-5.05251 3.87214,-8.14405 4.81823,-9.31463c2.45788,-3.11155 6.42756,-5.14256 11.91879,-6.11304c5.10109,-0.97048 10.58256,1.16058 16.45417,6.40318c8.8952,7.57377 16.35663,12.80637 22.40381,15.71781c18.15128,8.53424 39.99914,14.35714 65.52407,17.44868c-1.51179,-0.2001 -1.32648,8.54425 0.57546,26.19302c1.69711,18.41916 5.0133,30.64524 9.92907,36.65823c3.78436,4.65231 7.00302,12.11602 9.64622,22.40114c1.32648,5.8329 3.40397,14.75734 6.24225,26.78332z"/>
   <path id="svg_87" fill-rule="evenodd" fill="url(#t)" clip-rule="evenodd" d="m246.93151,242.38384l-4.26228,9.31463c-2.83827,6.79338 -4.53538,11.73583 -5.10109,14.83738c-0.94609,4.84241 -1.60933,9.11453 -1.98972,12.79636l4.26228,-0.88044c3.40397,-0.58029 6.23249,-1.45072 8.51481,-2.6213c3.77461,-1.74087 10.01685,-6.59328 18.71698,-14.54723c-2.0775,3.50174 -6.24225,8.34415 -12.47474,14.54723c-6.42756,6.21309 -13.14773,9.01448 -20.141,8.4442l-2.83827,28.21403l4.80848,-0.85042c4.16475,-0.78039 8.03689,-2.04101 11.63594,-3.79189c5.67654,-2.71135 10.11439,-5.4327 13.32329,-8.13404c0.38039,-6.21309 0.95584,-11.0555 1.70686,-14.54723c0.38039,-2.14106 1.13141,-4.46222 2.26281,-6.98347l1.70686,-2.91145l-0.5657,9.31463c0,4.07202 0.46817,7.56376 1.42401,10.47521l7.0908,-4.66232l8.78791,-7.8439c-0.94609,1.93096 -2.6432,4.36217 -5.10109,7.27362c-5.29616,6.01299 -12.09435,11.35565 -20.42385,16.00796c-13.43058,7.56376 -22.41356,11.53574 -26.94894,11.92593l0.5657,14.25709c0,6.59328 1.98972,15.90791 5.95939,27.93389l7.37365,0c6.24225,-0.39019 12.85512,-1.55077 19.85814,-3.49174c10.96294,-3.11155 18.14153,-6.41319 21.55525,-9.89492l-0.57546,-12.51622c0,-2.32115 0.47792,-5.6328 1.42401,-9.88491l1.13141,-5.53275l1.70686,12.51622c0.94609,5.81289 2.92605,9.59477 5.95939,11.34564l2.54567,-2.6213c1.70686,-1.75087 7.85157,-6.88342 18.44388,-15.41767c-1.89218,3.68183 -4.7207,7.8539 -8.51481,12.50622c-7.37365,9.50473 -15.68364,16.78835 -24.95923,21.83085c-9.26583,5.2326 -19.29244,8.62429 -30.06031,10.18506l-13.3428,0.87043l2.27257,4.37217c2.26281,4.07202 5.49123,8.4442 9.64622,13.09651c4.34031,4.66232 11.2458,8.63429 20.69695,11.92593c4.73045,1.75087 8.99273,2.91145 12.76734,3.49174l-15.31301,0.59029c-6.04718,0 -12.19189,-1.94097 -18.44388,-5.81289c-3.95992,-2.33116 -8.21245,-7.57377 -12.75759,-15.71781l-5.39369,-11.63579c-3.2089,-1.93096 -6.80795,-4.65231 -10.77763,-8.14405c-8.12467,-7.18357 -14.26938,-14.74733 -18.43413,-22.69128c-4.16475,-7.96396 -7.18834,-16.78835 -9.08052,-26.47316l-1.42401,-12.22608l3.40397,14.82737c1.32648,5.6328 3.68683,10.27511 7.0908,13.96694l0.84856,-11.35565c0.5657,-3.67183 0.66324,-6.88342 0.28285,-9.59477l-0.5657,-3.20159l1.98972,3.78188c1.51179,3.30164 2.36035,6.88342 2.55542,10.76535c0.18532,6.21309 -0.5657,11.35565 -2.26281,15.42767l5.10109,6.69333c3.40397,4.45221 9.64622,10.6553 18.72674,18.60925l-3.12112,-9.31463c-1.13141,-3.88193 -2.0775,-10.8554 -2.83827,-20.94041l-0.57546,-13.96694c-10.96294,-7.56376 -18.05374,-15.52772 -21.2724,-23.86186c-1.88243,-5.04251 -3.02359,-9.70483 -3.40397,-13.96694l0,-4.65231l1.42401,8.14405c0.76077,3.49174 2.26281,6.59328 4.53538,9.31463l1.42401,-6.10303l1.69711,-13.10652l-0.84856,22.99143l7.93936,8.72434c3.58929,4.07202 6.71041,6.49323 9.36337,7.28362c0.18532,-3.11155 0.75102,-7.37367 1.69711,-12.79636l2.83827,-14.54723c-8.70013,-4.85241 -14.1816,-11.0555 -16.45417,-18.61926c-1.51179,-4.66232 -2.3701,-8.73434 -2.55542,-12.22608l0,-3.78188l0.84856,6.97347c1.14116,5.4327 3.30644,10.19507 6.5251,14.26709c4.91577,6.59328 9.07076,9.59477 12.47474,9.01448l3.40397,-15.13753c0.5657,-2.71135 2.83827,-7.17357 6.80795,-13.38666c1.91169,-3.13156 3.80387,-5.94295 5.69605,-8.46421z"/>
   <path id="svg_88" fill-rule="evenodd" fill="#90CC3F" clip-rule="evenodd" d="m390.18129,216.20082c1.69711,-4.85241 3.77461,-8.54425 6.23249,-11.0555c1.14116,-1.16058 2.08725,-1.93096 2.83827,-2.32115l-5.94964,13.66679c-2.83827,9.89492 -1.51179,17.26859 3.96968,22.121c6.80795,5.81289 12.95266,14.25709 18.44388,25.31259c5.49123,11.44569 8.50506,22.21104 9.07076,32.29606c1.32648,19.00945 0.76077,32.7763 -1.69711,41.32054c-5.49123,18.60925 -19.29244,32.00591 -41.4134,40.14996c-21.55525,7.76386 -47.93849,14.26709 -79.13997,19.4997l-40.27224,5.2326c8.70013,-1.55077 18.0635,-6.02299 28.08035,-13.38666c20.22878,-14.35714 33.84467,-35.49765 40.84769,-63.43154c5.86186,-22.70129 8.70013,-42.19098 8.50506,-58.48908c0,-12.79636 0.19507,-19.48969 0.57546,-20.07998c1.89218,-2.71135 4.4476,-4.55226 7.6565,-5.53275c1.70686,-0.38019 7.55897,-1.36068 17.58558,-2.90144c7.76379,-1.16058 13.52812,-3.78188 17.30272,-7.8539c2.24331,-2.52125 4.70119,-7.37367 7.3639,-14.54723z"/>
   <path id="svg_89" fill-rule="evenodd" fill="#6A9431" clip-rule="evenodd" d="m392.43435,218.23183l6.80795,-15.41767l-4.53538,13.66679c-1.70686,9.89492 0.19507,17.26859 5.66679,22.121c6.80795,5.81289 12.95266,14.25709 18.44388,25.31259c5.49123,11.44569 8.60259,22.21104 9.36337,32.29606c1.13141,19.39965 0.47792,33.16649 -1.98972,41.32054c-5.49123,18.60925 -19.28269,32.00591 -41.40364,40.14996c-21.56501,7.76386 -47.93849,14.26709 -79.13997,19.4997l-40.28199,5.2326c8.70988,-1.55077 18.07325,-6.02299 28.0901,-13.38666c20.22878,-14.35714 33.93246,-35.49765 41.13055,-63.43154c5.66679,-22.70129 8.40752,-42.19098 8.22221,-58.48908c0,-12.79636 0.19507,-19.48969 0.57546,-20.07998c1.88243,-2.71135 4.43785,-4.55226 7.6565,-5.53275c1.69711,-0.38019 7.55897,-1.36068 17.58558,-2.90144c7.93936,-1.16058 13.52812,-3.50174 16.73702,-6.98347c2.25306,-2.12105 4.62316,-6.58327 7.07129,-13.37665z"/>
   <path id="svg_90" fill-rule="evenodd" fill="#658C2D" clip-rule="evenodd" d="m399.2423,202.81416l-4.53538,13.66679c-1.70686,9.89492 0.19507,17.26859 5.66679,22.121c5.87161,5.04251 11.25555,12.12603 16.17132,21.23056c4.91577,9.12454 8.31974,18.23907 10.21192,27.3536c-0.94609,2.91145 -2.55542,6.20308 -4.81823,9.89492c-4.54514,7.17357 -13.43058,9.39467 -26.66609,6.68332c-13.05019,-2.52125 -16.92234,-7.8539 -11.62618,-16.00796c5.49123,-8.33414 7.76379,-16.088 6.80795,-23.27157c-0.94609,-7.17357 -4.53538,-12.31612 -10.77763,-15.41767c-4.34031,-2.33116 -6.04718,-6.21309 -5.09133,-11.63579c5.48147,-1.55077 9.45115,-3.89194 11.90903,-6.98347c1.89218,-2.14106 3.87214,-6.21309 5.94964,-12.22608l6.7982,-15.40766z"/>
   <path id="svg_91" fill-rule="evenodd" fill="#8CC63F" clip-rule="evenodd" d="m175.7309,255.48035c3.78436,-4.84241 6.14471,-7.08352 7.0908,-6.69333c0.94609,0.59029 1.69711,4.07202 2.26281,10.47521c1.89218,28.90437 4.82799,53.44657 8.79766,73.6066c3.58929,19.20955 15.12769,36.56818 34.60545,52.0859c9.83154,7.75386 19.1949,13.57675 28.08035,17.45868c-5.66679,-1.55077 -12.38696,-4.66232 -20.141,-9.31463c-15.31301,-9.11453 -27.98282,-20.96042 -37.99967,-35.50765c-11.72372,-16.87839 -19.85814,-36.46813 -24.39353,-58.76922c-4.54514,-21.5207 -3.96968,-35.97789 1.69711,-43.34155z"/>
   <path id="svg_92" fill-rule="evenodd" fill="#86C236" clip-rule="evenodd" d="m430.16092,297.37118c0.19507,13.96694 -1.03387,25.41263 -3.68683,34.33707c-5.2864,18.42916 -15.88847,34.42712 -31.76718,48.01387c-17.78065,15.31762 -38.85798,24.142 -63.2515,26.47316c-25.52493,2.52125 -46.70955,2.52125 -63.53436,0l-17.87818,-4.65231l7.93936,0.58029c6.62263,0.2001 13.6159,-0.49024 20.98955,-2.03101c17.39051,-3.50174 31.95249,-11.2556 43.68597,-23.28158c13.04044,-13.57675 21.2724,-31.22552 24.67638,-52.95633c5.10109,-33.55668 9.92907,-49.65469 14.46445,-48.29401c0.93634,0.39019 3.49176,1.54077 7.64675,3.49174c4.16475,1.55077 7.10055,2.04101 8.78791,1.46073c0.39014,-0.2001 2.46764,-2.52125 6.252,-6.98347c3.2089,-3.88193 7.0908,-6.10303 11.62618,-6.69333c5.86186,-0.77038 9.83154,-1.46073 11.90903,-2.03101c2.27257,-0.59029 4.54514,-1.65082 6.80795,-3.20159c3.41373,-2.52125 8.78791,-3.68183 16.17132,-3.49174c8.31974,0.2001 12.85512,3.0115 13.6159,8.4442c0.94609,6.78337 0.76077,10.6553 -0.5657,11.63579c-0.95584,0.58029 -2.6432,-0.10005 -5.11084,-2.04101c-2.0775,-1.54077 -3.96968,-2.4212 -5.66679,-2.6213c-1.89218,0 -3.12112,0.98049 -3.68683,2.91145c-0.36088,1.54077 -0.17556,8.51423 0.57546,20.93041z"/>
   <path id="svg_93" fill-rule="evenodd" fill="#60872C" clip-rule="evenodd" d="m433.2918,297.37118c0.19507,13.96694 -1.04363,25.41263 -3.68683,34.33707c-5.29616,18.42916 -15.88847,34.42712 -31.77693,48.01387c-17.77089,15.31762 -38.84822,24.142 -63.24175,26.47316c-25.52493,2.52125 -46.70955,2.52125 -63.54411,0l-17.86843,-4.65231l7.93936,0.58029c6.80795,0.2001 13.80121,-0.49024 20.98955,-2.03101c17.39051,-3.50174 31.94274,-11.2556 43.67621,-23.28158c13.05995,-13.57675 21.28216,-31.22552 24.67638,-52.95633c5.10109,-33.55668 9.93883,-49.65469 14.46445,-48.29401c0.94609,0.39019 3.49176,1.54077 7.6565,3.49174c4.16475,1.55077 7.0908,2.04101 8.78791,1.46073c0.38039,-0.2001 2.45788,-2.52125 6.24225,-6.98347c3.21866,-3.88193 7.10055,-6.10303 11.62618,-6.69333c5.87161,-0.77038 9.84129,-1.46073 11.91879,-2.03101c2.26281,-0.59029 4.54514,-1.65082 6.80795,-3.20159c3.40397,-2.52125 8.31974,-3.68183 14.74731,-3.49174c7.38341,0.2001 11.35308,3.0115 11.91879,8.4442c0.57546,6.20308 0.76077,9.69482 0.57546,10.47521c-0.19507,0.77038 -1.22894,0.48024 -3.12112,-0.88044c-1.88243,-1.54077 -3.68683,-2.4212 -5.39369,-2.6213c-2.0775,0 -3.40397,0.98049 -3.96968,2.91145c-0.37063,1.54077 -0.18532,8.51423 0.57546,20.93041z"/>
   <path id="svg_94" fill-rule="evenodd" fill="#537526" clip-rule="evenodd" d="m432.71634,276.43077c-0.37063,1.55077 -0.18532,8.53424 0.57546,20.95042c0.19507,13.96694 -1.04363,25.41263 -3.68683,34.33707c-5.29616,18.42916 -15.88847,34.42712 -31.77693,48.01387c-17.77089,15.31762 -38.84822,24.142 -63.24175,26.47316l-5.10109,0.58029c25.52493,-4.27212 46.23163,-13.96694 62.11034,-29.09447c13.05019,-12.60627 19.85814,-24.92239 20.42385,-36.94837c0.76077,-17.26859 -0.5657,-33.25653 -3.96968,-48.00387l-5.38394,-16.58825l7.37365,-3.19159c3.03334,-1.16058 5.29616,-1.46073 6.80795,-0.88044c3.02359,0.78039 5.76432,1.17058 8.22221,1.17058c3.78436,0 6.62263,0.48024 8.50506,1.45072l-0.85831,1.73086z"/>
   <use x="-4.70819" id="svg_95" xlink:href="#x" opacity="0.1992" enable-background="new" height="22.35" width="14.95" y="-58.68273" transform="matrix(5.67264, 0, 0, -5.81889, 370.423, 62.9235)"/>
   <path id="svg_96" fill-rule="evenodd" fill="#94D142" clip-rule="evenodd" d="m244.9418,219.10226c3.21866,1.75087 8.3295,4.07202 15.31301,6.98347c8.13443,3.68183 26.19792,8.4442 54.18074,14.25709c-1.70686,0.39019 -3.68683,1.85092 -5.94964,4.37217c-4.16475,5.04251 -7.28587,12.61627 -9.36337,22.70129c-1.32648,6.79338 -3.49176,10.37516 -6.5251,10.76535l-3.96968,-1.75087c-4.91577,-1.93096 -6.99327,-5.91294 -6.24225,-11.92593l2.55542,-8.4442l-5.39369,7.57377c-3.02359,4.45221 -4.63292,6.79338 -4.81823,6.97347c-2.45788,2.14106 -6.7982,3.50174 -13.05019,4.07202c-5.86186,0.78039 -10.01685,-4.94246 -12.47474,-17.16854c-1.70686,-12.99646 -3.03334,-20.26007 -3.96968,-21.82085c-1.32648,-2.14106 -4.53538,-3.58178 -9.64622,-4.37217c-4.15499,-0.77038 -8.79766,-0.87043 -13.89875,-0.29014c-3.59904,0.39019 -6.42756,-2.03101 -8.51481,-7.27362l-1.98972,-8.14405c-2.45788,0 -5.49123,1.94097 -9.08052,5.8229c-2.27257,2.52125 -4.26228,3.88193 -5.95939,4.07202l-1.69711,-0.29014c-1.13141,-2.14106 -1.51179,-5.14256 -1.13141,-9.01448c0.5657,-4.07202 1.41426,-7.18357 2.55542,-9.31463c1.89218,-3.30164 5.0133,-5.53275 9.35361,-6.69333c9.08052,-2.71135 17.68311,0.29014 25.80778,9.01448c3.79411,3.89194 8.42703,7.19358 13.9085,9.89492z"/>
   <g id="svg_97" fill-rule="evenodd" fill="#7DB038" clip-rule="evenodd">
    <path id="svg_98" d="m211.76036,210.96822l-0.84856,4.65231c-2.26281,0 -5.19862,1.94097 -8.78791,5.8229c-2.27257,2.52125 -4.26228,3.88193 -5.95939,4.07202l-1.69711,-0.29014l-1.13141,-4.07202c1.51179,0.58029 3.68683,-0.29014 6.51534,-2.6213c5.09133,-4.66232 9.07076,-7.18357 11.90903,-7.56376z"/>
    <path id="svg_99" d="m299.68824,251.10818c4.34031,-4.26212 6.89573,-6.69333 7.64675,-7.27362c2.83827,-2.33116 4.82799,-3.30164 5.95939,-2.91145c-2.26281,0.97048 -4.54514,3.11155 -6.80795,6.40318c-3.40397,4.84241 -5.86186,11.53574 -7.37365,20.07998c-1.32648,6.79338 -3.49176,10.37516 -6.5251,10.76535l-3.96968,-1.75087c-4.34031,-1.93096 -6.51534,-5.4327 -6.51534,-10.47521c0.75102,6.01299 3.57954,8.43419 8.50506,7.28362c1.88243,-0.59029 3.2089,-3.59179 3.95992,-9.02449c0.9656,-6.20308 2.65295,-10.57526 5.12059,-13.09651z"/>
    <path id="svg_100" d="m240.40641,229.29733c3.41373,1.93096 5.0133,4.07202 4.82799,6.40318c-1.32648,-2.14106 -4.53538,-3.58178 -9.64622,-4.37217c-4.15499,-0.77038 -8.79766,-0.87043 -13.89875,-0.29014c-1.89218,0.2001 -3.68683,-0.58029 -5.39369,-2.32115c1.51179,0.2001 3.58929,-0.10005 6.24225,-0.87043c3.02359,-0.78039 5.67654,-1.16058 7.93936,-1.16058c3.58929,-0.01 6.90548,0.86043 9.92907,2.6113z"/>
    <path id="svg_101" d="m274.72901,262.17368c1.51179,-2.71135 2.93581,-4.84241 4.26228,-6.40318c2.45788,-2.71135 5.56925,-5.2326 9.35361,-7.57377c-0.5657,0.78039 -1.22894,1.85092 -1.97996,3.20159c-1.32648,2.52125 -2.36035,4.84241 -3.12112,6.98347l-3.68683,5.2326c-1.69711,3.10154 -3.2089,5.33265 -4.53538,6.69333c-2.26281,2.13106 -6.24225,3.58178 -11.91879,4.36217c2.6432,-0.97048 4.91577,-2.52125 6.80795,-4.65231c1.51179,-2.13106 3.11137,-4.74236 4.81823,-7.8439z"/>
   </g>
   <path id="svg_102" fill-rule="evenodd" fill="#C1FA73" clip-rule="evenodd" d="m244.65894,222.604c0.76077,0.58029 2.6432,2.32115 5.67654,5.2326c1.89218,1.93096 3.58929,3.11155 5.10109,3.49174c0.5657,0.2001 3.03334,0.2001 7.37365,0c3.59904,0 6.24225,0.59029 7.93936,1.75087c1.32648,0.77038 2.83827,2.03101 4.54514,3.78188c1.69711,1.55077 3.2089,2.71135 4.53538,3.49174c1.32648,0.98049 3.30644,1.46073 5.94964,1.46073c2.6432,0.2001 4.26228,0.39019 4.82799,0.59029c1.6581,0.75037 3.21866,2.26112 4.67193,4.51224c-0.75102,-1.11055 -2.01898,-2.14106 -3.83313,-3.06152c-1.70686,-0.98049 -5.19862,-1.46073 -10.49478,-1.46073c-1.50204,0 -3.49176,-0.78039 -5.94964,-2.32115c-2.26281,-1.55077 -4.06721,-3.30164 -5.39369,-5.2326c-1.13141,-1.75087 -3.49176,-2.43121 -7.0908,-2.04101c-5.67654,0.39019 -8.61235,0.59029 -8.78791,0.59029c-2.27257,-0.2001 -4.82799,-1.65082 -7.66626,-4.37217c-2.6432,-3.11155 -4.4476,-5.04251 -5.38394,-5.8229c-1.32648,-1.16058 -3.68683,-2.4212 -7.0908,-3.78188c-3.58929,-1.36068 -6.42756,-2.03101 -8.51481,-2.03101c-1.89218,0 -3.78436,-1.16058 -5.67654,-3.50174c-0.18532,-0.19009 -1.51179,-2.03101 -3.96968,-5.52275c-1.89218,-2.71135 -5.49123,-3.79189 -10.77763,-3.20159c-4.16475,1.55077 -5.76432,1.85092 -4.82799,0.87043c1.51179,-1.93096 3.59904,-3.10154 6.24225,-3.49174c2.26281,-0.2001 4.4476,0.2001 6.51534,1.16058c3.78436,1.55077 6.62263,4.17207 8.51481,7.8539c1.14116,1.55077 2.17503,2.6213 3.12112,3.20159c0.76077,0.2001 2.36035,0.48024 4.81823,0.87043c5.32542,0.96048 10.52404,3.30164 15.62512,6.98347z"/>
  </g>
 </g>
</svg>