<svg width="500" height="500" xmlns="http://www.w3.org/2000/svg" xmlns:xlink="http://www.w3.org/1999/xlink" version="1.1" enable-background="new 0 0 90.75 41.6">
 <symbol viewBox="0 -9.55 6.745 9.55" id="ak">
  <path id="svg_1" fill-rule="evenodd" fill="url(#ab)" clip-rule="evenodd" d="m6.7,-5.55c0.133,-1.3 -0.034,-2.633 -0.5,-4c-0.267,2.6 -1.1,4.667 -2.5,6.2c-1.4,1.6 -2.633,2.717 -3.7,3.35c0.7,-0.2 1.5,-0.55 2.4,-1.05c1.767,-1 3.083,-2.284 3.95,-3.85l0.35,-0.65z"/>
 </symbol>
 <defs>
  <linearGradient y2="-Infinity" y1="-Infinity" x2="Infinity" x1="-Infinity" id="ab">
   <stop offset="0" stop-color="#D1C6C6"/>
   <stop offset="0.9451" stop-color="#C9B3AF"/>
   <stop offset="1" stop-color="#C9B2AD"/>
  </linearGradient>
  <linearGradient y2="-Infinity" y1="-Infinity" x2="Infinity" x1="-Infinity" id="ac">
   <stop offset="0" stop-color="#D1C6C6"/>
   <stop offset="0.9451" stop-color="#C9B3AF"/>
   <stop offset="1" stop-color="#C9B2AD"/>
  </linearGradient>
  <linearGradient y2="-Infinity" y1="-Infinity" x2="Infinity" x1="-Infinity" id="ad">
   <stop offset="0" stop-color="#D1C6C6"/>
   <stop offset="0.9451" stop-color="#C9B3AF"/>
   <stop offset="1" stop-color="#C9B2AD"/>
  </linearGradient>
  <linearGradient y2="-Infinity" y1="-Infinity" x2="Infinity" x1="-Infinity" id="ae">
   <stop offset="0" stop-color="#D1C6C6"/>
   <stop offset="0.9451" stop-color="#C9B3AF"/>
   <stop offset="1" stop-color="#C9B2AD"/>
  </linearGradient>
  <linearGradient y2="-Infinity" y1="-Infinity" x2="Infinity" x1="-Infinity" id="af">
   <stop offset="0" stop-color="#D1C6C6"/>
   <stop offset="0.9451" stop-color="#C9B3AF"/>
   <stop offset="1" stop-color="#C9B2AD"/>
  </linearGradient>
  <linearGradient y2="0.29962" y1="0.68077" x2="1.10012" x1="-0.10061" id="ag">
   <stop offset="0" stop-color="#C9FF55"/>
   <stop offset="0.1922" stop-color="#B4E74B"/>
   <stop offset="0.5961" stop-color="#7FAB33"/>
   <stop offset="1" stop-color="#456918"/>
  </linearGradient>
  <linearGradient y2="0.26221" y1="0.70745" x2="1.06757" x1="-0.08501" id="ah">
   <stop offset="0" stop-color="#A1C246"/>
   <stop offset="0.298" stop-color="#89AB3A"/>
   <stop offset="0.9216" stop-color="#4D711C"/>
   <stop offset="1" stop-color="#456918"/>
  </linearGradient>
  <linearGradient y2="0.2904" y1="0.68448" x2="1.09045" x1="-0.08314" id="ai">
   <stop offset="0" stop-color="#A5D146"/>
   <stop offset="0.2784" stop-color="#8FB93B"/>
   <stop offset="0.8627" stop-color="#577D20"/>
   <stop offset="1" stop-color="#496E19"/>
  </linearGradient>
  <linearGradient y2="0.13626" y1="0.58208" x2="0.84183" x1="0.26996" id="aj">
   <stop offset="0" stop-color="#A5D146"/>
   <stop offset="0.2784" stop-color="#8FB93B"/>
   <stop offset="0.8627" stop-color="#577D20"/>
   <stop offset="1" stop-color="#496E19"/>
  </linearGradient>
  <linearGradient y2="0.19324" y1="0.82355" x2="1.05541" x1="-0.07467" id="w">
   <stop offset="0" stop-color="#A5D146"/>
   <stop offset="0.2784" stop-color="#8FB93B"/>
   <stop offset="0.8627" stop-color="#577D20"/>
   <stop offset="1" stop-color="#496E19"/>
  </linearGradient>
  <linearGradient y2="0.34568" y1="0.6505" x2="1.14862" x1="-0.10022" id="x">
   <stop offset="0" stop-color="#A5D146"/>
   <stop offset="0.2784" stop-color="#8FB93B"/>
   <stop offset="0.8627" stop-color="#577D20"/>
   <stop offset="1" stop-color="#496E19"/>
  </linearGradient>
  <linearGradient y2="0.46567" y1="0.6633" x2="0.80709" x1="-0.05467" id="y">
   <stop offset="0" stop-color="#A5D146"/>
   <stop offset="0.2784" stop-color="#8FB93B"/>
   <stop offset="0.8627" stop-color="#577D20"/>
   <stop offset="1" stop-color="#496E19"/>
  </linearGradient>
  <radialGradient gradientUnits="userSpaceOnUse" gradientTransform="matrix(6.7662739753723145,9.82872486114502,9.740825653076172,-6.82733154296875,-28.22366714477539,30.615970611572266)" r="20.639" cy="2.1675" cx="20.472" id="z">
   <stop offset="0" stop-color="#F9584D"/>
   <stop offset="0.2549" stop-color="#E14E41"/>
   <stop offset="0.7922" stop-color="#A53521"/>
   <stop offset="1" stop-color="#8C2A14"/>
  </radialGradient>
  <linearGradient y2="0.24033" y1="0.9289" x2="0.60069" x1="-0.06442" id="aa">
   <stop offset="0" stop-color="#FFF7DE"/>
   <stop offset="0.4941" stop-opacity="0.9216" stop-color="#EADFCC"/>
   <stop offset="1" stop-opacity="0.8275" stop-color="#D1C3B6"/>
  </linearGradient>
 </defs>
 <symbol viewBox="-0.084 -5.656 4.706 5.647" id="al">
  <path id="svg_2" fill-rule="evenodd" fill="#fff" clip-rule="evenodd" d="m3.2,-0.1c1.6,0.4 1.85,-0.517 0.75,-2.75c-1.133,-2.233 -2.2,-3.133 -3.2,-2.7c-0.933,0.4 -1.083,1.333 -0.45,2.8s1.6,2.35 2.9,2.65z"/>
 </symbol>
 <symbol viewBox="0 -11 6.435 11" id="am">
  <path id="svg_3" fill-rule="evenodd" fill="url(#ac)" clip-rule="evenodd" d="m6.4,-9.1c-0.867,-0.867 -1.683,-1.5 -2.45,-1.9c0.5,1.067 0.75,2.2 0.75,3.4c0,1.333 -0.35,2.55 -1.05,3.65c-1.233,1.933 -2.45,3.25 -3.65,3.95c1.767,-0.767 3.25,-1.933 4.45,-3.5c1.5,-1.967 2.15,-3.833 1.95,-5.6z"/>
 </symbol>
 <symbol viewBox="-0.012 -14.369 13.936 14.391" id="an">
  <path id="svg_4" fill-rule="evenodd" fill="#fff" clip-rule="evenodd" d="m10.3,-0.05c0.9,-0.167 1.883,-0.8 2.95,-1.9c1.267,-1.3 0.75,-3.517 -1.55,-6.65c-2.167,-2.967 -4.233,-4.733 -6.2,-5.3c-1.833,-0.5 -3.117,-0.6 -3.85,-0.3c-1.2,0.5 -1.75,2 -1.65,4.5c0.133,4.1 2.017,6.983 5.65,8.65c1.933,0.9 3.483,1.233 4.65,1z"/>
 </symbol>
 <symbol viewBox="0 -2.527 2.857 2.531" id="ao">
  <path id="svg_5" fill-rule="evenodd" fill="url(#ad)" clip-rule="evenodd" d="m1.3,-0.3c1.367,-0.767 1.833,-1.383 1.4,-1.85c-0.467,-0.467 -1.067,-0.5 -1.8,-0.1c-0.6,0.333 -0.9,0.867 -0.9,1.6s0.433,0.85 1.3,0.35z"/>
 </symbol>
 <symbol viewBox="-0.017 -1.512 1.719 1.558" id="ap">
  <path id="svg_6" fill-rule="evenodd" fill="url(#ae)" clip-rule="evenodd" d="m1.1,-0.1c0.566,-0.367 0.733,-0.733 0.5,-1.1c-0.267,-0.333 -0.65,-0.4 -1.15,-0.2c-0.467,0.2 -0.583,0.533 -0.35,1s0.567,0.567 1,0.3z"/>
 </symbol>
 <symbol viewBox="0.015 -2.711 4.16 2.717" id="aq">
  <path id="svg_7" fill-rule="evenodd" fill="url(#af)" clip-rule="evenodd" d="m1.7,0c1.167,-0.033 1.917,-0.367 2.25,-1c0.3,-0.5 0.3,-0.967 0,-1.4c-0.2,-0.3 -0.6,-0.383 -1.2,-0.25c-0.6,0.167 -1.267,0.517 -2,1.05c-0.7,0.5 -0.9,0.917 -0.6,1.25c0.267,0.267 0.783,0.383 1.55,0.35z"/>
 </symbol>
 <symbol viewBox="0 -18.45 23.226 18.45" id="ar">
  <path id="svg_8" fill-rule="evenodd" clip-rule="evenodd" d="m22.05,0c1.4,-2.967 1.55,-5.783 0.45,-8.45c-1.567,-3.933 -3.95,-6.4 -7.15,-7.4c-2,-0.6 -5.033,-0.667 -9.1,-0.2c-1.5,0.167 -3.583,-0.633 -6.25,-2.4c0.533,0.434 1.383,1.233 2.55,2.4c0.9,0.867 1.65,1.466 2.25,1.8c2.633,1.4 5.3,2.35 8,2.85c2.034,0.367 4.1,1.383 6.2,3.05c2.867,2.233 3.883,5.017 3.05,8.35z"/>
 </symbol>
 <g>
  <title>Layer 1</title>
  <g id="svg_27">
   <path id="svg_9" fill-rule="evenodd" fill="url(#ag)" clip-rule="evenodd" d="m331.85479,106.93489c-21.73984,40.68874 -40.71625,64.62329 -56.92921,71.80366c-1.98066,0.78984 -27.66997,22.94127 -77.09164,66.41838c-37.56142,33.11345 -54.55716,39.30054 -50.99909,18.54928c3.55808,-19.94945 11.457,-33.3169 23.72051,-40.09038c7.91079,-4.39199 24.11189,-11.57236 48.62704,-21.5411c21.34845,-11.16547 37.15817,-21.5411 47.44101,-31.11492c9.87959,-9.57382 17.79038,-21.34962 23.72051,-35.30347c4.35271,-10.77055 7.50754,-20.73929 9.4882,-29.91819c1.98066,-7.98217 3.55808,-13.36745 4.7441,-16.15582c10.67423,-19.94945 19.56942,-32.51509 26.68557,-37.69692c5.53874,-3.59018 14.43393,-4.99035 26.68557,-4.18855c5.13549,0.39492 6.52314,2.99182 4.15109,7.77873c-4.35271,6.78545 -7.70916,12.17072 -10.08121,16.15582c-8.30218,13.55892 -15.02694,25.33472 -20.16243,35.30347z"/>
   <path id="svg_10" fill-rule="evenodd" fill="url(#ah)" clip-rule="evenodd" d="m472.39879,57.86905c-2.37205,9.96874 -9.67797,14.36073 -21.94147,13.164l4.7441,6.582c0,5.98364 -8.5038,12.56564 -25.49954,19.74601c-15.80972,7.18037 -35.97215,19.94945 -60.48729,38.29528c-26.88719,19.94945 -41.71251,30.72 -44.47595,32.31165c-24.51514,11.56039 -45.66197,21.73257 -63.45235,30.51655c-33.20871,16.75419 -53.37114,30.31311 -60.48729,40.68874c-5.53874,8.37709 -11.26724,17.14911 -17.19737,26.32801c-2.37205,3.19526 -1.18603,-1.59165 3.55808,-14.36073c8.69357,-23.13275 21.94147,-40.4853 39.73185,-52.05765c10.28284,-6.77348 26.28232,-15.16254 48.03402,-25.13128c14.62369,-7.98217 24.51514,-14.9591 29.65063,-20.94273c0.79464,-0.80181 8.5038,-11.57236 23.12749,-32.31165c7.91079,-11.16547 18.38339,-26.92637 31.42967,-47.27074c11.46886,-16.35927 22.33286,-28.1231 32.61569,-35.30347c22.14309,-14.75565 34.98775,-23.13275 38.54582,-25.13128c15.02694,-8.37709 28.26298,-12.3622 39.73185,-11.96728c11.86025,0.80181 18.18177,2.78838 18.9764,5.98364c0.40325,1.59165 -1.57741,5.98364 -5.93013,13.164l-18.38339,25.72964l5.33711,0.59836c3.16669,1.19673 3.94946,4.99035 2.37205,11.36891z"/>
   <path id="svg_11" fill-rule="evenodd" fill="url(#ai)" clip-rule="evenodd" d="m439.19008,21.96722c5.13549,-3.19526 12.06188,-8.37709 20.75544,-15.55746c-4.7441,9.57382 -13.04628,17.35255 -24.90653,23.33619l-37.95281,25.13128l8.89519,-5.38527c7.11615,-3.59018 13.04628,-6.18708 17.79038,-7.77873c9.87959,-2.78838 20.36405,-6.77348 31.42967,-11.96728c7.11615,-2.78838 13.84091,-6.37856 20.16243,-10.77055c-5.93013,5.98364 -13.63929,11.36891 -23.12749,16.15582c-3.94946,1.99854 -10.87585,4.78691 -20.75544,8.37709c-9.87959,3.19526 -17.992,6.39053 -24.31352,9.57382c-7.50754,3.59018 -15.80972,10.56711 -24.90653,20.94273l-11.86025,14.36073l10.67423,-7.77873c7.91079,-5.58872 14.42207,-9.57382 19.56942,-11.96728c17.39899,-7.18037 30.24364,-9.96874 38.54582,-8.37709c8.69357,1.59165 16.80598,0.59836 24.31352,-2.99182c-4.35271,2.39346 -10.08121,4.39199 -17.19737,5.98364c-15.02694,0.80181 -29.05762,3.79363 -42.1039,8.97546c-8.30218,3.19526 -17.58875,9.37038 -27.87159,18.54928l-13.04628,12.56564l36.76678,-21.5411c13.04628,-3.59018 21.94147,-4.39199 26.68557,-2.39346c3.94946,0.80181 10.28284,-0.20344 18.9764,-2.99182c-3.55808,1.59165 -9.4882,2.99182 -17.79038,4.18855c-18.9764,3.59018 -34.59636,9.37038 -46.848,17.35255c-18.9764,12.3622 -39.53022,30.12163 -61.67331,53.25438c-8.69357,9.1789 -24.70491,18.9442 -48.03402,29.31983c-9.91517,4.28428 -17.62434,7.47955 -23.12749,9.57382c7.87521,-3.2192 27.243,-13.98975 58.11524,-32.31165c12.25164,-7.57529 22.93773,-19.14764 32.02268,-34.7051c1.18603,-1.99854 4.35271,-8.97546 9.4882,-20.94273l10.08121,-21.5411l-5.33711,17.35255c-1.57741,5.58872 -2.17043,9.37038 -1.77904,11.36891c2.37205,-3.19526 5.14735,-8.17365 8.30218,-14.9591c6.32151,-13.96581 9.87959,-21.73257 10.67423,-23.33619l10.67423,-18.54928l-11.86025,30.51655l14.82532,-19.74601c4.35271,-5.98364 7.31778,-11.76383 8.89519,-17.35255l13.63929,-14.9591l-7.70916,10.77055l-5.33711,11.36891l4.15109,-4.78691c3.55808,-3.59018 7.50754,-6.582 11.86025,-8.97546l30.24364,-17.35255z"/>
   <path id="svg_12" fill-rule="evenodd" fill="url(#aj)" clip-rule="evenodd" d="m461.72456,137.45144c-0.39139,7.98217 -6.32151,14.9591 -17.79038,20.94273c-6.72476,3.59018 -13.43767,5.38527 -20.16243,5.38527l-7.70916,-1.79509l0.59301,8.97546c-1.57741,5.57675 -7.70916,8.17365 -18.38339,7.77873c-7.11615,0 -15.80972,-1.59165 -26.09256,-4.78691c-7.11615,-2.39346 -14.43393,-2.39346 -21.94147,0c-21.34845,8.77201 -40.12323,15.74894 -56.3362,20.94273c-18.9764,-0.80181 -32.81732,0.78984 -41.51088,4.78691c-14.2323,6.77348 -35.97215,36.50019 -65.23139,89.15621c-22.93773,40.68874 -22.33286,35.90183 1.77904,-14.36073c18.58502,-29.5113 28.26298,-44.67384 29.05762,-45.47565c14.62369,-20.34437 28.07322,-32.50312 40.32486,-36.50019c14.2323,-4.39199 26.09256,-10.37563 35.58076,-17.95091c7.91079,-5.98364 19.17803,-16.95763 33.80172,-32.91001c14.2323,-15.16254 32.61569,-27.72818 55.15018,-37.69692c23.32912,-10.37563 44.47595,-14.9591 63.45235,-13.76237c32.02268,1.99854 43.68131,11.96728 34.98775,29.91819c-3.94946,8.77201 -10.4726,14.56418 -19.56942,17.35255z"/>
   <path id="svg_13" fill-rule="evenodd" fill="url(#w)" clip-rule="evenodd" d="m416.06259,103.3447c-3.94946,2.39346 -6.52314,5.1938 -7.70916,8.37709c-0.79464,1.59165 -1.18603,2.99182 -1.18603,4.18855l13.04628,-6.582c3.16669,-1.59165 7.50754,-2.58493 13.04628,-2.99182l36.76678,-6.582l-4.7441,1.79509c-15.02694,6.37856 -26.09256,10.17218 -33.20871,11.36891c-4.7441,0.78984 -10.28284,2.99182 -16.60435,6.582l-7.70916,5.38527l7.11615,-1.19673c4.35271,-1.19673 14.2323,-0.59836 29.65063,1.79509c6.72476,-0.39492 14.82532,-2.39346 24.31352,-5.98364c-7.50754,5.98364 -16.21297,9.57382 -26.09256,10.77055c-3.55808,0.40689 -14.43393,0.20344 -32.61569,-0.59836c-6.32151,0 -14.2323,1.79509 -23.72051,5.38527l-12.45327,5.38527l5.93013,0c4.7441,0 8.69357,0.39492 11.86025,1.19673c13.04628,3.19526 21.94147,5.58872 26.68557,7.18037c8.69357,3.19526 17.39899,2.99182 26.09256,-0.59836c-6.32151,3.19526 -15.41833,4.99035 -27.27858,5.38527c-7.11615,0.39492 -14.43393,-0.39492 -21.94147,-2.39346c-11.06562,-3.19526 -16.80598,-4.78691 -17.19737,-4.78691c-4.35271,-0.39492 -8.69357,-0.20344 -13.04628,0.59836l-4.7441,1.19673l4.15109,1.19673c2.76344,0.80181 8.30218,3.9851 16.60435,9.57382l20.75544,9.57382l-6.52314,-0.59836c-2.76344,-0.40689 -6.7129,-1.59165 -11.86025,-3.59018c-7.11615,-3.19526 -12.45327,-5.38527 -16.01134,-6.582c-6.32151,-1.99854 -11.86025,-2.5969 -16.60435,-1.79509c-3.94946,0.39492 -10.08121,2.19001 -18.38339,5.38527l-45.06896,20.94273c-4.35271,1.99854 -15.2167,6.582 -32.61569,13.76237c-1.28091,0.50263 -2.46693,0.99328 -3.55808,1.49591l3.55808,-2.09427c8.69357,-5.18183 16.01134,-8.97546 21.94147,-11.36891c16.60435,-6.77348 29.85226,-13.76237 39.73185,-20.94273c5.93013,-4.39199 15.02694,-9.57382 27.27858,-15.55746c5.14735,-3.9851 10.28284,-11.36891 15.41833,-22.13946c3.55808,-4.39199 11.65863,-10.17218 24.31352,-17.35255c-2.37205,1.59165 -5.13549,3.59018 -8.30218,5.98364c-5.93013,5.18183 -10.08121,9.96874 -12.45327,14.36073s-3.74784,7.98217 -4.15109,10.77055c-0.39139,1.59165 -0.59301,2.78838 -0.59301,3.59018l2.96506,-4.18855c3.94946,-5.58872 10.08121,-12.76908 18.38339,-21.5411c9.87959,-9.57382 18.19363,-16.15582 24.90653,-19.74601l-4.7441,3.59018c-5.93013,4.78691 -12.25164,11.76383 -18.9764,20.94273l-8.89519,13.164l7.70916,-4.18855c6.72476,-3.19526 13.04628,-8.18562 18.9764,-14.9591c6.32151,-7.57529 12.84465,-12.96056 19.56942,-16.15582c7.91079,-3.9851 15.61995,-6.97692 23.12749,-8.97546l-24.90653,12.56564z"/>
   <path id="svg_14" fill-rule="evenodd" fill="url(#x)" clip-rule="evenodd" d="m316.43646,71.63142l0,2.39346c0,1.59165 0.39139,2.99182 1.18603,4.18855l5.33711,-11.36891l8.59868,-9.873l-5.04061,11.06973l12.45327,-10.17218c5.93013,-3.19526 11.07748,-4.78691 15.41833,-4.78691l-10.67423,4.78691c-3.55808,1.59165 -7.70916,5.38527 -12.45327,11.36891l-6.52314,8.37709l11.26724,-7.18037l12.45327,-4.78691c-9.09681,5.1938 -15.80972,10.17218 -20.16243,14.9591c-2.76344,3.59018 -4.7441,7.18037 -5.93013,10.77055c-0.39139,1.59165 -0.59301,2.99182 -0.59301,4.18855l8.30218,-8.37709c2.76344,-1.99854 6.13175,-3.39871 10.08121,-4.18855c-3.55808,1.59165 -8.69357,6.37856 -15.41833,14.36073c-3.55808,4.39199 -8.30218,11.96728 -14.2323,22.73783c-7.91079,14.75565 -13.63929,24.92784 -17.19737,30.51655c-6.32151,10.37563 -15.2167,19.35109 -26.68557,26.92637c-11.457,7.57529 -20.35219,10.37563 -26.68557,8.37709c-3.16669,-0.80181 -4.94573,-1.40017 -5.33711,-1.79509c-0.79464,-0.39492 2.57367,-0.78984 10.08121,-1.19673c11.86025,-0.40689 27.87159,-12.96056 48.03402,-37.69692c8.30218,-10.77055 13.63929,-20.53585 16.01134,-29.31983c1.98066,-4.78691 2.96506,-7.38381 2.96506,-7.77873c0.78278,-3.19526 0.59301,-8.77201 -0.59301,-16.75419c-0.39139,-2.78838 -0.39139,-5.18183 0,-7.18037l0.59301,-2.39346l1.77904,5.38527c0.39139,1.99854 0.9844,2.58493 1.77904,1.79509l-0.59301,-8.37709l1.77904,-8.97546z"/>
   <path id="svg_15" fill-rule="evenodd" fill="url(#y)" clip-rule="evenodd" d="m289.15788,106.93489c0.39139,38.29528 -4.35271,60.62622 -14.2323,67.01675l-14.82532,11.36891l8.30218,-4.78691c7.11615,-3.19526 14.82532,-4.58347 23.12749,-4.18855c10.28284,0 18.77478,1.99854 25.49954,5.98364c7.11615,3.59018 10.87585,8.37709 11.26724,14.36073c0,5.18183 -3.94946,7.98217 -11.86025,8.37709c-6.32151,0 -13.84091,-1.40017 -22.53448,-4.18855c-6.32151,-1.99854 -13.84091,-2.39346 -22.53448,-1.19673c-8.30218,1.59165 -13.43767,3.59018 -15.41833,5.98364c-1.98066,2.78838 -5.7285,-4.78691 -11.26724,-22.73783c10.28284,-7.57529 16.40273,-12.37416 18.38339,-14.36073c4.7441,-4.78691 7.31778,-10.17218 7.70916,-16.15582c0.39139,-5.58872 0,-11.16547 -1.18603,-16.75419c-1.57741,-7.18037 -2.37205,-12.17072 -2.37205,-14.9591c-0.39139,-7.98217 3.16669,-16.75419 10.67423,-26.32801c7.11615,-9.1789 10.87585,-4.99035 11.26724,12.56564z"/>
   <path id="svg_16" fill-rule="evenodd" fill="#5C8A20" clip-rule="evenodd" d="m282.04173,184.72218c0.39139,4.39199 4.35271,9.7653 11.86025,16.15582c-11.86025,-1.19673 -18.9764,-2.5969 -21.34845,-4.18855l-27.27858,-17.95091c8.30218,-3.59018 15.41833,-8.77201 21.34845,-15.55746l0.59301,3.59018c1.18603,2.39346 3.16669,2.99182 5.93013,1.79509c4.7441,-2.39346 8.69357,-7.77873 11.86025,-16.15582l-2.37205,8.37709c-0.39139,5.18183 1.98066,6.97692 7.11615,5.38527c1.88578,-0.56246 3.66482,-1.36427 5.33711,-2.39346c-2.75158,4.48773 -3.54622,6.88118 -2.37205,7.18037l4.15109,1.19673c-0.79464,1.99854 -2.57367,3.39871 -5.33711,4.18855c-6.72476,0.80181 -9.87959,3.59018 -9.4882,8.37709zm16.60435,-26.32801c3.16669,-3.59018 6.32151,-7.38381 9.4882,-11.36891c-3.30901,7.8984 -7.66172,13.48712 -13.04628,16.75419c0.94882,-1.54378 2.13485,-3.33887 3.55808,-5.38527z"/>
   <path id="svg_17" fill-rule="evenodd" fill="url(#z)" clip-rule="evenodd" d="m171.74138,145.82853c48.62704,-3.9851 91.52557,16.15582 128.68374,60.43475c37.56142,45.08073 47.04962,90.74786 28.46461,137.02531c-18.58502,47.0673 -46.848,76.59057 -84.80081,88.55785c-23.72051,7.18037 -59.69265,7.98217 -107.9283,2.39346c-17.79038,-2.39346 -43.88293,7.97021 -78.27767,31.11492c-16.03506,10.91416 -30.65875,21.98389 -43.88293,33.20919c11.65863,-10.44743 21.94147,-23.70717 30.83666,-39.79119c19.36779,-34.7051 21.34845,-68.022 5.93013,-99.92676c-22.92587,-48.67091 -23.32912,-94.54148 -1.18603,-137.62368c23.32912,-45.47565 64.04536,-70.60693 122.1606,-75.39384z"/>
   <path id="svg_18" fill-rule="evenodd" fill="url(#aa)" clip-rule="evenodd" d="m161.66017,351.06732c0.78278,1.99854 0.20162,7.98217 -1.77904,17.95091c-0.78278,6.77348 1.57741,10.97399 7.11615,12.56564c2.37205,0.78984 8.89519,3.19526 19.56942,7.19233c7.91079,2.78838 15.02694,4.58347 21.34845,5.37331c7.91079,0.80181 10.28284,3.19526 7.11615,7.19233c-2.76344,3.9851 -7.91079,6.97692 -15.41833,8.97546c-7.11615,1.59165 -11.86025,4.18855 -14.2323,7.76676c-2.37205,3.19526 0,5.58872 7.11615,7.19233c5.14735,0.78984 6.91453,2.78838 5.33711,5.98364c-1.18603,2.78838 -4.94573,5.1938 -11.26724,7.18037c-11.457,-0.39492 -28.26298,-1.78312 -50.40607,-4.18855c-17.79038,-2.39346 -43.88293,7.97021 -78.27767,31.11492c-16.03506,10.91416 -30.65875,21.98389 -43.88293,33.20919c11.65863,-10.44743 21.94147,-23.70717 30.83666,-39.79119c19.36779,-34.7051 21.34845,-68.022 5.93013,-99.92676c-7.50754,-15.56943 -12.45327,-31.92869 -14.82532,-49.0778c0,-3.59018 0.59301,-5.78019 1.77904,-6.582c1.18603,-1.19673 2.57367,-0.59836 4.15109,1.79509c7.91079,10.37563 12.45327,15.95238 13.63929,16.75419c4.35271,3.59018 10.08121,3.99707 17.19737,1.20869c5.52688,-1.99854 13.04628,-6.18708 22.53448,-12.57761c7.50754,-3.59018 13.2479,-1.19673 17.19737,7.19233c0.40325,0.39492 1.77904,6.37856 4.15109,17.95091c1.18603,5.58872 4.7441,9.1789 10.67423,10.75858c3.55808,1.20869 10.67423,1.20869 21.34845,0c7.50754,-1.19673 11.86025,0.40689 13.04628,4.78691z"/>
   <use x="3.98255" id="svg_19" xlink:href="#am" opacity="0.1602" enable-background="new" height="11" width="6.435" y="-12.05242" transform="matrix(11.8603, 0, 0, -11.9673, 172.541, 277.44)"/>
   <use x="3.98255" id="svg_20" xlink:href="#ak" opacity="0.4297" enable-background="new" height="9.55" width="6.745" y="-10.60242" transform="matrix(11.8603, 0, 0, -11.9673, 209.901, 211.62)"/>
   <use x="3.98255" id="svg_21" xlink:href="#ar" opacity="0.1602" enable-background="new" height="18.45" width="23.226" y="-19.50242" transform="matrix(11.8603, 0, 0, -11.9673, 14.7977, 229.57)"/>
   <use id="svg_22" xlink:href="#aq" opacity="0.1992" enable-background="new" height="2.717" width="4.16" y="-3.76342" x="3.99755" transform="matrix(11.8603, 0, 0, -11.9673, 179.658, 227.177)"/>
   <use id="svg_23" xlink:href="#ap" opacity="0.1992" enable-background="new" height="1.558" width="1.719" y="-2.56442" x="3.96555" transform="matrix(11.8603, 0, 0, -11.9673, 212.273, 269.661)"/>
   <use x="3.98255" id="svg_24" xlink:href="#ao" opacity="0.1992" enable-background="new" height="2.531" width="2.857" y="-3.57942" transform="matrix(11.8603, 0, 0, -11.9673, 112.647, 294.792)"/>
   <use id="svg_25" xlink:href="#an" opacity="0.1289" enable-background="new" height="14.391" width="13.936" y="-15.42142" x="3.97055" transform="matrix(11.8603, 0, 0, -11.9673, 4.12462, 154.775)"/>
   <use id="svg_26" xlink:href="#al" opacity="0.2109" enable-background="new" height="5.647" width="4.706" y="-6.70842" x="3.89855" transform="matrix(11.8603, 0, 0, -11.9673, 27.2545, 184.095)"/>
  </g>
 </g>
</svg>