<svg width="500" height="500" xmlns="http://www.w3.org/2000/svg" xmlns:xlink="http://www.w3.org/1999/xlink" version="1.1" enable-background="new 0 0 146 114.2">
 <symbol id="bh"/>
 <defs>
  <linearGradient y2="-0.21079" y1="0.38551" x2="0.0085" x1="0.44397" id="ak">
   <stop offset="0" stop-opacity="0.3137"/>
   <stop offset="0.9412" stop-opacity="0.0196"/>
   <stop offset="1" stop-opacity="0"/>
  </linearGradient>
  <radialGradient gradientUnits="userSpaceOnUse" gradientTransform="matrix(3.5099380016326904,0.4919513165950775,-0.49903997778892517,3.560621976852417,20.6717472076416,-91.46891784667969)" r="57.507" cy="81.55" cx="93.45" id="av">
   <stop offset="0" stop-color="#FFE659"/>
   <stop offset="0.4784" stop-color="#FFDF2C"/>
   <stop offset="0.7843" stop-color="#D7CF29"/>
   <stop offset="0.8824" stop-color="#BFC71E"/>
   <stop offset="1" stop-color="#86B503"/>
   <stop offset="1"/>
  </radialGradient>
  <linearGradient y2="0.49997" y1="0.49997" x2="1.09063" x1="-0.56445" id="aw">
   <stop offset="0.0235" stop-color="#D3BD03"/>
   <stop offset="0.5098" stop-color="#D1BC00"/>
   <stop offset="0.7843" stop-color="#CBC219"/>
   <stop offset="0.8824" stop-color="#BFC71E"/>
   <stop offset="1" stop-color="#769D03"/>
  </linearGradient>
  <linearGradient y2="-0.35829" y1="0.4953" x2="-0.14478" x1="0.54281" id="ax">
   <stop offset="0.0235" stop-color="#D3BD03"/>
   <stop offset="0.5098" stop-color="#D1BC00"/>
   <stop offset="0.7843" stop-color="#CBC219"/>
   <stop offset="0.8824" stop-color="#BFC71E"/>
   <stop offset="1" stop-color="#769D03"/>
  </linearGradient>
  <radialGradient gradientUnits="userSpaceOnUse" gradientTransform="matrix(3.5443179607391357,0,0,1.1965616941452026,-23.221086502075195,21.21912956237793)" r="44.212" cy="27.85" cx="45.05" id="ay">
   <stop offset="0.3333" stop-color="#7A601E"/>
   <stop offset="1" stop-color="#799E00"/>
  </radialGradient>
  <radialGradient gradientUnits="userSpaceOnUse" gradientTransform="matrix(3.5443179607391357,0,0,1.1965616941452026,-23.221086502075195,21.21912956237793)" r="44.212" cy="27.85" cx="45.05" id="az">
   <stop offset="0.3333" stop-color="#695113"/>
   <stop offset="1" stop-color="#6F9100"/>
  </radialGradient>
  <radialGradient gradientUnits="userSpaceOnUse" gradientTransform="matrix(3.5443179607391357,0,0,1.1965616941452026,-23.221086502075195,21.21912956237793)" r="44.212" cy="27.85" cx="45.05" id="ba">
   <stop offset="0.3451" stop-color="#443101"/>
   <stop offset="1" stop-color="#394B00"/>
  </radialGradient>
  <radialGradient gradientTransform="matrix(3.5443179607391357,0,0,3.5443179607391357,-23.221086502075195,-44.16999053955078)" gradientUnits="userSpaceOnUse" r="55.115" cy="89.3" cx="72.4" id="bb">
   <stop offset="0" stop-color="#FFE659"/>
   <stop offset="0.4784" stop-color="#FFDF2C"/>
   <stop offset="0.7843" stop-color="#D7CF29"/>
   <stop offset="0.8824" stop-color="#BFC71E"/>
   <stop offset="1" stop-color="#587800"/>
   <stop offset="1"/>
  </radialGradient>
  <radialGradient gradientTransform="matrix(3.5443179607391357,0,0,3.5443179607391357,-23.221086502075195,-44.16999053955078)" gradientUnits="userSpaceOnUse" r="55.115" cy="89.3" cx="72.4" id="bc">
   <stop offset="0" stop-color="#FFE659"/>
   <stop offset="0.4784" stop-color="#FFDF2C"/>
   <stop offset="0.7843" stop-color="#D7CF29"/>
   <stop offset="0.8824" stop-color="#BFC71E"/>
   <stop offset="1" stop-color="#78A300"/>
   <stop offset="1"/>
  </radialGradient>
  <radialGradient gradientTransform="matrix(3.5443179607391357,0,0,3.5443179607391357,-23.221086502075195,-44.16999053955078)" gradientUnits="userSpaceOnUse" r="55.115" cy="89.3" cx="72.4" id="bd">
   <stop offset="0" stop-color="#FFE659"/>
   <stop offset="0.4784" stop-color="#FFDF2C"/>
   <stop offset="0.7843" stop-color="#D7CF29"/>
   <stop offset="0.8824" stop-color="#BFC71E"/>
   <stop offset="1" stop-color="#86B503"/>
   <stop offset="1"/>
  </radialGradient>
  <radialGradient gradientTransform="matrix(3.5443179607391357,0,0,3.5443179607391357,-23.221086502075195,-44.16999053955078)" gradientUnits="userSpaceOnUse" r="56.375" cy="93.3" cx="72.05" id="be">
   <stop offset="0.0235" stop-color="#C9B300"/>
   <stop offset="0.5059" stop-color="#BDA900"/>
   <stop offset="0.7647" stop-color="#A89F04"/>
   <stop offset="0.8784" stop-color="#9FA70F"/>
   <stop offset="1" stop-color="#4B6500"/>
  </radialGradient>
  <radialGradient gradientTransform="matrix(3.5443179607391357,0,0,3.5443179607391357,-23.221086502075195,-44.16999053955078)" gradientUnits="userSpaceOnUse" r="56.375" cy="93.3" cx="72.05" id="bf">
   <stop offset="0.0235" stop-color="#C9B300"/>
   <stop offset="0.5059" stop-color="#BDA900"/>
   <stop offset="0.7647" stop-color="#A89F04"/>
   <stop offset="0.8784" stop-color="#9FA70F"/>
   <stop offset="1" stop-color="#638500"/>
  </radialGradient>
  <linearGradient y2="0.02703" y1="1.1895" x2="0.21077" x1="0.83302" id="bg">
   <stop offset="0.0235" stop-color="#D3BD03"/>
   <stop offset="0.5098" stop-color="#D1BC00"/>
   <stop offset="0.7843" stop-color="#CBC219"/>
   <stop offset="0.8824" stop-color="#BFC71E"/>
   <stop offset="1" stop-color="#769D03"/>
  </linearGradient>
  <radialGradient gradientUnits="userSpaceOnUse" gradientTransform="matrix(3.5443179607391357,0,0,1.1965616941452026,-23.221086502075195,21.21912956237793)" r="44.212" cy="27.85" cx="45.05" id="ae">
   <stop offset="0.3333" stop-color="#59430C"/>
   <stop offset="1" stop-color="#638100"/>
  </radialGradient>
  <radialGradient gradientUnits="userSpaceOnUse" gradientTransform="matrix(3.5099380016326904,0.4919513165950775,-0.49903997778892517,3.560621976852417,20.6717472076416,-91.46891784667969)" r="57.507" cy="81.55" cx="93.45" id="af">
   <stop offset="0" stop-color="#FFE659"/>
   <stop offset="0.4784" stop-color="#FFDF2C"/>
   <stop offset="0.7843" stop-color="#D7CF29"/>
   <stop offset="0.8824" stop-color="#BFC71E"/>
   <stop offset="1" stop-color="#6B9100"/>
   <stop offset="1"/>
  </radialGradient>
  <radialGradient gradientUnits="userSpaceOnUse" gradientTransform="matrix(3.5099380016326904,0.4919513165950775,-0.49903997778892517,3.560621976852417,20.6717472076416,-91.46891784667969)" r="57.507" cy="81.55" cx="93.45" id="ag">
   <stop offset="0" stop-color="#FFE659"/>
   <stop offset="0.4784" stop-color="#FFDF2C"/>
   <stop offset="0.7843" stop-color="#D7CF29"/>
   <stop offset="0.8784" stop-color="#949B07"/>
   <stop offset="1" stop-color="#6B9100"/>
   <stop offset="1"/>
  </radialGradient>
  <radialGradient gradientTransform="matrix(3.5443179607391357,0,0,3.5443179607391357,-23.221086502075195,-44.16999053955078)" gradientUnits="userSpaceOnUse" r="53.188" cy="98.35" cx="39.25" id="ah">
   <stop offset="0.0235" stop-color="#C9B300"/>
   <stop offset="0.5059" stop-color="#BDA900"/>
   <stop offset="0.7647" stop-color="#A89F04"/>
   <stop offset="0.8784" stop-color="#9FA70F"/>
   <stop offset="1" stop-color="#415800"/>
  </radialGradient>
  <radialGradient gradientTransform="matrix(3.5443179607391357,0,0,3.5443179607391357,-23.221086502075195,-44.16999053955078)" gradientUnits="userSpaceOnUse" r="53.188" cy="98.35" cx="39.25" id="ai">
   <stop offset="0.0235" stop-color="#D3BD03"/>
   <stop offset="0.5098" stop-color="#D1BC00"/>
   <stop offset="0.7843" stop-color="#CBC219"/>
   <stop offset="0.8824" stop-color="#BFC71E"/>
   <stop offset="1" stop-color="#769D03"/>
  </radialGradient>
  <radialGradient gradientTransform="matrix(3.5443179607391357,0,0,3.5443179607391357,-23.221086502075195,-44.16999053955078)" gradientUnits="userSpaceOnUse" r="53.188" cy="98.35" cx="39.25" id="aj">
   <stop offset="0.0235" stop-color="#C9B300"/>
   <stop offset="0.5059" stop-color="#BDA900"/>
   <stop offset="0.7647" stop-color="#A89F04"/>
   <stop offset="0.8784" stop-color="#9FA70F"/>
   <stop offset="1" stop-color="#638500"/>
  </radialGradient>
  <radialGradient gradientTransform="matrix(3.5443179607391357,0,0,3.5443179607391357,-23.221086502075195,-44.16999053955078)" gradientUnits="userSpaceOnUse" r="50.75" cy="91.85" cx="47.6" id="al">
   <stop offset="0" stop-color="#FFE659"/>
   <stop offset="0.4784" stop-color="#FFDF2C"/>
   <stop offset="0.7843" stop-color="#D7CF29"/>
   <stop offset="0.8824" stop-color="#BFC71E"/>
   <stop offset="1" stop-color="#648900"/>
   <stop offset="1"/>
  </radialGradient>
  <radialGradient gradientTransform="matrix(3.5443179607391357,0,0,3.5443179607391357,-23.221086502075195,-44.16999053955078)" gradientUnits="userSpaceOnUse" r="50.75" cy="91.85" cx="47.6" id="am">
   <stop offset="0" stop-color="#FFE659"/>
   <stop offset="0.4784" stop-color="#FFDF2C"/>
   <stop offset="0.7843" stop-color="#D7CF29"/>
   <stop offset="0.8824" stop-color="#BFC71E"/>
   <stop offset="1" stop-color="#86B503"/>
   <stop offset="1"/>
  </radialGradient>
  <radialGradient gradientTransform="matrix(3.5443179607391357,0,0,3.5443179607391357,-23.221086502075195,-44.16999053955078)" gradientUnits="userSpaceOnUse" r="56.375" cy="93.3" cx="72.05" id="an">
   <stop offset="0.0235" stop-color="#C9B300"/>
   <stop offset="0.5059" stop-color="#BDA900"/>
   <stop offset="0.7647" stop-color="#A89F04"/>
   <stop offset="0.8784" stop-color="#9FA70F"/>
   <stop offset="1" stop-color="#547200"/>
  </radialGradient>
  <radialGradient gradientTransform="matrix(3.5443179607391357,0,0,3.5443179607391357,-23.221086502075195,-44.16999053955078)" gradientUnits="userSpaceOnUse" r="56.375" cy="93.3" cx="72.05" id="ao">
   <stop offset="0.0235" stop-color="#C9B300"/>
   <stop offset="0.5059" stop-color="#BDA900"/>
   <stop offset="0.7647" stop-color="#A89F04"/>
   <stop offset="0.8784" stop-color="#9FA70F"/>
   <stop offset="1" stop-color="#415800"/>
  </radialGradient>
  <radialGradient gradientTransform="matrix(3.5443179607391357,0,0,3.5443179607391357,-23.221086502075195,-44.16999053955078)" gradientUnits="userSpaceOnUse" fx="75.77" r="56.375" cy="91.55" cx="65.6" id="ap">
   <stop offset="0.0235" stop-color="#D3BD03"/>
   <stop offset="0.5098" stop-color="#D1BC00"/>
   <stop offset="0.7843" stop-color="#CBC219"/>
   <stop offset="0.8824" stop-color="#BFC71E"/>
   <stop offset="1" stop-color="#769D03"/>
  </radialGradient>
  <linearGradient y2="0.50009" y1="0.50009" x2="1.17954" x1="-0.32303" id="aq">
   <stop offset="0.0235" stop-color="#D3BD03"/>
   <stop offset="0.5098" stop-color="#D1BC00"/>
   <stop offset="0.7843" stop-color="#CBC219"/>
   <stop offset="0.8824" stop-color="#BFC71E"/>
   <stop offset="1" stop-color="#769D03"/>
  </linearGradient>
  <radialGradient gradientTransform="matrix(3.5443179607391357,0,0,3.5443179607391357,-23.221086502075195,-44.16999053955078)" gradientUnits="userSpaceOnUse" r="21.92" cy="105.2" cx="95.9" id="ar">
   <stop offset="0.0235" stop-color="#C9B300"/>
   <stop offset="0.5059" stop-color="#BDA900"/>
   <stop offset="0.7647" stop-color="#A89F04"/>
   <stop offset="0.8784" stop-color="#9FA70F"/>
   <stop offset="1" stop-color="#638500"/>
  </radialGradient>
  <linearGradient y2="0.49999" y1="0.49999" x2="1" x1="0.00002" id="as">
   <stop offset="0" stop-opacity="0.1882" stop-color="#fff"/>
   <stop offset="1" stop-opacity="0" stop-color="#fff"/>
  </linearGradient>
  <linearGradient y2="0.50001" y1="0.50001" x2="1" x1="0" id="at">
   <stop offset="0" stop-opacity="0.1882" stop-color="#fff"/>
   <stop offset="1" stop-opacity="0" stop-color="#fff"/>
  </linearGradient>
  <linearGradient y2="0.81706" y1="0.19274" x2="0.53769" x1="0.36384" id="au">
   <stop offset="0" stop-opacity="0.1882" stop-color="#fff"/>
   <stop offset="1" stop-opacity="0" stop-color="#fff"/>
  </linearGradient>
 </defs>
 <g>
  <title>Layer 1</title>
  <g id="svg_49">
   <path id="svg_3" fill-rule="evenodd" fill="url(#ak)" clip-rule="evenodd" d="m174.02021,377.0722c20.67401,0 44.48119,0.70886 71.41801,2.13014c30.95253,1.6552 55.82301,3.77824 74.60789,6.37977c26.46542,3.66128 54.93693,7.38281 85.42161,11.1646c17.24665,2.47748 25.87352,5.13572 25.87352,7.97472c0,4.37014 -7.85775,8.32915 -23.56971,11.87347c-10.15802,2.2471 -19.61071,3.72153 -28.35454,4.4304c-4.01571,0.23392 -10.51245,0.29418 -19.49375,0.17722c-8.38586,-0.23392 -14.29423,-0.17722 -17.72159,0.17722c-3.89875,0.35798 -6.43648,0.65215 -7.61674,0.88608c-1.6552,0.35798 -3.07292,1.12355 -4.25318,2.30381c-1.53823,1.29722 -4.66432,3.06938 -9.39244,5.31648c-7.32256,2.95242 -18.84159,4.4304 -34.5571,4.4304c-5.43344,0 -12.63904,-0.23392 -21.62034,-0.70886c-8.97776,-0.58836 -14.70892,-0.76912 -17.18994,-0.5281c-2.48102,0.23392 -6.85471,1.88912 -13.11398,4.9585c-6.26281,3.07292 -16.36412,5.31648 -30.30392,6.7342c-13.9398,1.29722 -25.28162,1.41418 -34.02545,0.35443c-8.86079,-1.18026 -16.24361,-2.00608 -22.15199,-2.48102c-6.02534,-0.47139 -26.64264,-4.07242 -61.84835,-10.81017c-37.3323,-8.26889 -59.48429,-15.77221 -66.45596,-22.50642c-7.08864,-6.85471 -5.31648,-11.04764 5.31648,-12.58233c10.51599,-1.6552 18.9621,-3.07292 25.34187,-4.25318c6.37977,-1.1838 18.43045,-2.89216 36.15204,-5.13926c17.60108,-2.36406 33.73127,-4.66432 48.37994,-6.91142c14.64867,-2.23292 27.70593,-3.3671 39.16471,-3.3671l-0.00709,-0.00354z"/>
   <path id="svg_4" fill-rule="evenodd" fill="url(#av)" clip-rule="evenodd" d="m475.46445,307.78078c-1.30076,1.41773 -2.7752,2.95596 -4.4304,4.60761l0.5281,6.38332c-0.47139,0.23392 -0.82583,0.35443 -1.0633,0.35443c-15.94943,2.12659 -46.07613,-4.13622 -90.38011,-18.78489c-17.48766,-5.79142 -32.78494,-11.40207 -45.89892,-16.83551c-19.49375,-7.91446 -34.31963,-15.18031 -44.48119,-21.79756c-24.21832,-16.42083 -43.71207,-30.95253 -58.48125,-43.59511c-8.26889,-7.08864 -15.18031,-13.58537 -20.73426,-19.49375c-7.20914,-8.03497 -13.05727,-16.24361 -17.54437,-24.63301c0.82583,5.19951 2.00963,10.22181 3.54432,15.06335c0.11696,0.5919 0.35443,1.1838 0.70886,1.77216c5.67091,17.2502 22.09173,39.99054 49.26248,68.22812c20.91502,21.74085 45.1936,40.46548 72.83928,56.17744c9.33219,5.31648 19.13577,10.33523 29.41784,15.06335c29.18037,13.23094 54.05085,21.49983 74.60789,24.81023c6.49673,1.0633 12.63904,1.5914 18.43045,1.5914c0.23392,0.47494 0.47139,0.88608 0.70886,1.24406c-2.13014,0.58836 -4.13622,1.24051 -6.02534,1.94937c-0.82583,0 -1.53823,0.11696 -2.13014,0.35443c-4.84154,1.77216 -7.97472,3.78179 -9.3889,6.02534c-1.77216,2.59799 -2.83545,4.72812 -3.18989,6.37977c-0.23392,0.35798 -0.41114,0.65215 -0.5281,0.88608l0,0.18076c-0.82583,0.11696 -1.6552,0.17722 -2.48102,0.17722c-1.0633,0.35443 -1.94937,0.5281 -2.65824,0.5281c-27.64568,1.89267 -54.93693,-2.95242 -81.87729,-14.5317c-26.81631,-10.98739 -51.68679,-26.10745 -74.60789,-45.36727c-12.52208,-10.39903 -25.93023,-21.26591 -40.22801,-32.60773c-13.82284,-10.39903 -28.64872,-25.46238 -44.48119,-45.19005c-16.06639,-19.72767 -21.08869,-47.49386 -15.06335,-83.29147c2.00963,-12.40511 5.31648,-24.45579 9.92409,-36.15204c0.70886,-1.88912 1.41773,-3.48406 2.12659,-4.78483c0.82583,-0.47139 2.71849,-1.41773 5.67091,-2.83545c4.13622,-1.88912 7.2056,-2.95242 9.21523,-3.18989c2.36406,-0.23747 5.49369,-0.41469 9.39244,-0.53165c0.94633,-0.11696 2.00963,-0.17722 3.18989,-0.17722c0,2.59799 0.47139,5.43698 1.41773,8.50636c3.30685,13.58537 12.58233,30.0062 27.8229,49.26248c19.72767,24.69326 45.84221,47.3769 78.33297,68.0509c32.48722,20.67755 64.80077,36.92116 96.9371,48.73437c31.89886,11.45878 58.07011,18.66792 78.50664,21.62388c-0.94633,0.11696 -2.59799,1.35747 -4.96205,3.72153c-0.70886,0.58836 -1.34684,1.29722 -1.94937,2.12659l0,-0.00354z"/>
   <path id="svg_5" fill-rule="evenodd" fill="#B8A800" clip-rule="evenodd" d="m470.50241,319.1226l0.17722,0.17722c-20.79097,3.90229 -52.45591,-1.24051 -94.98772,-15.41778c-16.42083,-5.5504 -30.95253,-10.81017 -43.59511,-15.77221c-0.94633,-0.47494 -1.77216,-0.82583 -2.48102,-1.0633c-19.37679,-7.68054 -34.08216,-14.94639 -44.12676,-21.79756c-14.4112,-9.68662 -27.17074,-18.72463 -38.27863,-27.11049c-18.07602,-13.82284 -31.66139,-25.81681 -40.75966,-35.97483c-3.54432,-3.66128 -6.61724,-7.44307 -9.21523,-11.34182c-0.35443,-0.58836 -0.5919,-1.18026 -0.70886,-1.77216c-1.53469,-4.84154 -2.71849,-9.86384 -3.54432,-15.06335c4.49065,8.3894 10.33878,16.60159 17.54437,24.63301c5.5504,5.90838 12.46537,12.40511 20.73426,19.49375c14.76917,12.63904 34.26292,27.17429 58.48125,43.59511c10.16156,6.61724 24.98744,13.88309 44.48119,21.79756c13.11398,5.43344 28.4148,11.04409 45.89892,16.83551c44.30397,14.63449 74.43068,20.90793 90.38011,18.78134z"/>
   <path id="svg_6" fill-rule="evenodd" fill="url(#aw)" clip-rule="evenodd" d="m471.74292,320.00868l17.36361,15.24057c-4.72458,5.5504 -12.40511,10.16156 -23.03807,13.82284c-13.46841,4.37014 -23.80718,6.49673 -31.01278,6.37977c-7.08864,-0.23392 -10.98739,-0.35443 -11.69625,-0.35443c-20.55704,-3.31039 -45.42398,-11.57929 -74.60789,-24.81023c-10.27852,-4.72812 -20.08565,-9.74687 -29.41784,-15.06335l12.75954,-27.11403c12.63904,4.96205 27.17429,10.22181 43.59511,15.77221c42.53182,14.17727 74.19675,19.31653 94.98772,15.41778l1.0633,0.70886l0.00354,0z"/>
   <path id="svg_7" fill-rule="evenodd" fill="url(#ax)" clip-rule="evenodd" d="m332.09679,288.10982l-12.75954,27.11403c-27.64568,-15.71196 -51.92426,-34.43659 -72.83573,-56.17744c-27.17429,-28.23758 -43.59511,-50.97793 -49.26602,-68.22812c2.59799,3.90229 5.67091,7.68054 9.21523,11.34182c9.09826,10.15802 22.68363,22.15199 40.75966,35.97483c11.10789,8.38586 23.86389,17.42387 38.27863,27.11049c10.0446,6.85471 24.74997,14.11702 44.12676,21.79756c0.70886,0.24101 1.53469,0.5919 2.48102,1.06684z"/>
   <path id="svg_8" fill-rule="evenodd" fill="#7A601E" clip-rule="evenodd" d="m442.50229,357.93288c1.77216,2.00608 2.89216,3.66128 3.36356,4.9585c0.47494,1.06684 0.70886,2.839 0.70886,5.31648c0,2.48102 -0.11696,5.49724 -0.35443,9.04156c-4.96205,-0.23747 -9.33573,-0.82583 -13.11398,-1.77216c-1.18026,-0.35798 -2.36406,-0.70886 -3.54432,-1.06684c-2.83545,-1.41418 -4.54736,-2.47748 -5.13926,-3.18634l-0.70886,-0.35798c0,-0.70532 1.77216,-2.59799 5.31648,-5.67091c2.13014,-2.12659 3.90229,-3.77824 5.31648,-4.96205c0.5919,-0.23392 1.30076,-0.35443 2.13014,-0.35443c1.87849,-0.70886 3.89875,-1.34684 6.02534,-1.94937l0,0.00354zm51.39261,-36.86091c-12.64258,0 -18.96565,-3.31039 -18.96565,-9.92409c0,-1.29722 0.17722,-2.42431 0.53165,-3.3671c0.58836,-0.82583 1.24051,-1.53823 1.94937,-2.12659c2.36406,-2.36406 4.01926,-3.60457 4.96205,-3.72153c1.41418,0.11696 2.83545,0.29418 4.24964,0.5281l0.53165,0c3.42736,2.83545 5.5504,5.08255 6.37977,6.7342c0.23392,0.82583 0.35798,3.95546 0.35798,9.3889l0,2.48102l0.00354,0.00709zm-252.00101,104.02573c-0.23392,1.0633 -0.41114,2.1833 -0.5281,3.36356c-0.12051,0.23747 -0.23747,0.53165 -0.35798,0.88608c-0.94633,0.35798 -1.83241,0.65215 -2.65824,0.88608c0.35798,-2.71849 -1.0633,-5.96509 -4.25318,-9.74687c-3.42736,-3.77824 -5.13926,-6.26281 -5.13926,-7.44307c0,-1.6552 1.30076,-3.72153 3.89875,-6.20256c2.36406,-2.2471 4.25318,-3.66128 5.67091,-4.25318l0.17722,-0.17722l0.35443,0c0.70886,-0.23392 1.53823,-0.5919 2.48102,-1.0633l0,0.5281c0.23392,0.35798 0.41114,0.82583 0.5281,1.41773c0.35798,0.82583 0.53165,1.53823 0.53165,2.12659c0.70886,3.18989 0.53165,9.09826 -0.53165,17.72159c-0.11696,0.70886 -0.17367,1.34684 -0.17367,1.94937l0,0.00709zm95.69658,-29.94949c2.13014,0.23392 3.77824,0.94633 4.96205,2.12659c1.29722,0.94633 2.59799,3.01621 3.89875,6.20256c0.82583,2.2471 0.41469,5.31648 -1.24051,9.21877c-0.00709,0.23747 -0.1843,0.53519 -0.53165,0.88608c-1.77216,1.53469 -3.66128,2.65824 -5.67091,3.36356c-0.35798,0 -0.76912,-0.17722 -1.24406,-0.5281c0,-4.25318 -1.5914,-7.38636 -4.78483,-9.39244c-3.18989,-1.41418 -4.78483,-2.36052 -4.78483,-2.83545l9.39244,-9.03801l0.00354,-0.00354z"/>
   <path id="svg_9" fill-rule="evenodd" fill="#908569" clip-rule="evenodd" d="m205.38742,53.29875c-5.07901,6.02534 -11.40207,10.63295 -18.9621,13.82284c-3.54432,1.6552 -11.22485,3.89875 -23.03807,6.7342c-6.37977,1.41773 -12.75954,2.24355 -19.13932,2.48102c-7.32611,0 -11.69625,0.17722 -13.11398,0.53165l-0.35443,0c-2.83545,0 -6.85471,-0.5919 -12.05068,-1.77216c-6.1423,-1.0633 -11.22485,-2.48102 -15.24057,-4.25318c-14.64867,-5.67091 -21.97477,-9.27548 -21.97477,-10.81017c0,-0.70886 0.23747,-1.18026 0.70886,-1.41773c8.15193,1.77216 17.12969,4.13622 26.93682,7.08864c9.33219,2.36406 19.13932,3.54432 29.41784,3.54432c9.33219,0 15.06335,-0.11696 17.18994,-0.35443c4.72458,-0.70886 8.56662,-1.71191 11.51903,-3.01267c2.71849,-1.53469 6.1423,-3.07292 10.27852,-4.60761c3.89875,-1.6552 8.56662,-5.61066 14.00006,-11.87347c5.43344,1.53469 10.04105,2.83545 13.82284,3.89875z"/>
   <path id="svg_10" fill-rule="evenodd" fill="#716137" clip-rule="evenodd" d="m76.55146,58.43801c0.94633,-0.23747 1.88912,-0.41469 2.83545,-0.53165c0.82583,0.12051 1.77216,0.35443 2.83545,0.70886c-0.47139,0.23747 -0.70886,0.70886 -0.70886,1.41773c0,1.53823 7.32611,5.13926 21.97477,10.81017c4.01571,1.77216 9.09826,3.18989 15.24057,4.25318c5.19951,1.18026 9.21523,1.77216 12.05068,1.77216l0.35443,0c1.41773,-0.35443 5.78787,-0.53165 13.11398,-0.53165c6.37977,-0.23747 12.75954,-1.0633 19.13932,-2.48102c11.81321,-2.83545 19.49375,-5.07901 23.03807,-6.7342c7.56003,-3.18989 13.88309,-7.7975 18.9621,-13.82284c2.12659,0.82583 3.8385,1.53469 5.13926,2.12659c-3.18989,3.54432 -8.92105,7.32256 -17.18994,11.34182c-8.62687,3.89875 -16.65829,6.55699 -24.10136,7.97472c-3.18989,0.70886 -10.45574,1.6552 -21.79756,2.83545c-10.98739,1.53469 -16.77526,2.30381 -17.36716,2.30381c-0.70886,0 -2.59799,-0.5919 -5.67091,-1.77216c-3.30685,-1.0633 -5.78787,-1.6552 -7.44307,-1.77216c-2.24355,-0.23747 -6.79446,-1.35747 -13.64562,-3.3671c-10.63295,-4.01571 -16.48108,-6.26281 -17.54437,-6.7342c-6.49673,-3.07292 -9.56966,-5.67091 -9.21523,-7.7975z"/>
   <path id="svg_11" fill-rule="evenodd" fill="#4C3C00" clip-rule="evenodd" d="m211.58998,55.60256c0.23747,0 0.41469,0.06025 0.53165,0.17722c0.23747,0 0.41469,0.94633 0.53165,2.83545c-10.04105,7.56003 -15.1236,11.40207 -15.24057,11.51903c-0.47139,0.23747 -2.71849,1.24051 -6.7342,3.01267c-8.97776,3.66128 -25.87352,7.26585 -50.68375,10.81017l-13.46841,0c0,-0.35443 -0.23747,-0.82583 -0.70886,-1.41773c0,-0.23747 -0.11696,-0.35443 -0.35443,-0.35443c0,-0.23392 -0.12051,-0.41469 -0.35443,-0.53165c-0.5919,0.11696 -4.01571,-0.64861 -10.27852,-2.30381c-0.70886,-0.47139 -1.35747,-0.70886 -1.94937,-0.70886c-2.83545,-0.94633 -6.1423,-2.00608 -9.92409,-3.18989c-16.65829,-5.43344 -26.87656,-10.51599 -30.65835,-15.24057c0.23392,-0.35443 0.53165,-0.76912 0.88608,-1.24051c7.56003,6.02534 17.72159,10.98739 30.48113,14.88614c6.85471,2.00963 13.4117,3.42736 19.67096,4.25318c1.41773,0.82583 2.7752,1.6552 4.07597,2.48102c1.0633,0.82583 3.72153,0.94633 7.97472,0.35443c3.89875,-0.70886 13.88309,-2.24355 29.94949,-4.60761c16.06639,-2.48102 26.46188,-5.13926 31.19,-7.97472c4.49065,-3.07292 9.50941,-7.32611 15.06335,-12.75954z"/>
   <path id="svg_12" fill-rule="evenodd" fill="url(#ay)" clip-rule="evenodd" d="m212.65327,58.61523c0.12051,3.07292 0.12051,8.44611 0,16.12665c-6.49673,4.96205 -16.00968,8.9813 -28.53176,12.05068c-14.06031,3.54432 -28.00011,5.31648 -41.82295,5.31648c-6.97167,0 -11.57929,-0.65215 -13.82284,-1.94937c-2.00608,-2.00608 -4.01571,-3.89875 -6.02534,-5.67091c0.11696,-0.35443 0.76912,-0.88608 1.94937,-1.59494c0.47139,-0.23747 0.82583,-0.47139 1.0633,-0.70886c0.23392,0 0.35443,0.11696 0.35443,0.35443c0.47139,0.5919 0.70886,1.0633 0.70886,1.41773l13.46841,0c24.81023,-3.54432 41.70599,-7.14889 50.68375,-10.81017c4.01571,-1.77216 6.26281,-2.7752 6.7342,-3.01267c0.11696,-0.11696 5.19951,-3.959 15.24057,-11.51903z"/>
   <path id="svg_13" fill-rule="evenodd" fill="url(#az)" clip-rule="evenodd" d="m212.65327,74.74188l0,3.89875c-0.70886,0.70886 -1.53469,1.47798 -2.48102,2.30381c-3.31039,3.42736 -6.49673,6.08559 -9.56966,7.97472c-2.12659,1.30076 -3.959,2.12659 -5.49369,2.48102c-9.68662,2.00963 -18.72463,3.72153 -27.11403,5.13926c-15.83247,3.07292 -27.3515,4.60761 -34.5571,4.60761c-26.70289,0 -40.05079,-4.90179 -40.05079,-14.70892c0,-4.25318 0.76912,-6.61724 2.30381,-7.08864c1.0633,-0.47139 5.84812,-0.70886 14.35449,-0.70886l2.83545,0c0.5919,0 1.24051,0.23747 1.94937,0.70886c6.26281,1.6552 9.68662,2.42077 10.27852,2.30381c0.23392,0.11696 0.35443,0.29418 0.35443,0.53165c-0.23747,0.23747 -0.5919,0.47139 -1.0633,0.70886c-1.18026,0.70886 -1.83241,1.24051 -1.94937,1.59494c2.00608,1.77216 4.01571,3.66482 6.02534,5.67091c2.24355,1.30076 6.85471,1.94937 13.82284,1.94937c13.82284,0 27.76264,-1.77216 41.82295,-5.31648c12.52208,-3.07292 22.03502,-7.08864 28.53176,-12.05068z"/>
   <path id="svg_14" fill-rule="evenodd" fill="#745D22" clip-rule="evenodd" d="m73.18436,58.96966c0.11696,-0.11696 0.23392,-0.17722 0.35443,-0.17722c0.82583,-0.11696 1.83241,-0.23392 3.01267,-0.35443c-0.35443,2.12659 2.71849,4.72458 9.21523,7.7975c1.0633,0.47139 6.91142,2.71849 17.54437,6.7342c6.85117,2.00963 11.39853,3.12963 13.64562,3.3671c1.6552,0.11696 4.13622,0.70886 7.44307,1.77216c3.07292,1.18026 4.96205,1.77216 5.67091,1.77216c0.5919,0 6.37977,-0.76912 17.36716,-2.30381c11.34182,-1.18026 18.60767,-2.12659 21.79756,-2.83545c7.44307,-1.41773 15.47804,-4.07597 24.10136,-7.97472c8.26889,-4.01571 14.00006,-7.7975 17.18994,-11.34182c0.47139,0 0.82583,0.06025 1.0633,0.17722c-5.55395,5.43344 -10.5727,9.68662 -15.06335,12.75954c-4.72458,2.83545 -15.1236,5.49369 -31.19,7.97472c-16.06994,2.36406 -26.05074,3.89875 -29.94949,4.60761c-4.25318,0.5919 -6.91142,0.47139 -7.97472,-0.35443c-1.30076,-0.82583 -2.65824,-1.6552 -4.07597,-2.48102c-6.26281,-0.82583 -12.8198,-2.24355 -19.67096,-4.25318c-12.75954,-3.89875 -22.9211,-8.86079 -30.48113,-14.88614z"/>
   <path id="svg_15" fill-rule="evenodd" fill="url(#ba)" clip-rule="evenodd" d="m206.98237,88.91915c-0.35443,0.47139 -0.76912,1.0633 -1.24051,1.77216c-1.6552,2.00963 -3.31039,3.89875 -4.96205,5.67091c-1.6552,1.77216 -3.25014,3.31039 -4.78483,4.60761c-1.0633,0.11696 -2.06634,0.29418 -3.01267,0.53165l-0.35443,0c-4.49065,1.18026 -10.39548,2.36406 -17.72159,3.54432c-1.88912,0.11696 -3.89875,0.35443 -6.02534,0.70886c-2.48102,0.23747 -4.96205,0.47139 -7.44307,0.70886c-4.13622,0.47139 -7.91446,0.82583 -11.34182,1.0633c-8.74383,0.82583 -15.94943,1.47798 -21.62034,1.94937l-0.17722,0c-6.61724,0.47139 -11.40207,0.76912 -14.35449,0.88608c-0.35443,-0.11696 -0.76912,-0.17722 -1.24051,-0.17722c-1.0633,0 -2.24355,-0.11696 -3.54432,-0.35443c-1.0633,0 -2.12659,-0.06025 -3.18989,-0.17722c-5.78787,-0.5919 -9.4527,-1.18026 -10.98739,-1.77216c-2.12659,-0.94633 -3.8385,-1.71191 -5.13926,-2.30381c-0.35443,-0.35443 -0.70886,-0.64861 -1.0633,-0.88608c-1.18026,-1.18026 -5.08255,-5.0223 -11.69625,-11.51903c-2.12659,-2.12659 -4.37014,-5.07901 -6.7342,-8.86079c-0.11696,-0.35443 -0.23392,-0.70886 -0.35443,-1.0633c-0.47139,-0.70886 -0.88608,-1.41773 -1.24051,-2.12659c-0.12051,-0.35443 -0.23747,-0.70886 -0.35443,-1.0633c-1.88912,-3.30685 -3.3671,-5.84812 -4.4304,-7.62028c0.82583,-0.82583 1.47798,-1.59494 1.94937,-2.30381c2.12659,2.71849 4.49065,6.31952 7.08864,10.81017c3.31039,6.1423 7.56003,11.28511 12.75954,15.41778c5.90838,4.72458 9.92409,7.62028 12.05068,8.68358c0.47139,0.11696 1.12355,0.53165 1.94937,1.24051c0.70886,0.47139 1.41773,0.70886 2.12659,0.70886c1.41773,-0.11696 4.90179,-0.11696 10.45574,0l-1.77216,0c0,0.23747 4.96205,0.06025 14.88614,-0.53165c9.09472,-0.47139 15.53475,-0.94633 19.31653,-1.41773c0.94633,-0.23747 6.49673,-0.53165 16.65829,-0.88608c8.50636,-0.11696 14.17727,-0.70886 17.01273,-1.77216c5.90838,-2.12659 11.81321,-3.959 17.72159,-5.49369c2.71849,-1.30076 6.31952,-3.959 10.81017,-7.97472z"/>
   <path id="svg_16" fill-rule="evenodd" fill="url(#bb)" clip-rule="evenodd" d="m127.058,111.78c-8.15193,0 -13.64562,0.23747 -16.48108,0.70886c-0.47139,0 -0.94633,0.11696 -1.41773,0.35443l-0.17722,0c0,-0.94633 0.06025,-1.94937 0.17722,-3.01267c1.30076,0.23392 2.48102,0.35443 3.54432,0.35443c0.47139,0 0.88608,0.06025 1.24051,0.17722c2.95242,-0.11696 7.73725,-0.41469 14.35449,-0.88608c-0.47139,0.11696 -0.88608,0.88608 -1.24051,2.30381z"/>
   <path id="svg_17" fill-rule="evenodd" fill="url(#bc)" clip-rule="evenodd" d="m108.98197,112.8433l0.17722,0c0.47139,-0.23392 0.94633,-0.35443 1.41773,-0.35443c2.83545,-0.47139 8.32915,-0.70886 16.48108,-0.70886c-0.35443,0.47139 -0.53165,0.94633 -0.53165,1.41773c-4.72458,0 -8.74383,0.5919 -12.05068,1.77216c-3.42736,1.0633 -5.55395,2.24355 -6.37977,3.54432c0.35443,-2.24355 0.64861,-4.13622 0.88608,-5.67091z"/>
   <path id="svg_18" fill-rule="evenodd" fill="url(#bd)" clip-rule="evenodd" d="m345.21077,412.86981l0,-0.17722c1.6552,-3.90229 2.06634,-6.97167 1.24051,-9.21877c-1.29722,-3.18634 -2.59799,-5.25622 -3.89875,-6.20256c-1.1838,-1.18026 -2.83545,-1.88912 -4.96205,-2.12659c-0.58836,-0.11696 -1.0633,-0.17722 -1.41418,-0.17722c-2.36406,1.53469 -4.31343,2.95242 -5.84812,4.24964c-2.12659,1.89267 -3.42736,3.31039 -3.89875,4.25318l0,0.35798c-0.23392,0.46431 -0.23392,0.69823 0,0.70532l-5.13926,0c-1.53823,-0.23392 -3.01621,-0.47139 -4.4304,-0.70532c-1.41773,-0.23747 -2.89216,-0.47494 -4.4304,-0.70886c-4.72812,-1.1838 -10.22181,-2.7752 -16.48108,-4.78837c-4.49065,-1.53469 -9.33219,-3.30685 -14.5317,-5.31648c-24.5763,-10.04105 -43.24068,-18.30995 -56.00022,-24.81023c-12.99701,-6.26281 -25.87352,-15.47449 -38.63307,-27.64568c-12.99701,-12.17119 -23.92415,-23.09832 -32.78494,-32.78494c-8.97776,-9.80713 -21.14895,-30.71506 -36.50647,-62.73443c-13.46841,-28.11707 -20.20261,-46.84171 -20.20261,-56.17744c0,-8.74383 1.77216,-22.56313 5.31648,-41.46852c1.53469,-7.91446 2.83545,-14.76917 3.89875,-20.55704c0.11696,-0.70886 0.23392,-1.41773 0.35443,-2.12659c0.47139,-2.24355 0.88608,-4.31343 1.24051,-6.20256c0.82583,-1.30076 2.95242,-2.48102 6.37977,-3.54432c3.30685,-1.18026 7.32256,-1.77216 12.05068,-1.77216c-0.94633,2.24355 -1.83241,5.90838 -2.65824,10.98739c-2.00963,9.92409 -2.95242,17.72159 -2.83545,23.3925c0.23392,1.88912 0.41469,3.66128 0.53165,5.31648c0.23392,3.66128 0.5919,7.08864 1.0633,10.27852c0.70886,4.49065 2.18684,11.04409 4.4304,19.67096s8.26889,23.9844 18.07602,46.07613c9.80713,22.3292 24.33883,43.00675 43.59511,62.02556c4.49065,4.49065 9.33219,8.80054 14.5317,12.93676c15.1236,13.23094 31.42747,24.15807 48.91159,32.78494c22.68009,11.45878 37.98446,18.66792 45.89892,21.62034c7.32256,2.59799 16.30386,8.15193 26.93682,16.65829c7.08864,5.79142 12.58233,10.63295 16.48108,14.5317c1.53469,1.6552 2.83545,3.18989 3.89875,4.61116c1.0633,4.49065 1.59494,7.97472 1.59494,10.45219c0,2.00963 -0.29772,4.07597 -0.88608,6.20256c-0.2481,0.60253 -0.53165,1.3114 -0.88608,2.12659l-0.00354,0.00709z"/>
   <path id="svg_19" fill-rule="evenodd" fill="url(#be)" clip-rule="evenodd" d="m174.90629,105.0458c-0.47139,0.94633 -1.00304,2.00608 -1.59494,3.18989c-0.12051,0.35443 -0.23747,0.70886 -0.35443,1.0633c-0.47139,0.94633 -0.82583,2.00963 -1.0633,3.18989c-0.70886,1.30076 -1.41773,2.89216 -2.12659,4.78483c0,-3.18989 -0.94633,-5.31648 -2.83545,-6.37977c-1.30076,-0.70886 -3.42736,-1.0633 -6.37977,-1.0633c-1.18026,0 -3.42736,0.53165 -6.7342,1.59494c-1.18026,0.23747 -2.24355,0.5919 -3.18989,1.0633c-0.23392,-2.59799 -0.41469,-4.25318 -0.53165,-4.96205c3.42736,-0.23392 7.2056,-0.5919 11.34182,-1.0633c2.48102,-0.23747 4.96205,-0.47139 7.44307,-0.70886c2.12659,-0.35443 4.13622,-0.5919 6.02534,-0.70886z"/>
   <path id="svg_20" fill-rule="evenodd" fill="url(#bf)" clip-rule="evenodd" d="m217.26089,284.91993c-1.18026,-0.94633 -2.42431,-1.94937 -3.72153,-3.01267c-0.70886,-0.47494 -1.41773,-1.00304 -2.12659,-1.59494c-13.23094,-10.51599 -27.3515,-25.04415 -42.3546,-43.59511c-15.94943,-19.72767 -20.97173,-47.49386 -15.06335,-83.29147c1.18026,-7.32611 3.12963,-14.41474 5.84812,-21.26591c2.36406,-6.26281 3.959,-10.92713 4.78483,-14.00006c0.47139,-2.00608 0.70886,-3.54432 0.70886,-4.60761l0,-2.12659l-14.70892,1.41773l0,-0.35443c0.94633,-0.47139 2.00963,-0.82583 3.18989,-1.0633c3.30685,-1.0633 5.5504,-1.59494 6.7342,-1.59494c2.95242,0 5.07901,0.35443 6.37977,1.0633c1.88912,1.0633 2.83545,3.18989 2.83545,6.37977c-4.60761,11.69625 -7.91446,23.74693 -9.92409,36.15204c-6.02534,35.79761 -1.00304,63.5638 15.06335,83.29147c15.83247,19.72767 30.65835,34.79103 44.48119,45.19005l-2.12659,3.01267zm-110.4055,-160.20317c-0.12051,0.70886 -0.23747,1.41773 -0.35443,2.12659c-1.0633,5.78787 -2.36406,12.64258 -3.89875,20.55704c-3.54432,18.90539 -5.31648,32.72469 -5.31648,41.46852c0,9.33573 6.7342,28.06037 20.20261,56.17744c15.35753,32.01937 27.52872,52.93084 36.50647,62.73443c8.86079,9.68662 19.78793,20.61375 32.78494,32.78494c12.75954,12.17119 25.63605,21.38287 38.63307,27.64568c12.75954,6.50028 31.42747,14.76917 56.00022,24.81023c5.19951,2.00963 10.04105,3.78179 14.5317,5.31648c6.26281,2.00963 11.75296,3.60457 16.48108,4.78837c1.53823,0.23392 3.01267,0.47139 4.4304,0.70886c1.41418,0.23392 2.89216,0.47139 4.4304,0.70532l-4.60761,0c-1.53823,0 -3.07292,-0.11696 -4.61116,-0.35443c-6.49673,-0.5919 -13.58537,-2.00608 -21.26591,-4.25318c-3.89875,-1.41418 -7.91446,-2.89216 -12.04714,-4.4304c-24.5763,-9.92409 -43.24068,-18.07602 -56.00022,-24.45225c-12.99701,-6.26281 -25.93023,-15.47804 -38.81028,-27.64922c-12.99701,-12.16764 -23.80718,-23.15503 -32.43051,-32.96216c-8.97776,-9.80713 -21.20565,-30.77886 -36.68369,-62.91164c-13.58537,-27.87961 -20.37983,-46.60424 -20.37983,-56.17744c0,-2.71849 0.23392,-5.90838 0.70886,-9.56966c0.11696,-1.6552 0.23747,-3.31039 0.35443,-4.96205c0,-5.07901 0.06025,-9.44915 0.17722,-13.11043c0,-3.90229 0.12051,-6.97167 0.35443,-9.21877c0,-0.82583 0.88608,-3.8385 2.65824,-9.03801c1.77216,-5.07901 2.65824,-8.62333 2.65824,-10.63295c0,-1.77216 -0.35443,-2.71849 -1.0633,-2.83545c-6.61724,5.31648 -10.27852,9.92409 -10.98739,13.82284c-0.35443,-2.12659 -0.53165,-3.48406 -0.53165,-4.07597l0,-2.12659c0.70886,-1.18026 1.35747,-2.36406 1.94937,-3.54432c2.24355,-3.66128 4.4304,-7.08864 6.55699,-10.27852c0.70886,-0.35443 2.06634,-1.71191 4.07597,-4.07597c2.71849,-2.83545 4.13622,-4.30989 4.25318,-4.4304c0.82583,0.82583 1.24051,3.30685 1.24051,7.44307z"/>
   <path id="svg_21" fill-rule="evenodd" fill="url(#bg)" clip-rule="evenodd" d="m211.41276,280.31232l-8.15193,23.56971c-5.19951,-4.13622 -10.04105,-8.44965 -14.5317,-12.93676c-19.25628,-19.01881 -33.78798,-39.69636 -43.59511,-62.02556c-9.80713,-22.09173 -15.83247,-37.44926 -18.07602,-46.07613s-3.72153,-15.18031 -4.4304,-19.67096c-0.47139,-3.18989 -0.82583,-6.61724 -1.0633,-10.27852c0.70886,-1.6552 1.53469,-3.42736 2.48102,-5.31648c2.95242,-4.84508 6.08559,-7.85775 9.39244,-9.03801c3.42381,-1.18026 7.32256,-4.25318 11.69625,-9.21523c4.49065,-4.96205 6.49673,-9.56966 6.02534,-13.82284c-0.23747,-1.0633 -0.41469,-1.94937 -0.53165,-2.65824l14.70892,-1.41773l0,2.12659c0,1.0633 -0.23747,2.59799 -0.70886,4.60761c-0.82583,3.07292 -2.42077,7.74079 -4.78483,14.00006c-2.71849,6.85117 -4.66432,13.9398 -5.84812,21.26591c-5.90838,35.79761 -0.88608,63.5638 15.06335,83.29147c15.0031,18.54742 29.12366,33.07912 42.3546,43.59511z"/>
   <path id="svg_22" fill-rule="evenodd" fill="url(#ae)" clip-rule="evenodd" d="m65.91851,70.13426c0.94633,-1.18026 1.88912,-2.48102 2.83545,-3.89875c1.0633,-2.00608 2.24355,-4.01571 3.54432,-6.02534c3.77824,4.72458 14.00006,9.80713 30.65835,15.24057c3.77824,1.18026 7.08864,2.24355 9.92409,3.18989l-2.83545,0c-8.50636,0 -13.29119,0.23747 -14.35449,0.70886c-1.53469,0.47139 -2.30381,2.83545 -2.30381,7.08864c0,9.80713 13.35145,14.70892 40.05079,14.70892c7.2056,0 18.72463,-1.53469 34.5571,-4.60761c8.3894,-1.41773 17.42741,-3.12963 27.11403,-5.13926c1.53469,-0.35443 3.3671,-1.18026 5.49369,-2.48102c3.07292,-1.88912 6.26281,-4.54736 9.56966,-7.97472c0.94633,-0.82583 1.77216,-1.59494 2.48102,-2.30381l0,2.83545c-1.65165,2.59799 -3.54432,5.07901 -5.67091,7.44307c-4.49065,4.01571 -8.09522,6.67395 -10.81017,7.97472c-5.90838,1.53823 -11.81321,3.3671 -17.72159,5.49369c-2.83545,1.0633 -8.50636,1.6552 -17.01273,1.77216c-10.16156,0.35443 -15.71551,0.64861 -16.65829,0.88608c-3.77824,0.47139 -10.21827,0.94633 -19.31653,1.41773c-9.92409,0.5919 -14.88614,0.76912 -14.88614,0.53165l1.77216,0c-5.55395,-0.11696 -9.03801,-0.11696 -10.45574,0c-0.70886,0 -1.41773,-0.23392 -2.12659,-0.70886c-0.82583,-0.70886 -1.47798,-1.12355 -1.94937,-1.24051c-2.12659,-1.0633 -6.1423,-3.959 -12.05068,-8.68358c-5.19951,-4.13622 -9.4527,-9.27548 -12.75954,-15.41778c-2.59799,-4.49065 -4.96205,-8.09168 -7.08864,-10.81017z"/>
   <path id="svg_23" fill-rule="evenodd" fill="url(#af)" clip-rule="evenodd" d="m199.36208,101.14705c-0.23392,0.82583 -0.35443,1.59494 -0.35443,2.30381c0,0.82583 0.11696,1.59494 0.35443,2.30381c-1.18026,0 -2.24355,0.06025 -3.18989,0.17722c-3.89875,0.11696 -7.02838,0.29418 -9.39244,0.53165c-2.00963,0.23747 -5.07901,1.30076 -9.21523,3.18989c-2.95242,1.41773 -4.84508,2.36406 -5.67091,2.83545c0.23747,-1.18026 0.5919,-2.24355 1.0633,-3.18989c0.11696,-0.35443 0.23392,-0.70886 0.35443,-1.0633c1.77216,-0.94633 5.96509,-1.94937 12.58233,-3.01267c3.30685,-0.82583 6.26281,-1.6552 8.86079,-2.48102c1.30076,-0.35443 2.83545,-0.88608 4.60761,-1.59494z"/>
   <path id="svg_24" fill-rule="evenodd" fill="url(#ag)" clip-rule="evenodd" d="m200.77981,96.36222c0,0.35443 -0.23747,1.24051 -0.70886,2.65824c-0.23747,0.70886 -0.47139,1.41773 -0.70886,2.12659c-1.77216,0.70886 -3.30685,1.24051 -4.60761,1.59494c-2.59799,0.82583 -5.55395,1.65165 -8.86079,2.48102c-6.61724,1.0633 -10.81017,2.06634 -12.58233,3.01267c0.5919,-1.18026 1.12,-2.24355 1.59494,-3.18989c7.32611,-1.18026 13.23094,-2.36406 17.72159,-3.54432l0.35443,0c0.94633,-0.23747 1.94937,-0.41469 3.01267,-0.53165c1.53469,-1.30076 3.12963,-2.83545 4.78483,-4.60761z"/>
   <path id="svg_25" fill-rule="evenodd" fill="url(#ah)" clip-rule="evenodd" d="m89.84266,105.57744c-0.94633,1.77216 -1.88912,3.42736 -2.83545,4.96205c-0.82583,1.30076 -1.59494,2.42431 -2.30381,3.3671c-0.12051,-5.78787 -1.59494,-9.92409 -4.4304,-12.40511c-4.60761,-4.37014 -7.7975,-9.51295 -9.56966,-15.41778c-0.23747,-0.47139 -0.35443,-1.0633 -0.35443,-1.77216c2.36406,3.78179 4.60761,6.7342 6.7342,8.86079c6.61724,6.49673 10.51599,10.33878 11.69625,11.51903c0.35443,0.23747 0.70886,0.53165 1.0633,0.88608z"/>
   <path id="svg_26" fill-rule="evenodd" fill="url(#ai)" clip-rule="evenodd" d="m71.23499,93.70398c3.18989,5.78787 5.43344,10.39903 6.7342,13.82284c0.35443,1.30076 0.70886,2.59799 1.0633,3.89875c-4.49065,14.76917 -12.58233,31.7819 -24.27858,51.03818c-3.07292,6.97167 -6.26281,15.36107 -9.56966,25.1682c-3.42381,9.80713 -4.72458,23.56617 -3.89875,41.28776c0.70886,17.83855 3.42381,34.73432 8.15193,50.68375c4.84508,15.83247 10.92713,31.89886 18.25324,48.20627c13.94335,27.64568 31.60468,48.3764 52.98755,62.20278s52.33894,22.44617 92.86113,25.87352l12.58233,1.24406l1.0633,0l0,-0.70886c0.23747,0.47139 0.41469,0.88608 0.53165,1.24051c2.12659,4.25318 3.18989,9.33573 3.18989,15.24057c0,1.30076 -0.06025,2.42431 -0.17722,3.3671c-0.11696,0.23392 -0.23392,0.47494 -0.35443,0.70886c-11.69625,5.19951 -30.18696,6.6137 -55.46858,4.25318c-36.26901,-3.54432 -63.26608,-11.51903 -80.98767,-23.92415c-10.27852,-7.08864 -19.90843,-16.36412 -28.88619,-27.82644c-6.49673,-8.26889 -11.87347,-16.18336 -16.12665,-23.74339c-12.52208,-22.9211 -22.74389,-46.785 -30.65835,-71.59522c-2.71849,-8.03497 -4.90179,-15.595 -6.55699,-22.68363c-0.82583,-5.43344 -1.88912,-10.81017 -3.18989,-16.12665c-5.90838,-24.81023 -3.72153,-49.79767 6.55699,-74.96232c10.16156,-25.04415 24.04465,-40.28472 41.64574,-45.71816c3.54432,-3.54432 6.49673,-6.97167 8.86079,-10.27852c1.41773,-2.24355 2.65824,-4.4304 3.72153,-6.55699c2.24355,-4.01926 2.89571,-12.05423 1.94937,-24.10491l0,-0.00709z"/>
   <path id="svg_27" fill-rule="evenodd" fill="url(#aj)" clip-rule="evenodd" d="m71.23499,93.70398c0,-2.36406 -0.17722,-4.90179 -0.53165,-7.62028c1.77216,5.90838 4.96205,11.04764 9.56966,15.41778c2.83545,2.48102 4.30989,6.61724 4.4304,12.40511c-1.41773,2.24355 -2.77875,4.54736 -4.07597,6.91142c-24.45579,40.16776 -36.68369,71.18408 -36.68369,93.03835c0,27.76619 4.84508,55.05389 14.5317,81.87729c8.74383,24.57276 21.14895,46.96221 37.21534,67.16128c21.38641,28.47505 60.66809,46.13639 117.84857,52.98755c-40.52219,-3.42736 -71.47826,-12.04714 -92.86113,-25.87352s-39.04775,-34.5571 -52.98755,-62.20278c-7.32256,-16.30741 -13.40815,-32.3738 -18.25324,-48.20627c-4.72458,-15.94943 -7.44307,-32.84519 -8.15193,-50.68375c-0.82583,-17.72159 0.47139,-31.48418 3.89875,-41.28776c3.31039,-9.80713 6.49673,-18.19653 9.56966,-25.1682c11.69625,-19.25628 19.78793,-36.26901 24.27858,-51.03818c-0.35443,-1.30076 -0.70886,-2.59799 -1.0633,-3.89875c-1.30076,-3.42381 -3.54432,-8.03142 -6.7342,-13.8193z"/>
   <path id="svg_28" fill-rule="evenodd" fill="url(#al)" clip-rule="evenodd" d="m105.9693,109.65341c-0.70886,1.18026 -1.35747,2.59799 -1.94937,4.25318c-1.18026,0.11696 -2.12659,0.17722 -2.83545,0.17722c-2.59799,0 -5.84812,-0.70886 -9.74687,-2.12659c-2.12659,-0.70886 -3.60457,-1.18026 -4.4304,-1.41773c0.94633,-1.53469 1.88912,-3.18989 2.83545,-4.96205c1.30076,0.5919 3.01267,1.35747 5.13926,2.30381c1.53469,0.5919 5.19951,1.18026 10.98739,1.77216z"/>
   <path id="svg_29" fill-rule="evenodd" fill="url(#am)" clip-rule="evenodd" d="m238.52679,402.59129c-3.54432,1.30076 -6.6137,2.71849 -9.21523,4.25318c-0.47139,0.11696 -0.82583,0.35443 -1.0633,0.70886c-0.35443,0.11696 -0.5919,0.29418 -0.70886,0.5281c-0.35443,1.41773 -0.53165,3.31039 -0.53165,5.67445c0,1.0633 0.06025,1.94937 0.17722,2.65824l0,0.70886l-1.0633,0l-12.58233,-1.24051c-57.18048,-6.85471 -96.46216,-24.5125 -117.84857,-52.98755c-16.06639,-20.19907 -28.47151,-42.59207 -37.21534,-67.16128c-9.68662,-26.81985 -14.5317,-54.1111 -14.5317,-81.87729c0,-21.85426 12.2279,-52.87059 36.68369,-93.03835c1.30076,-2.36406 2.65824,-4.66432 4.07597,-6.91142c0.70886,-0.94633 1.47798,-2.06634 2.30381,-3.3671c0.82583,0.23747 2.30381,0.70886 4.4304,1.41773c3.89875,1.41773 7.14889,2.12659 9.74687,2.12659c0.70886,0 1.6552,-0.06025 2.83545,-0.17722c-1.77216,3.07292 -4.01571,7.02838 -6.7342,11.87347c-2.12659,3.18989 -4.31343,6.61724 -6.55699,10.27852c-0.5919,1.18026 -1.24051,2.36406 -1.94937,3.54432c-3.89875,9.4527 -8.09168,23.80364 -12.58233,43.06346c-2.83545,10.86688 -2.71849,23.86389 0.35443,38.9875c2.71849,14.88614 8.21218,31.83861 16.48108,50.86096c16.65829,38.16167 37.03812,64.56684 61.13948,79.21905c14.41474,8.62687 29.94949,15.88918 46.60778,21.79401c15.94943,5.43698 28.70898,12.70284 38.27863,21.79756c0.35443,0.11696 0.65215,0.35443 0.88608,0.70886c0.5919,2.12659 1.12,3.89875 1.59494,5.31648c-0.94633,0.47139 -1.77216,0.82583 -2.48102,1.0633l-0.35443,0l-0.17722,0.17722z"/>
   <path id="svg_30" fill-rule="evenodd" fill="url(#an)" clip-rule="evenodd" d="m97.28572,125.78006c2.71849,-4.84508 4.96205,-8.80054 6.7342,-11.87347c1.30076,-0.23747 2.95242,-0.5919 4.96205,-1.0633c-0.23392,1.53823 -0.53165,3.42736 -0.88608,5.67091c-0.35443,1.88912 -0.76557,3.959 -1.24051,6.20256c0,-4.13622 -0.41469,-6.61724 -1.24051,-7.44307c-0.11696,0.12051 -1.53823,1.59494 -4.25318,4.4304c-2.00963,2.36406 -3.3671,3.72153 -4.07597,4.07597z"/>
   <path id="svg_31" fill-rule="evenodd" fill="url(#ao)" clip-rule="evenodd" d="m109.15919,109.83062c-0.11696,1.0633 -0.17722,2.06634 -0.17722,3.01267c-2.00608,0.47139 -3.66128,0.82583 -4.96205,1.0633c0.5919,-1.6552 1.24051,-3.07292 1.94937,-4.25318c1.0633,0.11696 2.12659,0.17722 3.18989,0.17722z"/>
   <path id="svg_32" fill-rule="evenodd" fill="url(#ap)" clip-rule="evenodd" d="m321.28662,404.54066l5.14281,0c2.83545,6.85471 5.07901,12.05068 6.73066,15.595c0.35798,0.5919 0.70886,1.12 1.0633,1.59494c0,0.23392 0.23747,0.5281 0.70886,0.88608c0,0.23392 0.17722,0.41114 0.53165,0.5281c-1.6552,1.1838 -2.89216,1.95292 -3.72153,2.30381c-2.13014,0.82583 -5.19951,1.88912 -9.21877,3.18989c-11.10435,3.66128 -20.79097,5.49369 -29.06341,5.49369c-3.77824,0 -13.11043,-1.41773 -27.99657,-4.25318c-0.82583,-0.23392 -1.59494,-0.41114 -2.30381,-0.53165c-10.86688,-2.47748 -16.95247,-3.8385 -18.24969,-4.07242l-0.35798,0c-0.58836,0 -1.47444,-0.06025 -2.65824,-0.17722c0,-0.5919 0.06025,-1.24406 0.17722,-1.95292c1.06684,-8.62333 1.24406,-14.5317 0.53165,-17.72159c0,-0.58836 -0.17722,-1.29722 -0.53165,-2.12659c-0.11696,-0.5919 -0.29418,-1.0633 -0.5281,-1.41773l0,-0.53165c-0.47494,-1.41773 -1.00304,-3.18989 -1.59494,-5.31648c-0.23392,-0.35798 -0.53165,-0.5919 -0.88608,-0.70886c-9.56966,-9.09472 -22.3292,-16.36057 -38.27863,-21.79756c-16.65829,-5.90483 -32.19304,-13.17069 -46.60778,-21.79401c-24.10136,-14.65221 -44.48119,-41.05738 -61.13948,-79.21905c-8.27244,-19.01881 -13.76613,-35.97128 -16.48462,-50.85742c0.70886,-20.44008 3.18989,-35.26596 7.44307,-44.48119c4.49065,-9.09472 6.7342,-15.88918 6.7342,-20.37983c-0.5919,-4.84508 -1.0633,-8.50636 -1.41773,-10.98739c0.70886,-3.89875 4.37014,-8.50636 10.98739,-13.82284c0.70886,0.11696 1.0633,1.0633 1.0633,2.83545c0,2.00963 -0.88608,5.55395 -2.65824,10.63295c-1.77216,5.19951 -2.65824,8.21218 -2.65824,9.03801c-0.23392,2.24355 -0.35443,5.31648 -0.35443,9.21877c-0.11696,3.66128 -0.17722,8.03497 -0.17722,13.11043c-0.11696,1.6552 -0.23747,3.31039 -0.35443,4.96205c-0.47139,3.66128 -0.70886,6.85471 -0.70886,9.56966c0,9.56966 6.79446,28.29429 20.37983,56.17744c15.47804,32.13279 27.70239,53.10452 36.68369,62.91164c8.62687,9.80713 19.4335,20.79451 32.43051,32.96216c12.87651,12.17119 25.81327,21.38641 38.81028,27.64922c12.75954,6.37977 31.42747,14.5317 56.00022,24.45225c4.13267,1.53823 8.15193,3.01621 12.04714,4.4304c7.68054,2.2471 14.76917,3.66128 21.26591,4.25318c1.53823,0.23392 3.07292,0.35443 4.61116,0.35443l4.60761,0z"/>
   <path id="svg_33" fill-rule="evenodd" fill="url(#aq)" clip-rule="evenodd" d="m217.26089,284.91993c15.595,12.17119 28.88619,22.62693 39.87358,31.37076c22.9211,19.25982 47.78804,34.49685 74.61144,45.71816c26.93682,11.45878 55.05389,15.595 84.35477,12.40511c0.70886,0 1.59494,-0.17722 2.65824,-0.5281c0.82583,0 1.6552,-0.06025 2.48102,-0.17722l0,0.70532c0,1.06684 1.12,2.2471 3.36356,3.54432c0.47494,0.35798 1.24406,0.76912 2.30381,1.24406c3.06938,1.6552 8.80054,4.49065 17.18994,8.50282c-0.47139,0.70886 -0.88608,1.41773 -1.24051,2.13014c-2.12659,3.18634 -4.78483,6.20256 -7.97472,9.03801c-3.77824,3.06938 -8.32915,5.84812 -13.64562,8.32915c-13.94335,6.7342 -29.5986,10.10485 -46.96221,10.10485c-9.09826,0 -16.71855,-0.82583 -22.86085,-2.48102c-2.2471,-0.47494 -4.25318,-1.0633 -6.02534,-1.77216c0,-0.11696 -0.06025,-0.17722 -0.17722,-0.17722c0.35443,-0.82583 0.65215,-1.53823 0.88608,-2.13014c0.58836,-2.12659 0.88608,-4.19293 0.88608,-6.20256c0,-2.47748 -0.53165,-5.96509 -1.59494,-10.45219c-1.0633,-1.41773 -2.36406,-2.95596 -3.89875,-4.61116c-3.90229,-3.89875 -9.39244,-8.74029 -16.48108,-14.5317c-10.63295,-8.50636 -19.61071,-14.06031 -26.93682,-16.65829c-7.91446,-2.95242 -23.21883,-10.15802 -45.89892,-21.62034c-17.48766,-8.62687 -33.79153,-19.554 -48.91159,-32.78494l8.15193,-23.56971c0.70886,0.5919 1.41773,1.12 2.12659,1.59494c1.30076,1.0633 2.54128,2.06634 3.72153,3.01267l0,-0.00354z"/>
   <path id="svg_34" fill-rule="evenodd" fill="url(#ar)" clip-rule="evenodd" d="m416.09712,374.41396c-29.30088,3.18989 -57.41795,-0.94633 -84.35477,-12.40511c-26.81985,-11.22131 -51.69033,-26.46188 -74.61144,-45.71816c-10.98739,-8.74383 -24.27858,-19.19957 -39.87358,-31.37076l2.12659,-3.01267c14.29423,11.34182 27.70239,22.21224 40.22801,32.60773c22.9211,19.25982 47.78804,34.37988 74.60789,45.36727c26.93682,11.58992 54.22806,16.41019 81.87374,14.5317l0.00354,0z"/>
   <path id="svg_35" fill-rule="evenodd" fill="#4B390B" clip-rule="evenodd" d="m446.22383,377.24941c-0.23392,2.24355 -0.47494,4.78483 -0.70886,7.61674c-0.5919,0.94633 -1.0633,1.88912 -1.41773,2.83545c-8.38586,-4.01571 -14.11702,-6.85117 -17.18994,-8.50282c-1.0633,-0.47494 -1.83241,-0.88608 -2.30381,-1.24406c-2.24355,-1.29722 -3.36356,-2.47748 -3.36356,-3.54432l0,-0.88608c0.11696,-0.23392 0.29418,-0.5281 0.5281,-0.88608c0.35798,-1.65165 1.41773,-3.77824 3.18989,-6.37977c1.41418,-2.24355 4.54736,-4.25318 9.3889,-6.02534c-1.41418,1.1838 -3.18634,2.839 -5.31648,4.96205c-3.54432,3.06938 -5.31648,4.96205 -5.31648,5.67091l0.70886,0.35798c0.5919,0.70886 2.30381,1.77216 5.13926,3.18634c1.18026,0.35798 2.36406,0.70886 3.54432,1.06684c3.79242,0.95697 8.15193,1.52406 13.11398,1.77216l0.00354,0zm42.88625,-42.00017l-17.36361,-15.24057l-0.18076,-0.88608l0,-0.35443l-0.5281,-6.38332c1.6552,-1.65165 3.12963,-3.18634 4.4304,-4.60761c-0.35798,0.94633 -0.53165,2.06988 -0.53165,3.3671c0,6.6137 6.31952,9.92409 18.96565,9.92409c0,2.13014 -0.06025,3.48406 -0.18076,4.07597c-0.11696,1.77216 -0.58836,3.60457 -1.41418,5.49369c-0.47494,0.82583 -0.82583,1.59494 -1.0633,2.30381c-0.70886,0.81519 -1.41773,1.59494 -2.12659,2.30381l-0.00709,0.00354zm-248.10226,94.10164c-1.77216,2.13014 -4.25318,4.19647 -7.44307,6.20256c-0.94633,0.47494 -2.00963,0.94633 -3.18989,1.41773c0.12051,-0.23392 0.23747,-0.47494 0.35443,-0.70886c0.11696,-0.94633 0.17722,-2.06634 0.17722,-3.3671c0,-5.90483 -1.0633,-10.98739 -3.18989,-15.24057c-0.11696,-0.35443 -0.29418,-0.76912 -0.53165,-1.24051c-0.11696,-0.70886 -0.17722,-1.59494 -0.17722,-2.65824c0,-2.36406 0.17722,-4.25318 0.53165,-5.67445c0.11696,-0.23392 0.35443,-0.41114 0.70886,-0.5281c0.23392,-0.35798 0.5919,-0.5919 1.0633,-0.70886c2.59799,-1.53823 5.67091,-2.95242 9.21523,-4.25318c-1.41418,0.5919 -3.30685,2.00608 -5.67091,4.25318c-2.59799,2.48102 -3.89875,4.54736 -3.89875,6.20256c0,1.18026 1.71191,3.66128 5.13926,7.44307c3.18989,3.78179 4.60761,7.02838 4.25318,9.74687c0.82583,-0.2481 1.71191,-0.53165 2.65824,-0.88608zm103.6713,-15.77221c-0.11696,0.11696 -0.17722,0.29418 -0.17722,0.5281l-0.17722,0.35798c-1.1838,1.29722 -2.65824,2.95242 -4.4304,4.9585c-0.94633,0.82583 -1.94937,1.59494 -3.01621,2.30381c-0.47139,0.58836 -0.94633,1.0633 -1.41418,1.41418c-0.35798,-0.11696 -0.53165,-0.29418 -0.53165,-0.5281c-0.47139,-0.35798 -0.70886,-0.65215 -0.70886,-0.88608c-0.35443,-0.47494 -0.70532,-1.00304 -1.0633,-1.59494c-1.6552,-3.54432 -3.89875,-8.74383 -6.73066,-15.595c-0.23392,-0.00709 -0.23392,-0.24101 0,-0.70532l0,-0.35443c0.47139,-0.94633 1.77216,-2.36052 3.89875,-4.25318c1.53823,-1.29722 3.48406,-2.71849 5.84812,-4.24964c0.35443,0 0.82583,0.06025 1.41418,0.17722l-9.3889,9.03801c0,0.47494 1.5914,1.41773 4.78483,2.83545c3.18989,2.00608 4.78483,5.13926 4.78483,9.39244c0.47494,0.35443 0.88608,0.5281 1.24406,0.5281c2.02026,-0.70886 3.89875,-1.84305 5.67091,-3.3671l-0.00709,0z"/>
   <g id="svg_36" fill-rule="evenodd" clip-rule="evenodd">
    <path id="svg_37" fill-opacity="0.1412" d="m471.92013,346.41385l-1.24406,0c-18.30995,-1.6552 -38.16167,-4.60761 -59.54454,-8.86079c-39.57585,-8.03497 -65.7471,-15.29728 -78.5031,-21.79756c-12.87651,-6.7342 -27.70593,-16.83551 -44.48119,-30.30392c-16.89576,-13.46841 -29.47455,-23.03807 -37.74344,-28.70898c-8.27244,-5.67445 -18.66792,-15.30082 -31.19,-28.88619c-1.18026,-1.41773 -2.42077,-2.89216 -3.72153,-4.4304c-7.32611,-9.56966 -12.69929,-18.19653 -16.12665,-25.87352c-1.18026,-2.36406 -2.00608,-4.60761 -2.48102,-6.7342c-0.35443,-0.58836 -0.5919,-1.18026 -0.70886,-1.77216c-1.53469,-4.84154 -2.71849,-9.86384 -3.54432,-15.06335c-3.07292,-14.05677 -4.60761,-29.5348 -4.60761,-46.43057c0,-6.49673 0.11696,-10.69321 0.35443,-12.58233c0.5919,-6.02534 1.88912,-10.51599 3.89875,-13.46841l0.35443,0c0.94633,-0.23747 1.94937,-0.41469 3.01267,-0.53165c1.53469,-1.30076 3.12963,-2.83545 4.78483,-4.60761c0,0.35443 -0.23747,1.24051 -0.70886,2.65824c-0.70886,1.41773 -1.0633,2.89571 -1.0633,4.4304c0,3.42736 0.5919,7.02838 1.77216,10.81017c-0.11696,1.53469 -0.17722,3.60457 -0.17722,6.20256c0,35.6771 10.21827,68.22812 30.65835,97.64596c4.72458,6.85471 10.04105,13.52512 15.94943,20.0254c13.35145,14.64867 29.5348,28.47151 48.55716,41.46498c10.04105,6.85471 20.49679,13.05727 31.36721,18.60767c16.77526,8.86079 34.44014,16.30741 52.98755,22.33275c28.82594,9.33219 54.99718,13.99651 78.5031,13.99651c9.56966,0 18.96565,-0.41114 28.17733,-1.24051l2.30381,1.94937c-3.77824,4.13622 -9.15852,7.74079 -16.12665,10.81017c-0.2481,0.2481 -0.46076,0.35443 -0.70886,0.35443l0,0.00354zm-323.2418,-213.19073c1.18026,-8.26889 3.01267,-15.18031 5.49369,-20.73426l4.07597,-0.53165c-0.82583,3.07292 -1.77216,6.08559 -2.83545,9.03801c-2.00963,4.37014 -4.25318,8.44611 -6.7342,12.2279c-0.70886,2.71849 -1.30076,5.78787 -1.77216,9.21523c-1.18026,10.16156 -1.77216,19.49375 -1.77216,28.00011c0,18.07957 3.54432,33.37684 10.63295,45.89892c4.49065,8.03497 13.05372,21.91806 25.69631,41.64574c9.09826,17.01273 19.67096,30.00974 31.72165,38.9875c6.96813,5.31648 17.18994,11.636 30.65481,18.9621c25.75656,17.8421 50.92122,33.25988 75.49752,46.25689c10.86688,5.78787 24.21832,12.28461 40.05079,19.49375c23.74693,10.74992 38.68977,16.12665 44.83208,16.12665c2.59799,0 6.91142,-0.47494 12.93676,-1.41773c6.1423,-0.82583 10.15802,-1.24051 12.05068,-1.24051l3.01267,0l-6.91142,5.67091c-1.53823,0.11696 -3.18634,0.29772 -4.9585,0.53165c-0.94633,0 -1.83241,0.23392 -2.65824,0.70886c-6.38332,0.70532 -15.06335,1.65165 -26.05428,2.83545c-12.52208,1.41418 -20.85122,-1.12 -24.98744,-7.62028c-4.49065,-6.85471 -13.11398,-13.64562 -25.87352,-20.37983c-12.88005,-6.97167 -22.03502,-12.04714 -27.46846,-15.24057c-5.19951,-3.31039 -13.40815,-7.49978 -24.63301,-12.58233c-11.45878,-5.43344 -21.32616,-10.5727 -29.59505,-15.42133c-7.7975,-4.60761 -15.65525,-9.3889 -23.56971,-14.35449c-6.61724,-4.72458 -13.17423,-9.51295 -19.67096,-14.35449c-3.78179,-2.59799 -7.32611,-5.31648 -10.63295,-8.15193c-2.95242,-2.48102 -5.90838,-4.96205 -8.86079,-7.44661c-8.03497,-6.73066 -15.1236,-14.23753 -21.26591,-22.50642c-2.24355,-3.18989 -4.31343,-6.37977 -6.20256,-9.56966c-3.89875,-7.32256 -7.56003,-14.5317 -10.98739,-21.62034c-4.13622,-8.97776 -8.26889,-17.89881 -12.40511,-26.7596c-4.72458,-9.92763 -8.68358,-20.56059 -11.87347,-31.89886c-1.41773,-4.72812 -1.59494,-9.51295 -0.53165,-14.35803c2.71849,-9.56966 7.08864,-18.3702 13.11398,-26.40517c0.5919,-0.93924 1.41773,-1.94229 2.48102,-3.00558l0.00354,0zm182.35516,289.92521c-0.70886,0.35798 -1.30076,0.5919 -1.77216,0.70886c-1.0633,0.35798 -2.2471,0.76912 -3.54432,1.24406c-5.79142,1.88912 -10.74992,2.83545 -14.88614,2.83545c-9.09472,0 -21.97477,-2.06988 -38.63307,-6.20256c-6.26281,-1.53823 -10.5727,-5.08255 -12.93322,-10.63295c-1.6552,-6.50028 -3.54432,-11.28511 -5.67445,-14.35449c-1.65165,-2.00963 -5.61066,-5.0223 -11.87347,-9.04156c-6.49673,-3.77824 -10.5727,-6.1423 -12.2279,-7.08864c-1.88912,-0.94633 -8.74029,-4.07242 -20.55704,-9.3889c-11.81321,-5.19951 -20.31957,-9.09472 -25.51909,-11.69625c-5.19597,-2.71849 -14.05677,-9.39244 -26.58238,-20.0254c-12.75954,-10.86688 -23.50946,-21.67705 -32.25329,-32.43051c-17.48766,-29.18037 -27.76264,-50.62349 -30.83557,-64.32583c-2.83545,-12.52208 -4.4304,-23.33579 -4.78483,-32.43051c-0.5919,-2.71849 -0.88608,-4.84154 -0.88608,-6.37977c0,-0.94633 0.11696,-1.71191 0.35443,-2.30381c0.35443,-0.70532 0.70886,-1.0633 1.0633,-1.0633c-0.35443,2.95596 -0.53165,5.37673 -0.53165,7.26585l0,2.48102c2.00963,8.50636 7.38281,21.85781 16.12665,40.05079c10.27852,21.85781 18.60767,36.92116 24.98744,45.19005c11.34182,15.36107 23.21528,28.59201 35.6204,39.69636c9.33219,8.50636 20.85122,17.19349 34.5571,26.05428c13.46841,8.86079 34.73432,20.44008 63.79772,34.73432c1.77216,0.82583 5.90838,3.77824 12.40511,8.86079c4.84508,4.13267 11.1646,7.08864 18.96565,8.86079c12.28461,2.83545 24.92719,5.13926 37.92066,6.91142c-0.60253,0.95697 -1.34684,1.77216 -2.30381,2.48102l0,-0.01063zm-100.48141,7.62028c-11.57929,3.31039 -27.8229,4.37014 -48.73437,3.18989c-36.38951,-2.48102 -63.50354,-9.68662 -81.3421,-21.62388c-10.04105,-6.85471 -19.67096,-15.94943 -28.88619,-27.29125c-6.37977,-7.91446 -11.636,-15.59145 -15.77221,-23.03807c-12.40511,-22.44617 -22.68363,-46.07613 -30.83557,-70.88636c-2.59799,-7.91446 -4.78483,-15.35753 -6.55699,-22.3292c-0.82583,-5.43344 -1.83241,-10.81017 -3.01267,-16.12665c-6.02534,-24.81023 -3.89875,-49.85438 6.37977,-75.13954c7.91446,-19.49375 18.07602,-33.25634 30.48113,-41.2913c1.41773,-0.70886 2.77875,-1.24051 4.07597,-1.59494l1.94937,-1.94937c2.71849,-2.95242 5.0223,-5.73116 6.91142,-8.32915c-0.23747,1.30076 -1.41773,3.66482 -3.54432,7.08864c-3.54432,5.90838 -9.68662,15.41778 -18.43045,28.53176c-13.70588,20.43654 -21.50338,35.73736 -23.3925,45.89892c-1.77216,10.16156 2.30381,34.61735 12.2279,73.36738c9.92409,38.63307 20.85122,66.27875 32.78494,82.93704c11.69625,16.53779 26.99707,30.53784 45.89892,42.00017c18.54742,11.45878 40.46548,18.13273 65.7471,20.0254c24.92719,2.00608 38.9875,2.06634 42.17738,0.17722c3.07292,-1.6552 5.96509,-3.90229 8.68358,-6.7342c1.53469,2.95596 2.53773,6.31952 3.01267,10.10485c0.11696,0.95697 0.17722,1.94937 0.17722,3.01267z"/>
    <path id="svg_38" fill-opacity="0.251" d="m322.88156,373.52788c-0.5919,-0.47139 -1.1838,-0.94633 -1.77216,-1.41418c-9.09826,-6.97167 -16.89576,-11.57929 -23.39604,-13.82284c-7.91446,-2.95242 -23.21528,-10.15802 -45.89892,-21.62034c-17.48412,-8.62687 -33.78798,-19.554 -48.91159,-32.78494c-5.19597,-4.13622 -10.04105,-8.44965 -14.5317,-12.93676c-19.25982,-19.01881 -33.79153,-39.69636 -43.59511,-62.02556c-9.80713,-22.09173 -15.83247,-37.44926 -18.07602,-46.07613s-3.72153,-15.18031 -4.4304,-19.67096c-0.47139,-3.18989 -0.82583,-6.61724 -1.0633,-10.27852c0.70886,-1.6552 1.53469,-3.42736 2.48102,-5.31648c2.95242,-4.84508 6.08205,-7.85775 9.39244,-9.03801c3.42736,-1.18026 7.32256,-4.25318 11.69625,-9.21523c4.49065,-4.96205 6.49673,-9.56966 6.02534,-13.82284c-0.23747,-1.0633 -0.41469,-1.94937 -0.53165,-2.65824l3.89875,-0.35443c-2.48102,5.5504 -4.30989,12.46537 -5.49369,20.73426c-1.0633,1.0633 -1.88912,2.06634 -2.48102,3.01267c-6.02534,8.03497 -10.39548,16.83551 -13.11398,26.40517c-1.0633,4.84508 -0.88608,9.62991 0.53165,14.35803c3.18989,11.33827 7.14889,21.97123 11.87347,31.89886c4.13622,8.86079 8.26889,17.78184 12.40511,26.7596c3.42736,7.08864 7.08864,14.29423 10.98739,21.62034c1.88912,3.18989 3.959,6.37977 6.20256,9.56966c6.1423,8.26889 13.23094,15.77221 21.26591,22.50642c2.95242,2.48102 5.90838,4.96205 8.86079,7.44661c3.30685,2.83545 6.85117,5.5504 10.63295,8.15193c6.49673,4.84154 13.05372,9.62991 19.67096,14.35449c7.91446,4.96205 15.77221,9.74687 23.56971,14.35449c8.26889,4.84508 18.13273,9.98434 29.59505,15.42133c11.22485,5.08255 19.4335,9.27194 24.63301,12.58233c5.43344,3.18989 14.58841,8.26889 27.46846,15.24057c12.75954,6.7342 21.38287,13.52512 25.87352,20.37983c4.13622,6.50028 12.46537,9.03801 24.98744,7.62028c10.99093,-1.1838 19.67096,-2.13014 26.05428,-2.83545c0.82583,-0.47494 1.71191,-0.70886 2.65824,-0.70886c1.77216,-0.23392 3.42381,-0.41469 4.9585,-0.53165c4.01926,-0.82583 7.08864,-1.47444 9.21877,-1.94937c-3.78179,3.06938 -8.33269,5.84812 -13.64917,8.32915c-2.71849,1.30076 -5.43344,2.48102 -8.15193,3.54432c-5.5504,1.06684 -14.65221,1.89267 -27.29125,2.48102c-12.75954,0.5919 -21.14895,-0.06025 -25.16466,-1.94937c-4.13622,-2.00608 -7.26585,-3.8385 -9.39244,-5.49369c-0.47139,-1.41773 -1.12,-2.95596 -1.94937,-4.60761c-1.0633,-2.00963 -2.2471,-4.25318 -3.54432,-6.7342c-2.2471,-4.13622 -5.19951,-7.97472 -8.86079,-11.51903c-4.25318,-4.14685 -8.80054,-7.26585 -13.64562,-9.39244l0.00354,-0.01418zm-97.46874,11.69625c-7.2056,-4.49065 -15.53475,-8.3894 -24.98744,-11.69979c-16.65829,-5.90483 -32.19304,-13.17069 -46.60778,-21.79401c-24.10136,-14.65221 -44.48119,-41.05738 -61.13948,-79.21905c-8.26889,-19.01881 -13.76259,-35.97128 -16.48108,-50.85742c0.70886,-20.44008 3.18989,-35.26596 7.44307,-44.48119c4.49065,-9.09472 6.7342,-15.88918 6.7342,-20.37983c-0.5919,-4.84508 -1.0633,-8.50636 -1.41773,-10.98739c0.70886,-3.89875 4.37014,-8.50636 10.98739,-13.82284c0.70886,0.11696 1.0633,1.0633 1.0633,2.83545c0,2.00963 -0.88608,5.55395 -2.65824,10.63295c-1.77216,5.19951 -2.65824,8.21218 -2.65824,9.03801c-0.23392,2.24355 -0.35443,5.31648 -0.35443,9.21877c-0.12051,2.36052 -1.24051,9.21523 -3.3671,20.55704c-1.0633,6.49673 -1.88912,11.93017 -2.48102,16.30386c-0.35443,0 -0.70886,0.35798 -1.0633,1.0633c-0.23747,0.5919 -0.35443,1.36102 -0.35443,2.30381c0,1.53823 0.29418,3.66128 0.88608,6.37977c0.35443,9.09472 1.94937,19.90843 4.78483,32.43051c3.07292,13.70233 13.35145,35.14546 30.83557,64.32583c8.74029,10.75346 19.49375,21.56363 32.25329,32.43051c12.52562,10.63295 21.38641,17.31045 26.58238,20.0254c5.19951,2.59799 13.70588,6.49673 25.51909,11.69625c11.81321,5.31648 18.66792,8.44611 20.55704,9.3889c1.6552,0.94633 5.73116,3.31039 12.2279,7.08864c6.26281,4.01926 10.22181,7.02838 11.87347,9.04156c2.13014,3.06938 4.01926,7.85421 5.67445,14.35449c2.36052,5.5504 6.67395,9.09472 12.93322,10.63295c16.65829,4.13267 29.53835,6.20256 38.63307,6.20256c4.13622,0 9.09472,-0.94633 14.88614,-2.83545c1.29722,-0.47494 2.48102,-0.88608 3.54432,-1.24406c0.47139,-0.11696 1.0633,-0.35443 1.77216,-0.70886c0.94633,-0.35443 1.88912,-0.82583 2.83545,-1.41418c0.11696,0.58836 0.53165,1.0633 1.24051,1.41418c-1.65165,1.1838 -2.89216,1.95292 -3.72153,2.30381c-2.12659,0.82583 -5.19951,1.88912 -9.21523,3.18989c-3.18989,0.94633 -6.26281,1.88912 -9.21877,2.83545l-3.72153,0c-2.00608,0 -4.9585,-0.17722 -8.86079,-0.53165c-3.89875,-0.35443 -8.09168,-0.65215 -12.58233,-0.88608c-4.60761,-0.35443 -8.44965,-0.88608 -11.51903,-1.59494c-12.88005,-3.30685 -20.73426,-5.5504 -23.56971,-6.73066c-3.89875,-1.6552 -6.37977,-3.77824 -7.44307,-6.37977c-0.11696,-2.839 -0.29418,-5.37673 -0.53165,-7.62028c-0.70532,-5.08255 -2.00608,-9.09472 -3.89875,-12.05068c-3.06584,-4.71394 -8.20864,-8.22282 -15.41424,-10.45574zm237.64652,-35.26596c-4.25318,0 -9.9808,0.41114 -17.19349,1.24051c-5.67091,0.70886 -10.74992,1.0633 -15.24057,1.0633c-8.86079,0 -15.24057,-0.29418 -19.13577,-0.88608c-4.37014,-0.82583 -9.04156,-1.5914 -14.00006,-2.30026c-1.0633,-0.23392 -2.06988,-0.53165 -3.01621,-0.88608c-13.9398,-4.49065 -29.30088,-10.45574 -46.07613,-17.89881c-10.27498,-4.72812 -20.08211,-9.74687 -29.41784,-15.06335c-27.64568,-15.71196 -51.92426,-34.43659 -72.83573,-56.17744c-12.64258,-13.11398 -22.86085,-24.98744 -30.65835,-35.6204c1.30076,1.53823 2.54128,3.01267 3.72153,4.4304c12.52208,13.58537 22.91756,23.21528 31.19,28.88619c8.26889,5.67091 20.85122,15.24057 37.74344,28.70898c16.77526,13.46841 31.60468,23.56971 44.48473,30.30392c12.75954,6.50028 38.92724,13.76613 78.5031,21.79756c21.38287,4.25318 41.2346,7.2056 59.54454,8.86079l1.24406,0c-1.88912,0.94633 -3.959,1.83241 -6.20256,2.65824c-0.95697,0.35443 -1.84305,0.63798 -2.65824,0.88608l0.00354,-0.00354zm-232.50726,80.81045c-0.11696,1.29722 -0.29418,2.36406 -0.53165,3.18989c-0.47139,0.11696 -1.0633,0.35443 -1.77216,0.70532c-11.45878,4.49065 -29.36113,5.67445 -53.69642,3.54432c-36.26901,-3.54432 -63.26608,-11.51903 -80.98767,-23.92415c-6.1423,-4.37014 -12.11093,-9.44915 -17.89881,-15.24057c-3.89875,-3.89875 -7.56003,-8.09168 -10.98739,-12.58233c-6.49673,-8.26889 -11.87347,-16.18336 -16.12665,-23.74693c-12.52208,-22.9211 -22.74389,-46.785 -30.65835,-71.59522c-2.71849,-8.03497 -4.90179,-15.59145 -6.55699,-22.68009c-0.82583,-5.43344 -1.88912,-10.81017 -3.18989,-16.12665c-2.00963,-8.50636 -3.07292,-17.07298 -3.18989,-25.69631c0.23392,-15.36107 3.48406,-30.77886 9.74687,-46.25689c9.33219,-22.8006 21.85781,-37.50952 37.56977,-44.12676c-12.40511,8.03497 -22.56667,21.79756 -30.48113,41.2913c-10.27852,25.28516 -12.40511,50.32932 -6.37977,75.13954c1.18026,5.31648 2.18684,10.69321 3.01267,16.12665c1.77216,6.97167 3.959,14.4112 6.55699,22.3292c8.15193,24.81023 18.43045,48.44019 30.83557,70.88636c4.13622,7.44661 9.39244,15.1236 15.77221,23.03807c9.21523,11.34182 18.84514,20.44008 28.88619,27.29125c17.83855,11.93372 44.95613,19.13932 81.3421,21.62388c20.91148,1.16962 37.15509,0.10633 48.73437,-3.18989z"/>
    <path id="svg_39" fill-opacity="0.3255" d="m463.05934,349.95817c-12.17119,3.77824 -21.62388,5.61066 -28.35454,5.49369c-7.08864,-0.23392 -10.99093,-0.35443 -11.69625,-0.35443c-8.03497,-1.41773 -16.54133,-3.42736 -25.51909,-6.02534c4.9585,0.70886 9.62991,1.47444 14.00006,2.30026c3.89875,0.5919 10.27498,0.88608 19.13577,0.88608c4.49065,0 9.56966,-0.35443 15.24057,-1.0633c7.19497,-0.81519 12.93676,-1.24051 17.18994,-1.24051l0.00354,0.00354zm-140.17778,23.56971c4.84154,2.13014 9.3889,5.25622 13.64562,9.39244c3.66128,3.54432 6.6137,7.38281 8.86079,11.51903c1.29722,2.48102 2.48102,4.72458 3.54432,6.7342c0.82583,1.65165 1.47798,3.18634 1.94937,4.60761c2.13014,1.6552 5.25622,3.48406 9.39244,5.49369c4.01571,1.88912 12.40511,2.54128 25.16466,1.94937c12.63904,-0.58836 21.74085,-1.41418 27.29125,-2.48102c-11.81321,4.37014 -24.74997,6.56053 -38.81028,6.56053c-7.67699,0 -14.29423,-0.53165 -19.84818,-1.59494c-3.42736,-0.70886 -6.50028,-1.6552 -9.21877,-2.83545c0.35798,-0.82583 0.65215,-1.53823 0.88608,-2.13014c0.5919,-2.12659 0.88608,-4.19293 0.88608,-6.20256c0,-2.47748 -0.5281,-5.96509 -1.5914,-10.45219c-2.59799,-3.54432 -7.50332,-8.33269 -14.70892,-14.35803c-1.6552,-1.65165 -3.54432,-3.2466 -5.67091,-4.78483c-0.5919,-0.46076 -1.1838,-0.95697 -1.77216,-1.41773zm-317.92532,-146.91198c0.11696,8.62333 1.18026,17.18994 3.18989,25.69631c1.30076,5.31648 2.36406,10.69321 3.18989,16.12665c1.6552,7.08864 3.8385,14.64867 6.55699,22.68009c7.91446,24.81023 18.13628,48.67412 30.65835,71.59522c4.25318,7.56357 9.62991,15.47804 16.12665,23.74693c3.42736,4.49065 7.08864,8.68358 10.98739,12.58233c5.78787,5.79142 11.7565,10.86688 17.89881,15.24057c17.72159,12.40511 44.71866,20.37983 80.98767,23.92415c24.33883,2.13014 42.23764,0.94633 53.69642,-3.54432c0.70886,-0.35443 1.30076,-0.58836 1.77216,-0.70532c0.23392,-0.82583 0.41469,-1.89267 0.53165,-3.18989l0,2.12659c0,1.77216 -0.17722,3.13318 -0.53165,4.07597c-0.47139,0.11696 -1.0633,0.35443 -1.77216,0.70886c-11.45878,4.49065 -29.36113,5.67091 -53.69642,3.54432c-36.26901,-3.54432 -63.26608,-11.51903 -80.98767,-23.92415c-6.1423,-4.37014 -12.11093,-9.4527 -17.89881,-15.24057c-3.89875,-3.90229 -7.56003,-8.09522 -10.98739,-12.58587c-6.49673,-8.26889 -11.87347,-16.18336 -16.12665,-23.74339c-12.52208,-22.9211 -22.74389,-46.785 -30.65835,-71.59522c-2.71849,-8.03497 -4.90179,-15.595 -6.55699,-22.68363c-0.82583,-5.43344 -1.88912,-10.81017 -3.18989,-16.12665c-2.24355,-9.56966 -3.30685,-19.13932 -3.18989,-28.70898z"/>
    <path id="svg_40" fill-opacity="0.3725" d="m225.41282,385.22413c7.2056,2.24355 12.3484,5.72762 15.41778,10.45219c1.88912,2.95596 3.18989,6.97167 3.89875,12.05068c0.23747,2.2471 0.41469,4.78483 0.53165,7.62028c1.0633,2.59799 3.54432,4.72458 7.44307,6.37977c2.839,1.18026 10.69321,3.42736 23.56971,6.73066c3.06938,0.70886 6.91142,1.24406 11.51903,1.59494c4.49065,0.23392 8.68358,0.53165 12.58233,0.88608c3.90229,0.35798 6.85471,0.53165 8.86079,0.53165l3.72153,0c-0.47139,0.11696 -0.88608,0.23392 -1.24051,0.35443c-6.85471,1.53823 -13.05727,2.30381 -18.60767,2.30381c-3.77824,0 -13.11398,-1.41773 -28.00011,-4.25318c-11.93017,-2.59799 -18.72463,-4.07597 -20.37983,-4.4304l-0.5281,-0.17722c-0.5919,0 -1.47798,-0.06025 -2.65824,-0.17722c0,-0.5919 0.06025,-1.24406 0.17722,-1.95292c1.0633,-8.62333 1.24051,-14.5317 0.53165,-17.72159c-0.23747,-1.0633 -0.5919,-2.42077 -1.06684,-4.07242c-0.47139,-1.41773 -1.00304,-3.13318 -1.5914,-5.13926l0,-0.17722l-0.35798,-0.35443c-4.01571,-3.79242 -8.62333,-7.26585 -13.82284,-10.45574l0,0.00709z"/>
   </g>
   <path id="svg_41" fill-rule="evenodd" fill-opacity="0.1216" clip-rule="evenodd" d="m403.86923,280.31232c31.89886,11.45878 58.07011,18.66792 78.50664,21.62388c1.41418,0.11696 2.83545,0.29418 4.24964,0.5281l0.53165,0c3.42736,2.83545 5.5504,5.08255 6.37977,6.7342c0.23392,0.82583 0.35798,3.95546 0.35798,9.3889c0,3.42736 -0.06025,5.6142 -0.18076,6.56053c-0.11696,1.77216 -0.58836,3.60457 -1.41418,5.49369c-0.47494,0.82583 -0.82583,1.59494 -1.0633,2.30381c-0.70886,0.82583 -1.41773,1.5914 -2.13014,2.30026c-4.72458,5.5504 -12.40511,10.16156 -23.03807,13.82284c-13.46841,4.37014 -23.80718,6.49673 -31.01278,6.37977c-7.08864,-0.23392 -10.98739,-0.35443 -11.69625,-0.35443c-20.55704,-3.31039 -45.42398,-11.57929 -74.60789,-24.81023c-10.27852,-4.72812 -20.08565,-9.74687 -29.41784,-15.06335c-27.64922,-15.71551 -52.98755,-34.61735 -76.02562,-56.70909c-20.67401,-20.08565 -36.98141,-46.72829 -48.91159,-79.92791c-2.36406,-8.74029 -3.959,-15.65171 -4.78483,-20.73426c-2.12659,-12.64258 -2.24355,-29.83252 -0.35443,-51.56983c3.66128,-4.25318 6.43648,-6.79446 8.32915,-7.62028c1.41773,7.68054 2.48102,12.87651 3.18989,15.595c3.30685,13.58537 12.58233,30.0062 27.8229,49.26248c19.72767,24.69326 45.84221,47.3769 78.33297,68.0509c32.49785,20.68464 64.78659,36.92825 96.93355,48.74146l0.00354,0.00354zm67.69647,38.81028l0,-0.35443c-0.47139,0.23392 -0.76557,0.35443 -0.88608,0.35443l0,0.17722l1.06684,0.70886l-0.17722,-0.88608l-0.00354,0z"/>
   <g id="svg_42" fill-rule="evenodd" clip-rule="evenodd">
    <path id="svg_43" fill="url(#as)" d="m334.22338,283.5022c-19.49375,-7.91446 -34.31963,-15.18031 -44.48119,-21.79756c-37.9242,-25.63605 -64.32937,-46.66449 -79.21551,-63.08886c-7.20914,-8.03497 -13.05727,-16.24361 -17.54437,-24.63301c0.82583,5.19951 2.00963,10.22181 3.54432,15.06335c5.31648,17.60463 21.97477,40.93687 49.97488,70.00028c20.91148,21.74085 45.19005,40.46548 72.83573,56.17744c9.33219,5.31648 19.13577,10.33523 29.41784,15.06335c29.18037,13.23094 54.05085,21.49983 74.60789,24.81023c6.49673,1.0633 12.63904,1.5914 18.43045,1.5914c0.23392,0.47494 0.47139,0.88608 0.70886,1.24406c-9.4527,2.24355 -15.30082,5.01875 -17.54437,8.32915c-2.13014,3.31039 -3.3671,5.79142 -3.72153,7.44661c-29.18037,3.18634 -58.18707,-1.41773 -87.01655,-13.82284c-26.81631,-10.98739 -51.68679,-26.10745 -74.60789,-45.36727c-12.52208,-10.39903 -25.93023,-21.26591 -40.22801,-32.60773c-13.82284,-10.39903 -28.64872,-25.46238 -44.48119,-45.19005c-16.06639,-19.72767 -21.08869,-47.49386 -15.06335,-83.29147c2.71849,-16.89576 7.74079,-33.02241 15.06335,-48.37994c7.32611,-1.18026 13.23094,-2.36406 17.72159,-3.54432l0.35443,0c0.94633,-0.23747 1.94937,-0.41469 3.01267,-0.53165c1.53469,-1.30076 3.12963,-2.83545 4.78483,-4.60761c0,0.35443 -0.23747,1.24051 -0.70886,2.65824c-0.70886,1.41773 -1.0633,2.89571 -1.0633,4.4304c0,15.24057 9.86384,35.26596 29.59505,60.07619c19.72767,24.69326 45.84221,47.3769 78.33297,68.0509c32.48722,20.67755 64.80077,36.92116 96.9371,48.73437c31.89886,11.45878 58.07011,18.66792 78.50664,21.62388c-1.89267,0.35443 -5.67445,3.8385 -11.34182,10.45219l0.5281,6.38332c-0.47139,0.23392 -0.82583,0.35443 -1.0633,0.35443c-15.94943,2.12659 -46.07613,-4.13622 -90.38011,-18.78489c-17.47349,-5.79142 -32.78494,-11.40207 -45.89892,-16.83551l0.00354,-0.00709z"/>
    <path id="svg_44" fill="url(#at)" d="m123.86811,124.18511c-2.00963,9.92409 -2.95242,17.72159 -2.83545,23.3925c0.23392,1.88912 0.41469,3.66128 0.53165,5.31648c0.23392,3.66128 0.5919,7.08864 1.0633,10.27852c0.70886,4.49065 2.18684,11.04409 4.4304,19.67096s8.26889,23.9844 18.07602,46.07613c9.80713,22.3292 24.33883,43.00675 43.59511,62.02556c4.49065,4.49065 9.33219,8.80054 14.5317,12.93676c15.1236,13.23094 31.42747,24.15807 48.91159,32.78494c22.68009,11.45878 37.98446,18.66792 45.89892,21.62034c7.32256,2.59799 16.30386,8.15193 26.93682,16.65829c10.39903,8.38586 17.18994,14.76917 20.37983,19.13932c1.0633,4.49065 1.59494,7.97472 1.59494,10.45219c0,2.00963 -0.29772,4.07597 -0.88608,6.20256c-0.23392,0.5919 -0.53165,1.30076 -0.88608,2.13014l0,-0.17722c1.6552,-3.90229 2.06634,-6.97167 1.24051,-9.21877c-1.29722,-3.18634 -2.59799,-5.25622 -3.89875,-6.20256c-1.53823,-1.41418 -3.66128,-2.1833 -6.37977,-2.30026c-7.20914,4.9585 -10.45574,8.15193 -9.74687,9.56611c-9.56966,0.23747 -24.5763,-3.60457 -45.01284,-11.51903c-24.5763,-10.04105 -43.24068,-18.30995 -56.00022,-24.81023c-12.99701,-6.26281 -25.87352,-15.47449 -38.63307,-27.64568c-12.99701,-12.17119 -23.92415,-23.09832 -32.78494,-32.78494c-8.97776,-9.80713 -21.14895,-30.71506 -36.50647,-62.73443c-13.46841,-28.11707 -20.20261,-46.84171 -20.20261,-56.17744c0,-8.74383 1.77216,-22.56313 5.31648,-41.46852c3.66128,-18.90185 5.84812,-31.42747 6.55699,-37.56977c1.30076,0.23392 2.48102,0.35443 3.54432,0.35443c0.47139,0 0.88608,0.06025 1.24051,0.17722c2.95242,-0.11696 7.73725,-0.41469 14.35449,-0.88608c-1.18026,0.47139 -2.65824,5.37673 -4.4304,14.70892l0,0.00354z"/>
    <path id="svg_45" fill="url(#au)" d="m89.84266,105.57744c1.30076,0.5919 3.01267,1.35747 5.13926,2.30381c1.53469,0.5919 5.19951,1.18026 10.98739,1.77216c-2.36406,5.19951 -7.44307,14.00006 -15.24057,26.40517c-0.5919,1.18026 -1.24051,2.36406 -1.94937,3.54432c-3.89875,9.4527 -8.09168,23.80364 -12.58233,43.06346c-2.83545,10.86688 -2.71849,23.86389 0.35443,38.9875c2.71849,14.88614 8.21218,31.83861 16.48108,50.86096c16.65829,38.16167 37.03812,64.56684 61.13948,79.21905c14.41474,8.62687 29.94949,15.88918 46.60778,21.79401c16.42083,5.67445 29.47455,13.17423 39.16471,22.50996c0.5919,2.12659 1.12,3.89875 1.59494,5.31648c-0.94633,0.47139 -1.88912,0.82583 -2.83545,1.0633c-3.66482,1.41773 -6.79446,2.89216 -9.39244,4.4304c-0.47139,0.11696 -0.82583,0.35443 -1.0633,0.70886c-0.35443,0.11696 -0.5919,0.29418 -0.70886,0.5281c-0.35443,1.41773 -0.53165,3.31039 -0.53165,5.67445c0,1.0633 0.06025,1.94937 0.17722,2.65824l0,0.70886c-64.50659,-5.55395 -108.33562,-23.62997 -131.4942,-54.23161c-16.06639,-20.19907 -28.47151,-42.59207 -37.21534,-67.16128c-9.68662,-26.81985 -14.5317,-54.1111 -14.5317,-81.87729c0,-24.5763 15.30082,-60.66809 45.89892,-108.27891z"/>
   </g>
   <path id="svg_46" fill-rule="evenodd" fill-opacity="0.451" fill="#fff" clip-rule="evenodd" d="m122.6276,255.32488c-12.87651,-24.81023 -16.71855,-36.56318 -11.51903,-35.26596c13.70588,31.07304 33.73127,61.61442 60.07619,91.62416c18.78489,20.44008 39.51915,38.27863 62.20278,53.5192c-8.74383,-3.31039 -20.08565,-9.68662 -34.02545,-19.13932c-13.9398,-9.44915 -26.93682,-20.67401 -38.9875,-33.67102c-12.28815,-13.11398 -24.87048,-32.13633 -37.74699,-57.06352l0,-0.00354zm101.36749,32.78494c-14.76917,-12.88005 -23.09832,-21.79756 -24.98744,-26.7596c39.45889,35.91457 89.01909,70.52838 148.68414,103.84852c-51.98451,-24.34946 -93.21556,-50.04577 -123.6967,-77.08892zm-163.03863,13.29119c-6.02534,-16.65829 -10.51599,-33.55406 -13.46841,-50.68375c-2.36406,-13.70588 -2.36406,-34.44014 0,-62.20278c1.30076,12.63904 2.65824,25.39858 4.07597,38.27863c1.41773,12.87651 3.66128,26.34846 6.7342,40.40168c2.71849,13.94335 6.1423,27.58897 10.27852,40.94042c4.13622,14.05677 9.56966,27.34796 16.30386,39.87358c4.13622,8.03497 9.33219,15.41778 15.595,22.15199c-0.35443,-0.35798 -0.70886,-0.65215 -1.0633,-0.88608c-8.86079,-8.15548 -16.00968,-17.60463 -21.44312,-28.35454c-6.61724,-12.65322 -12.28815,-25.80263 -17.01273,-39.51915zm341.67225,3.54432c-28.59201,-5.43344 -58.00985,-15.18031 -88.25352,-29.24062c-36.7404,-17.12969 -65.63014,-37.98446 -86.65857,-62.55721c60.37037,45.60474 118.66377,76.20284 174.91209,91.79784z"/>
   <use id="svg_47" xlink:href="#bh" height="-32766" width="-32766" y="16376.51074" x="16382.15357" transform="matrix(3.54432, 0, 0, -3.54432, 299.831, 417.87)"/>
  </g>
 </g>
</svg>