<svg width="500" height="500" xmlns="http://www.w3.org/2000/svg" clip-rule="evenodd" version="1.1">

 <g>
  <title>Layer 1</title>
  <g id="svg_64">
   <path id="svg_1" fill-rule="nonzero" fill="rgb(252,239,228)" d="m267.12199,407.78042c-0.29118,-0.59692 -0.58236,-1.19385 -0.88083,-1.79077c2.13291,-3.2758 4.18575,-6.60984 6.41329,-9.82013c9.71821,-14.02043 16.79394,-29.19103 19.97511,-46.02865c0.85899,-4.54972 -0.29264,-38.78112 0.36252,-43.36724c0.50229,-0.26934 1.00458,-0.53141 1.50687,-0.80075c25.3547,19.20056 -8.08613,74.4364 -21.36405,93.82187c-1.87813,2.74439 -4.00376,5.32864 -6.01292,7.98568z"/>
   <path id="svg_2" fill-rule="nonzero" fill="rgb(246,192,122)" d="m396.96748,350.06808c2.47505,6.92286 1.59422,14.12234 1.12833,21.13984c-0.6042,9.01937 -2.031,17.99507 -3.41411,26.94165c-1.09921,7.13397 -2.51873,14.23154 -4.06927,21.27815c-0.6406,2.90454 -2.01644,5.64166 -3.05741,8.45157c-2.34402,1.17201 -4.58612,3.03558 -7.04661,3.39955c-10.51168,1.55055 -21.07432,2.708 -31.64424,3.78537c-0.7134,0.0728 -2.10379,-1.6015 -2.35858,-2.66432c-2.27122,-9.39791 -4.08383,-18.91229 -6.60984,-28.23741c-1.47775,-5.45967 -3.9528,-10.67183 -7.86192,-15.43267c-0.77891,1.04098 -1.33216,1.64518 -1.73981,2.32946c-3.43595,5.78725 -7.89104,9.96572 -14.85758,11.42163c-9.48527,1.98004 -18.78854,4.78995 -28.26653,6.78455c-6.39873,1.34672 -12.95034,1.92908 -19.4437,2.79535c-1.49231,0.19655 -3.02102,0.14559 -2.77351,-2.09651c0.24751,-0.24751 0.48773,-0.48773 0.73524,-0.73524c0.24751,-0.23295 0.50229,-0.48045 0.74979,-0.72068c0.23295,-0.24023 0.45861,-0.48045 0.69156,-0.72068c2.00916,-2.65704 4.13479,-5.24128 6.01292,-7.98568c13.2852,-19.38547 22.62487,-40.19772 23.00341,-64.21299c1.37584,-8.40061 0.40038,-16.5246 -2.84631,-24.3938c2.38042,8.30598 2.35858,16.72115 1.33944,25.19455c-0.65516,4.58612 -1.15017,9.20864 -2.00916,13.75837c-3.18117,16.83762 -10.2569,32.00822 -19.97511,46.02865c-2.22755,3.21029 -4.28038,6.54432 -6.41329,9.82013c-0.31302,0.17471 -0.72796,0.26934 -0.93178,0.53141c-6.36233,8.04391 -12.82658,16.01503 -18.99965,24.19725c-4.17119,5.53246 -8.25502,11.60362 -15.71657,11.98215c-9.74005,0.49501 -19.60385,0.29846 -29.30023,-0.70612c-5.01562,-0.51685 -10.42433,-2.62064 -11.63274,-9.04121c0.80075,-5.42327 1.47775,-10.86838 2.44593,-16.26981c1.3176,-7.3378 2.85359,-14.63191 4.30222,-21.94059c0.95362,-2.15475 1.82717,-4.35318 2.87543,-6.46425c5.67078,-11.37067 11.31971,-22.7559 17.11424,-34.06834c1.63062,-3.18117 1.76165,-6.25314 1.20841,-9.71821c-0.47317,-2.94094 -0.23295,-6.08571 0.19655,-9.06305c0.47317,-3.31948 1.88541,-6.72631 -2.06012,-8.84466c-3.08653,-1.65974 -3.15933,-4.00376 -1.65974,-6.57344c1.83445,-3.13749 0.98274,-5.17577 -2.10379,-6.63168c-2.3877,-1.13561 -3.02102,-2.62792 -1.61606,-5.16121c1.01914,-1.83445 1.12105,-3.81449 -1.32488,-5.19761c-5.24128,-2.96278 -5.35048,-4.63708 -0.91722,-9.06305c2.58424,-2.57696 2.51145,-4.20031 -0.29118,-6.49337c-1.29576,-1.06282 -3.16661,-1.84901 -3.79993,-3.21029c-1.20113,-2.59152 -2.56968,-5.64894 -2.16931,-8.24774c0.24023,-1.55783 3.69074,-2.64976 5.75085,-3.85817c0.73524,-0.42949 1.62334,-0.58964 3.26852,-1.16473c-5.36503,-3.73441 -11.9676,-1.09921 -16.12422,-5.41599c0.75707,-0.11647 1.42679,0.02912 2.07467,0.23295c5.78725,1.76893 11.43619,2.58424 16.83762,-1.37584c0.94634,-0.69156 2.72256,-0.50229 4.07655,-0.34214c6.04931,0.72796 12.07679,1.61606 18.11882,2.39497c2.02372,0.26206 3.45779,-0.26206 4.76083,-2.25666c0.78619,-1.20841 3.08653,-1.81261 4.77539,-1.9582c1.57238,-0.13831 3.20301,0.86627 4.84819,1.0337c4.52061,0.45861 8.34965,-1.19385 11.79289,-4.06199c1.354,-1.12833 2.83175,-2.25666 4.44053,-2.9191c5.16849,-2.11835 11.31971,-2.93366 15.41083,-6.3041c4.37501,-3.60338 8.89562,-5.58342 14.04227,-7.11941c5.91828,-1.76165 10.95574,-4.89914 13.86756,-10.66455c2.75895,-5.45967 1.63062,-7.30868 -4.49877,-7.5125c-0.15287,0 -0.29118,-0.34214 -0.56781,-0.68428c0.17471,-0.32758 0.29846,-0.96818 0.59692,-1.06282c4.88458,-1.6015 10.24234,-3.6325 14.8503,-0.90267c15.34531,9.06305 29.50405,19.73488 40.96208,33.60972c17.8058,21.56205 27.32018,46.84396 32.82353,73.85113c1.38312,6.77727 2.02372,13.70741 3.00646,20.56475l-0.00728,-0.02912z"/>
   <path id="svg_3" fill-rule="nonzero" fill="rgb(246,192,122)" d="m327.71703,149.57446c0.9245,0 1.84173,-0.01456 2.76623,-0.02184c-0.42221,2.00188 -0.54597,4.14207 -1.36128,5.96924c-0.79347,1.78349 -0.53141,2.40225 1.30304,2.54785c0.78619,0.53141 1.57238,1.06282 2.35858,1.59422c-0.50229,1.57238 -0.95362,3.15205 -1.50687,4.7026c-1.19385,3.33404 0.38582,4.557 3.47963,4.68804c0.04368,2.15475 0.27662,4.32406 0.08008,6.44969c-0.18199,1.98004 -0.82987,3.92368 -1.38312,6.36961c-0.10919,-0.04368 0.56781,0.23295 1.68158,0.68428c-1.95092,5.95468 -3.9164,11.92392 -5.8746,17.90044c-0.0364,0.11647 -0.0728,0.22567 -0.10919,0.34214c-0.53141,1.65974 -0.59692,3.84361 -1.71798,4.82635c-1.13561,0.9973 -3.31948,0.80075 -6.24586,1.354c0.55325,1.80533 1.01404,3.10837 1.25208,4.09839c0.14414,0.59984 0.13686,1.38166 0.17471,1.84173c0.02475,0.30501 0.0364,0.61148 0.05096,0.91722l0.02912,-0.04368c-0.47317,0 -1.34381,-0.40329 -1.41223,0.0364c-4.74118,30.315 -225.15239,39.40644 -236.6439,2.99918c-2.62792,-0.09463 -5.36503,0.06552 -6.58072,-3.06469c-0.43677,-0.49501 -0.87355,-0.98274 -1.31032,-1.47775l-1.46319,-2.15475c-0.21839,-0.27662 -0.43677,-0.55325 -0.66244,-0.82987c-0.31302,-0.66972 -0.61876,-1.34672 -0.93178,-2.01644c-3.30492,-7.36691 -5.13937,-15.12692 -5.46695,-23.14172c-0.6042,-14.75567 0.96818,-29.35846 4.04016,-43.78655c1.85629,-8.73547 3.93096,-17.42726 5.911,-26.13362c8.60444,-12.87026 17.21616,-25.73324 26.21369,-39.19315c-8.38605,-13.8894 -17.25983,-28.65962 -26.25009,-43.35705c-1.09193,-1.78349 -2.84631,-3.16661 -4.29494,-4.73171c0.10919,-0.70612 0.17471,-1.42679 0.34214,-2.12563c1.41951,-5.79453 2.51873,-6.53704 8.29142,-5.03745c2.64976,0.68428 5.37959,1.47775 7.73817,2.80991c13.4599,7.57802 26.86885,15.25796 40.19772,23.0762c5.11753,2.99918 9.98028,6.44241 14.93038,9.65997c-3.90912,4.35318 9.04849,-0.90994 15.27979,-1.01914c-2.74439,4.09839 -0.16743,5.28496 1.52871,1.81261c2.16931,-4.44781 5.58342,-5.69262 10.16226,-5.88188c-2.06739,1.73981 -0.88811,2.86815 1.55055,1.94364c4.83363,-1.83445 9.75461,-4.14207 14.78478,-4.60068c6.10755,-0.55325 12.37525,0.48045 18.5556,1.04826c5.36503,0.49501 10.70823,1.31032 15.97863,1.97276c-2.64248,3.14477 2.51873,1.2448 5.19761,1.15017c4.19303,-0.14559 8.44429,1.41951 12.90666,2.30762c-10.70095,13.2124 -0.76435,4.30222 6.55888,-1.78349c10.40977,-8.6554 20.52836,-17.69661 31.25115,-25.93707c6.99566,-5.37959 14.69015,-9.92932 22.37736,-14.31161c5.13209,-2.92638 7.81097,-1.87813 10.9339,2.73711c-6.91558,2.43137 -9.40519,8.16767 -11.19596,14.6028c-1.02642,3.67618 -2.6716,7.17765 -3.88728,10.81015c-4.22942,12.68827 -8.48797,25.36198 -12.44805,38.13033c-0.48045,1.55055 0.16743,4.22214 1.30304,5.37959c7.1922,7.3378 14.68287,14.37713 22.0425,21.55477c3.6325,3.54515 7.2286,4.11295 11.90208,1.87085c0.37854,-0.18199 1.10649,0.3567 1.6743,0.56781c-0.15287,6.54432 -0.18199,13.09593 -0.50229,19.62569c-0.22567,4.57884 2.51873,8.9757 6.75543,9.41975c-0.61876,3.51603 -1.16473,7.01022 -1.88541,10.46801c-0.31302,1.50687 -0.6042,2.67888 1.58694,2.35858l-0.0364,0.02184z"/>
   <path id="svg_4" fill-rule="nonzero" fill="rgb(252,239,228)" d="m212.29963,174.05562l1.39768,0c2.17659,-0.26934 4.35318,-0.53141 6.52248,-0.80075c2.88998,-0.42221 5.77269,-0.85171 8.66268,-1.27392c2.59152,0.50229 9.52749,-4.32915 14.39897,-3.50875c5.81637,0.9791 15.25068,3.18117 20.49924,9.38335c2.44593,2.88998 3.85817,6.71903 5.50335,10.22778c3.7053,7.89104 7.27228,15.8476 10.8975,23.78232c4.96466,1.84901 9.8274,4.84091 14.91582,5.3068c7.07646,0.64424 14.23299,0.15287 21.16605,-1.71798c1.68303,-0.45352 1.51706,5.50917 0.26643,5.34611c-3.66016,-0.47754 -7.56346,0.95071 -11.2047,2.14456c-0.29846,0.10191 -0.42221,0.74252 -0.59692,1.06282c0.27662,0.34214 0.41493,0.68428 0.56781,0.68428c6.12939,0.20383 7.25044,2.05284 4.49877,7.5125c-2.91182,5.76541 -7.94928,8.89562 -13.86756,10.66455c-5.14665,1.53599 -9.66725,3.52331 -14.04227,7.11941c-4.09111,3.36316 -10.24234,4.17847 -15.41083,6.3041c-1.60878,0.66244 -3.08653,1.78349 -4.44053,2.9191c-3.43595,2.86087 -7.27228,4.52061 -11.79289,4.06199c-1.6379,-0.16743 -3.2758,-1.17201 -4.84819,-1.0337c-1.68886,0.15287 -3.98192,0.74979 -4.77539,1.9582c-1.29576,1.9946 -2.73711,2.51873 -4.76083,2.25666c-6.04203,-0.77891 -12.06951,-1.66702 -18.11882,-2.39497c-1.34672,-0.16015 -3.13021,-0.34942 -4.07655,0.34214c-5.40143,3.96008 -11.05037,3.14477 -16.83762,1.37584c-0.65516,-0.19655 -1.32488,-0.34942 -2.07467,-0.23295c4.15663,4.31678 10.75919,1.68158 16.12422,5.41599c-1.6379,0.56781 -2.53329,0.73524 -3.26852,1.16473c-2.06012,1.20841 -5.51063,2.30762 -5.75085,3.85817c-0.40766,2.5988 0.9609,5.65622 2.16931,8.24774c0.63332,1.36128 2.50417,2.14747 3.79993,3.21029c2.80263,2.30034 2.87543,3.9164 0.29118,6.49337c-4.43325,4.42597 -4.32406,6.10027 0.91722,9.06305c2.43865,1.37584 2.33674,3.36316 1.32488,5.19761c-1.40495,2.53329 -0.77163,4.0256 1.61606,5.16121c3.08653,1.46319 3.93824,3.49419 2.10379,6.63168c-1.49959,2.56968 -1.42679,4.9137 1.65974,6.57344c3.93824,2.11835 2.52601,5.52519 2.06012,8.84466c-0.42221,2.98462 -0.66244,6.12211 -0.19655,9.06305c0.55325,3.47235 0.42949,6.53704 -1.20841,9.71821c-5.80181,11.30516 -11.45075,22.69039 -17.11424,34.06834c-1.04826,2.11107 -1.9218,4.3095 -2.87543,6.46425c0,-0.59692 0.14559,-1.23753 -0.02912,-1.77621c-0.6406,-2.00916 -1.3904,-3.98192 -2.10379,-5.96924c-0.97546,1.68886 -2.39497,3.26852 -2.85359,5.09569c-1.62334,6.37689 -3.55388,20.63828 -4.98067,27.06613c-0.42949,-0.02184 -0.85171,-0.0364 -1.2812,-0.05824c-0.22567,-1.52143 0.44551,-10.94191 -0.09318,-12.34686c-2.12563,-5.58342 -4.44053,-11.09405 -6.66808,-16.64107c-2.9191,-7.27956 -9.2232,-12.08407 -13.44535,-18.41c-0.18927,-0.2839 -0.58236,-0.41493 -0.85171,-0.64788c-1.75437,-1.54327 -3.56698,-1.86357 -5.43783,-0.22567c-1.89996,1.65246 -3.13021,0.88811 -4.33134,-0.95362c-0.9609,-1.47775 -2.21299,-2.76623 -3.44323,-4.26582c-1.56511,2.60608 -2.39497,4.86275 -3.94552,6.38417c-3.37044,3.30492 -4.5934,7.38147 -4.47693,11.74921c0.13831,5.3432 0.95362,10.67183 1.47047,16.00047c-0.25478,0.02912 -0.50229,0.05824 -0.75707,0.08735c-0.50957,-3.06469 -1.09921,-6.12211 -1.49959,-9.19408c-0.6042,-4.60796 -1.0701,-9.23776 -1.59422,-13.853c3.2394,-5.56886 -0.34942,-16.32805 -5.39415,-19.36363c-1.10649,-0.66972 -2.06739,-1.60878 -3.02102,-2.50417c-8.83011,-8.1895 -14.87942,-18.27169 -19.72033,-29.16191c-0.21839,-0.49501 -0.24023,-1.10649 -0.26934,-1.66702c-0.15287,-3.18845 -0.21839,-6.37689 -0.43677,-9.55806c-0.14559,-2.03828 -1.354,-2.9555 -3.42139,-2.64976c0.21111,-1.65974 0.95362,-3.48691 0.50957,-4.94282c-0.79347,-2.5624 -2.3149,-4.89914 -3.53059,-7.33052c1.19385,-0.57509 2.39497,-1.15017 4.46965,-2.15475c-1.88541,-1.51415 -3.17389,-2.54785 -4.46237,-3.58154c0.58236,0.13103 1.16473,0.24751 1.73981,0.3931c5.32136,1.30304 10.58448,3.24668 15.97863,3.75625c6.96654,0.65516 8.71363,-2.07467 6.66808,-8.60444c-1.02642,-3.2758 -0.38582,-4.46237 3.00646,-4.9137c3.07925,-0.40766 6.2313,-0.34942 9.296,-0.85899c3.03558,-0.50229 6.24586,-0.95362 8.92474,-2.30762c4.48421,-2.27122 4.83363,-6.18035 0.80803,-9.09217c-8.17494,-5.91828 -16.66291,-11.31971 -26.88341,-13.19056c-5.06657,-0.9245 -9.66725,-2.64976 -12.49172,-7.5489c-0.82987,-1.44135 -2.62792,-2.42409 -4.14935,-3.3122c-0.42949,-0.24751 -1.48503,0.58236 -2.24938,0.91722c-0.47317,-2.87543 -0.94634,-5.74357 -1.42679,-8.619c2.37314,0.79347 4.77539,1.50687 7.10485,2.40225c8.42245,3.23212 17.17976,4.83363 26.13362,5.43055c1.09193,0.0728 2.23482,-0.6406 3.35588,-0.99002c-0.58236,-0.84443 -0.9973,-0.9609 -1.41223,-1.08465c-8.19678,-2.45321 -16.72843,-4.14935 -24.48844,-7.59258c-7.11213,-3.15205 -13.5691,-7.942 -19.98239,-12.47716c-3.71985,-2.62792 -6.78455,-6.18035 -10.14043,-9.31784c6.2677,-1.65246 8.20406,-6.29682 4.84091,-12.84114c-2.72256,-5.29952 -3.74897,-10.70095 -3.39227,-16.61195c0.58236,-9.77645 9.21592,-18.27169 18.97781,-18.38817c1.3904,-0.01456 2.78079,-0.45133 4.16391,-0.69884c0.53869,0.45861 1.00458,1.04826 1.61606,1.354c10.16226,5.05929 21.03793,2.59152 28.23741,-6.34778c0.27662,-0.34214 0.77891,-0.49501 1.17929,-0.74252c4.52061,-0.80803 6.43513,-3.0283 6.29682,-8.82283c-0.13103,-5.59798 -1.25208,-11.16684 -1.49231,-16.76482c-0.23295,-5.47423 0.0364,-10.97757 0.26206,-16.45908c0.02912,-0.64788 1.04826,-1.55055 1.79077,-1.82717c2.53329,-0.94634 5.15393,-1.65974 8.18222,-2.5988c0.33486,0.72068 0.78619,1.76893 1.29576,2.78807c1.85629,3.69074 3.90912,7.01749 9.01209,5.83093c0.64788,-0.15287 1.72526,0.61148 2.30034,1.23025c3.47963,3.77081 6.78455,3.9528 10.41705,0.3203c1.26664,-1.25936 2.16931,-2.88998 3.46507,-4.11295c0.84443,-0.79347 2.59152,-1.87813 3.07925,-1.55055c1.23025,0.82259 2.62064,2.28578 2.79535,3.63978c0.56053,4.49149 0.55325,9.04849 0.88083,13.5691c0.44405,6.18763 0.68428,12.41893 1.57966,18.54832c1.32488,9.09945 11.23964,17.01961 21.44558,17.66021c0.25478,0 0.50229,0.01456 0.75707,0.01456l0.01456,0.02912z"/>
   <path id="svg_5" fill-rule="nonzero" fill="white" d="m316.52981,220.80058c-3.66016,-0.47754 -7.19948,-3.47526 -0.26643,-5.34611c1.68303,-0.45352 4.07,-1.20841 5.16121,-1.87157c0.28681,-0.17325 0.78182,0.23367 1.255,0.22639c-0.93906,1.06282 -1.87085,2.13291 -2.70072,3.07197c11.90936,8.88106 23.826,17.76212 35.74263,26.64319c0.74252,1.04098 1.41951,2.14019 2.23482,3.11565c3.17389,3.82177 6.81367,7.33052 9.5071,11.45803c5.47423,8.37149 10.45345,17.07057 15.63649,25.63133c1.38312,3.11565 2.75895,6.2313 4.14207,9.33967c1.54327,5.04473 3.05014,10.11131 4.63708,15.14148c2.58424,8.17494 4.01613,16.49402 5.0229,25.05624c0.58164,4.94864 0.82113,16.25453 0.06552,16.80122c-0.98274,-6.85734 -1.62334,-13.78748 -3.00646,-20.56475c-5.51063,-27.00716 -15.01773,-52.28907 -32.82353,-73.85113c-11.45803,-13.87484 -25.61677,-24.53939 -40.96208,-33.60972c-1.17346,-0.69301 -2.39497,-1.07883 -3.6456,-1.24189z"/>
   <path id="svg_6" fill-rule="nonzero" fill="white" d="m84.60888,216.85943c3.35588,3.13749 6.42057,6.68264 10.14043,9.31784c6.41329,4.53517 12.87026,9.32512 19.98239,12.47716c7.76001,3.43595 16.29165,5.13209 24.48844,7.59258c0.41493,0.12375 0.83715,0.24023 1.41223,1.08465c-1.12105,0.34942 -2.26394,1.06282 -3.35588,0.99002c-8.95386,-0.59692 -17.71117,-2.19843 -26.13362,-5.43055c-2.33674,-0.89539 -4.73899,-1.60878 -7.10485,-2.40225c-9.34695,-3.52331 -17.00505,-9.30328 -23.03252,-17.25983c-0.90267,-0.99002 -1.80533,-1.97276 -2.708,-2.96278c-0.2839,-0.30574 -0.56781,-0.6042 -0.84443,-0.90994c-0.72796,-1.08465 -3.52331,-4.40413 -3.21029,-4.58612c-0.50229,-2.05284 0,-4.62252 -3.07925,-5.3432c-0.0728,-0.48045 -0.14559,-0.9609 -0.21839,-1.44135c0.90267,-0.22567 1.80533,-0.44405 2.708,-0.66972c0.31302,0.66972 0.61876,1.34672 0.93178,2.01644c0.21839,0.27662 0.43677,0.55325 0.66244,0.82987c0.48773,0.72068 0.97546,1.43407 1.46319,2.15475c0.43677,0.49501 0.87355,0.98274 1.31032,1.47775c1.21569,3.12293 3.9528,2.97006 6.58072,3.06469l0.00728,0z"/>
   <path id="svg_7" fill-rule="nonzero" fill="rgb(252,239,228)" d="m267.12199,407.78042c-0.23295,0.24023 -0.45861,0.48045 -0.69156,0.72068c-0.24751,0.24023 -0.50229,0.48045 -0.74979,0.72796c-0.24751,0.24751 -0.48773,0.48773 -0.73524,0.73524c-0.24751,2.2421 1.2812,2.30034 2.77351,2.09651c6.49337,-0.86627 13.05225,-1.44863 19.4437,-2.79535c9.47799,-1.9946 18.78854,-4.81179 28.26653,-6.78455c6.97382,-1.45591 11.42163,-5.63438 14.85758,-11.42163c0.40766,-0.68428 0.95362,-1.28848 1.73981,-2.32946c3.90184,4.76083 6.37689,9.973 7.86192,15.43267c2.52601,9.32512 4.33134,18.8395 6.60984,28.23741c0.25478,1.06282 1.64518,2.73711 2.35858,2.66432c10.56992,-1.07737 21.13984,-2.23482 31.64424,-3.78537c2.46049,-0.36398 4.7026,-2.22755 7.04661,-3.39955c0.21839,0.72796 0.75707,1.52871 0.6042,2.16931c-2.93366,12.31701 -6.14395,24.55395 -12.30245,35.74991c-3.50875,6.38417 -9.46343,9.28144 -16.29893,10.38065c-3.96736,0.6406 -8.04391,0.70612 -12.07679,0.74979c-4.22942,0.0364 -7.84009,-2.55513 -8.93202,-6.52248c-0.80075,-2.91182 -1.10649,-5.96196 -1.51415,-8.96842c-0.86627,-6.39873 -1.83445,-12.79019 -2.44593,-19.21076c-1.06282,-11.06493 -4.57156,-21.39462 -9.12129,-31.39674c-2.68106,-5.8928 -3.77008,-7.45281 -7.45936,-4.10276c-0.38946,0.35379 -2.3957,3.50584 -2.3957,3.50584c0,0 0.43386,-2.13582 -0.24969,-1.35473c-1.56219,1.78568 -3.05305,3.5466 -3.05305,3.5466c0,0 1.83882,-4.2964 0.78765,-3.71985c-1.46538,0.80294 -3.84725,3.14695 -5.66131,4.1559c0.33486,-1.79077 0.50229,-2.66432 0.66972,-3.53787c-0.21111,-0.12375 -0.42949,-0.25478 -0.6406,-0.37854c-1.0701,1.2812 -2.12563,2.57696 -3.22484,3.82905c-1.09193,1.2448 -2.23482,2.45321 -4.05471,3.19573c1.06282,-2.07467 2.12563,-4.14935 3.18117,-6.22402c-0.16743,-0.11647 -0.33486,-0.23295 -0.50229,-0.34942c-2.77351,2.14747 -5.54702,4.29494 -8.32782,6.44241c-0.10191,-1.18657 -0.20383,-2.37314 -0.2839,-3.29036c-3.84361,2.20571 -7.265,4.2731 -10.80287,6.08571c-0.58964,0.30574 -1.73254,-0.47317 -2.61336,-0.74252c0.23295,-0.24023 0.47317,-0.48045 0.70612,-0.72068l0.7134,-0.72796c0.23295,-0.24751 0.47317,-0.49501 0.70612,-0.73524c0.05096,-0.10919 0.10191,-0.21839 0.15287,-0.32758c-0.05824,0.10191 -0.11647,0.20383 -0.17471,0.29846c-0.24751,0.23295 -0.49501,0.47317 -0.74252,0.70612c-0.24023,0.24023 -0.48773,0.47317 -0.72796,0.7134c-0.24023,0.23295 -0.48045,0.47317 -0.72068,0.70612c-3.3486,1.9946 -6.70447,3.9892 -10.05307,5.9838c-0.24751,-0.24751 -0.50229,-0.49501 -0.74979,-0.73524c0.33486,-0.94634 0.80803,-1.87085 0.95362,-2.84631c0.12375,-0.83715 -0.14559,-1.72526 -0.24023,-2.59152c-0.79347,0.31302 -1.90724,0.40038 -2.3149,0.98274c-1.49231,2.14019 -3.15205,4.29494 -4.03288,6.71175c-4.24398,11.66913 -8.25502,23.4329 -12.34613,35.16027c-2.11835,4.63708 -4.19303,9.28872 -6.35506,13.89668c-4.36046,9.31056 -11.63274,14.8139 -21.66397,17.12152c-9.71821,2.23482 -19.32723,3.37044 -28.9872,-0.04368c-1.27392,-1.48503 -2.38042,-3.16661 -3.85089,-4.41869c-2.54057,-2.14747 -4.71715,-4.33134 -4.79723,-7.95656c-0.18927,-8.47341 -0.43677,-16.93953 -0.72068,-25.40566c-0.10191,-3.08653 -0.40766,-6.16579 -0.58964,-9.25232c-0.02912,-0.46589 0,-0.9609 0.14559,-1.39768c0.85899,-2.60608 1.66702,-5.234 2.67888,-7.78185c0.34214,-0.86627 1.21569,-1.51415 1.84901,-2.26394c1.21569,6.42057 6.61712,8.52436 11.63274,9.04121c9.69637,1.00458 19.5529,1.19385 29.30023,0.70612c7.45427,-0.37854 11.5381,-6.44969 15.71657,-11.98215c6.17307,-8.1895 12.64459,-16.15334 18.99965,-24.19725c0.20383,-0.26206 0.61148,-0.3567 0.93178,-0.52413c0.29118,0.59692 0.58236,1.19385 0.88083,1.79077l-0.00728,-0.02184z"/>
   <path id="svg_8" fill-rule="nonzero" fill="rgb(254,253,250)" d="m99.43589,251.44388c1.93636,3.67618 2.78225,11.50971 4.5439,14.85103c-0.64788,1.89269 -1.73254,3.84361 -1.94364,5.88188c-0.50229,4.84819 -0.52413,9.74733 -0.86627,14.61007c-0.22567,3.16661 0.77891,5.56886 3.65434,7.06845c1.28848,1.0337 2.57696,2.06739 4.46237,3.58154c-2.08195,1.00458 -3.2758,1.57966 -4.46965,2.15475c-0.23295,-0.25478 -0.45861,-0.50957 -0.69156,-0.75707l-0.74252,-0.10919c-0.37854,6.2313 1.66702,11.88024 4.26582,17.41271c0.06552,-1.42679 0.13103,-2.84631 0.18927,-4.2731c2.06012,-0.30574 3.2758,0.61148 3.42139,2.64976c0.22567,3.18117 0.2839,6.37689 0.43677,9.55806c0.02912,0.56053 0.04368,1.17201 0.26934,1.66702c4.84819,10.89022 10.89022,20.97241 19.72033,29.16191c0.9609,0.88811 1.91452,1.83445 3.02102,2.50417c5.04473,3.03558 8.63356,13.79476 5.39415,19.36363c-1.88541,-3.96008 -3.58882,-8.02207 -5.72173,-11.84384c-1.33216,-2.38042 -3.29764,-4.39685 -5.00834,-6.55888c-4.61524,-5.84549 -9.62358,-11.43619 -13.79476,-17.58741c-7.265,-10.70823 -12.51356,-22.5084 -14.79206,-35.2549c-1.52871,-8.56076 -1.68158,-17.37631 -2.3513,-26.08994c-0.09463,-1.23753 0.40038,-2.51873 0.61876,-3.77809c-0.13831,-0.18927 -0.26206,-0.53141 -0.41493,-0.54597c-4.28766,-0.41493 -5.21216,-2.02372 -2.12563,-5.24856c2.3877,-2.49689 2.32946,-4.22942 1.28848,-7.19948c-0.81531,-2.3149 -0.09463,-5.16121 -0.05824,-7.77457c0.20383,0.23295 0.90412,-1.72307 1.10067,-1.49013l0.59401,-1.95383z"/>
   <path id="svg_9" fill-rule="nonzero" fill="rgb(246,192,122)" d="m376.00235,173.03648c0.11502,-0.28317 1.04389,-1.54035 2.09651,-3.39155c1.30814,-2.30034 1.71652,-3.781 3.59683,-7.07646c3.10328,-5.43929 7.79277,-12.86662 9.28799,-15.28707c0.22567,-0.37126 1.01186,-0.40038 1.53599,-0.58964c3.76353,0.34214 7.21404,-1.09193 11.35611,-0.42221c8.63356,1.3904 13.03769,6.39873 16.32077,13.37983c0.85171,1.80533 1.64518,2.78807 3.79265,3.07925c4.69532,0.63332 9.6163,1.0701 12.56452,5.68534c-0.48045,2.15475 -0.79347,4.36046 -1.47047,6.44969c-4.19303,13.03041 -8.46613,26.0317 -12.73923,39.033c-0.16743,0.50229 -0.62604,0.90267 -0.95362,1.354c-0.27662,-0.21111 -0.59692,-0.6406 -0.82987,-0.59692c-7.42515,1.36128 -13.95491,-1.09921 -19.85864,-5.16849c-5.8746,-4.05471 -11.34883,-8.67723 -17.0924,-12.93578c-4.25126,-3.15205 -7.91288,-7.36691 -13.64917,-7.99296c2.00188,-5.17577 3.96008,-10.37337 6.04203,-15.52002z"/>
   <path id="svg_10" fill-rule="nonzero" fill="white" d="m73.66042,207.32321c-0.90267,0.22567 -1.80533,0.44405 -2.708,0.66972c-1.41223,-4.00376 -3.36316,-7.9056 -4.11295,-12.03311c-1.21569,-6.70447 -2.54785,-13.59822 -2.22755,-20.33181c0.72796,-15.35259 2.25666,-30.6979 7.04661,-45.45357c2.19843,-6.77727 1.57238,-13.35071 0.08008,-20.17894c-1.65246,-7.5489 -2.9191,-15.2434 -3.58882,-22.94517c-0.88811,-10.19138 -1.80533,-20.48468 -1.31032,-30.66878c0.52413,-10.63544 1.80533,-21.42374 4.43325,-31.71704c2.43865,-9.55078 3.60338,-10.14771 14.10779,-7.36691c10.16226,2.69344 19.01421,8.26958 27.89527,13.57638c10.68639,6.39145 21.21991,13.08137 31.47681,20.14254c3.75625,2.58424 6.82823,2.12563 10.62816,0.93178c7.1922,-2.25666 14.42081,-4.61524 21.80228,-6.04203c6.20946,-1.19385 12.65915,-1.39768 19.01421,-1.52143c5.45967,-0.10191 11.00669,0.08735 16.37901,0.95362c10.03851,1.61606 19.97511,3.85089 29.97722,5.74357c0.85899,0.16015 2.13291,0 2.72983,-0.54597c5.32136,-4.86275 10.39521,-10.00939 15.81848,-14.74839c4.65164,-4.06927 9.56534,-7.86192 14.54456,-11.51626c4.74627,-3.48691 9.60174,-6.85734 14.65375,-9.87108c4.36774,-2.60608 9.07033,-4.65164 13.64917,-6.90102c5.96196,-2.93366 11.74921,2.5988 13.83844,7.13397c4.54244,9.8638 6.81367,20.39732 7.69449,31.17835c0.91722,11.23964 2.18387,22.52296 2.00916,33.76259c-0.24751,16.01503 -1.73254,32.00094 -2.55513,48.00869c-0.18199,3.54515 2.51145,4.57156 6.38417,4.89186c-1.23753,5.911 -2.40953,11.5017 -3.58154,17.09968c-2.19115,0.3203 -1.89996,-0.85899 -1.58694,-2.35858c0.72068,-3.45779 1.26664,-6.95198 1.88541,-10.46801c-4.2367,-0.44405 -6.9811,-4.84091 -6.75543,-9.41975c0.3203,-6.53704 0.34942,-13.08865 0.50957,-19.62569c0.53141,-8.55348 1.30304,-17.09968 1.52871,-25.66773c0.3567,-13.39439 0.3567,-26.8179 -2.19115,-40.05213c-1.80533,-9.39791 -4.14207,-18.66479 -8.72819,-27.18915c-3.12293,-4.61524 -5.80181,-5.6635 -10.9339,-2.73711c-7.68721,4.38229 -15.38171,8.93202 -22.37736,14.31161c-10.72279,8.24774 -20.84138,17.28167 -31.25115,25.93707c-7.32324,6.08571 -13.14688,13.22696 -16.10966,22.42832c-1.23753,3.83633 -2.3513,7.70905 -3.54515,11.55994c-0.11647,0.38582 -0.38582,0.72068 -0.80075,1.48503c-0.16015,-6.2313 3.20301,-20.4774 13.89668,-33.6898c-4.46237,-0.88811 -8.71363,-2.45321 -12.90666,-2.30762c-2.67888,0.09463 -5.33592,2.61336 -7.87648,4.2367c-1.57966,1.01186 -7.49795,7.64718 -8.95386,8.85558c-0.09463,-0.0728 8.99026,-11.09041 11.64001,-14.24246c-5.2704,-0.66244 -10.60632,-1.47775 -15.97863,-1.97276c-6.18035,-0.57509 -12.44805,-1.60878 -18.5556,-1.04826c-5.03745,0.45861 -9.95116,2.75895 -14.78478,4.60068c-2.43865,0.9245 -6.09954,3.84361 -8.37804,5.19761c0,0 4.75282,-5.40143 6.8275,-7.14125c-4.57156,0.18199 -7.99296,1.42679 -10.16226,5.88188c-1.68886,3.47963 -15.76607,18.48935 -16.03541,18.27097c2.74439,-4.09839 11.76231,-15.98518 14.50671,-20.08358c-6.2313,0.10919 -11.2178,2.53329 -14.96677,6.54432c-3.55242,3.79993 -6.18763,8.45885 -9.82013,12.54268c0.98274,-2.72256 1.96548,-5.45239 3.09381,-8.5826c-3.43595,3.45051 -5.95468,8.53164 -7.61442,16.02231c-1.25208,5.6635 -2.12563,11.40707 -3.15205,17.06329c-1.56511,-2.35858 -1.52143,-7.08301 0.80803,-15.1706c1.47775,-5.13209 2.85359,-10.49712 5.53974,-15.01045c2.6716,-4.48421 6.92286,-8.03663 10.83198,-12.38981c-4.9501,-3.22484 -9.81285,-6.6608 -14.93038,-9.65997c-13.32887,-7.81097 -26.73054,-15.4909 -40.19772,-23.0762c-2.36586,-1.33216 -5.08841,-2.11835 -7.73817,-2.80991c-5.77269,-1.49231 -6.86462,-0.74979 -8.29142,5.03745c-0.16743,0.69156 -0.23295,1.41223 -0.34214,2.12563c-1.19385,8.10215 -3.23212,16.18246 -3.38499,24.29917c-0.24023,12.73195 0.3931,25.51485 1.43407,38.21041c0.65516,8.02935 2.68616,15.94223 4.22942,23.89151c0.08008,0.40766 1.33944,0.58964 2.04556,0.88083c-1.98004,8.71363 -4.04743,17.39815 -5.911,26.13362c-3.07197,14.42809 -4.64436,29.03088 -4.04016,43.78655c0.32758,8.00751 2.16203,15.7748 5.46695,23.14172l-0.02184,0.00728z"/>
   <path id="svg_11" fill-rule="nonzero" fill="rgb(246,192,122)" d="m105.45754,249.09332c0.76435,-0.33486 1.81989,-1.16473 2.24938,-0.91722c1.52871,0.88811 3.31948,1.87085 4.14935,3.3122c2.82447,4.90642 7.42515,6.6244 12.49172,7.5489c10.2205,1.86357 18.70847,7.27228 26.88341,13.19056c4.0256,2.91182 3.68346,6.82095 -0.80803,9.09217c-2.68616,1.36128 -5.89644,1.80533 -8.92474,2.30762c-3.05741,0.50229 -6.20946,0.45133 -9.296,0.85899c-3.39227,0.45133 -4.03288,1.6379 -3.00646,4.9137c2.04556,6.52976 0.29846,9.2596 -6.66808,8.60444c-5.39415,-0.50229 -10.65727,-2.45321 -15.97863,-3.75625c-0.57509,-0.13831 -1.15745,-0.26206 -1.73981,-0.3931c-2.87543,-1.49959 -3.87273,-3.90184 -3.65434,-7.06845c0.34214,-4.87002 0.36398,-9.76189 0.86627,-14.61007c0.21111,-2.04556 1.29576,-3.99648 1.94364,-5.88188c-1.76165,-3.34132 -4.87002,-12.29518 -4.49877,-13.08137c5.47423,0.66244 5.73629,0.50957 5.99836,-3.39227c-0.00728,-0.24023 -0.01456,-0.48773 -0.02184,-0.72796l0.01456,0z"/>
   <path id="svg_12" fill-rule="nonzero" fill="rgb(252,239,228)" d="m436.561,168.42124c-2.94822,-4.61524 -7.8692,-5.05201 -12.56452,-5.68534c-2.15475,-0.29118 -2.94094,-1.27392 -3.79265,-3.07925c-3.29036,-6.98838 -7.69449,-11.99671 -16.32077,-13.37983c-4.14935,-0.66972 -7.59258,0.76435 -11.35611,0.42221c0.2839,-0.86627 0.34214,-1.9218 0.88811,-2.56968c7.29412,-8.68451 16.10238,-15.38171 27.4585,-17.1652c7.43971,-1.17201 15.4909,-2.14747 21.56205,4.41141c1.0337,1.11377 1.89269,2.81719 1.98732,4.30222c0.74252,11.35611 -2.17659,21.95515 -7.03205,32.11013c-0.13103,0.27662 -0.53869,0.42949 -0.82259,0.63332l-0.00728,0z"/>
   <path id="svg_13" fill-rule="nonzero" fill="rgb(243,222,205)" d="m280.83667,417.88445c0.88811,0.27662 2.02372,1.04826 2.61336,0.74252c3.54515,-1.81989 6.95926,-3.88728 10.80287,-6.08571c0.08008,0.9245 0.18199,2.10379 0.2839,3.29036c-1.70342,5.63438 -3.22484,11.32699 -5.13937,16.8813c-2.71528,7.86192 -5.57614,15.68017 -8.66268,23.40378c-2.22755,5.57614 -6.49337,7.99296 -12.68827,8.02207c-5.76541,0.02912 -11.10133,-0.80803 -16.08783,-3.68346c4.09111,-11.72737 8.10215,-23.48386 12.34613,-35.16027c0.88083,-2.40953 2.54057,-4.57156 4.03288,-6.71175c0.40766,-0.58236 1.52143,-0.66972 2.3149,-0.98274c0.09463,0.86627 0.36398,1.76165 0.24023,2.59152c-0.13831,0.97546 -0.61876,1.89996 -0.95362,2.84631c0.24751,0.24751 0.50229,0.49501 0.74979,0.73524c3.3486,-1.9946 6.70447,-3.9892 10.05307,-5.9838l0.09463,0.09463z"/>
   <path id="svg_14" fill-rule="nonzero" fill="rgb(246,192,122)" d="m360.9555,218.16247c1.37584,-4.93554 2.70072,-9.88564 4.14935,-14.79934c0.34214,-1.17201 1.06282,-2.22755 1.61606,-3.34132c0.7134,0.79347 1.3904,1.62334 2.15475,2.36586c6.42785,6.18763 12.38981,12.98673 19.42914,18.38089c8.39333,6.43513 18.61383,7.59986 29.0236,6.66808c-2.48233,5.06657 -4.9501,10.14043 -7.47611,15.18516c-0.29118,0.58236 -0.93178,0.98274 -1.41223,1.47047c-0.62604,-0.25478 -1.2448,-0.69884 -1.88541,-0.72796c-16.1315,-0.77891 -29.67876,-6.52976 -39.48433,-19.93871c-1.54327,-2.11107 -4.04743,-3.52331 -6.11483,-5.25584l0,-0.00728z"/>
   <path id="svg_15" fill-rule="nonzero" fill="rgb(232,138,79)" d="m360.9555,218.16247c2.06012,1.73254 4.56428,3.14477 6.11483,5.25584c9.80557,13.40895 23.35283,19.1598 39.48433,19.93871c0.6406,0.02912 1.25936,0.48045 1.88541,0.72796c-1.20841,3.82905 -2.38042,7.67266 -3.65434,11.47259c-0.19655,0.57509 -0.89539,0.98274 -1.36128,1.47047c-2.08195,0.48045 -4.14935,1.28848 -6.24586,1.37584c-13.66373,0.55325 -24.88881,-4.53517 -33.7262,-14.94493c-1.6743,-1.96548 -3.3486,-3.93096 -5.01562,-5.89644c-1.9946,-3.23212 0.12375,-6.36961 0.36398,-9.51438c0.24751,-3.33404 1.40495,-6.60256 2.16203,-9.89292l-0.00728,0.00728z"/>
   <path id="svg_16" fill-rule="nonzero" fill="rgb(232,138,79)" d="m417.32841,227.43663c-10.40977,0.9245 -20.63027,-0.23295 -29.0236,-6.66808c-7.03933,-5.39415 -13.00129,-12.19326 -19.42914,-18.38089c-0.76435,-0.73524 -1.44135,-1.57238 -2.15475,-2.36586c1.08465,-3.82177 2.16931,-7.64354 3.25396,-11.45803c5.73629,0.62604 9.39791,4.84819 13.64917,7.99296c5.74357,4.25126 11.2178,8.88106 17.0924,12.93578c5.90372,4.06927 12.43349,6.52248 19.85864,5.16849c0.23295,-0.04368 0.55325,0.38582 0.82987,0.59692c-1.354,4.06199 -2.71528,8.12399 -4.06927,12.18598l-0.00728,-0.00728z"/>
   <path id="svg_17" fill-rule="nonzero" fill="rgb(254,253,250)" d="m189.66748,432.95314c-0.63332,0.74979 -1.50687,1.39768 -1.84901,2.26394c-1.01186,2.54785 -1.82717,5.17577 -2.67888,7.78185c-0.14559,0.43677 -0.17471,0.93178 -0.14559,1.39768c0.18927,3.08653 0.48773,6.16579 0.58964,9.25232c0.29118,8.46613 0.53141,16.93953 0.72068,25.40566c0.08008,3.62522 2.25666,5.81637 4.79723,7.95656c1.47775,1.2448 2.58424,2.92638 3.85089,4.41869c-5.37231,-1.61606 -10.2933,-3.71985 -12.36069,-9.67453c-0.29846,-0.85171 -1.75437,-1.6379 -2.79535,-1.84173c-4.70987,-0.93178 -9.71093,-0.98274 -14.15146,-2.59152c-6.6244,-2.40225 -9.76917,-7.88376 -10.35881,-14.93038c-1.33944,-16.01503 -2.6716,-32.00822 -8.66268,-47.22978c-1.89269,-4.81179 -2.33674,-10.19866 -3.44323,-15.33075c0.25478,-0.02912 0.50229,-0.05824 0.74979,-0.08735c1.05554,4.0256 1.9582,8.10215 3.21029,12.06223c1.82717,5.75813 3.90184,11.44347 5.90372,17.14336c0.72068,2.06012 1.52871,4.09111 2.29306,6.13667c0.94634,5.73629 2.83903,11.51626 2.5988,17.20888c-0.2839,6.74815 2.52601,11.60362 6.15123,16.58284c2.54057,3.49419 6.29682,4.84819 9.71821,3.45051c2.77351,-1.12833 6.16579,-4.29494 6.588,-6.97382c1.40495,-9.01937 1.60878,-18.2353 2.27122,-27.37114c0.54597,-3.07925 1.09921,-6.15851 1.64518,-9.23776c0.21111,-0.98274 0.42221,-1.97276 0.6406,-2.9555c0.08008,-1.18657 0.16743,-2.36586 0.24751,-3.55242c0.14559,-0.23295 0.29118,-0.47317 0.43677,-0.70612c0.04368,-0.24751 0.08008,-0.49501 0.12375,-0.74252c0.08008,-0.08008 -0.01529,-0.26352 -0.02985,-0.32904c-0.02912,-0.20383 0.13176,-0.30429 0.06624,-0.50083c0.01456,-0.42949 0.02184,-0.85171 0.0364,-1.2812l1.23025,-7.31596c1.41951,-6.42785 2.71528,-12.88482 4.3459,-19.26171c0.46589,-1.81989 1.87813,-3.39955 2.85359,-5.09569c0.7134,1.98732 1.45591,3.96008 2.10379,5.96924c0.17471,0.53869 0.02912,1.17929 0.02912,1.77621c-1.44135,7.30868 -2.98462,14.6028 -4.30222,21.94059c-0.96818,5.39415 -1.6379,10.83926 -2.44593,16.26981l0.02184,-0.00728z"/>
   <path id="svg_18" fill-rule="nonzero" fill="rgb(246,192,122)" d="m358.42949,237.57705c0,0 3.35588,3.92368 5.0229,5.88916c8.83738,10.40977 20.06246,15.50546 33.7262,14.94493c2.09651,-0.08735 4.16391,-0.90267 6.24586,-1.37584c-3.61794,7.69449 -7.23588,15.38899 -10.8611,23.08348c-1.25936,0.42949 -2.53329,0.82259 -3.77081,1.29576c-1.90724,0.73524 -3.79265,1.53599 -5.69262,2.3149c-5.18305,-8.56076 -10.16226,-17.25983 -15.63649,-25.63133c-2.70072,-4.12751 -6.33322,-7.63626 -9.5071,-11.45803c-0.81531,-0.98274 -1.49231,-2.07467 -2.23482,-3.11565c0.90267,-1.98004 1.80533,-3.96736 2.708,-5.9474z"/>
   <path id="svg_19" fill-rule="nonzero" fill="rgb(232,138,79)" d="m381.73136,162.56848c3.69802,1.17929 7.85464,1.66702 10.97757,3.71985c4.12751,2.708 7.6581,6.44969 11.05765,10.11131c3.68346,3.96008 5.19033,12.1787 -0.64788,15.01773c-6.63168,-9.05577 -15.49818,-15.80392 -25.01984,-21.77316c1.20841,-2.35858 2.41681,-4.71715 3.62522,-7.07573l0.00728,0z"/>
   <path id="svg_20" fill-rule="nonzero" fill="rgb(232,138,79)" d="m383.09992,283.72946c1.89269,-0.77163 3.77809,-1.57238 5.69262,-2.3149c1.23753,-0.48045 2.51145,-0.86627 3.77081,-1.29576c-1.77621,4.31678 -3.54515,8.63356 -5.32136,12.95762c-1.38312,-3.11565 -2.75895,-6.2313 -4.14207,-9.33967l0,-0.00728z"/>
   <path id="svg_21" fill-rule="nonzero" fill="white" d="m98.34541,255.60124c-0.20383,-0.23295 -0.40766,-0.47317 -0.6042,-0.70612c-0.2839,-1.46319 -0.56781,-2.92638 -0.84443,-4.38957c1.10649,-0.00728 2.22027,0.05824 3.3122,-0.04368c1.03661,-0.09391 2.06812,-0.22275 3.09745,-0.35888c0.60566,-0.08008 0.41421,-10.02031 0.94853,-10.31441c0.16088,-0.08808 0.54597,2.80263 0.84443,5.50262c0.25333,2.28578 0.51394,2.68834 0.38727,4.52279c-0.26934,3.90184 -0.52413,4.04743 -6.00564,3.39227c-0.37126,0.78619 -0.75707,1.58694 -1.13561,2.3877l0,0.00728z"/>
   <path id="svg_22" fill-rule="nonzero" fill="white" d="m334.74909,169.06184c-3.09381,-0.13103 -4.67348,-1.354 -3.47963,-4.68804c0.55325,-1.55055 1.01186,-3.13749 1.50687,-4.7026c0.22567,-0.49501 0.45861,-0.9973 0.68428,-1.49231c0.46589,0.73524 1.29576,1.45591 1.32488,2.21299c0.12375,2.88998 0,5.78725 -0.04368,8.67723l0.00728,-0.00728z"/>
   <path id="svg_23" fill-rule="nonzero" fill="white" d="m330.42503,158.06971c-1.83445,-0.14559 -2.09651,-0.76435 -1.30304,-2.54785c0.81531,-1.82717 0.93906,-3.96736 1.36128,-5.96924c0.78619,-0.3203 1.56511,-0.63332 2.43137,-0.98274c0.13103,1.72526 0.24023,3.15933 0.34942,4.60068c-0.40256,0.69665 -0.80512,1.39258 -1.20768,2.08778c-0.43241,0.74688 2.59298,4.2367 2.23046,5.02144c-0.4426,0.96163 -4.14498,-1.48139 -3.86181,-2.20279l0,-0.00728z"/>
   <path id="svg_24" fill-rule="nonzero" fill="rgb(252,239,228)" d="m78.2975,220.25898c0.90267,0.99002 1.80533,1.97276 2.708,2.96278c-0.90267,-0.99002 -1.80533,-1.97276 -2.708,-2.96278z"/>
   <path id="svg_25" fill-rule="nonzero" fill="rgb(243,222,205)" d="m265.67335,409.22905c0.24751,-0.24023 0.50229,-0.48045 0.74979,-0.72796c-0.24751,0.24023 -0.50229,0.48045 -0.74979,0.72796z"/>
   <path id="svg_26" fill-rule="nonzero" fill="rgb(243,222,205)" d="m264.9454,409.95701c0.24751,-0.24751 0.48773,-0.48773 0.73524,-0.73524c-0.24751,0.24751 -0.48773,0.48773 -0.73524,0.73524z"/>
   <path id="svg_27" fill-rule="nonzero" fill="rgb(245,163,120)" d="m312.38628,14.78615c4.58612,8.52436 6.92286,17.79124 8.72819,27.18915c2.54057,13.23424 2.54785,26.65775 2.19115,40.05213c-0.22567,8.56076 -0.9973,17.11424 -1.52871,25.66773c-0.56781,-0.20383 -1.29576,-0.74979 -1.6743,-0.56781c-4.6662,2.2421 -8.2623,1.6743 -11.90208,-1.87085c-7.35963,-7.17765 -14.8503,-14.21698 -22.0425,-21.55477c-1.13561,-1.15745 -1.78349,-3.82905 -1.30304,-5.37959c3.96008,-12.76835 8.21862,-25.44934 12.44805,-38.13033c1.20841,-3.6325 2.86087,-7.12669 3.88728,-10.81015c1.79077,-6.43513 4.28038,-12.17142 11.19596,-14.6028l0,0.00728z"/>
   <path id="svg_28" fill-rule="nonzero" fill="rgb(245,163,120)" d="m78.14463,114.26132c-0.70612,-0.29118 -1.96548,-0.46589 -2.04556,-0.88083c-1.54327,-7.942 -3.57426,-15.86216 -4.22942,-23.89151c-1.04098,-12.69555 -1.6743,-25.48574 -1.43407,-38.21041c0.15287,-8.11671 2.19115,-16.2043 3.38499,-24.29917c1.44863,1.56511 3.19573,2.94822 4.29494,4.73171c8.99026,14.69743 17.85676,29.46765 26.25009,43.35705c-8.99753,13.45263 -17.60197,26.32289 -26.21369,39.19315l-0.00728,0z"/>
   <path id="svg_29" fill-rule="nonzero" fill="rgb(68,49,49)" d="m236.73711,166.12818c-0.68792,0.35233 -6.00054,5.26385 -7.85464,5.85277c-2.27268,0.72213 -5.83384,1.99314 -8.66268,1.27392c-3.36316,-0.85535 -9.01282,-2.79681 -11.51626,-6.40601c-4.04671,-5.83457 -9.32439,-23.04417 3.21029,-28.72514c12.55506,-5.6897 23.96868,-1.24626 26.45392,11.12317c0.5416,2.69489 0.70102,15.68672 -1.63062,16.8813z"/>
   <path id="svg_30" fill-rule="nonzero" fill="rgb(68,49,49)" d="m140.23199,162.59032c-0.40038,0.24023 -0.90267,0.40038 -1.17929,0.74252c-7.19948,8.9393 -18.07515,11.40707 -28.23741,6.34778c-0.61148,-0.30574 -1.08465,-0.89539 -1.61606,-1.354c-5.29224,-9.32512 -2.9555,-18.14794 2.36586,-26.352c4.60068,-7.09757 12.29518,-7.01749 18.98509,-3.64706c6.64624,3.3486 9.49254,9.39791 9.71821,16.70659c0.08008,2.51873 -0.01456,5.03745 -0.0364,7.56346l0,-0.00728z"/>
   <path id="svg_31" fill-rule="nonzero" fill="rgb(252,239,228)" d="m196.02253,76.38578c-0.3931,-4.56428 8.48069,-15.92768 15.68745,-18.97781c-5.53974,6.69719 -10.73007,12.97945 -15.68745,18.97781z"/>
   <path id="svg_32" fill-rule="nonzero" fill="rgb(252,239,228)" d="m154.52905,89.98399c-4.32406,-5.58342 -3.56698,-16.46636 1.52871,-22.05706c-1.65974,7.80369 -5.29224,14.75567 -1.52871,22.05706z"/>
   <path id="svg_33" fill-rule="nonzero" fill="rgb(252,239,228)" d="m177.052,91.45446c-2.07467,5.28496 -4.01104,10.23506 -6.14395,15.67289c-1.02642,-5.79453 1.79077,-12.8921 6.14395,-15.67289z"/>
   <path id="svg_34" fill-rule="nonzero" fill="rgb(252,239,228)" d="m164.9097,87.13769c-0.95362,-7.05389 2.51873,-11.5745 6.64624,-15.86944c-2.10379,5.0229 -4.20031,10.03851 -6.64624,15.86944z"/>
   <path id="svg_35" fill-rule="nonzero" fill="rgb(243,222,205)" d="m243.28143,168.46492c-1.45591,-0.21111 -2.9191,-0.42221 -4.37501,-0.63332c1.45591,0.21111 2.9191,0.42221 4.37501,0.63332z"/>
   <path id="svg_36" fill-rule="nonzero" fill="rgb(252,239,228)" d="m172.60565,70.24183c-0.5365,-0.15214 2.36658,-5.05056 3.75771,-5.36867c-0.54742,0.99366 -1.4661,2.47869 -2.26685,3.26488l-1.49085,2.10379z"/>
   <path id="svg_37" fill-rule="nonzero" fill="rgb(252,239,228)" d="m78.02088,213.79473c-0.43677,-0.49501 -0.87355,-0.98274 -1.31032,-1.47775c0.43677,0.49501 0.87355,0.98274 1.31032,1.47775z"/>
   <path id="svg_38" fill-rule="nonzero" fill="rgb(250,199,177)" d="m206.57061,161.76045c0.26206,0.74252 0.53141,1.48503 0.79347,2.22755c-0.26206,-0.74252 -0.53141,-1.48503 -0.79347,-2.22755z"/>
   <path id="svg_39" fill-rule="nonzero" fill="rgb(250,199,177)" d="m207.18938,143.84545c-0.21111,0.52413 -0.41493,1.04826 -0.62604,1.56511c0.21111,-0.52413 0.41493,-1.04826 0.62604,-1.56511z"/>
   <path id="svg_40" fill-rule="nonzero" fill="rgb(250,199,177)" d="m209.51156,140.23479c-0.2839,0.43677 -0.57509,0.87355 -0.85899,1.31032c0.2839,-0.43677 0.57509,-0.87355 0.85899,-1.31032z"/>
   <path id="svg_41" fill-rule="nonzero" fill="rgb(250,199,177)" d="m210.94563,138.80072c-0.26206,0.26206 -0.53141,0.53141 -0.79347,0.79347c0.26206,-0.26206 0.53141,-0.53141 0.79347,-0.79347z"/>
   <path id="svg_42" fill-rule="nonzero" fill="rgb(250,199,177)" d="m211.91381,138.10916c-0.34942,0.25478 -0.70612,0.50229 -1.05554,0.75707c0.34942,-0.25478 0.70612,-0.50229 1.05554,-0.75707z"/>
   <path id="svg_43" fill-rule="nonzero" fill="rgb(250,199,177)" d="m208.04108,142.41138c-0.24751,0.27662 -0.49501,0.55325 -0.74252,0.82987c0.24751,-0.27662 0.49501,-0.55325 0.74252,-0.82987z"/>
   <path id="svg_44" fill-rule="nonzero" fill="rgb(250,199,177)" d="m208.60161,141.64702c-0.20383,0.26934 -0.40038,0.54597 -0.6042,0.81531c0.20383,-0.26934 0.40038,-0.54597 0.6042,-0.81531z"/>
   <path id="svg_45" fill-rule="nonzero" fill="rgb(250,199,177)" d="m212.29963,174.05562c-0.25478,0 -0.50229,-0.01456 -0.75707,-0.01456c0.25478,0 0.50229,0.01456 0.75707,0.01456z"/>
   <path id="svg_46" fill-rule="nonzero" fill="rgb(252,239,228)" d="m75.25465,210.16223c-0.21839,-0.27662 -0.43677,-0.55325 -0.66244,-0.82987c0.21839,0.27662 0.43677,0.55325 0.66244,0.82987z"/>
   <path id="svg_47" fill-rule="nonzero" fill="rgb(250,199,177)" d="m210.22495,139.52139c-0.26934,0.26206 -0.53141,0.53141 -0.80075,0.79347c0.26934,-0.26206 0.53141,-0.53141 0.80075,-0.79347z"/>
   <path id="svg_48" fill-rule="nonzero" fill="rgb(246,192,122)" d="m185.84571,418.67792c-0.01456,0.42949 -0.02184,0.85171 -0.0364,1.2812c-0.01456,0.27662 -0.02184,0.55325 -0.0364,0.82987c-0.04368,0.24751 -0.08008,0.49501 -0.12375,0.74252c-0.14559,0.23295 -0.29118,0.47317 -0.43677,0.70612c-0.08008,1.18657 -0.16743,2.36586 -0.24751,3.55242c-0.21111,0.98274 -0.42221,1.97276 -0.6406,2.9555c-0.54597,3.07925 -1.09921,6.15851 -1.64518,9.23776c-1.15017,0.53869 -2.25666,1.33944 -3.46507,1.57238c-8.51708,1.62334 -16.75754,1.53599 -23.86239,-4.46237c-0.76435,-2.04556 -1.57238,-4.07655 -2.29306,-6.13667c-2.00188,-5.70717 -4.07655,-11.38523 -5.90372,-17.14336c-1.25936,-3.96008 -2.15475,-8.03663 -3.21029,-12.06223c-0.51685,-5.33592 -1.33216,-10.65727 -1.47047,-16.00047c-0.11647,-4.36774 1.10649,-8.44429 4.47693,-11.74921c1.55055,-1.52143 2.37314,-3.77081 3.94552,-6.38417c1.23025,1.49959 2.48233,2.78807 3.44323,4.26582c1.20113,1.84173 2.43137,2.61336 4.33134,0.95362c1.87085,-1.63062 3.68346,-1.3176 5.43783,0.22567c0.26934,0.23295 0.66972,0.37126 0.85171,0.64788c4.21486,6.33322 10.52624,11.13773 13.44535,18.41c2.22755,5.54702 4.54244,11.05765 6.66808,16.64107c0.53141,1.40495 0.50229,3.02102 0.72796,4.54244c0.01456,2.46049 0.0364,4.9137 0.05096,7.37419l-0.00728,0z"/>
   <path id="svg_49" fill-rule="nonzero" fill="rgb(250,199,177)" d="m236.08923,207.53431c-6.05659,-0.21839 -11.91664,-1.2448 -16.29893,-5.58342c-4.6298,-4.58612 -6.04203,-13.47446 0.15287,-20.82682c9.36879,-11.12317 28.04086,-6.97382 34.30128,5.79453c3.94552,8.05847 -2.23482,18.54104 -11.08677,19.66209c-2.35858,0.29846 -4.70987,0.6406 -7.06845,0.9609l0,-0.00728z"/>
   <path id="svg_50" fill-rule="nonzero" fill="rgb(250,199,177)" d="m123.01584,189.05879c0.42221,6.71175 -2.19843,11.77105 -8.2987,14.64647c-6.63896,3.13021 -13.75837,3.71258 -19.05061,-1.78349c-2.73711,-2.84631 -4.41141,-8.07303 -4.20759,-12.10591c0.44405,-8.82283 3.34132,-14.2097 13.14688,-16.21158c8.27686,-1.68886 16.27709,2.46049 17.92955,9.38335c0.46589,1.95092 0.33486,4.04743 0.48045,6.07115z"/>
   <path id="svg_51" fill-rule="nonzero" fill="rgb(68,49,49)" d="m167.50122,173.35678c-0.46589,1.57966 -1.33944,3.16661 -1.3176,4.74627c0.06552,4.80451 2.46049,8.55348 5.67806,12.04767c3.47963,3.77809 7.57802,5.67078 12.75379,5.61254c-2.46049,2.19843 -6.71903,2.22027 -10.1841,-0.38582c-2.93366,-2.20571 -5.46695,-4.9501 -8.37877,-7.63626c-3.75625,5.10297 -8.24774,9.30328 -14.8503,10.03851c-1.01914,0.11647 -2.21299,-1.32488 -3.18117,-2.26394c9.56534,1.66702 18.05331,-7.17037 16.06599,-16.72843c-0.31302,-1.49959 -0.16015,-3.09381 -0.22567,-4.65164c0.75707,-0.97546 1.51415,-1.95092 2.27122,-2.92638c0.45133,0.72068 0.90994,1.44135 1.36128,2.16203l0.00728,-0.01456z"/>
   <path id="svg_52" fill-rule="nonzero" fill="rgb(250,199,177)" d="m167.50122,173.35678c-0.45133,-0.72068 -0.90994,-1.44135 -1.36128,-2.16203c-0.75707,0.97546 -1.51415,1.95092 -2.27122,2.92638c-1.04098,-0.23295 -2.43865,-0.13103 -3.05014,-0.77891c-1.09921,-1.16473 -2.50417,-2.89726 -2.3149,-4.17119c0.17471,-1.15745 2.18387,-2.65704 3.57426,-2.89726c2.6716,-0.45861 5.53246,-0.43677 8.2259,-0.02912c1.79077,0.26934 4.53517,1.2448 4.85547,2.44593c0.38582,1.42679 -1.02642,3.73441 -2.27122,5.11025c-1.64518,1.81989 -3.69074,1.06282 -5.39415,-0.44405l0.00728,0z"/>
   <path id="svg_53" fill-rule="nonzero" fill="rgb(246,192,122)" d="m104.1181,298.83454c0.23295,0.25478 0.45861,0.50957 0.69156,0.75707c1.21569,2.43137 2.73711,4.76811 3.53059,7.33052c0.45133,1.45591 -0.29846,3.28308 -0.50957,4.94282c-0.06552,1.42679 -0.13103,2.84631 -0.18927,4.2731c-2.5988,-5.53246 -4.64436,-11.1814 -4.26582,-17.41271c0.24751,0.0364 0.49501,0.0728 0.74252,0.10919z"/>
   <path id="svg_54" fill-rule="nonzero" fill="rgb(243,222,205)" d="m282.94047,415.67146c0.05824,-0.10191 0.11647,-0.20383 0.17471,-0.29846c-0.05096,0.10919 -0.10191,0.21839 -0.15287,0.32758l-0.02184,-0.02184l0,-0.00728z"/>
   <path id="svg_55" fill-rule="nonzero" fill="rgb(243,222,205)" d="m282.19795,416.37758c0.24751,-0.23295 0.49501,-0.47317 0.74252,-0.70612l0.02184,0.02184c-0.23295,0.24751 -0.47317,0.49501 -0.70612,0.73524l-0.05824,-0.05824l0,0.00728z"/>
   <path id="svg_56" fill-rule="nonzero" fill="rgb(243,222,205)" d="m281.47,417.09826c0.24023,-0.24023 0.48773,-0.47317 0.72796,-0.7134l0.05824,0.05824c-0.24023,0.24023 -0.48045,0.48773 -0.7134,0.72796l-0.0728,-0.06552l0,-0.00728z"/>
   <path id="svg_57" fill-rule="nonzero" fill="rgb(243,222,205)" d="m280.7566,417.80437c0.24023,-0.23295 0.48045,-0.47317 0.72068,-0.70612l0.06552,0.06552c-0.23295,0.24023 -0.47317,0.48045 -0.70612,0.72068l-0.08008,-0.08008z"/>
   <path id="svg_58" fill-rule="nonzero" fill="rgb(252,239,228)" d="m155.35164,435.08605c7.10485,5.99836 15.34531,6.08571 23.86239,4.46237c1.20841,-0.23295 2.3149,-1.0337 3.46507,-1.57238c-0.66244,9.13585 -0.86627,18.35177 -2.27122,27.37114c-0.42221,2.68616 -3.81449,5.84549 -6.588,6.97382c-3.42139,1.39768 -7.17765,0.04368 -9.71821,-3.45051c-3.62522,-4.97922 -6.43513,-9.83468 -6.15123,-16.58284c0.24023,-5.68534 -1.65246,-11.46531 -2.5988,-17.20888l0,0.00728z"/>
   <path id="svg_59" fill-rule="nonzero" fill="rgb(243,222,205)" d="m184.32428,428.74555c0.21111,-0.98274 0.42221,-1.97276 0.6406,-2.9555c-0.21111,0.98274 -0.42221,1.97276 -0.6406,2.9555z"/>
   <path id="svg_60" fill-rule="nonzero" fill="rgb(243,222,205)" d="m185.21239,422.23763c0.14559,-0.23295 0.29118,-0.47317 0.43677,-0.70612c-0.14559,0.23295 -0.29118,0.47317 -0.43677,0.70612z"/>
   <path id="svg_61" fill-rule="nonzero" fill="rgb(252,239,228)" d="m104.1181,298.83454c-0.24751,-0.0364 -0.49501,-0.0728 -0.74252,-0.10919c0.24751,0.0364 0.49501,0.0728 0.74252,0.10919z"/>
   <path id="svg_62" fill-rule="nonzero" fill="rgb(252,239,228)" d="m211.62991,151.48171c0.01456,-2.44593 3.21029,-6.95198 5.911,-6.91558c2.2785,0.0364 4.00376,0.9609 3.9892,3.53059c-0.00728,3.69074 -3.30492,8.26958 -5.77269,7.86192c-1.75437,-0.29118 -4.31678,-0.09463 -4.13479,-4.48421l0.00728,0.00728z"/>
   <path id="svg_63" fill-rule="nonzero" fill="rgb(252,239,228)" d="m113.60264,148.8931c-0.00728,-1.84828 2.36513,-4.02851 4.15736,-4.72735c3.03121,-1.18147 5.56231,0.60129 4.95738,3.9164c-0.45788,2.50926 -3.39519,7.03788 -4.91443,7.17328c-1.51924,0.13467 -4.19303,-4.51405 -4.20031,-6.36233z"/>
  </g>
 </g>
</svg>