<?xml version="1.0" encoding="UTF-8"?>
<svg viewBox="0 0 289.39099 349.31717" xmlns="http://www.w3.org/2000/svg" xmlns:xlink="http://www.w3.org/1999/xlink">
 <defs>
  <filter id="ae">
   <feGaussianBlur stdDeviation=".86923"/>
  </filter>
  <filter id="ad">
   <feGaussianBlur stdDeviation=".69459"/>
  </filter>
  <filter id="ac">
   <feGaussianBlur stdDeviation="3.99514"/>
  </filter>
  <filter id="ab">
   <feGaussianBlur stdDeviation=".86094"/>
  </filter>
  <filter id="aa">
   <feGaussianBlur stdDeviation="1.23747"/>
  </filter>
  <filter id="x">
   <feGaussianBlur stdDeviation=".82233"/>
  </filter>
  <filter id="v">
   <feGaussianBlur stdDeviation="2.65307"/>
  </filter>
  <filter id="af" x="-.14783" y="-.18704" width="1.2957" height="1.3741">
   <feGaussianBlur stdDeviation="1.112"/>
  </filter>
  <filter id="g" x="-.38732" y="-.52273" width="1.7746" height="2.0455">
   <feGaussianBlur stdDeviation="3.59901"/>
  </filter>
  <filter id="z" x="-.22234" y="-.17036" width="1.4447" height="1.3407">
   <feGaussianBlur stdDeviation="4.96653"/>
  </filter>
  <filter id="y" x="-.21661" y="-.19715" width="1.4332" height="1.3943">
   <feGaussianBlur stdDeviation="2.78583"/>
  </filter>
  <filter id="w" x="-.18536" y="-.16072" width="1.3707" height="1.3214">
   <feGaussianBlur stdDeviation="5.98817"/>
  </filter>
  <filter id="u" x="-.16799" y="-.14748" width="1.336" height="1.295">
   <feGaussianBlur stdDeviation="5.61199"/>
  </filter>
  <linearGradient id="c">
   <stop stop-color="#fdf5ed" offset="0"/>
   <stop stop-color="#d8cac1" offset=".75"/>
   <stop stop-color="#b3a096" offset="1"/>
  </linearGradient>
  <linearGradient id="d">
   <stop stop-color="#fdf5ed" offset="0"/>
   <stop stop-color="#b3a096" offset="1"/>
  </linearGradient>
  <linearGradient id="e">
   <stop stop-color="#96715f" offset="0"/>
   <stop stop-color="#d4c0bc" offset="1"/>
  </linearGradient>
  <linearGradient id="a">
   <stop stop-color="#fdf5cd" offset="0"/>
   <stop stop-color="#b3a096" offset="1"/>
  </linearGradient>
  <linearGradient id="f">
   <stop stop-color="#fdf5a3" offset="0"/>
   <stop stop-color="#fde575" offset=".77273"/>
   <stop stop-color="#fddd75" offset="1"/>
  </linearGradient>
  <linearGradient id="t" x1="392.04" x2="424.09" y1="324.57" y2="311.32" gradientUnits="userSpaceOnUse" xlink:href="#a" spreadMethod="reflect"/>
  <linearGradient id="s" x1="231.43" x2="241.02" y1="223.68" y2="238.34" gradientUnits="userSpaceOnUse" xlink:href="#a" spreadMethod="reflect"/>
  <linearGradient id="r" x1="339.75" x2="320.4" y1="370.41" y2="338.8" gradientUnits="userSpaceOnUse" xlink:href="#d"/>
  <linearGradient id="q" x1="348.18" x2="307.58" y1="366.29" y2="344.29" gradientTransform="matrix(.523 .76199 -.80523 .55268 436.19 -312.51)" gradientUnits="userSpaceOnUse" xlink:href="#d"/>
  <radialGradient id="m" cx="178.87" cy="235.56" r="29.464" fx="176.47" fy="227.45" gradientTransform="matrix(1.215 -.024468 .022657 1.0538 -43.789 -8.5155)" gradientUnits="userSpaceOnUse">
   <stop stop-color="#f5b800" offset="0"/>
   <stop stop-color="#e8b307" offset=".54016"/>
   <stop stop-color="#d5760e" offset=".81955"/>
   <stop stop-color="#963a1c" offset="1"/>
  </radialGradient>
  <radialGradient id="p" cx="249.58" cy="220.59" r="22.338" gradientTransform="matrix(1 0 0 1.6657 0 -141.57)" gradientUnits="userSpaceOnUse" xlink:href="#a" spreadMethod="reflect"/>
  <radialGradient id="o" cx="249.84" cy="307.3" r="17.246" fx="246.83" fy="307.25" gradientTransform="matrix(-1.2406 .89611 .18491 1.1559 551.24 -359.2)" gradientUnits="userSpaceOnUse" xlink:href="#a"/>
  <radialGradient id="n" cx="258.41" cy="245.83" r="38.396" fx="273.16" fy="263.37" gradientTransform="matrix(1.3465 -.073903 .037211 .67798 -99.08 96.862)" gradientUnits="userSpaceOnUse" xlink:href="#e"/>
  <radialGradient id="l" cx="249.84" cy="317.26" r="17.246" fx="246.83" fy="307.25" gradientTransform="matrix(1.1265 .41624 -.16791 .53692 43.553 -58.986)" gradientUnits="userSpaceOnUse" xlink:href="#f"/>
  <radialGradient id="k" cx="249.84" cy="307.3" r="17.246" fx="246.83" fy="307.25" gradientTransform="matrix(1.1265 .41624 -.16791 .53692 40.945 -47.077)" gradientUnits="userSpaceOnUse" xlink:href="#f"/>
  <radialGradient id="b" cx="372.4" cy="348.09" r="7.3009" gradientTransform="matrix(-.34883 -1.0837 3.1031 -.9989 -587.43 1083.2)" gradientUnits="userSpaceOnUse" xlink:href="#a" spreadMethod="reflect"/>
  <radialGradient id="j" cx="258.41" cy="245.83" r="38.396" fx="273.16" fy="263.37" gradientTransform="matrix(1.3465 -.073903 .037211 .67798 5.9119 211.31)" gradientUnits="userSpaceOnUse" xlink:href="#e"/>
  <radialGradient id="i" cx="316.1" cy="340.12" r="31.437" fx="308.45" fy="345.45" gradientTransform="matrix(1.9816 .33103 -.23064 1.3806 -220.48 -238.45)" gradientUnits="userSpaceOnUse" xlink:href="#c"/>
  <radialGradient id="h" cx="316.49" cy="360.98" r="31.437" fx="310.92" fy="370.69" gradientTransform="matrix(-.45432 -1.0047 1.2754 -.57672 23.79 679.15)" gradientUnits="userSpaceOnUse" xlink:href="#c"/>
 </defs>
 <g transform="matrix(1.1572 0 0 1.1554 -168.31 -105.35)">
  <g transform="matrix(.98676 0 0 -.87633 -110.35 489.91)" fill="#816b5f" filter="url(#v)" opacity=".74018">
   <path d="m336.28 357.45c0 20.639 11.126 37.389-9.5133 37.389s-39.159-18.078-39.159-38.717 23.388-36.947 44.027-36.947 4.646 17.635 4.646 38.274z"/>
   <g transform="matrix(.95146 0 0 1.0118 15.1 -3.3073)" fill-rule="evenodd">
    <path d="m350.44 327.14-4.8673-2.6549 0.88496-4.4248-7.9646-1.3274-8.4071 6.6372-4.4248 4.4248-7.9646 1.3274-1.3274 5.7522-5.3097 6.1947 2.6549 3.9823 3.0974 3.5398v2.2124l3.5398 0.88496 4.4248 6.1947-1.7699 6.1947 0.88496 3.0973 1.3274 4.4248 3.5398 1.3274 0.88496 3.9823-1.3274-0.44248-1.7699 6.6372-2.6549 2.6549 6.6372 1.7699 3.0974 4.4248 7.5221-3.0974 0.88496-3.5398 4.8673-0.88496 3.0973-3.0973 1.7699-4.4248-1.7699-2.2124 3.9823-5.7522 2.2124-2.6549-1.7699-5.3097-2.2124-3.5398v-4.8673l3.0973-4.4248 1.3274-5.3097-2.2124-1.7699 1.7699-5.3097 0.44248-4.8673-2.6549-1.3274-3.5398-4.4248z"/>
    <path d="m350.06 327.7-4.7279-2.5627 0.85962-4.2712-7.7365-1.2814-8.1663 6.4068-4.2981 4.2712-7.7365 1.2814-1.2894 5.5526-5.1577 5.9797 2.5788 3.8441 3.0086 3.417v2.1356l3.4384 0.85425 4.2981 5.9797-1.7192 5.9797 0.85961 2.9898 1.2894 4.2712 3.4384 1.2814 0.85961 3.8441-1.2894-0.42712-1.7192 6.4068-2.5788 2.5627 6.4471 1.7085 3.0086 4.2712 7.3067-2.9899 0.85961-3.417 4.7279-0.85424 3.0086-2.9898 1.7192-4.2712-1.7192-2.1356 3.8682-5.5526 2.149-2.5627-1.7192-5.1255-2.149-3.417v-4.6983l3.0086-4.2712 1.2894-5.1255-2.149-1.7085 1.7192-5.1255 0.42981-4.6983-2.5788-1.2814-3.4384-4.2712z"/>
   </g>
  </g>
  <path d="m241.51 187.76c-30.447 2.8561-58.259 43.414-40.826 68.077-9.922 23.627 0.44206 65.428 18.416 75.29 11.136 15.64-28.558 55.123 9.8261 50.169 29.434-15.146 3.7139-56.536 55.725-59.326 41.109 0.31533-19.34-62.492 37.265-42.761 22.67 1.1209 18.173-33.419 7.8671-44.429 3.3603-22.922 4.8862-62.824-34.761-44.067-17.366 1.2569-39.74-21.836-53.513-2.9538z" fill="#d4c0bc" fill-rule="evenodd" filter="url(#ab)" opacity=".99"/>
  <path transform="matrix(.96751 0 0 .99295 -116.68 -17.983)" d="m373.28 207.78c-30.951 2.9164-59.696 35.819-43.866 64.786-7.2485 29.328-8.5364 58.297 21.086 75.463 11.32 15.971-33.287 57.234 5.7322 52.175 29.921-15.466 8.9776-66.243 56.647-60.58 41.789 0.32199-18.714-62.866 27.004-43.665 30.612 13.914 39.756-26.085 16.51-36.382 10.51-24.352 10.642-67.462-29.661-48.308-17.653 1.2834-39.451-22.771-53.452-3.4892z" fill="#faf8d3" fill-rule="evenodd" filter="url(#ae)" stroke="url(#t)" stroke-width="1.0154"/>
  <path transform="matrix(.83138 0 0 .92499 -54.254 8.6041)" d="m362.4 198.32c-30.951 2.9164-59.696 35.819-43.866 64.786-7.2485 29.328-8.5364 58.297 21.086 75.463 11.32 15.971-33.287 57.234 5.7322 52.175 29.921-15.466 8.9776-66.243 56.647-60.58 41.789 0.32199-18.714-62.866 27.004-43.665 30.612 13.914 39.756-26.085 16.51-36.382 10.51-24.352 10.642-67.462-29.661-48.308-17.653 1.2834-39.451-22.771-53.452-3.4892z" fill="#fff" fill-rule="evenodd" filter="url(#ac)"/>
  <path transform="matrix(3.3085 -1.079 0 5.1114 -553.12 -728.22)" d="m237.17 236.43c5.6976 3.345 11.712 5.4965 18.584 4.4248v8.8496c-5.6976 1.129-11.712 0.59608-18.584-4.4248v-8.8496z" fill="#fddbb3" filter="url(#g)"/>
  <path transform="matrix(1.5287 0 0 .88068 -137.46 107.88)" d="m266.66 218.59c0 3.9861-24.762 12.778-28.366 13.831s-18.364-18.284-16.068-18.251c21.346 0.31001 14.371-58.018 31.278-34.368 2.8455 3.9804-18.399 38.024 13.156 38.788z" fill="url(#p)" filter="url(#z)" opacity=".54128"/>
  <path transform="matrix(1.2758 0 0 1.2176 -78.744 -50.353)" d="m311.24 203.2c-9.5584-0.32457-20.292 10.99-25.722 18.457 1.7573 2.1989 3.7014 7.628 6.0156 9.7973 4.6394-6.134 9.9397-8.4226 17.303-6.511 1.452-4.604 2.3228-12.625 2.4034-21.743z" fill="url(#o)" filter="url(#y)" opacity=".72018"/>
  <path d="m259.12 210.53c-19.715 0-35.719 13.911-35.719 31.062s16.004 31.063 35.719 31.062c7.9146 0 15.234-2.236 21.156-6.0312 2.3113 1.0682 5.3289 1.5022 8.4062 1.375 5.9074-0.24413 10.76-2.3391 11.438-9.125 0.52148-5.2265-1.7542-12.488-5.4062-14.844 0.0728-0.80956 0.125-1.6118 0.125-2.4375 0-17.151-16.004-31.062-35.719-31.062z" fill="url(#n)" filter="url(#ad)"/>
  <path d="m231.74 193.04c-13.329 3.9133-23.095 15.501-27.938 28.14-1.5122 1.44-2.0738 6.5169 1.0153 3.43 5.9014-3.7866 7.3073-12.055 14.719-12.618 5.124 0.36143 0.93737 11.13 0.6853 15.812 0.36112 4.4909-1.3462 8.0894 2.8576 10.379 4.3662 1.2564 20.74-5.3482 21.576-8.7433 2.7826-8.2565 7.5479-16.765 15.871-20.43 4.7769-1.9376 10.235-0.77059 14.628 1.6134 4.0888 0.86767 5.9997-5.7518 2.4523-7.5888-4.0567-1.4789-9.8808-3.16-14.053-3.9669-8.6256 0.10253-16.164 6.2876-24.544 3.0237-3.6867-1.5055-3.7593-7.2984 0.16152-8.5752 1.0902-0.74246 3.321-1.8653 3.3024-2.0333-3.839 0.88547-6.8667 0.85051-10.734 1.5577z" fill="url(#s)" fill-rule="evenodd" filter="url(#aa)"/>
  <path transform="matrix(1.2423 0 0 1.2268 36.269 -57.407)" d="m207.84 238.93a28.964 25.869 0 1 1 -57.929 0 28.964 25.869 0 1 1 57.929 0z" fill="#520" filter="url(#x)" opacity=".76862"/>
  <path transform="matrix(1.2178 0 0 1.2268 40.414 -58.826)" d="m207.84 238.93a28.964 25.869 0 1 1 -57.929 0 28.964 25.869 0 1 1 57.929 0z" fill="url(#m)"/>
  <path transform="matrix(2.4178 -.42606 0 2.0183 -336.35 -151.21)" d="m237.17 236.43c5.6976 3.345 11.712 5.4965 18.584 4.4248v8.8496c-5.6976 1.129-11.712 0.59608-18.584-4.4248v-8.8496z" fill="#fded75" filter="url(#g)"/>
  <path d="m261.62 204.8c7.9314-1.0201 19.814 6.6467 23.441 10.711 0.49476 2.8277 0.64597 5.4882-2.07 6.7528-7.0455-4.8525-14.682-8.5565-24.053-8.8876 0.10501-2.6282-0.07996-5.1716 2.6821-8.5764z" fill="url(#l)"/>
  <path d="m258.89 214.16c8.6797-0.15076 18.427 5.1048 23.357 8.5732-1.5957 1.0214-3.3612 3.5432-5.4626 4.5508-4.2129-2.8492-9.0259-3.9123-15.712-3.0244-1.3185-2.1385-2.1092-5.8641-2.1824-10.1z" fill="url(#k)"/>
  <path transform="matrix(1.0257 0 0 1 -5.738 0)" d="m250.88 215.91c0 3.9861-4.3441 4.7228-7.9479 5.7757s-7.0964 2.9198-7.0964-1.0663 2.9248-8.0757 6.5286-9.1286 8.5156 0.4331 8.5156 4.4192z" fill="#fded75" filter="url(#af)"/>
  <path transform="matrix(.79732 0 0 .91232 6.732 -60.334)" d="m362.83 345.5a7.3009 7.7434 0 1 1 -14.602 0 7.3009 7.7434 0 1 1 14.602 0z" fill="url(#b)" stroke="#c8b1ab" stroke-width="1.7036"/>
  <path d="m284.55 253.48c3.2922-0.29738 7.1489-0.05703 9.4365 0.79506l-0.28717-4.9819c-4.4558-3.3905-8.4946 0.3409-9.1493 4.1868z" fill="#fff" fill-rule="evenodd"/>
  <path transform="matrix(.18972 .074969 0 .16676 154.01 240.57)" d="m374.18 319.82c-19.715 0-39.072 19.869-39.072 37.021s9.2974 30.263 29.012 30.263c30.028 3.7583 57.327-60.649 10.059-67.283z" fill="url(#j)" filter="url(#w)"/>
  <g transform="matrix(1.2162 0 0 1 -47.445 .10766)">
   <path transform="matrix(.44939 0 0 .51139 63.101 150.85)" d="m362.83 345.5a7.3009 7.7434 0 1 1 -14.602 0 7.3009 7.7434 0 1 1 14.602 0z" fill="url(#b)"/>
   <path d="m219.69 326.75c1.8555-0.16669 4.0293-0.03196 5.3186 0.44566l-0.16185-2.7925c-2.5114-1.9005-4.7878 0.19109-5.1568 2.3469z" fill="#fff" fill-rule="evenodd"/>
  </g>
  <g transform="translate(-110.18 -205.75)">
   <path d="m336.28 357.45c0 20.639 11.126 37.389-9.5133 37.389s-39.159-18.078-39.159-38.717 23.388-36.947 44.027-36.947 4.646 17.635 4.646 38.274z" fill="url(#i)"/>
   <g transform="matrix(.95146 0 0 1.0118 15.1 -3.3073)" fill-rule="evenodd">
    <path d="m350.44 327.14-4.8673-2.6549 0.88496-4.4248-7.9646-1.3274-8.4071 6.6372-4.4248 4.4248-7.9646 1.3274-1.3274 5.7522-5.3097 6.1947 2.6549 3.9823 3.0974 3.5398v2.2124l3.5398 0.88496 4.4248 6.1947-1.7699 6.1947 0.88496 3.0973 1.3274 4.4248 3.5398 1.3274 0.88496 3.9823-1.3274-0.44248-1.7699 6.6372-2.6549 2.6549 6.6372 1.7699 3.0974 4.4248 7.5221-3.0974 0.88496-3.5398 4.8673-0.88496 3.0973-3.0973 1.7699-4.4248-1.7699-2.2124 3.9823-5.7522 2.2124-2.6549-1.7699-5.3097-2.2124-3.5398v-4.8673l3.0973-4.4248 1.3274-5.3097-2.2124-1.7699 1.7699-5.3097 0.44248-4.8673-2.6549-1.3274-3.5398-4.4248z" fill="#f9f9f9"/>
    <path d="m350.06 327.7-4.7279-2.5627 0.85962-4.2712-7.7365-1.2814-8.1663 6.4068-4.2981 4.2712-7.7365 1.2814-1.2894 5.5526-5.1577 5.9797 2.5788 3.8441 3.0086 3.417v2.1356l3.4384 0.85425 4.2981 5.9797-1.7192 5.9797 0.85961 2.9898 1.2894 4.2712 3.4384 1.2814 0.85961 3.8441-1.2894-0.42712-1.7192 6.4068-2.5788 2.5627 6.4471 1.7085 3.0086 4.2712 7.3067-2.9899 0.85961-3.417 4.7279-0.85424 3.0086-2.9898 1.7192-4.2712-1.7192-2.1356 3.8682-5.5526 2.149-2.5627-1.7192-5.1255-2.149-3.417v-4.6983l3.0086-4.2712 1.2894-5.1255-2.149-1.7085 1.7192-5.1255 0.42981-4.6983-2.5788-1.2814-3.4384-4.2712z" fill="url(#r)"/>
   </g>
  </g>
  <g transform="matrix(-1.1836 0 0 -.79231 709.17 450.48)" fill="#816b5f" filter="url(#u)" opacity=".74018">
   <path d="m336.28 357.45c0 20.639 11.126 37.389-9.5133 37.389s-39.159-18.078-39.159-38.717 23.388-36.947 44.027-36.947 4.646 17.635 4.646 38.274z"/>
   <g transform="matrix(.95146 0 0 1.0118 15.1 -3.3073)" fill-rule="evenodd">
    <path d="m350.44 327.14-4.8673-2.6549 0.88496-4.4248-7.9646-1.3274-8.4071 6.6372-4.4248 4.4248-7.9646 1.3274-1.3274 5.7522-5.3097 6.1947 2.6549 3.9823 3.0974 3.5398v2.2124l3.5398 0.88496 4.4248 6.1947-1.7699 6.1947 0.88496 3.0973 1.3274 4.4248 3.5398 1.3274 0.88496 3.9823-1.3274-0.44248-1.7699 6.6372-2.6549 2.6549 6.6372 1.7699 3.0974 4.4248 7.5221-3.0974 0.88496-3.5398 4.8673-0.88496 3.0973-3.0973 1.7699-4.4248-1.7699-2.2124 3.9823-5.7522 2.2124-2.6549-1.7699-5.3097-2.2124-3.5398v-4.8673l3.0973-4.4248 1.3274-5.3097-2.2124-1.7699 1.7699-5.3097 0.44248-4.8673-2.6549-1.3274-3.5398-4.4248z"/>
    <path d="m350.06 327.7-4.7279-2.5627 0.85962-4.2712-7.7365-1.2814-8.1663 6.4068-4.2981 4.2712-7.7365 1.2814-1.2894 5.5526-5.1577 5.9797 2.5788 3.8441 3.0086 3.417v2.1356l3.4384 0.85425 4.2981 5.9797-1.7192 5.9797 0.85961 2.9898 1.2894 4.2712 3.4384 1.2814 0.85961 3.8441-1.2894-0.42712-1.7192 6.4068-2.5788 2.5627 6.4471 1.7085 3.0086 4.2712 7.3067-2.9899 0.85961-3.417 4.7279-0.85424 3.0086-2.9898 1.7192-4.2712-1.7192-2.1356 3.8682-5.5526 2.149-2.5627-1.7192-5.1255-2.149-3.417v-4.6983l3.0086-4.2712 1.2894-5.1255-2.149-1.7085 1.7192-5.1255 0.42981-4.6983-2.5788-1.2814-3.4384-4.2712z"/>
   </g>
  </g>
  <g transform="translate(-4,-12)">
   <path d="m324.07 140.09c17.016-11.679 24.531-30.331 36.21-13.315s7.2552 42.516-9.7612 54.196-43.697 1.6254-55.376-15.391 11.911-13.81 28.927-25.49z" fill="url(#h)"/>
   <path d="m355.9 134.88-0.40601-5.3382 4.1675-1.8392-3.181-7.0079-10.063-2.7949-6.0734-0.93764-5.3956-5.4878-5.5131 2.2521-8.0264-0.61847-1.8925 4.3627-1.2852 4.4565-1.8455 1.2667 1.1677 3.2835-2.7851 7.0178-6.1204 2.1584-2.1073 2.4676-2.9763 3.5747 0.7986 3.5369-2.8455 2.9743-0.34562-1.2947-6.4895 2.4117-3.6441-0.56257 2.0972 6.2199-2.0234 4.9632 6.6338 4.1274 3.4293-1.3325 3.3589 3.3115 4.2514 0.65634 4.644-1.145 0.89256-2.6551 6.9425-0.16949 3.4058 0.21547 3.4763-4.4285 1.7616-3.7622 4.0602-2.7868 5.3587-0.10369 5.144-1.9988 0.28522-2.7489 5.3822-1.6517 4.2984-2.4396-0.32213-2.8426 1.7851-5.3102z" fill="#f9f9f9" fill-rule="evenodd"/>
   <path d="m355.23 134.9-0.40782-5.1761 4.0258-1.7712-3.0966-6.8026-9.7414-2.7379-5.8771-0.92614-5.2344-5.3353-5.3261 2.1676-7.7651-0.62226-1.8182 4.2239-1.2304 4.3165-1.7815 1.2227 1.1387 3.1864-2.674 6.7953-5.9138 2.075-2.0312 2.3862-2.8687 3.457 0.78243 3.431-2.7438 2.8753-0.33796-1.256-6.2701 2.3196-3.5263-0.55569 2.0461 6.0356-1.943 4.8056 6.4282 4.0199 3.3132-1.2821 3.2582 3.2197 4.114 0.64829 4.4886-1.0968 0.85582-2.5714 6.7146-0.14466 3.2949 0.21852 3.3499-4.2832 1.6933-3.6422 3.9193-2.69 5.1829-0.08535 4.9698-1.9231 0.26809-2.664 5.2012-1.5859 4.1507-2.3529-0.31962-2.7566 1.7116-5.1428z" fill="url(#q)" fill-rule="evenodd"/>
  </g>
 </g>
</svg>
