<svg width="500" height="500" xmlns="http://www.w3.org/2000/svg" xmlns:xlink="http://www.w3.org/1999/xlink" version="1.1" enable-background="new 0 0 44.95 31.25">
 <symbol viewBox="0.021 -19 27.629 19" id="d">
  <path id="svg_1" fill-rule="evenodd" fill="url(#c)" clip-rule="evenodd" d="m27.2,-6.85c0.033,-0.3 0,-0.583 -0.1,-0.85l-0.1,-0.95l-0.05,-0.05l0.05,0l-0.05,-0.05c0.133,-0.2 0.066,-0.433 -0.2,-0.7l0.05,-0.15l0.2,-0.35c0.5,-0.333 0.667,-0.566 0.5,-0.7l-0.3,-0.15c0.2,-0.534 0.3,-0.983 0.3,-1.35c0.2,-0.7 0.2,-1.4 0,-2.1l-0.05,-0.05c-0.1,-0.534 -0.383,-1.067 -0.85,-1.6c-1.833,-2.067 -6.017,-3.1 -12.55,-3.1l-1.5,0l-0.5,0.05l-0.85,0l-0.25,0.05c-2.867,0.233 -5.2,0.75 -7,1.55c-1.733,0.767 -2.8,1.717 -3.2,2.85l0,0.05l-0.1,0.25l0,0.05l-0.1,0.45c-0.167,0.767 -0.066,1.45 0.3,2.05l-0.1,0.2l0,0.2l-0.05,0.1c-0.167,-0.067 -0.267,-0.1 -0.3,-0.1c-0.1,0.033 -0.217,0.167 -0.35,0.4c-0.066,0.067 -0.017,0.217 0.15,0.45c0,0.2 0.267,0.533 0.8,1l-0.05,0.1l0.15,0.25c-0.067,0.267 -0.083,0.45 -0.05,0.55c0,0.133 -0.117,0.533 -0.35,1.2c-0.2,0.6 -0.217,1 -0.05,1.2l0,0.05c0.267,1.533 1.583,2.883 3.95,4.05c2.667,1.333 5.883,2 9.65,2c3.867,0 7.017,-0.717 9.45,-2.15c1.933,-1.133 3.083,-2.483 3.45,-4.05l0.1,0.1l-0.05,-0.75z"/>
 </symbol>
 <defs>
  <linearGradient y2="-Infinity" y1="-Infinity" x2="Infinity" x1="-Infinity" id="c">
   <stop offset="0" stop-color="#40240A"/>
   <stop offset="0.0863" stop-opacity="0.7137" stop-color="#5A391D"/>
   <stop offset="0.2" stop-opacity="0.4039" stop-color="#775031"/>
   <stop offset="0.3176" stop-opacity="0.1765" stop-color="#8B6140"/>
   <stop offset="0.4314" stop-opacity="0.0431" stop-color="#986B49"/>
   <stop offset="0.5412" stop-opacity="0" stop-color="#9C6E4C"/>
   <stop offset="0.6235" stop-opacity="0.1137" stop-color="#906545"/>
   <stop offset="0.7725" stop-opacity="0.4235" stop-color="#6F4D32"/>
   <stop offset="0.9725" stop-opacity="0.9176" stop-color="#3B2614"/>
   <stop offset="1" stop-color="#33200F"/>
  </linearGradient>
 </defs>
 <g>
  <title>Layer 1</title>
  <g id="svg_53">
   <g id="svg_2" fill-rule="evenodd" clip-rule="evenodd">
    <path id="svg_3" fill="#C5C5C5" d="m449.53695,290.57676l42.64103,9.13279c-18.28158,25.38309 -35.01171,43.15285 -50.25436,53.29329c-9.66061,6.60568 -23.09589,18.28158 -40.35383,35.01171c-8.62097,8.65296 -16.49021,16.50621 -23.60771,23.62371c-43.64868,0 -77.41282,-2.52711 -101.27644,-7.61333l-162.18306,-33.50824c-50.76618,-10.17243 -86.3057,-21.83234 -106.60257,-35.0277c25.38309,-17.25794 42.12921,-26.39073 50.25436,-27.41438l391.3826,-17.49786z"/>
    <path id="svg_4" fill="#E2E2E2" d="m419.06765,365.9583c-17.25794,13.19537 -29.18975,21.57643 -35.76344,25.12718c-4.06257,2.03129 -6.10985,6.09386 -6.10985,12.17173c0,3.05493 0.25591,5.85394 0.76773,8.38106l-101.27644,-18.28158l76.16526,-7.61333c16.74612,-1.51947 38.83437,-8.10915 66.21675,-19.78505z"/>
   </g>
   <g id="svg_5" fill-rule="evenodd" clip-rule="evenodd">
    <path id="svg_6" fill="#E09046" d="m262.99444,215.17923c75.63745,0 128.94673,10.15643 159.89586,30.45331c25.39908,16.26629 34.27597,37.82672 26.64665,64.72928c-14.21901,48.23906 -82.48304,72.3426 -204.82409,72.3426c-56.34822,0.49583 -103.30773,-6.10985 -140.87854,-19.80105c-34.51588,-12.69954 -55.08466,-29.18975 -61.67435,-49.50262c-21.32051,-65.46502 52.28564,-98.22152 220.83447,-98.22152z"/>
    <path id="svg_7" fill="#C9813F" d="m448.78521,311.12955c-3.56675,21.32051 -23.09589,38.32255 -58.63541,51.02209c-37.043,13.69119 -85.77789,20.55278 -146.20467,20.55278c-57.35586,0.49583 -104.31538,-6.86159 -140.87854,-22.08825c-32.4846,-13.19537 -53.29329,-30.45331 -62.44208,-51.77382c-2.03129,-5.07022 -2.03129,-11.6759 0,-19.80105l5.32613,1.53546l3.03893,11.41999c5.07022,8.62097 16.25029,15.73847 33.50824,21.32051c2.54311,1.00765 5.83795,4.5584 9.90052,10.65226c4.06257,5.59803 12.68355,9.14879 25.89491,10.66825c6.60568,1.00765 21.0646,3.56675 43.40876,7.62932c14.21901,3.03893 25.38309,4.31848 33.50824,3.79067c6.09386,0 15.48256,0.51182 28.16611,1.51947c12.18772,1.53546 24.63135,2.04728 37.3149,1.53546c62.42608,-4.04658 103.03583,-8.36506 121.81323,-12.95545c14.73083,-3.55075 29.70157,-12.93946 44.94422,-28.16611c7.61333,-7.10151 13.69119,-14.21901 18.28158,-21.32051l3.79067,-6.09386c1.02364,6.58969 0.78372,13.43528 -0.73574,20.55278z"/>
    <path id="svg_8" fill="#9C6431" d="m448.78521,311.12955c-5.08621,21.83234 -25.12718,39.07428 -60.17088,51.77382c-36.03535,13.19537 -84.25842,19.80105 -144.66921,19.80105c-55.8364,0.49583 -102.30008,-6.34977 -139.34308,-20.55278c-32.99642,-12.71554 -53.80511,-28.94984 -62.44208,-48.75088l8.38106,7.62932c1.00765,0.49583 5.58204,5.07022 13.70719,13.69119c7.10151,7.10151 13.9631,11.93181 20.55278,14.45892c11.6759,3.56675 31.47695,5.08621 59.40315,4.57439c7.10151,0.51182 21.32051,3.79067 42.64103,9.90052c20.31287,5.58204 35.77944,8.62097 46.44769,9.1168c8.63697,0 22.83998,-2.2712 42.65702,-6.8456c19.78505,-5.07022 37.043,-7.61333 51.75783,-7.61333c34.51588,0 63.72163,-4.8463 87.58525,-14.47492c8.62097,-4.04658 16.49021,-10.39635 23.60771,-19.01732c3.55075,-5.07022 7.10151,-10.66825 10.65226,-16.76212l-0.76773,3.07092z"/>
    <path id="svg_9" fill="#C9813F" d="m58.15435,308.07462l-4.57439,-12.95545l379.19487,2.2872l5.32613,7.62932c-4.5584,4.06257 -15.22665,8.36506 -31.97278,12.95545c-33.50824,8.62097 -80.21184,13.9471 -140.11081,15.97839c-66.50465,2.03129 -121.07749,-1.51947 -163.71852,-10.65226c-21.30452,-5.08621 -36.01935,-10.15643 -44.1445,-15.24265z"/>
    <path id="svg_10" fill="#42180E" d="m52.06049,301.99675c-5.58204,-3.55075 -7.86924,-12.68355 -6.8456,-27.41438l3.03893,-21.32051l389.86313,-7.62932l9.13279,19.03332c4.57439,14.21901 2.2872,26.15082 -6.8456,35.79543c-11.16408,11.65991 -26.64665,19.28923 -46.46369,22.83998c-22.32816,4.06257 -69.01577,6.86159 -140.09482,8.36506c-105.08311,1.55146 -172.3395,-8.34907 -201.78516,-29.66958z"/>
    <path id="svg_11" fill="#832F1D" d="m434.32629,298.17409c-4.57439,8.12515 -24.35945,14.98674 -59.40315,20.55278c-36.54717,6.10985 -80.21184,9.13279 -130.96202,9.13279c-52.28564,0 -95.95031,-2.78302 -130.96202,-8.36506c-35.0277,-5.58204 -54.82875,-12.68355 -59.38715,-21.32051c-4.57439,-9.64461 -4.8303,-19.01732 -0.75174,-28.16611c4.06257,-10.17243 12.18772,-16.50621 24.35945,-19.03332c56.86004,-11.16408 114.47181,-16.76212 172.85132,-16.76212c25.38309,0 55.32458,3.03893 89.84046,9.13279c18.7934,3.03893 42.38512,7.62932 70.82314,13.70719c12.69954,2.52711 21.0646,8.12515 25.12718,16.74612c4.03058,8.14114 3.51876,16.25029 -1.53546,24.37544z"/>
    <path id="svg_12" fill="#9E3923" d="m261.45898,305.03569c-3.55075,3.55075 -9.64461,5.32613 -18.28158,5.32613c-9.13279,-0.49583 -14.71483,-2.52711 -16.74612,-6.09386c-2.03129,1.00765 -4.57439,1.53546 -7.61333,1.53546l-8.38106,0c-1.00765,0 -2.78302,1.00765 -5.32613,3.03893c-1.51947,1.00765 -3.55075,1.00765 -6.09386,0c1.02364,-2.54311 5.07022,-4.57439 12.18772,-6.09386c6.58969,-1.53546 12.17173,-2.03129 16.74612,-1.53546l-6.86159,0.76773l23.60771,0c0.01599,6.60568 5.59803,7.62932 16.76212,3.05493z"/>
    <path id="svg_13" fill="#9E3923" d="m352.85089,302.74849c-14.73083,0.49583 -23.86362,1.00765 -27.43037,1.51947c-9.64461,1.53546 -17.75377,1.77538 -24.35945,0.76773c-13.69119,1.00765 -22.08825,0.25591 -25.11118,-2.2872c1.51947,-1.53546 6.09386,-2.79902 13.69119,-3.80666c6.09386,-0.49583 11.16408,-0.49583 15.22665,0c6.52571,-1.00765 16.18632,-1.00765 28.93384,0c13.70719,0.49583 27.17446,-0.49583 40.35383,-3.03893c-0.49583,3.53476 -7.61333,5.83795 -21.30452,6.8456z"/>
    <path id="svg_14" fill="#632316" d="m167.04413,304.26795c27.71827,-7.9812 49.80651,-11.54795 66.24874,-10.65226c-6.09386,4.06257 -16.49021,7.10151 -31.22104,9.13279c-8.12515,3.03893 -14.73083,5.07022 -19.80105,6.09386c-9.64461,2.52711 -16.25029,2.79902 -19.80105,0.76773c0.51182,-2.03129 2.03129,-3.80666 4.57439,-5.34212z"/>
    <path id="svg_15" fill="#632316" d="m389.38207,292.84796l-5.32613,0c5.07022,-3.03893 12.42764,-5.58204 22.08825,-7.61333c10.65226,-2.03129 19.03332,-2.79902 25.11118,-2.30319c-3.03893,1.00765 -6.07787,4.57439 -9.1168,10.66825c-2.54311,5.07022 -5.59803,7.85324 -9.14879,8.36506c-2.52711,0.51182 -4.81431,0.25591 -6.8456,-0.76773c-1.53546,-2.03129 -2.79902,-3.29484 -3.80666,-3.80666c-5.59803,-2.51112 -9.91652,-4.04658 -12.95545,-4.54241z"/>
    <path id="svg_16" fill="#632316" d="m48.25383,277.62131c10.15643,-3.03893 16.76212,-4.8303 19.80105,-5.32613c9.64461,-1.53546 14.71483,0.49583 15.22665,6.09386c0,3.03893 -4.57439,5.32613 -13.70719,6.86159c-7.61333,1.51947 -9.3887,6.09386 -5.32613,13.69119l1.51947,3.80666c-1.51947,-0.51182 -2.54311,-0.76773 -3.03893,-0.76773c-1.51947,-0.51182 -2.03129,-1.77538 -1.51947,-3.80666c-6.09386,0.51182 -9.90052,-1.75938 -11.41999,-6.8456c-1.02364,-2.54311 -1.53546,-7.1175 -1.53546,-13.70719z"/>
    <path id="svg_17" fill="#632316" d="m422.8903,300.47729c3.56675,-2.54311 7.10151,-3.05493 10.66825,-1.53546c-6.09386,8.12515 -26.15082,14.98674 -60.15488,20.55278c-36.05134,5.59803 -79.20419,8.36506 -129.45855,8.36506c-52.28564,0 -95.95031,-2.78302 -130.96202,-8.36506c-35.0277,-5.58204 -54.82875,-12.68355 -59.38715,-21.32051l0,-0.76773l1.51947,0l-2.2872,-1.51947l-1.51947,-3.03893l0,-1.51947c4.5584,-0.51182 8.62097,0.25591 12.17173,2.2872c-0.49583,4.5584 2.2872,7.10151 8.38106,7.61333c5.07022,0.51182 9.3887,-0.75174 12.93946,-3.80666c11.6759,12.69954 22.32816,18.29758 31.98877,16.76212l0.76773,-4.5584c2.03129,0.49583 3.80666,0.75174 5.32613,0.75174c0.51182,0.51182 1.51947,1.77538 3.05493,3.80666c4.04658,0 13.45128,-0.25591 28.16611,-0.76773c13.19537,-0.49583 20.56878,-0.25591 22.07225,0.76773c4.06257,-1.00765 10.15643,-1.00765 18.28158,0c7.1175,1.00765 13.21136,0.49583 18.28158,-1.53546l0.75174,-4.5584c0.51182,0 2.2872,0.49583 5.32613,1.53546c1.00765,0 2.03129,1.00765 3.03893,3.02294l6.86159,-0.75174c3.55075,5.58204 12.18772,8.36506 25.89491,8.36506c2.52711,0 12.93946,-1.00765 31.20504,-3.03893l-9.13279,-6.86159c14.73083,-3.55075 24.11953,-4.8303 28.18211,-3.80666l-4.5584,6.09386l17.51385,-1.51947l0,4.57439c10.15643,-0.51182 25.38309,-3.05493 45.66397,-7.62932c10.66825,-1.53546 17.01803,-2.2872 19.03332,-2.2872c2.54311,0 5.83795,-0.2719 9.90052,-0.76773c3.56675,-1.00765 6.34977,-3.03893 8.36506,-6.09386c2.04728,0.49583 6.10985,0.25591 12.18772,-0.76773c5.10221,-0.99165 8.39705,-0.22392 9.91652,2.31919z"/>
    <path id="svg_18" fill="#632316" d="m410.70258,257.06853c9.64461,2.03129 17.00203,5.82196 22.08825,11.41999c4.57439,5.59803 6.33378,11.65991 5.32613,18.28158l-19.03332,3.80666c-16.2343,4.5584 -28.40603,7.35742 -36.54717,8.36506c-4.06257,0.49583 -10.65226,0.25591 -19.78505,-0.76773c-10.66825,-0.49583 -18.02567,-0.76773 -22.08825,-0.76773c-22.32816,1.53546 -39.6021,2.03129 -51.77382,1.53546c-12.18772,0 -19.01732,0.25591 -20.55278,0.76773c-5.07022,4.5584 -9.3887,7.35742 -12.95545,8.36506c-3.55075,-4.06257 -9.3887,-6.09386 -17.51385,-6.09386c-9.13279,0.51182 -15.73847,0.51182 -19.80105,0c-21.83234,-3.55075 -33.25233,-5.32613 -34.27597,-5.32613c-17.76976,1.00765 -32.4846,1.26356 -44.1605,0.75174c-21.81634,-0.49583 -33.49224,-4.06257 -35.01171,-10.65226c-6.60568,2.03129 -14.73083,1.51947 -24.35945,-1.51947c-13.21136,-4.06257 -21.57643,-6.09386 -25.12718,-6.09386c-1.00765,-2.54311 -1.00765,-4.57439 0,-6.10985l-1.55146,-4.54241c4.06257,-9.13279 11.93181,-14.98674 23.60771,-17.51385c56.86004,-11.16408 114.47181,-16.76212 172.85132,-16.76212c25.38309,0 55.32458,3.03893 89.84046,9.13279c18.7934,3.05493 42.40111,7.62932 70.82314,13.72318z"/>
    <path id="svg_19" fill="#42180E" d="m429.00016,263.93012c0.49583,2.03129 1.51947,4.5584 3.02294,7.61333c1.02364,3.03893 0.76773,5.83795 -0.76773,8.36506c-4.06257,1.00765 -6.58969,2.03129 -7.61333,3.03893l-2.2872,7.62932c-8.14114,8.12515 -18.5215,10.39635 -31.22104,6.8456c-10.15643,-2.52711 -23.86362,-2.52711 -41.10557,0c-18.7934,3.05493 -36.54717,3.80666 -53.30928,2.30319c-23.3518,-5.07022 -42.38512,-6.60568 -57.09995,-4.57439c-6.09386,0.51182 -29.70157,5.59803 -70.82314,15.22665c-12.18772,3.03893 -20.31287,4.31848 -24.35945,3.80666c-5.58204,0 -13.45128,-2.79902 -23.60771,-8.36506l-19.80105,-12.95545c-2.03129,-1.51947 -6.09386,-3.29484 -12.18772,-5.32613c-6.07787,-2.03129 -9.64461,-3.80666 -10.66825,-5.34212c-14.71483,0 -23.84763,-0.49583 -27.39838,-1.51947l0,-1.51947c-0.8637,-1.10361 -1.11961,-2.89498 -0.76773,-5.34212c1.00765,-4.5584 1.26356,-7.35742 0.76773,-8.36506c18.77741,6.60568 34.51588,9.90052 47.21542,9.90052c9.13279,0.49583 24.61536,0.75174 46.44769,0.75174c19.80105,-0.49583 35.0277,-0.25591 45.67996,0.76773c94.92667,8.10915 174.8986,3.80666 239.88378,-12.93946z"/>
    <path id="svg_20" fill="#FFE797" d="m387.09487,291.34449c-20.31287,-3.56675 -31.22104,-5.34212 -32.74051,-5.34212c-31.98877,-3.03893 -72.85442,-0.75174 -122.59696,6.86159c-7.61333,1.00765 -28.67793,5.32613 -63.20981,12.95545c-15.73847,3.55075 -29.18975,4.06257 -40.35383,1.51947c-9.13279,-6.58969 -18.53749,-12.18772 -28.18211,-16.74612c-8.12515,-3.56675 -17.51385,-7.10151 -28.16611,-10.66825l-14.47492,-4.5584c78.67638,3.03893 142.90983,2.78302 192.65236,-0.76773c50.27035,-3.03893 107.86613,-3.56675 172.85132,-1.53546c4.57439,12.20372 1.51947,19.03332 -9.1168,20.56878c-6.09386,0.47983 -14.97074,-0.2879 -26.66264,-2.2872z"/>
    <path id="svg_21" fill="#E7D289" d="m89.37539,283.71517c14.71483,-0.49583 29.95748,-1.00765 45.67996,-1.53546c31.98877,-1.51947 51.51791,-3.02294 58.63541,-4.5584c11.16408,-1.53546 30.96513,1.26356 59.38715,8.36506l-21.32051,5.34212c-10.66825,-3.56675 -19.54514,-4.8303 -26.64665,-3.80666c-3.55075,0.49583 -5.32613,1.77538 -5.32613,3.80666c-0.51182,2.52711 -2.54311,4.04658 -6.09386,4.5584c-19.80105,3.03893 -35.0277,5.83795 -45.67996,8.36506c-7.10151,1.53546 -11.93181,1.00765 -14.47492,-1.51947c-6.58969,-5.59803 -10.66825,-8.89288 -12.17173,-9.90052c-5.58204,-3.03893 -12.44363,-5.58204 -20.56878,-7.61333l-11.41999,-1.50347z"/>
    <path id="svg_22" fill="#E7D289" d="m382.52048,287.52183l41.12156,-10.66825c-1.51947,7.10151 -5.58204,11.16408 -12.18772,12.18772c-3.56675,1.00765 -9.3887,1.00765 -17.52985,0l-11.404,-1.51947z"/>
    <path id="svg_23" fill="#B0A069" d="m173.13799,276.85358l52.54155,-0.76773c4.06257,1.53546 11.41999,5.08621 22.08825,10.66825l7.61333,1.51947c5.59803,-0.49583 6.09386,0 1.53546,1.53546l-17.51385,1.53546l-7.62932,-3.80666l-26.64665,-1.53546c-5.58204,0 -13.45128,0.51182 -23.60771,1.53546c-10.66825,1.00765 -18.53749,1.26356 -23.60771,0.75174c-11.16408,2.03129 -19.03332,2.79902 -23.60771,2.30319c2.03129,-1.00765 3.03893,-1.77538 3.03893,-2.30319c-19.80105,1.02364 -37.05899,-0.25591 -51.77382,-3.79067l-6.09386,-2.30319c4.06257,-1.51947 12.18772,-1.26356 24.35945,0.76773c1.51947,0 20.55278,-1.51947 57.09995,-4.5584l12.20372,-1.55146z"/>
    <path id="svg_24" fill="#B0A069" d="m373.40368,288.27357l-3.05493,-0.75174c-4.06257,0.49583 -4.31848,0 -0.75174,-1.53546l5.32613,-3.03893c24.35945,-7.61333 40.60974,-11.16408 48.73489,-10.65226l1.53546,8.36506c-6.60568,3.03893 -15.73847,5.83795 -27.43037,8.36506c-14.20301,3.05493 -22.32816,2.81501 -24.35945,-0.75174z"/>
    <path id="svg_25" fill="#994748" d="m42.15997,244.8808c80.70767,10.15643 143.91747,12.42764 189.59744,6.8456c45.16814,-5.05423 108.88977,-12.93946 191.1169,-23.60771l5.32613,15.99438c-37.55482,15.22665 -95.67841,26.90256 -174.35479,35.0277c-53.30928,5.58204 -101.78826,7.35742 -145.43694,5.32613c-36.03535,-1.53546 -56.60413,-4.33448 -61.67435,-8.38106c-3.55075,-2.52711 -5.32613,-8.36506 -5.32613,-17.51385l0.75174,-13.69119z"/>
    <path id="svg_26" fill="#803B3C" d="m46.73436,276.08585c-3.55075,-2.52711 -5.32613,-11.91582 -5.32613,-28.16611l17.51385,9.88453c-11.16408,4.57439 -7.35742,10.92416 11.41999,19.03332c7.10151,3.03893 21.57643,3.29484 43.40876,0.76773c10.15643,-1.53546 30.70922,-2.03129 61.67435,-1.53546c34.51588,0.51182 52.54155,2.79902 54.06102,6.86159c-22.83998,-1.00765 -37.3149,-0.76773 -43.39277,0.76773c-36.54717,1.53546 -69.30367,1.26356 -98.23751,-0.76773c-23.86362,-1.50347 -37.57081,-3.77467 -41.12156,-6.8456z"/>
    <path id="svg_27" fill="#6B3132" d="m167.04413,268.48852c24.35945,1.53546 39.07428,5.32613 44.1605,11.41999c-2.03129,2.03129 -6.86159,3.31084 -14.47492,3.80666c-9.13279,-0.49583 -14.98674,-0.76773 -17.51385,-0.76773l-34.25997,0c4.06257,-2.03129 6.86159,-3.55075 8.36506,-4.5584c-2.54311,-2.03129 -8.12515,-2.79902 -16.74612,-2.30319c-9.64461,1.02364 -15.99438,1.53546 -19.03332,1.53546c-14.49091,0 -28.45401,-0.89569 -41.8733,-2.67106c13.32332,0.73574 30.32535,-0.39986 51.00609,-3.4228c17.27394,-2.03129 30.72521,-3.03893 40.36983,-3.03893z"/>
    <path id="svg_28" fill="#59292A" d="m39.87277,255.53306l17.51385,-5.32613l140.11081,28.94984c-18.77741,-1.02364 -30.98112,-1.27955 -36.56316,-0.76773c-9.13279,1.51947 -27.41438,1.75938 -54.81276,0.76773c-22.32816,1.51947 -35.79543,1.00765 -40.35383,-1.53546c-3.03893,-1.53546 -4.06257,-4.31848 -3.03893,-8.36506s1.26356,-6.34977 0.75174,-6.86159c-1.00765,-1.00765 -5.32613,-1.51947 -12.93946,-1.51947l-10.66825,0l0,-5.34212z"/>
    <path id="svg_29" fill="#B35255" d="m194.44251,263.93012l7.62932,-2.30319l234.52566,-21.32051l-4.57439,29.70157c-1.00765,3.02294 -5.58204,6.33378 -13.69119,9.88453c-16.25029,7.10151 -42.38512,11.6759 -78.43646,13.70719c-36.03535,2.03129 -70.31132,0 -102.79591,-6.09386l-38.06664,-10.66825l-4.59039,-12.90747z"/>
    <path id="svg_30" fill="#D96859" d="m258.42005,268.48852l136.30415,-17.51385l37.29891,0c-19.78505,14.71483 -47.96716,23.60771 -84.51433,26.64665c-22.85598,2.03129 -44.41641,1.00765 -64.72928,-3.03893l-24.35945,-6.09386z"/>
    <path id="svg_31" fill="#994748" d="m418.3319,279.90851c-16.25029,7.10151 -42.38512,11.6759 -78.43646,13.70719c-42.64103,3.03893 -83.23478,-0.51182 -121.82923,-10.66825c1.00765,-2.03129 4.06257,-3.29484 9.13279,-3.79067c2.54311,-0.51182 7.1175,-1.27955 13.70719,-2.30319c3.03893,-0.49583 7.86924,-1.51947 14.45892,-3.03893c5.59803,-1.51947 10.15643,-2.03129 13.70719,-1.51947l3.79067,2.2872c-5.58204,1.00765 -8.36506,3.03893 -8.36506,6.09386c39.6021,7.61333 69.03176,9.90052 88.33699,6.86159c26.39073,-4.06257 53.03738,-10.92416 79.93994,-20.56878l-0.76773,3.05493c-0.99165,3.02294 -5.56605,6.33378 -13.6752,9.88453z"/>
    <path id="svg_32" fill="#994748" d="m385.5754,268.48852c8.12515,-2.52711 24.37544,-8.63697 48.75088,-18.28158c1.51947,3.55075 1.24756,8.36506 -0.76773,14.45892c-2.04728,5.07022 -4.8303,8.89288 -8.36506,11.41999c-10.66825,6.09386 -23.09589,8.38106 -37.3149,6.86159c3.56675,-9.24475 5.96591,-14.69884 7.22946,-16.36226l-9.53265,1.90333z"/>
    <path id="svg_33" fill="#F07362" d="m269.07231,272.29518l12.95545,1.51947c12.17173,0.51182 26.64665,1.00765 43.39277,1.53546c26.39073,1.00765 45.93587,0 58.63541,-3.03893c-15.22665,5.07022 -34.00406,7.61333 -56.34822,7.61333c-13.69119,0 -27.65429,-1.26356 -41.8733,-3.80666l-16.76212,-3.82266z"/>
    <path id="svg_34" fill="#6B3132" d="m382.52048,259.35572l54.84475,-9.13279l-0.76773,9.13279l-10.66825,0c-12.17173,0 -19.01732,0.25591 -20.55278,0.76773c-0.51182,0 -2.03129,2.78302 -4.57439,8.36506c-2.52711,4.5584 -6.86159,7.86924 -12.93946,9.90052c-6.60568,2.03129 -14.73083,2.03129 -24.37544,0c-10.14044,-2.54311 -17.24195,-4.06257 -21.30452,-4.57439c-10.15643,-1.51947 -32.24468,0 -66.24874,4.57439l-47.98315,7.61333l-26.66264,-4.5584l41.8733,-7.62932c7.64532,-1.51947 54.07701,-6.34977 139.35907,-14.45892z"/>
    <path id="svg_35" fill="#90A148" d="m344.45384,245.63254c23.86362,-5.58204 43.40876,-11.41999 58.63541,-17.51385c37.05899,13.19537 52.54155,22.32816 46.4317,27.41438c-3.55075,2.54311 -7.35742,3.03893 -11.41999,1.53546c-6.09386,-2.03129 -11.65991,-2.54311 -16.74612,-1.53546c-4.57439,1.00765 -9.13279,4.31848 -13.70719,9.90052c-4.06257,5.07022 -10.65226,8.12515 -19.78505,9.13279c-8.62097,1.00765 -17.00203,0.49583 -25.12718,-1.53546c-11.16408,-2.52711 -19.78505,-4.06257 -25.87891,-4.5584c-10.66825,-0.49583 -29.18975,1.00765 -55.59648,4.5584c-28.42202,4.07857 -46.7036,6.60568 -54.82875,7.62932c-8.63697,1.00765 -18.77741,0.25591 -30.45331,-2.2872c-14.73083,-3.03893 -25.639,-4.8303 -32.74051,-5.34212c-43.15285,2.03129 -73.86207,2.54311 -92.14365,1.53546c-9.13279,-0.49583 -10.65226,-2.52711 -4.5584,-6.09386c6.07787,-3.03893 4.5584,-5.07022 -4.57439,-6.09386c-8.12515,-1.00765 -15.48256,-0.49583 -22.07225,1.53546c-2.54311,1.00765 -5.32613,-0.76773 -8.38106,-5.34212c-2.03129,-2.52711 2.54311,-8.36506 13.70719,-17.51385l16.74612,-12.95545c7.61333,4.57439 19.30522,9.4047 35.0277,14.45892c31.98877,9.66061 69.28767,15.49856 111.9287,17.52985c42.65702,1.53546 87.82517,-3.27885 135.53642,-14.45892z"/>
    <path id="svg_36" fill="#849443" d="m434.32629,233.46081c9.64461,10.15643 11.41999,17.00203 5.31014,20.55278c-4.06257,2.03129 -9.88453,2.03129 -17.49786,0l-10.66825,-3.80666c-6.09386,9.64461 -16.25029,15.73847 -30.45331,18.28158c-7.10151,1.00765 -18.02567,0.76773 -32.7565,-0.76773c-17.24195,-1.00765 -31.71686,-1.26356 -43.39277,-0.76773c-47.71125,6.60568 -77.41282,9.4047 -89.08872,8.38106c-32.4846,-4.06257 -54.57284,-6.34977 -66.24874,-6.86159c-9.13279,-1.00765 -33.25233,-0.76773 -72.3426,0.76773c-9.13279,0.49583 -12.68355,-2.03129 -10.65226,-7.62932l5.32613,-8.36506c-25.38309,2.52711 -38.06664,2.03129 -38.06664,-1.53546c0,-2.03129 3.55075,-6.58969 10.66825,-13.69119l10.66825,-9.90052l379.19487,5.34212z"/>
    <path id="svg_37" fill="#555E29" d="m49.78929,226.61522c24.87127,4.06257 65.48101,7.61333 121.82923,10.65226c56.86004,3.03893 144.92512,0.76773 264.22724,-6.8456l3.03893,9.13279c-6.60568,6.07787 -19.54514,11.91582 -38.83437,17.51385c-39.07428,12.18772 -90.88009,18.00968 -155.33746,17.51385c-83.25077,-0.49583 -141.63028,-7.35742 -175.13851,-20.55278c-16.2343,-6.09386 -24.35945,-12.42764 -24.35945,-19.03332l4.57439,-8.38106z"/>
    <path id="svg_38" fill="#E09046" d="m247.75179,93.35c73.60616,0 128.94673,15.99438 166.00572,47.96716c30.96513,26.90256 40.33784,51.78982 28.16611,74.6298c-10.15643,18.28158 -28.94984,31.98877 -56.34822,41.12156c-29.94149,10.15643 -72.58252,15.48256 -127.92309,15.97839c-59.89897,0 -105.83484,-4.31848 -137.80762,-12.93946c-34.51588,-9.13279 -58.89132,-24.88726 -73.11033,-47.21542c-16.74612,-24.87127 -5.83795,-50.51027 32.74051,-76.901c41.63338,-28.42202 97.72569,-42.64103 168.27692,-42.64103z"/>
    <path id="svg_39" fill="#42180E" d="m414.50925,302.74849c9.64461,-3.03893 17.00203,-4.8303 22.08825,-5.34212c-25.38309,28.42202 -88.33699,43.40876 -188.8457,44.92823c-48.22307,1.02364 -92.14365,-4.06257 -131.72975,-15.21066c-33.50824,-10.15643 -53.03738,-20.82469 -58.63541,-31.98877l-1.51947,-3.03893l0.76773,-0.75174c5.58204,1.00765 14.45892,4.81431 26.66264,11.41999c15.73847,5.58204 24.35945,8.62097 25.87891,9.13279c24.35945,5.58204 46.7036,8.36506 67.00048,8.36506c16.74612,0 41.88929,0.49583 75.39753,1.53546c29.42967,0.49583 54.31693,-0.76773 74.6138,-3.80666l65.49701,-9.13279c3.53476,-0.52781 11.16408,-2.5591 22.82399,-6.10985z"/>
    <path id="svg_40" fill="#632316" d="m89.37539,299.70956c1.51947,1.00765 3.80666,2.03129 6.8456,3.03893c-1.00765,-3.56675 -0.51182,-6.33378 1.51947,-8.36506s4.57439,-1.53546 7.61333,1.51947l-6.09386,6.86159c3.03893,-0.51182 5.32613,-0.25591 6.86159,0.75174c2.03129,1.53546 2.54311,3.56675 1.51947,6.10985c-6.09386,3.55075 -11.16408,3.29484 -15.22665,-0.76773c-3.24686,-3.66271 -6.15784,-5.694 -8.74893,-6.09386l7.24546,0c-1.53546,-0.52781 -2.04728,-1.53546 -1.53546,-3.05493z"/>
    <path id="svg_41" fill="#C9813F" d="m441.92362,225.07976c0,11.16408 -16.25029,21.83234 -48.73489,31.98877c-37.57081,12.18772 -82.73895,18.28158 -135.55241,18.28158c-60.3948,0.49583 -110.64915,-4.06257 -150.76307,-13.70719c-42.64103,-9.64461 -62.69799,-22.58407 -60.15488,-38.83437c0,-2.03129 -1.77538,-8.12515 -5.32613,-18.28158c-3.03893,-9.13279 -3.29484,-15.22665 -0.76773,-18.28158l21.32051,-28.93384c-3.55075,10.66825 -6.09386,21.57643 -7.61333,32.74051c-3.03893,22.32816 0.76773,35.77944 11.41999,40.35383c9.13279,4.04658 22.58407,6.8456 40.35383,8.36506c22.32816,1.51947 36.03535,2.79902 41.10557,3.79067c43.15285,9.13279 84.0185,13.70719 122.61295,13.70719c13.69119,0 29.94149,-2.79902 48.7189,-8.36506c10.17243,-3.03893 24.88726,-7.86924 44.17649,-14.45892c11.16408,-2.54311 21.32051,-6.34977 30.45331,-11.43599c11.65991,-6.58969 18.5215,-10.39635 20.56878,-11.41999c3.55075,-1.51947 9.37271,-5.32613 17.49786,-11.41999c7.62932,-6.09386 12.42764,-10.41234 14.47492,-12.95545c1.02364,3.59874 -0.22392,16.5222 -3.79067,38.86635z"/>
    <path id="svg_42" fill="#9C6431" d="m441.92362,225.84749c-1.00765,10.65226 -17.76976,21.32051 -50.25436,31.97278c-37.57081,11.6759 -82.25912,17.52985 -134.03294,17.52985c-53.80511,0.49583 -100.2528,-3.03893 -139.34308,-10.66825c-40.60974,-8.12515 -64.21745,-19.03332 -70.80714,-32.74051c14.21901,8.62097 36.30725,15.99438 66.24874,22.08825c36.03535,7.10151 76.38918,10.65226 121.0615,10.65226c102.556,0 171.58776,-12.95545 207.12728,-38.83437z"/>
    <path id="svg_43" fill="#784C25" d="m441.15589,226.61522c5.58204,10.15643 -10.90817,20.80869 -49.48663,31.97278c-40.62574,11.6759 -85.28206,17.25794 -134.03294,16.76212c-61.93026,-1.00765 -112.18461,-5.83795 -150.76307,-14.45892c-42.64103,-9.66061 -62.69799,-22.34416 -60.15488,-38.08263l10.66825,14.45892c12.18772,10.66825 29.44566,18.28158 51.77382,22.85598c26.90256,5.07022 61.17852,8.36506 102.79591,9.90052c40.62574,1.00765 71.31896,0.25591 92.12766,-2.30319c44.1605,-5.58204 78.94828,-12.68355 104.31538,-21.32051c9.13279,-3.03893 16.50621,-6.33378 22.08825,-9.90052c0.52781,-0.49583 4.07857,-3.79067 10.66825,-9.88453z"/>
   </g>
   <use id="svg_44" xlink:href="#d" opacity="0.6016" enable-background="new" height="19" width="27.629" y="-24.38473" x="0.021" transform="matrix(15.2283, 0, 0, -15.2283, 29.4924, 11.35)"/>
   <path id="svg_45" fill-rule="evenodd" fill="#FFC3A3" clip-rule="evenodd" d="m318.55893,133.70384c2.54311,-3.03893 6.60568,-2.2872 12.20372,2.2872c5.58204,4.57439 6.58969,8.38106 3.02294,11.41999c-4.06257,3.05493 -8.87688,2.79902 -14.45892,-0.75174c-5.07022,-3.56675 -5.32613,-7.86924 -0.76773,-12.95545z"/>
   <path id="svg_46" fill-rule="evenodd" fill="#FFC3A3" clip-rule="evenodd" d="m306.4032,171.01874c4.5584,-2.03129 8.62097,-1.26356 12.17173,2.2872c3.56675,4.06257 3.56675,7.62932 0,10.66825c-3.02294,2.52711 -6.58969,1.51947 -10.65226,-3.03893c-4.07857,-5.08621 -4.59039,-8.38106 -1.51947,-9.91652z"/>
   <path id="svg_47" fill-rule="evenodd" fill="#FFC3A3" clip-rule="evenodd" d="m120.59643,171.01874c-4.06257,-7.61333 1.00765,-13.70719 15.22665,-18.28158c13.70719,-4.06257 22.32816,-1.77538 25.89491,6.86159c4.06257,8.62097 -1.00765,14.45892 -15.22665,17.51385s-22.85598,1.00765 -25.89491,-6.09386z"/>
   <path id="svg_48" fill-rule="evenodd" fill="#FFC3A3" clip-rule="evenodd" d="m202.07183,198.43311c5.07022,-1.53546 8.36506,1.26356 9.90052,8.36506c2.03129,6.60568 -1.00765,10.15643 -9.13279,10.66825c-8.63697,0.49583 -12.93946,-2.03129 -12.93946,-7.62932c0.49583,-5.56605 4.54241,-9.37271 12.17173,-11.404z"/>
   <path id="svg_49" fill-rule="evenodd" fill="#FFC3A3" clip-rule="evenodd" d="m263.74618,133.70384c4.57439,-3.55075 9.4047,-3.55075 14.47492,0s4.8303,8.12515 -0.76773,13.70719c-6.09386,5.58204 -11.41999,6.09386 -15.99438,1.51947c-4.5584,-5.07022 -3.80666,-10.14044 2.2872,-15.22665z"/>
   <path id="svg_50" fill-rule="evenodd" fill="#FFC3A3" clip-rule="evenodd" d="m174.65745,118.47718c5.58204,5.58204 4.81431,10.15643 -2.2872,13.70719c-7.10151,3.05493 -12.93946,2.79902 -17.51385,-0.75174c-4.5584,-3.55075 -3.80666,-8.12515 2.2872,-13.70719c5.58204,-5.08621 11.41999,-4.8303 17.51385,0.75174z"/>
   <path id="svg_51" fill-rule="evenodd" fill="#FFC3A3" clip-rule="evenodd" d="m386.34313,147.41102c5.08621,-2.03129 9.4047,-1.51947 12.95545,1.51947c3.56675,3.55075 3.80666,7.1175 0.76773,10.66825c-3.56675,4.06257 -8.12515,3.55075 -13.70719,-1.53546c-6.10985,-5.07022 -6.10985,-8.62097 -0.01599,-10.65226z"/>
   <path id="svg_52" fill-rule="evenodd" fill="#FFC3A3" clip-rule="evenodd" d="m93.93379,147.41102c4.06257,1.02364 5.08621,3.80666 3.05493,8.38106s-4.57439,5.83795 -7.61333,3.80666c-3.05493,-1.53546 -4.06257,-4.31848 -3.05493,-8.38106c0.51182,-4.06257 3.05493,-5.32613 7.61333,-3.80666z"/>
  </g>
 </g>
</svg>