<?xml version="1.0" encoding="UTF-8"?>
<svg viewBox="0 0 200 210" xmlns="http://www.w3.org/2000/svg" xmlns:xlink="http://www.w3.org/1999/xlink">
 <defs>
  <filter id="k">
   <feGaussianBlur stdDeviation="1.86537"/>
  </filter>
  <filter id="i">
   <feGaussianBlur stdDeviation="2.3403"/>
  </filter>
  <filter id="n" x="-.16959" y="-.22445" width="1.3392" height="1.4489">
   <feGaussianBlur stdDeviation="4.59762"/>
  </filter>
  <filter id="m" x="-.10053" y="-.11667" width="1.2011" height="1.2333">
   <feGaussianBlur stdDeviation="2.74961"/>
  </filter>
  <filter id="l" x="-.38796" y="-.07098" width="1.7759" height="1.142">
   <feGaussianBlur stdDeviation=".70145"/>
  </filter>
  <filter id="j" x="-.07215" y="-.14339" width="1.1443" height="1.2868">
   <feGaussianBlur stdDeviation="2.27537"/>
  </filter>
  <linearGradient id="d">
   <stop stop-color="#fff" offset="0"/>
   <stop stop-color="#fff" stop-opacity="0" offset="1"/>
  </linearGradient>
  <linearGradient id="h" x1="135.52" x2="150.82" y1="335.33" y2="141.84" gradientUnits="userSpaceOnUse">
   <stop stop-color="#d7970b" offset="0"/>
   <stop stop-color="#b06e00" offset=".31511"/>
   <stop stop-color="#ffd634" offset="1"/>
  </linearGradient>
  <linearGradient id="c" x1="240.87" x2="280.51" y1="374.49" y2="264.21" gradientUnits="userSpaceOnUse">
   <stop stop-color="#d7970b" offset="0"/>
   <stop stop-color="#b06e00" offset=".47034"/>
   <stop stop-color="#ffd634" offset="1"/>
  </linearGradient>
  <linearGradient id="b" x1="383.2" x2="256.66" y1="297.18" y2="228.29" gradientUnits="userSpaceOnUse">
   <stop stop-color="#edd074" offset="0"/>
   <stop stop-color="#f0db8c" offset="1"/>
  </linearGradient>
  <radialGradient id="g" cx="68.951" cy="55.398" r="43.567" gradientTransform="matrix(1 0 0 .81746 5.7408 172.77)" gradientUnits="userSpaceOnUse">
   <stop stop-color="#c17f05" offset="0"/>
   <stop stop-color="#c17f05" stop-opacity="0" offset="1"/>
  </radialGradient>
  <radialGradient id="a" cx="290.78" cy="235.92" r="45.688" gradientTransform="matrix(1 0 0 .93126 0 16.439)" gradientUnits="userSpaceOnUse">
   <stop stop-color="#f9f6d4" offset="0"/>
   <stop stop-color="#f9f6d4" stop-opacity="0" offset="1"/>
  </radialGradient>
  <radialGradient id="f" cx="136.02" cy="157.83" r="32.821" gradientTransform="matrix(1 0 0 .86172 2.9158 30.902)" gradientUnits="userSpaceOnUse" xlink:href="#d"/>
  <radialGradient id="e" cx="124.37" cy="90.987" r="43.303" gradientTransform="matrix(1.7621 0 0 1.5126 -94.778 -38.204)" gradientUnits="userSpaceOnUse" xlink:href="#d"/>
 </defs>
 <path d="m104.14 8.7112c-3.0067-0.01115-5.9902 0.11856-8.9688 0.40625-12.397 1.1974-25.096 3.3422-36.375 8.625-10.109 4.7347-19.693 11.47-26.781 20.094-6.069 7.3832-7.182 17.861-12.438 25.844-2.6727 4.0597-7.6108 6.5486-9.5625 11-1.1597 2.645-1.7604 5.8163-0.96875 8.5938 0.77824 2.7305 2.9926 4.9654 5.25 6.6875 2.6138 1.9939 6.9873 1.3198 9.0938 3.8438 1.8841 2.2575 0.87719 5.8824 1.9375 8.625 0.92721 2.3983 2.3431 4.5774 3.8125 6.6875 4.3987 6.3169 9.0365 12.635 14.844 17.688 6.8099 5.9248 14.414 11.405 22.938 14.375 12.123 4.2245 25.453 4.7702 38.281 4.2812 13.626-0.51936 27.808-1.9386 40.188-7.6562 9.4734-4.3754 17.188-12.058 24.406-19.594 4.655-4.8602 10.272-9.7688 11.969-16.281 0.64819-2.4883-0.18643-5.2068-0.96875-7.6562-0.59071-1.8495-2.1283-3.3163-2.9375-5.0625 0.31914 6e-3 0.64609-0.0175 1.0312-0.125 2.2609-0.631 3.1886-5.5246 3.75-7.9688s1.8109-3.9912 0.8125-4.9062-1.9953 0.72836-3.2188 0.1875c-0.63673-0.28148-1.4117-1.2653-2.0312-2.1562 0.0838-0.66019 0.13477-1.3118 0.1875-1.9688 0.25647-3.195 1.4996-6.4015 0.96875-9.5625-0.75622-4.5034-3.545-8.4387-5.75-12.438-3.3959-6.1587-6.6679-12.579-11.469-17.719-5.4429-5.8266-12.073-10.622-19.125-14.344-7.448-3.9308-15.658-6.5853-23.938-8.125-4.9033-0.91181-9.9264-1.3564-14.938-1.375z" filter="url(#i)" opacity=".5"/>
 <g transform="translate(-8.9321 -118.12)">
  <path d="m186.81 188.08-1.6914 15.392s1.122 1.6607 3.3828 1.0297 3.1745-5.5204 3.7359-7.9645 1.8293-3.99 0.83086-4.9051-1.9902 0.71-3.2137 0.16914-3.0445-3.7211-3.0445-3.7211z" fill="#b69220"/>
  <path d="m18.658 198.69c-0.79163-2.7775-0.20288-5.9662 0.9568-8.6112 1.9517-4.4514 6.8953-6.9436 9.568-11.003 5.2555-7.9827 6.3695-18.451 12.438-25.834 7.0883-8.6233 16.682-15.358 26.791-20.093 11.279-5.2828 23.961-7.4138 36.359-8.6112 7.9428-0.76718 16.075-0.50209 23.92 0.9568 8.2797 1.5397 16.472 4.202 23.92 8.1328 7.0515 3.7216 13.693 8.5254 19.136 14.352 4.8009 5.1393 8.0858 11.542 11.482 17.701 2.205 3.9988 4.9846 7.9351 5.7408 12.438 0.5308 3.161-0.70033 6.3731-0.9568 9.568-0.42184 5.2552-2.0904 10.638-0.95681 15.787 0.50625 2.2994 2.6325 3.9764 3.3488 6.2192 0.78232 2.4494 1.605 5.1661 0.95681 7.6544-1.6965 6.5125-7.305 11.406-11.96 16.266-7.218 7.536-14.925 15.239-24.399 19.614-12.38 5.7176-26.56 7.1351-40.186 7.6544-12.829 0.48896-26.149-0.0811-38.272-4.3056-8.5238-2.9703-16.153-8.4273-22.963-14.352-5.8073-5.0524-10.432-11.384-14.83-17.701-1.4694-2.1101-2.9-4.2993-3.8272-6.6976-1.0603-2.7426-0.02953-6.3537-1.9136-8.6112-2.1065-2.524-6.4758-1.8333-9.0896-3.8272-2.2574-1.722-4.4842-3.9671-5.2624-6.6976z" fill="url(#h)"/>
  <path d="m82.869 195.26c-7.66-2.7281-16.228-1.5774-24.356-1.3531-4.0828 0.11263-9.0411-1.2624-12.178 1.3531-3.6168 3.0156-4.5353 8.8464-4.0594 13.531 0.67308 6.6255 4.9895 12.665 9.4719 17.591 6.5676 7.2164 14.61 16.697 24.356 16.238 9.2881-0.43833 14.745-11.363 21.65-17.591 3.3158-2.9904 9.4719-5.0068 9.4719-9.4719s-6.0773-6.5712-9.4719-9.4719c-4.664-3.9854-9.1052-8.7667-14.884-10.825z" fill="url(#g)" filter="url(#n)"/>
  <path d="m158.53 152.64c-7.3497-4.2186-14.839-8.5527-23.003-10.825-6.3342-1.763-13.701-4.8925-19.62-2.0297-5.2942 2.5606-8.4317 9.0962-9.4719 14.884-1.1423 6.3561 0.91777 13.302 4.0594 18.944 3.9572 7.107 10.359 13.19 17.591 16.914 6.5277 3.3617 14.533 5.8651 21.65 4.0594 4.5064-1.1434 7.3725-5.6816 10.825-8.7953 3.5526-3.204 8.511-5.6534 10.148-10.148 1.782-4.8921 1.2683-11.062-1.3531-15.561-2.2047-3.7833-7.0273-5.2624-10.825-7.4422z" fill="url(#f)" filter="url(#m)"/>
  <path d="m29.21 180.72s-1.159 2.4722-2.8125 4.125c-2.545 2.5439-5.7547 5.0574-5.625 7 0.14947 2.2395 0.0064 6.3486 0.8125 8.9375s7.5625 5.6562 7.5625 5.6562l2.9375 1.6562s-0.76564-6.0344-1.5625-8.5938-1.6135-5.674-1.75-7.7188c-0.11667-1.748 0.238-4.4758 0.625-6.75s0.78125-4.0938 0.78125-4.0938z" fill="#b87905" filter="url(#l)" opacity=".8796"/>
 </g>
 <g transform="translate(-157.57 -111.21)">
  <path d="m346.31 276.46s-6.0808 9.6082-9.8102 13.87c-4.4642 5.1009-9.1941 10.179-14.899 13.84-5.2337 3.3581-11.138 5.9214-17.238 7.1336-8.7372 1.7365-18.014 1.8648-26.724 0-9.4266-2.018-18.683-6.0429-26.386-11.84-6.1371-4.6188-11.04-10.941-14.884-17.591-3.6598-6.3302-6.3494-13.405-7.4422-20.635-1.0965-7.2548 0.25499-14.691 1.0148-21.988 0.50875-4.8861 0.93703-9.8466 2.368-14.546 1.7343-5.6958 3.7575-11.561 7.4422-16.238 1.2425-1.577 4.7359-3.7211 4.7359-3.7211z" fill="url(#c)"/>
  <path d="m251.16 197.65c-4.6475 3.1919-9.3716 6.9514-11.96 11.96-3.4905 6.7541-4.8172 14.947-3.8272 22.485 1.0964 8.3484 5.9407 15.9 10.525 22.963 5.7824 8.909 12.455 17.679 21.05 23.92 8.1498 5.9179 17.966 9.5588 27.747 11.96 10.405 2.5544 21.97 6.0136 32.053 2.392 9.9778-3.5837 18.473-12.403 22.963-22.007 2.9789-6.3708 2.6556-14.124 1.4352-21.05-2.1185-12.023-7.2184-23.943-14.83-33.488-8.8095-11.046-20.829-20.156-33.967-25.355-9.2517-3.6613-19.827-4.8642-29.661-3.3488-7.7612 1.196-15.055 5.1223-21.528 9.568z" fill="#d7a916"/>
  <path transform="translate(354.31 178.29)" d="m-74.812 10.281c-2.4781 0.04243-4.9168 0.251-7.3438 0.625-7.5749 1.1673-14.765 5.0264-21.188 9.4375-4.6141 3.1689-9.2382 6.8877-11.719 11.688-3.4068 6.5921-4.7183 14.627-3.75 22 1.0647 8.1071 5.8549 15.565 10.438 22.625 5.76 8.8746 12.348 17.541 20.812 23.688 8.0285 5.8298 17.75 9.4578 27.469 11.844 10.435 2.5617 21.848 5.9377 31.594 2.4375 9.7186-3.4906 18.125-12.202 22.531-21.625 2.8638-6.1247 2.5818-13.713 1.375-20.562-2.0959-11.895-7.1696-23.698-14.688-33.125-8.7214-10.936-20.63-19.951-33.625-25.094-6.8356-2.7052-14.457-4.065-21.906-3.9375z" fill="#f9f6d4"/>
  <path d="m247.62 220.07-1.0148-6.0891 5.7508-7.4422 6.0891-5.7508 5.0742 5.0742-1.6914-6.7656 4.3977-2.7063 8.1188-1.3531 5.4125-0.67657 5.0742 0.33829 2.368 6.7656 2.7063-6.7656 9.4719 2.368 8.7125 2.9785 6.6976 4.0664 5.5016 4.5448-0.4784 3.588-2.1528 2.1528 5.7408-0.2392h3.588l2.8704 3.588 3.8272 5.0232 4.784 8.1328 3.3488 8.372 0.2392 3.3488-5.98 0.7176-4.3056-0.2392 8.1328 3.1096 2.1528 1.9136 1.4352 2.6312 1.196 5.98-0.71761 5.7408-2.1528 6.6976-3.8272 3.8272-3.3488 1.9136-3.8272-1.6744-1.196-1.4352 1.196 5.0232-2.392 2.6312-5.7408 3.8272-5.0232 1.9136h-6.9368l-7.8936-0.4784-2.8704-1.6744v-5.2624l-1.9136 5.2624-6.2192-0.7176-5.0232-0.9568-4.784-2.6312-5.2624-2.1528-6.6976-4.3056-5.0232-5.7408-2.1528-3.8272 1.196-3.3488 1.9136-1.6744-3.8272 1.6744-3.8272-0.2392-5.5016-6.6976-3.1096-4.3056-2.1528-6.2192-2.1528-5.5016v-5.2624l1.196-6.6976h2.8704l2.1528-0.7176-4.3056-1.196z" fill="url(#b)"/>
  <path d="m286.81 196.59-0.96875 0.1875 6.1562 35.281-0.21875-0.0312-0.53125 0.4375-28.156-28.531-0.71875 0.71875 28.094 28.469-0.65625 0.5625c-7.3617-2.2094-0.88005-1.5353-40.5-10.531l-0.21875 1c34.283 7.7843 33.917 8.2642 37.969 9.6875l-0.53125 0.0312 1.5 2.5312 1.875 0.53125-0.34375 1.5 0.15625 0.125-27.5 20.969 0.59375 0.78125 27.719-21.125 0.5625 0.4375 1.3438 1.5312 0.28125-0.0312 6.75 40.562 0.96875-0.15625-6.75-40.594 1.625-0.28125 0.0937-0.0625 36.25 34.906 0.6875-0.71875-36.062-34.719 0.71875-0.4375 0.6875-1.6875 1.5-0.0625 41.094 7.375 0.1875-0.96875-41.875-7.5312-1.0625-0.5-1.875-1.875 0.375-1.1562 26.969-21.062-0.625-0.78125-26.719 20.875-0.6875-0.90625-1.6875 1-0.1875-0.0312-6.2812-35.719z" fill="url(#a)"/>
  <path d="m346.31 276.46s-6.0808 9.6082-9.8102 13.87c-4.4642 5.1009-9.1941 10.179-14.899 13.84-5.2337 3.3581-11.138 5.9214-17.238 7.1336-8.7372 1.7365-18.014 1.8648-26.724 0-9.4266-2.018-18.683-6.0429-26.386-11.84-6.1371-4.6188-11.04-10.941-14.884-17.591-3.6598-6.3302-6.3494-13.405-7.4422-20.635-1.0965-7.2548 0.25499-14.691 1.0148-21.988 0.50875-4.8861 0.93703-9.8466 2.368-14.546 1.7343-5.6958 3.7575-11.561 7.4422-16.238 1.2425-1.577 4.7359-3.7211 4.7359-3.7211z" fill="url(#c)"/>
  <path d="m251.16 197.65c-4.6475 3.1919-9.3716 6.9514-11.96 11.96-3.4905 6.7541-4.8172 14.947-3.8272 22.485 1.0964 8.3484 5.9407 15.9 10.525 22.963 5.7824 8.909 12.455 17.679 21.05 23.92 8.1498 5.9179 17.966 9.5588 27.747 11.96 10.405 2.5544 21.97 6.0136 32.053 2.392 9.9778-3.5837 18.473-12.403 22.963-22.007 2.9789-6.3708 2.6556-14.124 1.4352-21.05-2.1185-12.023-7.2184-23.943-14.83-33.488-8.8095-11.046-20.829-20.156-33.967-25.355-9.2517-3.6613-19.827-4.8642-29.661-3.3488-7.7612 1.196-15.055 5.1223-21.528 9.568z" fill="#d7a916"/>
  <path transform="translate(354.31 178.29)" d="m-74.812 10.281c-2.4781 0.04243-4.9168 0.251-7.3438 0.625-7.5749 1.1673-14.765 5.0264-21.188 9.4375-4.6141 3.1689-9.2382 6.8877-11.719 11.688-3.4068 6.5921-4.7183 14.627-3.75 22 1.0647 8.1071 5.8549 15.565 10.438 22.625 5.76 8.8746 12.348 17.541 20.812 23.688 8.0285 5.8298 17.75 9.4578 27.469 11.844 10.435 2.5617 21.848 5.9377 31.594 2.4375 9.7186-3.4906 18.125-12.202 22.531-21.625 2.8638-6.1247 2.5818-13.713 1.375-20.562-2.0959-11.895-7.1696-23.698-14.688-33.125-8.7214-10.936-20.63-19.951-33.625-25.094-6.8356-2.7052-14.457-4.065-21.906-3.9375z" fill="#f9f6d4"/>
  <path d="m247.62 220.07-1.0148-6.0891 5.7508-7.4422 6.0891-5.7508 5.0742 5.0742-1.6914-6.7656 4.3977-2.7063 8.1188-1.3531 5.4125-0.67657 5.0742 0.33829 2.368 6.7656 2.7063-6.7656 9.4719 2.368 8.7125 2.9785 6.6976 4.0664 5.5016 4.5448-0.4784 3.588-2.1528 2.1528 5.7408-0.2392h3.588l2.8704 3.588 3.8272 5.0232 4.784 8.1328 3.3488 8.372 0.2392 3.3488-5.98 0.7176-4.3056-0.2392 8.1328 3.1096 2.1528 1.9136 1.4352 2.6312 1.196 5.98-0.71761 5.7408-2.1528 6.6976-3.8272 3.8272-3.3488 1.9136-3.8272-1.6744-1.196-1.4352 1.196 5.0232-2.392 2.6312-5.7408 3.8272-5.0232 1.9136h-6.9368l-7.8936-0.4784-2.8704-1.6744v-5.2624l-1.9136 5.2624-6.2192-0.7176-5.0232-0.9568-4.784-2.6312-5.2624-2.1528-6.6976-4.3056-5.0232-5.7408-2.1528-3.8272 1.196-3.3488 1.9136-1.6744-3.8272 1.6744-3.8272-0.2392-5.5016-6.6976-3.1096-4.3056-2.1528-6.2192-2.1528-5.5016v-5.2624l1.196-6.6976h2.8704l2.1528-0.7176-4.3056-1.196z" fill="url(#b)"/>
  <path d="m286.81 196.59-0.96875 0.1875 6.1562 35.281-0.21875-0.0312-0.53125 0.4375-28.156-28.531-0.71875 0.71875 28.094 28.469-0.65625 0.5625c-7.3617-2.2094-0.88005-1.5353-40.5-10.531l-0.21875 1c34.283 7.7843 33.917 8.2642 37.969 9.6875l-0.53125 0.0312 1.5 2.5312 1.875 0.53125-0.34375 1.5 0.15625 0.125-27.5 20.969 0.59375 0.78125 27.719-21.125 0.5625 0.4375 1.3438 1.5312 0.28125-0.0312 6.75 40.562 0.96875-0.15625-6.75-40.594 1.625-0.28125 0.0937-0.0625 36.25 34.906 0.6875-0.71875-36.062-34.719 0.71875-0.4375 0.6875-1.6875 1.5-0.0625 41.094 7.375 0.1875-0.96875-41.875-7.5312-1.0625-0.5-1.875-1.875 0.375-1.1562 26.969-21.062-0.625-0.78125-26.719 20.875-0.6875-0.90625-1.6875 1-0.1875-0.0312-6.2812-35.719z" fill="url(#a)"/>
  <path d="m278.17 188.44c-2.5189 0.0431-5.0103 0.24615-7.4688 0.625-7.7612 1.196-15.058 5.148-21.531 9.5938-4.2037 2.8871-8.4643 6.2423-11.156 10.562-0.0768 0.0855-0.18479 0.16723-0.25 0.25-3.6847 4.6768-5.7032 10.523-7.4375 16.219-1.4309 4.6995-1.8662 9.6764-2.375 14.562-0.75986 7.2978-2.1278 14.714-1.0312 21.969 1.0928 7.23 3.8089 14.326 7.4688 20.656 3.8445 6.6496 8.7379 12.975 14.875 17.594 7.7025 5.7969 16.948 9.7945 26.375 11.812 8.7107 1.8648 17.982 1.7365 26.719 0 6.0991-1.2122 12.016-3.7669 17.25-7.125 5.7051-3.6606 10.442-8.7429 14.906-13.844 1.7618-2.013 4.0152-5.2084 5.9375-8.0312 2.9605-3.3337 5.4333-7.0834 7.25-10.969 2.9789-6.3708 2.6579-14.105 1.4375-21.031-2.1185-12.023-7.2004-23.955-14.812-33.5-8.8095-11.046-20.831-20.145-33.969-25.344-6.9388-2.746-14.631-4.1294-22.188-4z" filter="url(#k)" opacity=".5"/>
  <path d="m346.31 276.46s-6.0808 9.6082-9.8102 13.87c-4.4642 5.1009-9.1941 10.179-14.899 13.84-5.2337 3.3581-11.138 5.9214-17.238 7.1336-8.7372 1.7365-18.014 1.8648-26.724 0-9.4266-2.018-18.683-6.0429-26.386-11.84-6.1371-4.6188-11.04-10.941-14.884-17.591-3.6598-6.3302-6.3494-13.405-7.4422-20.635-1.0965-7.2548 0.25499-14.691 1.0148-21.988 0.50875-4.8861 0.93703-9.8466 2.368-14.546 1.7343-5.6958 3.7575-11.561 7.4422-16.238 1.2425-1.577 4.7359-3.7211 4.7359-3.7211z" fill="url(#c)"/>
  <path d="m251.16 197.65c-4.6475 3.1919-9.3716 6.9514-11.96 11.96-3.4905 6.7541-4.8172 14.947-3.8272 22.485 1.0964 8.3484 5.9407 15.9 10.525 22.963 5.7824 8.909 12.455 17.679 21.05 23.92 8.1498 5.9179 17.966 9.5588 27.747 11.96 10.405 2.5544 21.97 6.0136 32.053 2.392 9.9778-3.5837 18.473-12.403 22.963-22.007 2.9789-6.3708 2.6556-14.124 1.4352-21.05-2.1185-12.023-7.2184-23.943-14.83-33.488-8.8095-11.046-20.829-20.156-33.967-25.355-9.2517-3.6613-19.827-4.8642-29.661-3.3488-7.7612 1.196-15.055 5.1223-21.528 9.568z" fill="#d7a916"/>
  <path transform="translate(354.31 178.29)" d="m-74.812 10.281c-2.4781 0.04243-4.9168 0.251-7.3438 0.625-7.5749 1.1673-14.765 5.0264-21.188 9.4375-4.6141 3.1689-9.2382 6.8877-11.719 11.688-3.4068 6.5921-4.7183 14.627-3.75 22 1.0647 8.1071 5.8549 15.565 10.438 22.625 5.76 8.8746 12.348 17.541 20.812 23.688 8.0285 5.8298 17.75 9.4578 27.469 11.844 10.435 2.5617 21.848 5.9377 31.594 2.4375 9.7186-3.4906 18.125-12.202 22.531-21.625 2.8638-6.1247 2.5818-13.713 1.375-20.562-2.0959-11.895-7.1696-23.698-14.688-33.125-8.7214-10.936-20.63-19.951-33.625-25.094-6.8356-2.7052-14.457-4.065-21.906-3.9375z" fill="#f9f6d4"/>
  <path d="m247.62 220.07-1.0148-6.0891 5.7508-7.4422 6.0891-5.7508 5.0742 5.0742-1.6914-6.7656 4.3977-2.7063 8.1188-1.3531 5.4125-0.67657 5.0742 0.33829 2.368 6.7656 2.7063-6.7656 9.4719 2.368 8.7125 2.9785 6.6976 4.0664 5.5016 4.5448-0.4784 3.588-2.1528 2.1528 5.7408-0.2392h3.588l2.8704 3.588 3.8272 5.0232 4.784 8.1328 3.3488 8.372 0.2392 3.3488-5.98 0.7176-4.3056-0.2392 8.1328 3.1096 2.1528 1.9136 1.4352 2.6312 1.196 5.98-0.71761 5.7408-2.1528 6.6976-3.8272 3.8272-3.3488 1.9136-3.8272-1.6744-1.196-1.4352 1.196 5.0232-2.392 2.6312-5.7408 3.8272-5.0232 1.9136h-6.9368l-7.8936-0.4784-2.8704-1.6744v-5.2624l-1.9136 5.2624-6.2192-0.7176-5.0232-0.9568-4.784-2.6312-5.2624-2.1528-6.6976-4.3056-5.0232-5.7408-2.1528-3.8272 1.196-3.3488 1.9136-1.6744-3.8272 1.6744-3.8272-0.2392-5.5016-6.6976-3.1096-4.3056-2.1528-6.2192-2.1528-5.5016v-5.2624l1.196-6.6976h2.8704l2.1528-0.7176-4.3056-1.196z" fill="url(#b)"/>
  <path d="m286.81 196.59-0.96875 0.1875 6.1562 35.281-0.21875-0.0312-0.53125 0.4375-28.156-28.531-0.71875 0.71875 28.094 28.469-0.65625 0.5625c-7.3617-2.2094-0.88005-1.5353-40.5-10.531l-0.21875 1c34.283 7.7843 33.917 8.2642 37.969 9.6875l-0.53125 0.0312 1.5 2.5312 1.875 0.53125-0.34375 1.5 0.15625 0.125-27.5 20.969 0.59375 0.78125 27.719-21.125 0.5625 0.4375 1.3438 1.5312 0.28125-0.0312 6.75 40.562 0.96875-0.15625-6.75-40.594 1.625-0.28125 0.0937-0.0625 36.25 34.906 0.6875-0.71875-36.062-34.719 0.71875-0.4375 0.6875-1.6875 1.5-0.0625 41.094 7.375 0.1875-0.96875-41.875-7.5312-1.0625-0.5-1.875-1.875 0.375-1.1562 26.969-21.062-0.625-0.78125-26.719 20.875-0.6875-0.90625-1.6875 1-0.1875-0.0312-6.2812-35.719z" fill="url(#a)"/>
 </g>
 <path d="m169.34 122.52c-5.5251 4.5596-12.227-7.6568-18.944-10.148-6.8228-2.5311-14.07-5.4509-21.312-4.7359-4.1701 0.41172-7.9647 2.827-11.502 5.0742-3.9126 2.4859-7.0631 6.0084-10.487 9.1336-2.6506 2.4196-4.4429 8.7615-7.7805 7.4422-7.6666-3.0305-4.5916-17.113-1.3531-24.695 2.042-4.7801 7.1614-7.8832 11.84-10.148 4.757-2.3033 10.277-2.9157 15.561-3.0445 6.2652-0.15281 12.675 0.68123 18.605 2.7062 4.7783 1.6315 9.329 4.192 13.193 7.4422 3.6793 3.0949 6.8568 6.9287 9.1336 11.163 1.6214 3.0157 5.6853 7.6308 3.0445 9.8102z" fill="url(#e)" filter="url(#j)" opacity=".52849"/>
</svg>
