<?xml version="1.0" encoding="UTF-8"?>
<!DOCTYPE svg PUBLIC "-//W3C//DTD SVG 1.1//EN" "http://www.w3.org/Graphics/SVG/1.1/DTD/svg11.dtd">
<!-- Creator: CorelDRAW -->
<svg xmlns="http://www.w3.org/2000/svg" xml:space="preserve" width="1181px" height="1353px" version="1.1" style="shape-rendering:geometricPrecision; text-rendering:geometricPrecision; image-rendering:optimizeQuality; fill-rule:evenodd; clip-rule:evenodd"
viewBox="0 0 1170.89 1341.71"
 xmlns:xlink="http://www.w3.org/1999/xlink"
 xmlns:xodm="http://www.corel.com/coreldraw/odm/2003">
 <defs>
  <style type="text/css">
   <![CDATA[
    .fil1 {fill:#0A5077}
    .fil0 {fill:#F9B300}
   ]]>
  </style>
 </defs>
 <g id="Слой_x0020_1">
  <metadata id="CorelCorpID_0Corel-Layer"/>
  <g id="_1984119988144">
   <path class="fil0" d="M23.26 598.63c-106.04,364.04 162.45,743.08 561.98,743.08 405.68,0 666.87,-388.09 562.68,-740.75 -180.24,-552.84 -928.98,-593.03 -1124.66,-2.33z"/>
   <path class="fil1" d="M191.56 333.15c-13.39,199.51 200.04,171.73 195.82,41.57 3.64,-102.14 89.3,-183.91 197.93,-184.11 106.51,-0.19 194.02,83.91 197.76,184.11 0.17,54.86 -19.23,99.93 -49.2,130.6 -77.19,78.99 -161.6,46.42 -224.03,153.52 -29.43,50.48 -26.78,132.29 -14.14,188.3 5.78,25.64 35.45,54.8 86.49,56.09 38.62,0.97 67.44,-11.61 89.34,-47.71 17.25,-31.82 12.88,-71.58 13.05,-106.86 358.96,-91.89 410.79,-568.14 55.63,-718.54 -96.86,-41.02 -209.87,-38.89 -308.12,-1.22 -47.48,18.21 -103.68,56.28 -137.29,91.11l-21.14 24.28c-40.93,49.93 -79.75,125.15 -82.1,188.86z"/>
   <ellipse class="fil1" cx="582.61" cy="1095.03" rx="100.08" ry="96.46"/>
  </g>
 </g>
</svg>
